<svg width="240" height="100" viewBox="0 0 240 100" fill="none" xmlns="http://www.w3.org/2000/svg">
<rect opacity="0.4" width="240" height="100" rx="4" fill="#98CCB0"/>
<path d="M92.0249 62.3724C90.7147 61.6587 90 60.5882 90 59.5176C90 58.447 90 58.0902 90 58.0902L115.014 43.5782C117.753 42.0319 122.042 42.0319 124.781 43.5782L149.557 58.0902C149.557 58.0902 149.557 58.447 149.557 59.3986C149.557 60.4692 148.961 61.5398 147.532 62.2535L124.662 75.457C122.042 77.0033 117.634 77.0033 114.895 75.457L92.0249 62.3724Z" fill="url(#paint0_linear)"/>
<path d="M92.0248 60.9452C89.4043 59.3988 89.4043 56.9009 92.0248 55.3545L115.014 42.151C117.753 40.6046 122.042 40.6046 124.781 42.151L147.532 55.2355C150.152 56.7819 150.152 59.2799 147.532 60.8262L124.662 74.0298C122.042 75.5761 117.634 75.5761 114.895 74.0298L92.0248 60.9452Z" fill="#FCFEE5"/>
<path d="M100.125 59.3987V34.1812H139.432V59.3987L130.022 64.8704C123.709 68.5579 115.848 68.5579 109.535 64.8704L100.125 59.3987Z" fill="url(#paint1_linear)"/>
<path d="M139.432 54.6411L130.022 60.1129C123.709 63.8003 115.848 63.8003 109.535 60.1129L100.125 54.6411" stroke="url(#paint2_linear)" stroke-miterlimit="10" stroke-linecap="round"/>
<path d="M139.432 51.3105L130.022 56.7823C123.709 60.4698 115.848 60.4698 109.535 56.7823L100.125 51.3105" stroke="url(#paint3_linear)" stroke-miterlimit="10" stroke-linecap="round"/>
<path d="M139.432 48.0986L130.022 53.5704C123.709 57.2578 115.848 57.2578 109.535 53.5704L100.125 48.0986" stroke="url(#paint4_linear)" stroke-miterlimit="10" stroke-linecap="round"/>
<path d="M139.432 44.7681L130.022 50.2398C123.709 53.9273 115.848 53.9273 109.535 50.2398L100.125 44.7681" stroke="url(#paint5_linear)" stroke-miterlimit="10" stroke-linecap="round"/>
<path d="M139.432 41.4375L130.022 46.9092C123.709 50.5967 115.848 50.5967 109.535 46.9092L100.125 41.4375" stroke="url(#paint6_linear)" stroke-miterlimit="10" stroke-linecap="round"/>
<path d="M139.432 38.1069L130.022 43.5787C123.709 47.2661 115.848 47.2661 109.535 43.5787L100.125 38.1069" stroke="url(#paint7_linear)" stroke-miterlimit="10" stroke-linecap="round"/>
<path d="M119.779 41.9135C116.324 41.9135 112.751 40.9618 109.773 39.1776L101.078 34.1816L119.898 23.4761L138.599 34.1816L129.903 39.1776C126.687 41.0808 123.233 41.9135 119.779 41.9135Z" fill="#FCFEE5"/>
<path d="M119.898 24.0706L137.646 34.3003L129.546 38.9394C126.568 40.6047 123.233 41.5563 119.779 41.5563C116.324 41.5563 112.989 40.6047 110.011 38.9394L101.911 34.3003L119.898 24.0706ZM119.898 23L100.125 34.3003L109.535 39.772C112.751 41.5563 116.205 42.5079 119.779 42.5079C123.352 42.5079 126.806 41.5563 130.022 39.772L139.432 34.3003L119.898 23Z" fill="#F79A8B"/>
<path d="M111.441 35.9655V33.9434H127.997V35.9655L126.568 36.7982C122.28 39.2962 117.039 39.2962 112.751 36.7982L111.441 35.9655Z" fill="url(#paint8_linear)"/>
<path d="M111.441 33.9436L119.779 29.1855L127.997 33.9436L126.568 34.7763C122.28 37.2742 117.039 37.2742 112.751 34.7763L111.441 33.9436Z" fill="#FCFEE5"/>
<defs>
<linearGradient id="paint0_linear" x1="89.9956" y1="59.5745" x2="149.552" y2="59.5745" gradientUnits="userSpaceOnUse">
<stop offset="0.4719" stop-color="#F79A8B"/>
<stop offset="0.5034" stop-color="#E98A91"/>
<stop offset="0.5493" stop-color="#DB7A97"/>
<stop offset="0.5842" stop-color="#D67499"/>
</linearGradient>
<linearGradient id="paint1_linear" x1="100.142" y1="50.9172" x2="139.406" y2="50.9172" gradientUnits="userSpaceOnUse">
<stop offset="0.4692" stop-color="#FCD8B6"/>
<stop offset="0.5097" stop-color="#F5C5B0"/>
<stop offset="0.6412" stop-color="#DF8BA0"/>
<stop offset="0.7043" stop-color="#D67499"/>
</linearGradient>
<linearGradient id="paint2_linear" x1="99.5466" y1="58.7675" x2="140.002" y2="58.7675" gradientUnits="userSpaceOnUse">
<stop stop-color="#F79A8B"/>
<stop offset="0.4699" stop-color="#F79A8B"/>
<stop offset="0.8418" stop-color="#B24761"/>
</linearGradient>
<linearGradient id="paint3_linear" x1="99.5466" y1="55.4447" x2="140.002" y2="55.4447" gradientUnits="userSpaceOnUse">
<stop stop-color="#F79A8B"/>
<stop offset="0.4699" stop-color="#F79A8B"/>
<stop offset="0.8418" stop-color="#B24761"/>
</linearGradient>
<linearGradient id="paint4_linear" x1="99.5466" y1="52.1214" x2="140.002" y2="52.1214" gradientUnits="userSpaceOnUse">
<stop stop-color="#F79A8B"/>
<stop offset="0.4699" stop-color="#F79A8B"/>
<stop offset="0.8418" stop-color="#B24761"/>
</linearGradient>
<linearGradient id="paint5_linear" x1="99.5466" y1="48.7986" x2="140.002" y2="48.7986" gradientUnits="userSpaceOnUse">
<stop stop-color="#F79A8B"/>
<stop offset="0.4699" stop-color="#F79A8B"/>
<stop offset="0.8418" stop-color="#B24761"/>
</linearGradient>
<linearGradient id="paint6_linear" x1="99.5466" y1="45.4757" x2="140.002" y2="45.4757" gradientUnits="userSpaceOnUse">
<stop stop-color="#F79A8B"/>
<stop offset="0.4699" stop-color="#F79A8B"/>
<stop offset="0.8418" stop-color="#B24761"/>
</linearGradient>
<linearGradient id="paint7_linear" x1="99.5466" y1="42.1528" x2="140.002" y2="42.1528" gradientUnits="userSpaceOnUse">
<stop stop-color="#F79A8B"/>
<stop offset="0.4699" stop-color="#F79A8B"/>
<stop offset="0.8418" stop-color="#B24761"/>
</linearGradient>
<linearGradient id="paint8_linear" x1="111.47" y1="36.3333" x2="128.078" y2="36.3333" gradientUnits="userSpaceOnUse">
<stop offset="0.4692" stop-color="#FCD8B6"/>
<stop offset="0.5097" stop-color="#F5C5B0"/>
<stop offset="0.6412" stop-color="#DF8BA0"/>
<stop offset="0.7043" stop-color="#D67499"/>
</linearGradient>
</defs>
</svg>
