<svg width="240" height="100" viewBox="0 0 240 100" fill="none" xmlns="http://www.w3.org/2000/svg">
<rect opacity="0.1" width="240" height="100" rx="4" fill="#F58F7F"/>
<path d="M93.2861 68.6719C91.823 67.85 91 66.6629 91 65.5671C91 64.4713 91 63.9234 91 63.9234L119.073 47.6689C122.09 45.9339 127.028 45.9339 129.954 47.6689L157.661 63.9234C157.661 63.9234 157.661 64.38 157.661 65.4758C157.661 66.6629 156.93 67.85 155.375 68.6719L129.863 83.5565C126.845 85.2916 121.907 85.2916 118.981 83.5565L93.2861 68.6719Z" fill="url(#paint0_linear)"/>
<path d="M93.2859 67.5762C90.2683 65.8411 90.2683 63.0103 93.2859 61.2753L119.073 46.4819C122.09 44.7469 127.028 44.7469 129.954 46.4819L155.467 61.184C158.484 62.919 158.484 65.7498 155.467 67.4848L129.771 82.2782C126.754 84.0132 121.816 84.0132 118.89 82.2782L93.2859 67.5762Z" fill="#FCFEE5"/>
<path d="M103.985 66.1153L124.102 54.6094L139.099 63.2845L119.073 74.7904L103.985 66.1153Z" fill="#FCE0D1"/>
<path d="M104.716 31.5064L124.102 20.457L138.367 28.6756L119.073 39.8163L104.716 31.5064Z" fill="#FCFEE5"/>
<path d="M124.102 20.8219L137.636 28.6751L118.981 39.4506L105.356 31.506L124.102 20.8219ZM124.102 20L103.985 31.506L118.981 40.1811L139.007 28.5838L124.102 20Z" fill="#F79A8B"/>
<path d="M119.073 40.181L104.076 31.5972V66.2064L119.073 74.7902V40.181Z" fill="#FCD8B6"/>
<path d="M119.073 74.7904L139.007 63.2845V28.6753L119.073 40.1813V74.7904Z" fill="#D67499"/>
<path d="M140.013 37.0762L134.892 34.1541C134.344 33.8801 133.612 33.8801 132.789 34.428C130.96 35.5238 129.497 38.172 129.497 40.4549V62.4624C129.497 64.7453 130.96 65.7498 132.789 64.654C134.618 63.5582 136.081 60.91 136.081 58.6271V39.1765L140.013 37.0762Z" fill="url(#paint1_linear)"/>
<path d="M134.435 42.9207L129.497 39.9985V68.7634L134.435 71.5943V42.9207Z" fill="#FCD8B6"/>
<path d="M137.727 37.2586C135.898 38.3544 134.435 41.0026 134.435 43.2855V49.9517V56.7092V71.5938L141.019 67.7585V52.8738V46.1164V39.4502C141.019 37.1673 139.556 36.1628 137.727 37.2586Z" fill="#D67499"/>
<path d="M132.149 41.7335L127.028 38.8113C126.48 38.5373 125.748 38.5373 124.925 39.0852C123.096 40.1811 121.633 42.8292 121.633 45.1122V67.1196C121.633 69.4025 123.096 70.407 124.925 69.3112C126.754 68.2154 128.217 65.5672 128.217 63.2843V43.8337L132.149 41.7335Z" fill="url(#paint2_linear)"/>
<path d="M126.571 47.5779L121.542 44.6558V73.4206L126.571 76.2515V47.5779Z" fill="#FCD8B6"/>
<path d="M129.863 41.9158C128.034 43.0116 126.571 45.6598 126.571 47.9428V54.6089V61.3664V76.2511L133.155 72.4158V57.5311V50.7736V44.1074C133.064 41.8245 131.6 40.82 129.863 41.9158Z" fill="#D67499"/>
<path d="M129.954 45.0207C129.406 45.2947 129.04 46.1165 129.04 46.847V49.7692V56.8919V71.3201L130.869 70.2242V55.7961V48.6734V45.7513C130.869 45.0207 130.503 44.7468 129.954 45.0207Z" fill="#B24761"/>
<path d="M138.093 40.0896C137.544 40.3635 137.178 41.1854 137.178 41.9159V44.8381V51.9608V66.3889L139.007 65.2931V50.865V43.7423V40.8201C139.007 40.1809 138.641 39.8156 138.093 40.0896Z" fill="#B24761"/>
<path d="M109.471 66.9369L107.825 65.9325V36.0718L109.471 37.0763V66.9369Z" fill="#F79A8B"/>
<path d="M112.123 68.3979L110.477 67.4847V37.624L112.123 38.6285V68.3979Z" fill="#F79A8B"/>
<path d="M114.866 69.9507L113.129 68.9462V39.1768L114.866 40.1813V69.9507Z" fill="#F79A8B"/>
<defs>
<linearGradient id="paint0_linear" x1="91.0441" y1="65.6149" x2="157.797" y2="65.6149" gradientUnits="userSpaceOnUse">
<stop offset="0.4719" stop-color="#F79A8B"/>
<stop offset="0.5034" stop-color="#E98A91"/>
<stop offset="0.5493" stop-color="#DB7A97"/>
<stop offset="0.5842" stop-color="#D67499"/>
</linearGradient>
<linearGradient id="paint1_linear" x1="133.153" y1="48.9617" x2="141.064" y2="37.8256" gradientUnits="userSpaceOnUse">
<stop stop-color="#FCD8B6"/>
<stop offset="0.3947" stop-color="#FCD8B6"/>
<stop offset="0.687" stop-color="#FCFEE5"/>
</linearGradient>
<linearGradient id="paint2_linear" x1="125.472" y1="53.3798" x2="133.613" y2="43.1606" gradientUnits="userSpaceOnUse">
<stop stop-color="#FCD8B6"/>
<stop offset="0.3947" stop-color="#FCD8B6"/>
<stop offset="0.687" stop-color="#FCFEE5"/>
<stop offset="0.9949" stop-color="#FCFEE5"/>
</linearGradient>
</defs>
</svg>
