<svg width="240" height="100" viewBox="0 0 240 100" fill="none" xmlns="http://www.w3.org/2000/svg">
<rect opacity="0.1" width="240" height="100" rx="4" fill="#F58F7F"/>
<path d="M106.1 45.9997L101.7 48.5997C99.7999 49.6997 98.5999 49.8997 97.6999 49.7997C96.8999 49.6997 96.1999 49.0997 96.0999 48.1997C96.0999 47.4997 96.3999 46.6997 97.7999 46.1997L99.1999 45.6997L106.1 45.9997Z" fill="url(#paint0_linear)"/>
<path d="M97.0807 49.4916C97.4066 49.4316 97.5897 48.9427 97.4897 48.3995C97.3897 47.8563 97.0444 47.4646 96.7185 47.5246C96.3926 47.5847 96.2095 48.0736 96.3095 48.6168C96.4095 49.16 96.7548 49.5517 97.0807 49.4916Z" fill="#3A9492"/>
<path d="M87.1999 65.9998C86.5999 65.0998 89.3999 61.6998 89.7999 61.1998C93.5999 56.2998 98.4999 53.2998 103.9 50.5998C108.6 48.1998 113.3 45.7998 118.1 43.4998C121.2 41.9998 124.4 40.3998 127.6 38.9998C127.6 38.9998 136.2 36.0998 138.6 35.3998C141.1 34.6998 140 37.6998 140 37.6998C140 37.6998 136.5 45.6998 121.6 53.9998C117.4 56.2998 113 58.5998 108.6 60.6998C104.2 62.7998 99.6999 64.9998 94.9999 66.1998C93.2999 66.5998 88.4999 67.8998 87.1999 65.9998Z" fill="url(#paint1_linear)"/>
<path d="M90.3999 61.8997L90.8999 60.8997C90.4999 60.4997 90.3999 60.1997 90.3999 60.1997L89.5999 61.0997C89.7999 61.3997 90.0999 61.6997 90.3999 61.8997Z" fill="#3A9492"/>
<path d="M90.7999 62.1001C91.2999 62.3001 91.8999 62.5001 92.3999 62.6001L92.7999 61.5001C92.0999 61.5001 91.5999 61.3001 91.2999 61.1001L90.7999 62.1001Z" fill="#3A9492"/>
<path d="M95.8999 61.1001C95.3999 61.3001 94.8999 61.4001 94.4999 61.5001V62.7001C94.6999 62.6001 94.8999 62.5001 95.0999 62.4001L95.9999 61.9001L95.8999 61.1001Z" fill="#3A9492"/>
<path d="M94.0999 61.5C93.7999 61.5 93.4999 61.6 93.1999 61.6L92.7999 62.8C92.9999 62.8 93.1999 62.9 93.3999 62.9C93.5999 62.9 93.8999 62.9 94.0999 62.9V61.5Z" fill="#3A9492"/>
<path d="M133.7 30.1997L133.2 29.4997C133.1 29.2997 132.8 29.1997 132.6 29.1997H131.8C131.5 29.1997 131.2 29.4997 131.2 29.7997L131 34.2997L134 32.3997L133.7 30.1997Z" fill="url(#paint2_linear)"/>
<path d="M109 47.9L96.1999 34.7C95.5999 34.1 94.7999 34 93.9999 34.3L93.5999 34.5C93.2999 34.6 93.0999 35 93.2999 35.3L102 51.4L109 47.9Z" fill="url(#paint3_linear)"/>
<path d="M126.3 41.0999C126 41.2999 125.7 40.8999 125.9 40.5999C128.9 37.1999 131.7 33.4999 134.1 29.5999C135 28.0999 135.9 26.6999 136.7 25.0999C137.1 24.2999 137.5 23.4999 137.9 22.6999C138.4 21.6999 138.9 20.8999 139.9 20.3999C141.4 19.6999 141.8 19.9999 141.4 21.4999C141 23.0999 138.5 35.1999 138.5 35.1999L126.3 41.0999Z" fill="url(#paint4_linear)"/>
<path d="M135.6 40.0999L147.4 39.8999C147.9 39.8999 148.4 39.6999 148.9 39.3999L150.2 38.4999L140 35.8999C140 35.8999 134.8 38.4999 135.6 40.0999Z" fill="url(#paint5_linear)"/>
<path d="M109.9 58.4001C109.9 58.4001 117.2 53.6001 119.9 53.6001C120 53.6001 120.1 53.6001 120.1 53.7001L125.2 56.1001C126.5 56.7001 127.9 57.2001 129.4 57.5001L148.5 61.0001C148.5 61.0001 147.2 62.0001 145.4 62.1001L109 60.4001C109 60.4001 108.7 59.3001 109.9 58.4001Z" fill="url(#paint6_linear)"/>
<path d="M126.4 61.1999L122 63.7999C120.1 64.8999 118.9 65.0999 118 64.9999C117.2 64.8999 116.5 64.2999 116.4 63.3999C116.4 62.6999 116.7 61.8999 118.1 61.3999L119.5 60.8999L126.4 61.1999Z" fill="url(#paint7_linear)"/>
<path d="M117.39 64.6879C117.716 64.6279 117.899 64.1389 117.799 63.5958C117.699 63.0526 117.353 62.6609 117.027 62.7209C116.702 62.7809 116.518 63.2699 116.618 63.8131C116.718 64.3563 117.064 64.7479 117.39 64.6879Z" fill="#3A9492"/>
<path d="M87.8999 63.7998C87.3999 64.6998 86.9999 65.5998 87.1999 65.9998C87.6999 66.6998 88.5999 66.9998 89.6999 66.9998C90.5999 64.9998 89.0999 64.1998 87.8999 63.7998Z" fill="#3A9492"/>
<path d="M97.2 60.5999V61.4999C126.7 49.0999 135.5 42.5999 135.5 42.5999V41.3999C122.8 48.9999 99.9 59.3999 97.2 60.5999Z" fill="#3A9492"/>
<defs>
<linearGradient id="paint0_linear" x1="100.251" y1="45.1201" x2="101.947" y2="49.2393" gradientUnits="userSpaceOnUse">
<stop offset="0.2582" stop-color="#B0D1BD"/>
<stop offset="0.3266" stop-color="#9BC5B3"/>
<stop offset="0.4287" stop-color="#83B7A6"/>
<stop offset="0.5227" stop-color="#74AF9F"/>
<stop offset="0.6001" stop-color="#6FAC9C"/>
<stop offset="0.6304" stop-color="#66A89A"/>
<stop offset="0.7344" stop-color="#4E9D96"/>
<stop offset="0.8301" stop-color="#3F9693"/>
<stop offset="0.9088" stop-color="#3A9492"/>
</linearGradient>
<linearGradient id="paint1_linear" x1="110.871" y1="45.832" x2="117.479" y2="57.7535" gradientUnits="userSpaceOnUse">
<stop offset="0.0650913" stop-color="#B0D1BD"/>
<stop offset="0.0861318" stop-color="#B9D6C2"/>
<stop offset="0.1855" stop-color="#DDECD5"/>
<stop offset="0.2661" stop-color="#F4F9E1"/>
<stop offset="0.3173" stop-color="#FCFEE5"/>
<stop offset="0.3872" stop-color="#E7F2DA"/>
<stop offset="0.5316" stop-color="#B1D2BE"/>
<stop offset="0.6905" stop-color="#6FAC9C"/>
<stop offset="0.7209" stop-color="#66A89A"/>
<stop offset="0.8252" stop-color="#4E9D96"/>
<stop offset="0.921" stop-color="#3F9693"/>
<stop offset="1" stop-color="#3A9492"/>
</linearGradient>
<linearGradient id="paint2_linear" x1="130.982" y1="31.7773" x2="133.98" y2="31.7773" gradientUnits="userSpaceOnUse">
<stop stop-color="#B0D1BD"/>
<stop offset="0.0698128" stop-color="#BAD7C2"/>
<stop offset="0.2114" stop-color="#C9E0CA"/>
<stop offset="0.3283" stop-color="#CEE3CD"/>
<stop offset="0.6001" stop-color="#6FAC9C"/>
<stop offset="0.6304" stop-color="#66A89A"/>
<stop offset="0.7344" stop-color="#4E9D96"/>
<stop offset="0.8301" stop-color="#3F9693"/>
<stop offset="0.9088" stop-color="#3A9492"/>
</linearGradient>
<linearGradient id="paint3_linear" x1="97.6365" y1="43.5575" x2="104.108" y2="39.3549" gradientUnits="userSpaceOnUse">
<stop stop-color="#B0D1BD"/>
<stop offset="0.0698128" stop-color="#BAD7C2"/>
<stop offset="0.2114" stop-color="#C9E0CA"/>
<stop offset="0.3283" stop-color="#CEE3CD"/>
<stop offset="0.6001" stop-color="#6FAC9C"/>
<stop offset="0.6304" stop-color="#66A89A"/>
<stop offset="0.7344" stop-color="#4E9D96"/>
<stop offset="0.8301" stop-color="#3F9693"/>
<stop offset="0.9088" stop-color="#3A9492"/>
</linearGradient>
<linearGradient id="paint4_linear" x1="130.124" y1="29.1893" x2="143.425" y2="34.6871" gradientUnits="userSpaceOnUse">
<stop stop-color="#B0D1BD"/>
<stop offset="0.0698128" stop-color="#BAD7C2"/>
<stop offset="0.2114" stop-color="#C9E0CA"/>
<stop offset="0.3283" stop-color="#CEE3CD"/>
<stop offset="0.6001" stop-color="#6FAC9C"/>
<stop offset="0.6304" stop-color="#66A89A"/>
<stop offset="0.7344" stop-color="#4E9D96"/>
<stop offset="0.8301" stop-color="#3F9693"/>
<stop offset="0.9088" stop-color="#3A9492"/>
</linearGradient>
<linearGradient id="paint5_linear" x1="142.663" y1="40.1875" x2="143.106" y2="36.5961" gradientUnits="userSpaceOnUse">
<stop stop-color="#B0D1BD"/>
<stop offset="0.0698128" stop-color="#BAD7C2"/>
<stop offset="0.2114" stop-color="#C9E0CA"/>
<stop offset="0.3283" stop-color="#CEE3CD"/>
<stop offset="0.6001" stop-color="#6FAC9C"/>
<stop offset="0.6304" stop-color="#66A89A"/>
<stop offset="0.7344" stop-color="#4E9D96"/>
<stop offset="0.8301" stop-color="#3F9693"/>
<stop offset="0.9088" stop-color="#3A9492"/>
</linearGradient>
<linearGradient id="paint6_linear" x1="128.71" y1="60.9832" x2="129.149" y2="55.9611" gradientUnits="userSpaceOnUse">
<stop stop-color="#B0D1BD"/>
<stop offset="0.0698128" stop-color="#BAD7C2"/>
<stop offset="0.2114" stop-color="#C9E0CA"/>
<stop offset="0.3283" stop-color="#CEE3CD"/>
<stop offset="0.6001" stop-color="#6FAC9C"/>
<stop offset="0.6304" stop-color="#66A89A"/>
<stop offset="0.7344" stop-color="#4E9D96"/>
<stop offset="0.8301" stop-color="#3F9693"/>
<stop offset="0.9088" stop-color="#3A9492"/>
</linearGradient>
<linearGradient id="paint7_linear" x1="120.53" y1="60.2716" x2="122.226" y2="64.3908" gradientUnits="userSpaceOnUse">
<stop offset="0.2582" stop-color="#B0D1BD"/>
<stop offset="0.3266" stop-color="#9BC5B3"/>
<stop offset="0.4287" stop-color="#83B7A6"/>
<stop offset="0.5227" stop-color="#74AF9F"/>
<stop offset="0.6001" stop-color="#6FAC9C"/>
<stop offset="0.6304" stop-color="#66A89A"/>
<stop offset="0.7344" stop-color="#4E9D96"/>
<stop offset="0.8301" stop-color="#3F9693"/>
<stop offset="0.9088" stop-color="#3A9492"/>
</linearGradient>
</defs>
</svg>
