<svg width="240" height="100" viewBox="0 0 240 100" fill="none" xmlns="http://www.w3.org/2000/svg">
<rect opacity="0.2" width="240" height="100" rx="4" fill="#5E666A"/>
<path d="M90.7882 74.3694C89.5961 73.675 89 72.7821 89 71.8892C89 70.9963 89 71.4923 89 71.4923L111.104 57.8014C113.489 56.462 117.363 56.462 119.698 57.8014L141.554 71.1947C141.554 71.1947 141.554 70.8971 141.554 71.79C141.604 72.7325 141.008 73.6254 139.766 74.3198L119.549 85.977C117.165 87.3659 113.29 87.3163 110.955 85.977L90.7882 74.3694Z" fill="url(#paint0_linear)"/>
<path d="M90.7882 73.7244C88.4039 72.3355 88.4039 70.1529 90.7882 68.7639L111.154 57.1564C113.538 55.817 117.413 55.817 119.748 57.1564L139.865 68.7639C142.249 70.1529 142.249 72.3851 139.865 73.7244L119.648 85.3816C117.264 86.7209 113.389 86.7209 111.055 85.3816L90.7882 73.7244Z" fill="#FCFEE5"/>
<path d="M95.1592 51.2036V72.7322L110.707 81.7107V60.1325L95.1592 51.2036Z" fill="#FCD8B6"/>
<path d="M136.289 39.3481L116.37 41.7788V73.774L124.218 78.2881L136.289 71.3434V39.3481Z" fill="#D67499"/>
<path d="M116.37 41.6299L124.168 46.1439V78.288L116.419 73.7739L116.37 41.6299Z" fill="#FFC28F"/>
<path d="M113.588 39.9435L125.261 33.1973L135.891 39.3483L124.218 46.0449L113.588 39.9435Z" fill="#FCFEE5"/>
<path d="M125.261 33.445L135.544 39.348L124.218 45.8462L113.936 39.9432L125.261 33.445ZM125.261 32.9985L113.191 39.9432L124.218 46.2927L136.289 39.348L125.261 32.9985Z" fill="#F79A8B"/>
<path d="M120.592 54.5273L110.707 60.1823V81.7109L120.542 76.0063L120.592 54.5273Z" fill="#D67499"/>
<path d="M95.5568 51.2041L105.044 45.7476L120.244 54.5276L110.707 59.9346L95.5568 51.2041Z" fill="#FCFEE5"/>
<path d="M105.044 45.9953L119.847 54.5273L110.707 59.7359L95.9043 51.2038L105.044 45.9953ZM105.044 45.5488L95.1592 51.2038L110.707 60.1327L120.592 54.4777L105.044 45.5488Z" fill="#F79A8B"/>
<path d="M114.582 30.7663L103.902 24.6152V50.013L114.582 56.164V30.7663Z" fill="#FCD8B6"/>
<path d="M127.596 18.7124L122.43 21.6391V44.8046L127.596 41.9275V18.7124Z" fill="#D67499"/>
<path d="M117.164 18.7124L122.43 21.6391V47.0369L117.164 44.0606V18.7124Z" fill="#FFC28F"/>
<path d="M114.731 16.9763L119.499 14.248L127.199 18.6629L122.43 21.4408L114.731 16.9763Z" fill="#FCFEE5"/>
<path d="M119.499 14.4464L126.851 18.6629L122.43 21.1927L115.078 16.9267L119.499 14.4464ZM119.499 14L114.333 16.9267L122.43 21.5896L127.596 18.6133L119.499 14Z" fill="#F79A8B"/>
<path d="M104.299 24.6154L114.681 18.7124L120.791 22.2344L114.333 25.9051C114.283 25.9547 114.234 26.0043 114.234 26.0539C114.234 26.1035 114.283 26.2028 114.333 26.2028L118.257 28.435L114.631 30.5184L104.299 24.6154Z" fill="#FCFEE5"/>
<path d="M114.631 18.9108L120.393 22.2343L114.234 25.7563C114.134 25.8059 114.035 25.9547 114.035 26.0539C114.035 26.2027 114.085 26.3019 114.234 26.4012L117.86 28.4846L114.582 30.3696L104.647 24.6154L114.631 18.9108ZM114.631 18.4644L103.902 24.6154L114.582 30.7664L118.605 28.435L114.433 26.0043L121.138 22.1847L114.631 18.4644Z" fill="#F79A8B"/>
<path d="M118.605 28.4849L114.582 30.7667V56.1644L118.555 53.833L118.605 28.4849Z" fill="#D67499"/>
<path d="M114.333 16.9761L122.43 21.6389V30.7167L114.383 26.0538L114.333 16.9761Z" fill="#FCD8B6"/>
<path d="M106.386 48.9715L104.895 48.1283V27.5918L106.386 28.4351V48.9715Z" fill="#F79A8B"/>
<path d="M108.72 50.3107L107.23 49.4178V28.8813L108.72 29.7742V50.3107Z" fill="#F79A8B"/>
<path d="M111.104 51.6503L109.614 50.807V30.2705L111.104 31.1138V51.6503Z" fill="#F79A8B"/>
<path d="M113.439 53.0392L111.998 52.1463V31.6099L113.439 32.5028V53.0392Z" fill="#F79A8B"/>
<path d="M120.94 24.9129L115.674 21.9366V19.4067L120.94 22.3334V24.9129Z" fill="#F79A8B"/>
<path d="M120.94 28.6829L115.674 25.7066V23.1768L120.94 26.1035V28.6829Z" fill="#F79A8B"/>
<path d="M97.3449 56.8589L96.4508 56.3132V54.4282L97.3449 54.9739V56.8589Z" fill="#F79A8B"/>
<path d="M97.3448 60.4306L96.4507 59.885V58L97.3448 58.4961V60.4306Z" fill="#F79A8B"/>
<path d="M97.3448 63.9521L96.4507 63.4561V61.5215L97.3448 62.0671V63.9521Z" fill="#F79A8B"/>
<path d="M97.3448 67.5239L96.4507 66.9783V65.0933L97.3448 65.6389V67.5239Z" fill="#F79A8B"/>
<path d="M97.3448 71.0957L96.4507 70.55V68.665L97.3448 69.2107V71.0957Z" fill="#F79A8B"/>
<path d="M99.3815 58.0493L98.4874 57.5036V55.6187L99.3815 56.1643V58.0493Z" fill="#F79A8B"/>
<path d="M99.3814 61.6211L98.4873 61.0754V59.1904L99.3814 59.7361V61.6211Z" fill="#F79A8B"/>
<path d="M99.3814 65.1924L98.4873 64.6467V62.7617L99.3814 63.3074V65.1924Z" fill="#F79A8B"/>
<path d="M99.3814 68.7145L98.4873 68.2185V66.3335L99.3814 66.8295V68.7145Z" fill="#F79A8B"/>
<path d="M99.3814 72.2861L98.4873 71.7405V69.8555L99.3814 70.4011V72.2861Z" fill="#F79A8B"/>
<path d="M101.418 59.1904L100.524 58.6448V56.7598L101.418 57.3054V59.1904Z" fill="#F79A8B"/>
<path d="M101.418 62.7622L100.524 62.2165V60.3315L101.418 60.8772V62.7622Z" fill="#F79A8B"/>
<path d="M101.418 66.3335L100.524 65.7878V63.9028L101.418 64.3989V66.3335Z" fill="#F79A8B"/>
<path d="M101.418 69.8554L100.524 69.3098V67.4248L101.418 67.9705V69.8554Z" fill="#F79A8B"/>
<path d="M101.418 73.4272L100.524 72.8816V70.9966L101.418 71.5422V73.4272Z" fill="#F79A8B"/>
<path d="M103.455 60.381L102.561 59.885V58L103.455 58.496V60.381Z" fill="#F79A8B"/>
<path d="M103.455 63.9526L102.56 63.407V61.522L103.455 62.0676V63.9526Z" fill="#F79A8B"/>
<path d="M103.455 67.5239L102.56 66.9783V65.0933L103.455 65.6389V67.5239Z" fill="#F79A8B"/>
<path d="M103.455 71.0957L102.56 70.55V68.665L103.455 69.2107V71.0957Z" fill="#F79A8B"/>
<path d="M103.455 74.6179L102.56 74.1218V72.2368L103.455 72.7329V74.6179Z" fill="#F79A8B"/>
<path d="M105.491 61.5713L104.547 61.0256V59.1406L105.491 59.6367V61.5713Z" fill="#F79A8B"/>
<path d="M105.491 65.0932L104.547 64.5972V62.6626L105.491 63.2083V65.0932Z" fill="#F79A8B"/>
<path d="M105.491 68.6645L104.547 68.1189V66.2339L105.491 66.7795V68.6645Z" fill="#F79A8B"/>
<path d="M105.491 72.2363L104.547 71.6906V69.8057L105.491 70.3513V72.2363Z" fill="#F79A8B"/>
<path d="M105.491 75.8081L104.547 75.2624V73.3774L105.491 73.8735V75.8081Z" fill="#F79A8B"/>
<path d="M107.528 62.7617L106.584 62.216V60.3311L107.528 60.8767V62.7617Z" fill="#F79A8B"/>
<path d="M107.528 66.333L106.584 65.7873V63.9023L107.528 64.3984V66.333Z" fill="#F79A8B"/>
<path d="M107.528 69.855L106.584 69.3093V67.4243L107.528 67.97V69.855Z" fill="#F79A8B"/>
<path d="M107.528 73.4267L106.584 72.8811V70.9961L107.528 71.5417V73.4267Z" fill="#F79A8B"/>
<path d="M107.528 76.9985L106.584 76.4528V74.5679L107.528 75.1135V76.9985Z" fill="#F79A8B"/>
<path d="M109.515 63.9028L108.621 63.3572V61.4722L109.515 62.0178V63.9028Z" fill="#F79A8B"/>
<path d="M109.515 67.4245L108.62 66.9284V65.0435L109.515 65.5395V67.4245Z" fill="#F79A8B"/>
<path d="M109.515 70.9966L108.62 70.4509V68.5659L109.515 69.1116V70.9966Z" fill="#F79A8B"/>
<path d="M109.515 74.5678L108.62 74.0222V72.1372L109.515 72.6829V74.5678Z" fill="#F79A8B"/>
<path d="M109.515 78.1396L108.62 77.594V75.709L109.515 76.2546V78.1396Z" fill="#F79A8B"/>
<path d="M118.158 60.3805L119.052 59.8845V57.9995L118.158 58.4956V60.3805Z" fill="#B24761"/>
<path d="M118.158 63.9521L119.052 63.4065V61.5215L118.158 62.0671V63.9521Z" fill="#B24761"/>
<path d="M118.158 67.5239L119.052 66.9783V65.0933L118.158 65.6389V67.5239Z" fill="#B24761"/>
<path d="M118.158 71.0952L119.052 70.5495V68.6646L118.158 69.2102V71.0952Z" fill="#B24761"/>
<path d="M118.158 74.6174L119.052 74.1213V72.2363L118.158 72.7324V74.6174Z" fill="#B24761"/>
<path d="M116.122 61.5713L117.016 61.0256V59.1406L116.122 59.6367V61.5713Z" fill="#B24761"/>
<path d="M116.121 65.0932L117.016 64.5972V62.6626L116.121 63.2083V65.0932Z" fill="#B24761"/>
<path d="M116.121 68.6645L117.016 68.1189V66.2339L116.121 66.7795V68.6645Z" fill="#B24761"/>
<path d="M116.121 72.2363L117.016 71.6907V69.8057L116.121 70.3513V72.2363Z" fill="#B24761"/>
<path d="M116.121 75.8076L117.016 75.2619V73.377L116.121 73.873V75.8076Z" fill="#B24761"/>
<path d="M114.085 62.7617L115.029 62.216V60.3311L114.085 60.8767V62.7617Z" fill="#B24761"/>
<path d="M114.085 66.3335L115.029 65.7878V63.9028L114.085 64.3989V66.3335Z" fill="#B24761"/>
<path d="M114.085 69.8554L115.029 69.3098V67.4248L114.085 67.9705V69.8554Z" fill="#B24761"/>
<path d="M114.085 73.4267L115.029 72.8811V70.9961L114.085 71.5417V73.4267Z" fill="#B24761"/>
<path d="M114.085 76.9985L115.029 76.4529V74.5679L114.085 75.1135V76.9985Z" fill="#B24761"/>
<path d="M112.048 63.9023L112.992 63.3567V61.4717L112.048 62.0173V63.9023Z" fill="#B24761"/>
<path d="M112.048 67.4245L112.992 66.9285V65.0435L112.048 65.5395V67.4245Z" fill="#B24761"/>
<path d="M112.048 70.9961L112.992 70.4504V68.5654L112.048 69.1111V70.9961Z" fill="#B24761"/>
<path d="M112.048 74.5674L112.992 74.0217V72.1367L112.048 72.6824V74.5674Z" fill="#B24761"/>
<path d="M112.048 78.1391L112.992 77.5935V75.7085L112.048 76.2541V78.1391Z" fill="#B24761"/>
<path d="M134.004 44.904L134.898 44.4079V42.5229L134.004 43.019V44.904Z" fill="#B24761"/>
<path d="M134.003 48.4756L134.898 47.9299V46.0449L134.003 46.5906V48.4756Z" fill="#B24761"/>
<path d="M134.003 52.0473L134.898 51.5017V49.6167L134.003 50.1624V52.0473Z" fill="#B24761"/>
<path d="M134.003 55.6186L134.898 55.073V53.188L134.003 53.7336V55.6186Z" fill="#B24761"/>
<path d="M134.003 59.1408L134.898 58.6447V56.7598L134.003 57.2558V59.1408Z" fill="#B24761"/>
<path d="M131.967 46.144L132.861 45.5984V43.7134L131.967 44.259V46.144Z" fill="#B24761"/>
<path d="M131.967 49.7158L132.861 49.1702V47.2852L131.967 47.8308V49.7158Z" fill="#B24761"/>
<path d="M131.967 53.2375L132.861 52.7414V50.8564L131.967 51.3525V53.2375Z" fill="#B24761"/>
<path d="M131.967 56.8091L132.861 56.2634V54.3784L131.967 54.9241V56.8091Z" fill="#B24761"/>
<path d="M131.967 60.3808L132.861 59.8352V57.9502L131.967 58.4959V60.3808Z" fill="#B24761"/>
<path d="M129.93 47.2851L130.825 46.7395V44.8545L129.93 45.4001V47.2851Z" fill="#B24761"/>
<path d="M129.93 50.8569L130.824 50.3113V48.4263L129.93 48.9719V50.8569Z" fill="#B24761"/>
<path d="M129.93 54.3786L130.824 53.8826V51.9976L129.93 52.4936V54.3786Z" fill="#B24761"/>
<path d="M129.93 57.9502L130.824 57.4045V55.5195L129.93 56.0652V57.9502Z" fill="#B24761"/>
<path d="M129.93 61.522L130.824 60.9763V59.0913L129.93 59.637V61.522Z" fill="#B24761"/>
<path d="M127.894 48.4756L128.838 47.9299V46.0449L127.894 46.5906V48.4756Z" fill="#B24761"/>
<path d="M127.894 52.0473L128.838 51.5017V49.6167L127.894 50.1624V52.0473Z" fill="#B24761"/>
<path d="M127.894 55.6186L128.838 55.073V53.188L127.894 53.7336V55.6186Z" fill="#B24761"/>
<path d="M127.894 59.1408L128.838 58.6447V56.7598L127.894 57.2558V59.1408Z" fill="#B24761"/>
<path d="M127.894 62.7124L128.838 62.1667V60.2817L127.894 60.8274V62.7124Z" fill="#B24761"/>
<path d="M125.857 49.6162L126.801 49.0705V47.1855L125.857 47.7312V49.6162Z" fill="#B24761"/>
<path d="M125.857 53.188L126.801 52.6423V50.7573L125.857 51.303V53.188Z" fill="#B24761"/>
<path d="M125.857 56.7593L126.801 56.2136V54.3286L125.857 54.8743V56.7593Z" fill="#B24761"/>
<path d="M125.857 60.2812L126.801 59.7852V57.8506L125.857 58.3962V60.2812Z" fill="#B24761"/>
<path d="M125.857 63.853L126.801 63.3074V61.4224L125.857 61.968V63.853Z" fill="#B24761"/>
<path d="M134.004 62.9599L134.898 62.4143V60.5293L134.004 61.075V62.9599Z" fill="#B24761"/>
<path d="M134.003 66.5317L134.898 65.9861V64.1011L134.003 64.6467V66.5317Z" fill="#B24761"/>
<path d="M134.003 70.103L134.898 69.5574V67.6724L134.003 68.218V70.103Z" fill="#B24761"/>
<path d="M131.967 64.2002L132.861 63.6545V61.7695L131.967 62.3152V64.2002Z" fill="#B24761"/>
<path d="M131.967 67.7219L132.861 67.2258V65.3408L131.967 65.8369V67.7219Z" fill="#B24761"/>
<path d="M131.967 71.2939L132.861 70.7483V68.8633L131.967 69.4089V71.2939Z" fill="#B24761"/>
<path d="M129.93 65.3408L130.825 64.7951V62.9102L129.93 63.4558V65.3408Z" fill="#B24761"/>
<path d="M129.93 68.863L130.824 68.3669V66.4819L129.93 66.978V68.863Z" fill="#B24761"/>
<path d="M129.93 72.4345L130.824 71.8889V70.0039L129.93 70.5496V72.4345Z" fill="#B24761"/>
<path d="M127.894 66.5317L128.838 65.9861V64.1011L127.894 64.6467V66.5317Z" fill="#B24761"/>
<path d="M127.894 70.1035L128.838 69.5578V67.6729L127.894 68.2185V70.1035Z" fill="#B24761"/>
<path d="M127.894 73.6252L128.838 73.1291V71.2441L127.894 71.7402V73.6252Z" fill="#B24761"/>
<path d="M125.857 67.6723L126.801 67.1267V65.2417L125.857 65.7874V67.6723Z" fill="#B24761"/>
<path d="M125.857 71.2441L126.801 70.6985V68.8135L125.857 69.3095V71.2441Z" fill="#B24761"/>
<path d="M125.857 74.7661L126.801 74.27V72.3354L125.857 72.8811V74.7661Z" fill="#B24761"/>
<path d="M107.578 24.963V24.2686H113.439V24.963L110.508 26.6992L107.578 24.963Z" fill="#FCD8B6"/>
<path d="M110.508 25.9551L113.439 24.2686V24.963L110.508 26.6992V25.9551Z" fill="#D67499"/>
<path d="M107.578 24.2684L110.509 22.5322L113.439 24.2684L110.509 25.955L107.578 24.2684Z" fill="#FCFEE5"/>
<path d="M121.834 18.8611V18.5635H124.317V18.8611L123.076 19.6052L121.834 18.8611Z" fill="#FCD8B6"/>
<path d="M123.076 19.3076L124.318 18.5635V18.8611L123.076 19.6052V19.3076Z" fill="#D67499"/>
<path d="M121.834 18.5636L123.076 17.8691L124.317 18.5636L123.076 19.3077L121.834 18.5636Z" fill="#FCFEE5"/>
<path d="M98.4874 51.4022V51.0054H101.617V51.4022L100.077 52.2951L98.4874 51.4022Z" fill="#FCD8B6"/>
<path d="M100.077 51.8983L101.617 51.0054V51.4022L100.077 52.2951V51.8983Z" fill="#D67499"/>
<path d="M98.4875 51.0055L100.077 50.063L101.617 51.0055L100.077 51.8984L98.4875 51.0055Z" fill="#FCFEE5"/>
<path d="M101.369 53.0394V52.6426H104.498V53.0394L102.958 53.9819L101.369 53.0394Z" fill="#FCD8B6"/>
<path d="M102.958 53.5851L104.498 52.6426V53.0394L102.958 53.9819V53.5851Z" fill="#D67499"/>
<path d="M101.369 52.6424L102.958 51.7495L104.498 52.6424L102.958 53.5849L101.369 52.6424Z" fill="#FCFEE5"/>
<path d="M119.549 75.9067V80.1728" stroke="#B24761" stroke-miterlimit="10" stroke-linecap="round"/>
<path d="M119.549 78.784C120.866 78.784 121.933 77.718 121.933 76.403C121.933 75.088 120.866 74.022 119.549 74.022C118.232 74.022 117.165 75.088 117.165 76.403C117.165 77.718 118.232 78.784 119.549 78.784Z" fill="url(#paint1_linear)"/>
<path d="M114.631 78.2881V82.6037" stroke="#B24761" stroke-miterlimit="10" stroke-linecap="round"/>
<path d="M114.631 81.1649C115.948 81.1649 117.015 80.0989 117.015 78.7839C117.015 77.4689 115.948 76.4028 114.631 76.4028C113.314 76.4028 112.247 77.4689 112.247 78.7839C112.247 80.0989 113.314 81.1649 114.631 81.1649Z" fill="url(#paint2_linear)"/>
<defs>
<linearGradient id="paint0_linear" x1="89.0185" y1="71.9446" x2="141.638" y2="71.9446" gradientUnits="userSpaceOnUse">
<stop offset="0.4719" stop-color="#F79A8B"/>
<stop offset="0.5034" stop-color="#E98A91"/>
<stop offset="0.5493" stop-color="#DB7A97"/>
<stop offset="0.5842" stop-color="#D67499"/>
</linearGradient>
<linearGradient id="paint1_linear" x1="117.825" y1="74.6859" x2="121.227" y2="78.0928" gradientUnits="userSpaceOnUse">
<stop offset="0.0891089" stop-color="#CEE3CD"/>
<stop offset="0.2093" stop-color="#B0D2BD"/>
<stop offset="0.3747" stop-color="#8DBDAB"/>
<stop offset="0.5101" stop-color="#77B1A0"/>
<stop offset="0.5977" stop-color="#6FAC9C"/>
<stop offset="0.7432" stop-color="#56A197"/>
<stop offset="0.8969" stop-color="#419793"/>
<stop offset="1" stop-color="#3A9492"/>
</linearGradient>
<linearGradient id="paint2_linear" x1="112.927" y1="77.0963" x2="116.329" y2="80.5032" gradientUnits="userSpaceOnUse">
<stop offset="0.0891089" stop-color="#CEE3CD"/>
<stop offset="0.2093" stop-color="#B0D2BD"/>
<stop offset="0.3747" stop-color="#8DBDAB"/>
<stop offset="0.5101" stop-color="#77B1A0"/>
<stop offset="0.5977" stop-color="#6FAC9C"/>
<stop offset="0.7432" stop-color="#56A197"/>
<stop offset="0.8969" stop-color="#419793"/>
<stop offset="1" stop-color="#3A9492"/>
</linearGradient>
</defs>
</svg>
