<svg width="240" height="100" viewBox="0 0 240 100" fill="none" xmlns="http://www.w3.org/2000/svg">
<rect opacity="0.3" width="240" height="100" rx="4" fill="#D67499"/>
<path d="M96.2318 62.1694C94.7877 61.3827 94 60.2028 94 59.0229C94 57.843 94 57.4496 94 57.4496L121.57 41.455C124.589 39.7507 129.315 39.7507 132.335 41.455L159.642 57.4496C159.642 57.4496 159.642 57.8429 159.642 58.8918C159.642 60.0717 158.985 61.2516 157.41 62.0382L132.203 76.7219C129.315 78.4262 124.458 78.4262 121.438 76.7219L96.2318 62.1694Z" fill="url(#paint0_linear)"/>
<path d="M96.2329 60.7269C93.3447 59.0226 93.3447 56.2694 96.2329 54.5651L121.571 40.0126C124.59 38.3083 129.316 38.3083 132.336 40.0126L157.411 54.434C160.299 56.1383 160.299 58.8915 157.411 60.5958L132.204 75.1483C129.316 76.8526 124.459 76.8526 121.439 75.1483L96.2329 60.7269Z" fill="#FCFEE5"/>
<path d="M126.69 50.2388L102.008 36.0796V57.3184L126.69 71.4776V50.2388Z" fill="#FCD8B6"/>
<path d="M126.69 71.4776L151.24 57.3184V36.0796L126.69 50.2388V71.4776Z" fill="#D67499"/>
<path d="M129.315 57.8428L134.961 54.5652V49.7144L129.315 52.9919V57.8428Z" fill="#B24761"/>
<path d="M129.315 65.9711L134.961 62.6936V57.8428L129.315 61.1203V65.9711Z" fill="#B24761"/>
<path d="M136.404 53.7781L142.05 50.6316V45.7808L136.404 48.9272V53.7781Z" fill="#B24761"/>
<path d="M136.404 61.9068L142.05 58.6292V53.7783L136.404 57.0559V61.9068Z" fill="#B24761"/>
<path d="M143.494 49.7141L149.139 46.5676V41.7168L143.494 44.8633V49.7141Z" fill="#B24761"/>
<path d="M143.494 57.8428L149.139 54.5652V49.7144L143.494 52.9919V57.8428Z" fill="#B24761"/>
<path d="M124.195 57.8428L118.681 54.5652V49.7144L124.195 52.9919V57.8428Z" fill="#F79A8B"/>
<path d="M124.195 65.9711L118.681 62.6936V57.8428L124.195 61.1203V65.9711Z" fill="#F79A8B"/>
<path d="M117.106 53.7781L111.592 50.6316V45.7808L117.106 48.9272V53.7781Z" fill="#F79A8B"/>
<path d="M117.106 61.9068L111.592 58.6292V53.7783L117.106 57.0559V61.9068Z" fill="#F79A8B"/>
<path d="M110.148 49.7141L104.503 46.5676V41.7168L110.148 44.8633V49.7141Z" fill="#F79A8B"/>
<path d="M110.148 57.8428L104.503 54.5652V49.7144L110.148 52.9919V57.8428Z" fill="#F79A8B"/>
<path d="M103.058 36.0798L114.349 29.6558L126.427 36.6043C126.558 36.6043 126.558 36.6043 126.689 36.6043C126.821 36.6043 126.821 36.6043 126.952 36.6043L139.03 29.6558L150.32 36.211L126.689 49.8458L103.058 36.0798Z" fill="#FCFEE5"/>
<path d="M139.03 30.1799L149.27 36.0796L126.69 49.19L104.109 36.2107L114.48 30.311L126.296 37.1284C126.427 37.2595 126.558 37.2595 126.821 37.2595C127.083 37.2595 127.215 37.2595 127.346 37.1284L139.03 30.1799ZM139.03 29L126.69 36.0796L114.48 29L102.14 36.0796L126.69 50.2388L151.24 36.0796L139.03 29Z" fill="#F79A8B"/>
<path d="M119.075 43.1589V41.1924H134.304V43.1589L126.69 47.4854L119.075 43.1589Z" fill="#FCD8B6"/>
<path d="M126.69 45.6499L134.304 41.1924V43.1589L126.69 47.4854V45.6499Z" fill="#D67499"/>
<path d="M119.075 41.1926L126.69 36.8662L134.304 41.1926L126.69 45.6501L119.075 41.1926Z" fill="#FCFEE5"/>
<defs>
<linearGradient id="paint0_linear" x1="93.9803" y1="59.1807" x2="159.622" y2="59.1807" gradientUnits="userSpaceOnUse">
<stop stop-color="#F79A8B"/>
<stop offset="0.2076" stop-color="#F79C8D"/>
<stop offset="0.3092" stop-color="#F8A492"/>
<stop offset="0.3877" stop-color="#F9B19B"/>
<stop offset="0.454" stop-color="#FAC3A8"/>
<stop offset="0.5059" stop-color="#FCD8B6"/>
<stop offset="0.5252" stop-color="#F7CCB2"/>
<stop offset="0.5928" stop-color="#E9A6A7"/>
<stop offset="0.6553" stop-color="#DF8AA0"/>
<stop offset="0.7104" stop-color="#D87A9B"/>
<stop offset="0.7521" stop-color="#D67499"/>
</linearGradient>
</defs>
</svg>
