<svg width="240" height="100" viewBox="0 0 240 100" fill="none" xmlns="http://www.w3.org/2000/svg">
<rect width="240" height="100" rx="4" fill="#FBF3E9"/>
<path d="M108.3 50.0002L103.9 52.6002C102 53.7002 100.8 53.9002 99.8998 53.8002C99.0998 53.7002 98.3998 53.1002 98.2998 52.2002C98.2998 51.5002 98.5998 50.7002 99.9998 50.2002L101.4 49.7002L108.3 50.0002Z" fill="url(#paint0_linear)"/>
<path d="M99.277 53.4848C99.6029 53.4248 99.786 52.9358 99.686 52.3926C99.586 51.8495 99.2407 51.4578 98.9148 51.5178C98.5889 51.5778 98.4058 52.0668 98.5058 52.61C98.6058 53.1531 98.9511 53.5448 99.277 53.4848Z" fill="#3A9492"/>
<path d="M89.3998 70.2C88.7998 69.3 91.5998 65.9 91.9998 65.4C95.7998 60.5 100.7 57.5 106.1 54.8C110.8 52.4 115.5 50 120.3 47.7C123.4 46.2 126.6 44.6 129.8 43.2C129.8 43.2 138.4 40.3 140.8 39.6C143.3 38.9 142.2 41.9 142.2 41.9C142.2 41.9 138.7 49.9 123.8 58.2C119.6 60.5 115.2 62.8 110.8 64.9C106.4 67 101.9 69.2 97.1998 70.4C95.4998 70.8 90.6998 72.1 89.3998 70.2Z" fill="url(#paint1_linear)"/>
<path d="M121.7 59.2002C122.4 58.8002 123.1 58.4002 123.8 58.1002C138.7 49.8002 142.2 41.8002 142.2 41.8002C142.2 41.8002 143.3 38.9002 140.8 39.5002C138.3 40.2002 129.8 43.1002 129.8 43.1002C128.5 43.6002 127.2 44.2002 126 44.8002C127.3 45.2002 131.3 47.3002 121.7 59.2002Z" fill="url(#paint2_linear)"/>
<path d="M92.5998 66.0999L93.0998 65.0999C92.6998 64.6999 92.5998 64.3999 92.5998 64.3999L91.7998 65.2999C91.9998 65.5999 92.2998 65.8999 92.5998 66.0999Z" fill="#3A9492"/>
<path d="M93 66.2999C93.5 66.4999 94.1 66.6999 94.6 66.7999L95 65.7999C94.3 65.7999 93.8 65.5999 93.5 65.3999L93 66.2999Z" fill="#3A9492"/>
<path d="M98.1002 65.2998C97.6002 65.4998 97.1002 65.5998 96.7002 65.6998V66.8998C96.9002 66.7998 97.1002 66.6998 97.3002 66.5998L98.2002 66.0998L98.1002 65.2998Z" fill="#3A9492"/>
<path d="M96.3 65.7002C96 65.7002 95.7 65.8002 95.4 65.8002L95 66.9002C95.2 67.0002 95.4 67.0002 95.6 67.0002C95.8 67.0002 96.1 67.0002 96.3 67.0002V65.7002Z" fill="#3A9492"/>
<path d="M135.9 34.3999L135.4 33.6999C135.3 33.4999 135 33.3999 134.8 33.3999H134C133.7 33.3999 133.4 33.6999 133.4 33.9999L133.2 38.3999L136.2 36.4999L135.9 34.3999Z" fill="url(#paint3_linear)"/>
<path d="M111.2 52.0998L98.2998 38.8998C97.6998 38.2998 96.8998 38.1998 96.0998 38.4998L95.6998 38.6998C95.3998 38.7998 95.1998 39.1998 95.3998 39.4998L104.1 55.5998L111.2 52.0998Z" fill="url(#paint4_linear)"/>
<path d="M128.5 45.3003C128.2 45.5003 127.9 45.1003 128.1 44.8003C131.1 41.4003 133.9 37.7003 136.3 33.8003C137.2 32.3003 138.1 30.9003 138.9 29.3003C139.3 28.5003 139.7 27.7003 140.1 26.9003C140.6 25.9003 141.1 25.1003 142.1 24.6003C143.6 24.0003 144 24.3003 143.6 25.8003C143.2 27.4003 140.7 39.5003 140.7 39.5003L128.5 45.3003Z" fill="url(#paint5_linear)"/>
<path d="M137.7 44.3001L149.5 44.0001C150 44.0001 150.5 43.8001 151 43.5001L152.3 42.6001L142.1 40.1001C142.1 40.1001 136.9 42.7001 137.7 44.3001Z" fill="url(#paint6_linear)"/>
<path d="M112.1 62.5998C112.1 62.5998 119.4 57.7998 122.1 57.7998C122.2 57.7998 122.3 57.7998 122.3 57.8998L127.4 60.2998C128.7 60.8998 130.1 61.3998 131.6 61.6998L150.7 65.1998C150.7 65.1998 149.4 66.1998 147.6 66.2998L111.3 64.5998C111.2 64.5998 110.8 63.4998 112.1 62.5998Z" fill="url(#paint7_linear)"/>
<path d="M128.6 65.4001L124.1 68.0001C122.2 69.1001 121 69.3001 120.1 69.2001C119.3 69.1001 118.6 68.5001 118.5 67.6001C118.5 66.9001 118.8 66.1001 120.2 65.6001L121.6 65.1001L128.6 65.4001Z" fill="url(#paint8_linear)"/>
<path d="M119.589 68.8808C119.914 68.8208 120.098 68.3318 119.998 67.7886C119.898 67.2455 119.552 66.8538 119.226 66.9138C118.9 66.9738 118.717 67.4628 118.817 68.006C118.917 68.5491 119.263 68.9408 119.589 68.8808Z" fill="#3A9492"/>
<path d="M99.2998 64.8001V65.7001C128.8 53.3001 137.6 46.8001 137.6 46.8001V45.6001C125 53.2001 102 63.6001 99.2998 64.8001Z" fill="#3A9492"/>
<defs>
<linearGradient id="paint0_linear" x1="102.41" y1="49.139" x2="104.106" y2="53.2582" gradientUnits="userSpaceOnUse">
<stop stop-color="#6FAC9C"/>
<stop offset="0.0608232" stop-color="#7FB5A4"/>
<stop offset="0.1415" stop-color="#8EBEAC"/>
<stop offset="0.208" stop-color="#93C1AF"/>
<stop offset="0.3179" stop-color="#7EB5A4"/>
<stop offset="0.3859" stop-color="#6FAC9C"/>
<stop offset="0.4184" stop-color="#66A89A"/>
<stop offset="0.5299" stop-color="#4E9D96"/>
<stop offset="0.6324" stop-color="#3F9693"/>
<stop offset="0.7169" stop-color="#3A9492"/>
</linearGradient>
<linearGradient id="paint1_linear" x1="113.03" y1="50.0348" x2="119.638" y2="61.9563" gradientUnits="userSpaceOnUse">
<stop offset="0.0650913" stop-color="#B0D1BD"/>
<stop offset="0.0861318" stop-color="#B9D6C2"/>
<stop offset="0.1855" stop-color="#DDECD5"/>
<stop offset="0.2661" stop-color="#F4F9E1"/>
<stop offset="0.3173" stop-color="#FCFEE5"/>
<stop offset="0.3872" stop-color="#E7F2DA"/>
<stop offset="0.5316" stop-color="#B1D2BE"/>
<stop offset="0.6905" stop-color="#6FAC9C"/>
<stop offset="0.7209" stop-color="#66A89A"/>
<stop offset="0.8252" stop-color="#4E9D96"/>
<stop offset="0.921" stop-color="#3F9693"/>
<stop offset="1" stop-color="#3A9492"/>
</linearGradient>
<linearGradient id="paint2_linear" x1="128.241" y1="42.8699" x2="134.251" y2="53.7138" gradientUnits="userSpaceOnUse">
<stop offset="0.0650913" stop-color="#B0D1BD"/>
<stop offset="0.1676" stop-color="#9BC6B3"/>
<stop offset="0.2374" stop-color="#93C1AF"/>
<stop offset="0.2931" stop-color="#7EB5A4"/>
<stop offset="0.3276" stop-color="#6FAC9C"/>
<stop offset="0.3518" stop-color="#66A89A"/>
<stop offset="0.4349" stop-color="#4E9D96"/>
<stop offset="0.5114" stop-color="#3F9693"/>
<stop offset="0.5744" stop-color="#3A9492"/>
</linearGradient>
<linearGradient id="paint3_linear" x1="133.142" y1="35.9801" x2="136.14" y2="35.9801" gradientUnits="userSpaceOnUse">
<stop offset="0.0650913" stop-color="#B0D1BD"/>
<stop offset="0.1676" stop-color="#9BC6B3"/>
<stop offset="0.2374" stop-color="#93C1AF"/>
<stop offset="0.2931" stop-color="#7EB5A4"/>
<stop offset="0.3276" stop-color="#6FAC9C"/>
<stop offset="0.3518" stop-color="#66A89A"/>
<stop offset="0.4349" stop-color="#4E9D96"/>
<stop offset="0.5114" stop-color="#3F9693"/>
<stop offset="0.5744" stop-color="#3A9492"/>
</linearGradient>
<linearGradient id="paint4_linear" x1="99.7959" y1="47.7599" x2="106.267" y2="43.5573" gradientUnits="userSpaceOnUse">
<stop stop-color="#6FAC9C"/>
<stop offset="0.0608232" stop-color="#7FB5A4"/>
<stop offset="0.1415" stop-color="#8EBEAC"/>
<stop offset="0.208" stop-color="#93C1AF"/>
<stop offset="0.2819" stop-color="#7EB5A4"/>
<stop offset="0.3276" stop-color="#6FAC9C"/>
<stop offset="0.3518" stop-color="#66A89A"/>
<stop offset="0.4349" stop-color="#4E9D96"/>
<stop offset="0.5114" stop-color="#3F9693"/>
<stop offset="0.5744" stop-color="#3A9492"/>
</linearGradient>
<linearGradient id="paint5_linear" x1="132.283" y1="33.3922" x2="145.585" y2="38.8901" gradientUnits="userSpaceOnUse">
<stop offset="0.0650913" stop-color="#B0D1BD"/>
<stop offset="0.1676" stop-color="#9BC6B3"/>
<stop offset="0.2374" stop-color="#93C1AF"/>
<stop offset="0.2931" stop-color="#7EB5A4"/>
<stop offset="0.3276" stop-color="#6FAC9C"/>
<stop offset="0.3518" stop-color="#66A89A"/>
<stop offset="0.4349" stop-color="#4E9D96"/>
<stop offset="0.5114" stop-color="#3F9693"/>
<stop offset="0.5744" stop-color="#3A9492"/>
</linearGradient>
<linearGradient id="paint6_linear" x1="144.822" y1="44.3903" x2="145.266" y2="40.7989" gradientUnits="userSpaceOnUse">
<stop stop-color="#6FAC9C"/>
<stop offset="0.0694112" stop-color="#7FB5A4"/>
<stop offset="0.1614" stop-color="#8EBEAC"/>
<stop offset="0.2374" stop-color="#93C1AF"/>
<stop offset="0.2931" stop-color="#7EB5A4"/>
<stop offset="0.3276" stop-color="#6FAC9C"/>
<stop offset="0.3518" stop-color="#66A89A"/>
<stop offset="0.4349" stop-color="#4E9D96"/>
<stop offset="0.5114" stop-color="#3F9693"/>
<stop offset="0.5744" stop-color="#3A9492"/>
</linearGradient>
<linearGradient id="paint7_linear" x1="130.87" y1="65.1855" x2="131.309" y2="60.1633" gradientUnits="userSpaceOnUse">
<stop stop-color="#6FAC9C"/>
<stop offset="0.0608232" stop-color="#7FB5A4"/>
<stop offset="0.1415" stop-color="#8EBEAC"/>
<stop offset="0.208" stop-color="#93C1AF"/>
<stop offset="0.2819" stop-color="#7EB5A4"/>
<stop offset="0.3276" stop-color="#6FAC9C"/>
<stop offset="0.3518" stop-color="#66A89A"/>
<stop offset="0.4349" stop-color="#4E9D96"/>
<stop offset="0.5114" stop-color="#3F9693"/>
<stop offset="0.5744" stop-color="#3A9492"/>
</linearGradient>
<linearGradient id="paint8_linear" x1="122.689" y1="64.4744" x2="124.385" y2="68.5936" gradientUnits="userSpaceOnUse">
<stop stop-color="#6FAC9C"/>
<stop offset="0.0608232" stop-color="#7FB5A4"/>
<stop offset="0.1415" stop-color="#8EBEAC"/>
<stop offset="0.208" stop-color="#93C1AF"/>
<stop offset="0.3179" stop-color="#7EB5A4"/>
<stop offset="0.3859" stop-color="#6FAC9C"/>
<stop offset="0.4184" stop-color="#66A89A"/>
<stop offset="0.5299" stop-color="#4E9D96"/>
<stop offset="0.6324" stop-color="#3F9693"/>
<stop offset="0.7169" stop-color="#3A9492"/>
</linearGradient>
</defs>
</svg>
