<svg width="240" height="100" viewBox="0 0 240 100" fill="none" xmlns="http://www.w3.org/2000/svg">
<rect opacity="0.3" width="240" height="100" rx="4" fill="#F58F7F"/>
<path d="M107.6 49.5998L103.2 52.1998C101.3 53.2998 100.1 53.4998 99.2001 53.3998C98.4001 53.2998 97.7001 52.6998 97.6001 51.7998C97.6001 51.0998 97.9001 50.2998 99.3001 49.7998L100.7 49.2998L107.6 49.5998Z" fill="url(#paint0_linear)"/>
<path d="M98.5751 52.9941C98.901 52.9341 99.0841 52.4451 98.9841 51.9019C98.8841 51.3588 98.5388 50.9671 98.2129 51.0271C97.887 51.0871 97.7039 51.5761 97.8039 52.1192C97.9039 52.6624 98.2492 53.0541 98.5751 52.9941Z" fill="#B24761"/>
<path d="M88.7001 69.8001C88.1001 68.9001 90.9001 65.5001 91.3001 65.0001C95.1001 60.1001 100 57.1001 105.4 54.4001C110.1 52.0001 114.8 49.6001 119.6 47.3001C122.7 45.8001 125.9 44.2001 129.1 42.8001C129.1 42.8001 137.7 39.9001 140.1 39.2001C142.6 38.5001 141.5 41.5001 141.5 41.5001C141.5 41.5001 138 49.5001 123.1 57.8001C118.9 60.1001 114.5 62.4001 110.1 64.5001C105.7 66.6001 101.2 68.8001 96.5001 70.0001C94.9001 70.4001 90.0001 71.7001 88.7001 69.8001Z" fill="url(#paint1_linear)"/>
<path d="M99.6001 64.1C99.6001 64.1 97.1001 65.3 94.3001 65.4C93.1001 65.4 92.2001 64.7 92.0001 64C90.8001 65.3 88.1001 69 88.7001 69.8C90.0001 71.7 94.8001 70.4 96.6001 69.9C101.3 68.7 105.8 66.4 110.2 64.4C114.6 62.3 119 60.1 123.2 57.7C132.2 52.6 140.8 45 142 40.5C131.4 48.3 105.9 61.1 99.6001 64.1Z" fill="url(#paint2_linear)"/>
<path d="M91.9001 65.7L92.4001 64.7C92.1001 64.4 92.0001 64 92.0001 64L91.2001 64.9C91.3001 65.2 91.6001 65.5 91.9001 65.7Z" fill="#B24761"/>
<path d="M92.3 65.8999C92.8 66.0999 93.4 66.2999 93.9 66.3999L94.3 65.2999C93.6 65.2999 93.1 65.0999 92.8 64.8999L92.3 65.8999Z" fill="#B24761"/>
<path d="M97.4001 64.8999C96.9001 65.0999 96.4001 65.1999 96.0001 65.2999V66.4999C96.2001 66.3999 96.4001 66.2999 96.6001 66.1999L97.5001 65.6999L97.4001 64.8999Z" fill="#B24761"/>
<path d="M95.6 65.2998C95.3 65.2998 95 65.3998 94.7 65.3998L94.3 66.5998C94.5 66.5998 94.7 66.6998 94.9 66.6998C95.1 66.6998 95.4 66.6998 95.6 66.6998V65.2998Z" fill="#B24761"/>
<path d="M135.2 34L134.7 33.3C134.6 33.1 134.3 33 134.1 33H133.3C133 33 132.7 33.3 132.7 33.6L132.5 38L135.5 36.1L135.2 34Z" fill="url(#paint3_linear)"/>
<path d="M110.5 51.6999L97.7001 38.4999C97.1001 37.8999 96.3001 37.7999 95.5001 38.0999L95.1001 38.2999C94.8001 38.3999 94.6001 38.7999 94.8001 39.0999L103.5 55.1999L110.5 51.6999Z" fill="url(#paint4_linear)"/>
<path d="M127.8 44.8999C127.5 45.0999 127.2 44.6999 127.4 44.3999C130.4 40.9999 133.2 37.2999 135.6 33.3999C136.5 31.8999 137.4 30.4999 138.2 28.8999C138.6 28.0999 139 27.2999 139.4 26.4999C139.9 25.4999 140.4 24.6999 141.4 24.1999C143 23.5999 143.3 23.8999 143 25.3999C142.6 26.9999 140.1 39.0999 140.1 39.0999L127.8 44.8999Z" fill="url(#paint5_linear)"/>
<path d="M137.1 43.8997L148.9 43.6997C149.4 43.6997 149.9 43.4997 150.4 43.1997L151.7 42.2997L141.5 39.7997C141.5 39.6997 136.3 42.2997 137.1 43.8997Z" fill="url(#paint6_linear)"/>
<path d="M111.4 62.1999C111.4 62.1999 118.7 57.3999 121.4 57.3999C121.5 57.3999 121.6 57.3999 121.6 57.4999L126.7 59.8999C128 60.4999 129.4 60.9999 130.9 61.2999L150 64.6999C150 64.6999 148.7 65.6999 146.9 65.7999L110.6 64.0999C110.6 64.1999 110.2 63.0999 111.4 62.1999Z" fill="url(#paint7_linear)"/>
<path d="M127.9 64.9997L123.5 67.5997C121.6 68.6997 120.4 68.8997 119.5 68.7997C118.7 68.6997 118 68.0997 117.9 67.1997C117.9 66.4997 118.2 65.6997 119.6 65.1997L121 64.6997L127.9 64.9997Z" fill="url(#paint8_linear)"/>
<path d="M118.891 68.4897C119.217 68.4297 119.4 67.9407 119.3 67.3975C119.2 66.8544 118.854 66.4627 118.528 66.5227C118.203 66.5827 118.019 67.0717 118.119 67.6148C118.219 68.158 118.565 68.5497 118.891 68.4897Z" fill="#B24761"/>
<path d="M98.7002 64.4V65.3C128.9 51.5 135.2 46.2 135.2 46.2V45C122.5 52.6 101.4 63.2 98.7002 64.4Z" fill="#B24761"/>
<defs>
<linearGradient id="paint0_linear" x1="101.762" y1="48.653" x2="103.458" y2="52.7723" gradientUnits="userSpaceOnUse">
<stop stop-color="#D67499"/>
<stop offset="0.2004" stop-color="#FCA4B6"/>
<stop offset="0.3175" stop-color="#EA8DA8"/>
<stop offset="0.4229" stop-color="#D67499"/>
<stop offset="0.7407" stop-color="#B24761"/>
</linearGradient>
<linearGradient id="paint1_linear" x1="112.382" y1="49.6289" x2="118.99" y2="61.5504" gradientUnits="userSpaceOnUse">
<stop offset="0.0482287" stop-color="#FCD8B6"/>
<stop offset="0.266" stop-color="#FCF3DB"/>
<stop offset="0.3259" stop-color="#FCEACF"/>
<stop offset="0.4152" stop-color="#FCD8B6"/>
<stop offset="0.4573" stop-color="#F9CFB3"/>
<stop offset="0.5258" stop-color="#EFB7AC"/>
<stop offset="0.6118" stop-color="#E190A1"/>
<stop offset="0.6647" stop-color="#D67499"/>
<stop offset="0.7692" stop-color="#B24761"/>
</linearGradient>
<linearGradient id="paint2_linear" x1="113.397" y1="51.5717" x2="118.824" y2="61.3621" gradientUnits="userSpaceOnUse">
<stop stop-color="#D67499"/>
<stop offset="0.2004" stop-color="#FCA4B6"/>
<stop offset="0.3387" stop-color="#EA8DA8"/>
<stop offset="0.4632" stop-color="#D67499"/>
<stop offset="0.6477" stop-color="#B24761"/>
</linearGradient>
<linearGradient id="paint3_linear" x1="132.493" y1="35.5742" x2="135.491" y2="35.5742" gradientUnits="userSpaceOnUse">
<stop stop-color="#D67499"/>
<stop offset="0.1486" stop-color="#FCA4B6"/>
<stop offset="0.2331" stop-color="#EA8DA8"/>
<stop offset="0.3093" stop-color="#D67499"/>
<stop offset="0.3249" stop-color="#D37094"/>
<stop offset="0.4168" stop-color="#C45E7E"/>
<stop offset="0.5162" stop-color="#BA516E"/>
<stop offset="0.6278" stop-color="#B44964"/>
<stop offset="0.7766" stop-color="#B24761"/>
</linearGradient>
<linearGradient id="paint4_linear" x1="99.1472" y1="47.3539" x2="105.619" y2="43.1514" gradientUnits="userSpaceOnUse">
<stop stop-color="#D67499"/>
<stop offset="0.1486" stop-color="#FCA4B6"/>
<stop offset="0.2331" stop-color="#EA8DA8"/>
<stop offset="0.3093" stop-color="#D67499"/>
<stop offset="0.3249" stop-color="#D37094"/>
<stop offset="0.4168" stop-color="#C45E7E"/>
<stop offset="0.5162" stop-color="#BA516E"/>
<stop offset="0.6278" stop-color="#B44964"/>
<stop offset="0.7766" stop-color="#B24761"/>
</linearGradient>
<linearGradient id="paint5_linear" x1="133.335" y1="33.382" x2="144.033" y2="39.5584" gradientUnits="userSpaceOnUse">
<stop offset="0.15" stop-color="#FCD8B6"/>
<stop offset="0.2579" stop-color="#FCF3DB"/>
<stop offset="0.321" stop-color="#FCEACF"/>
<stop offset="0.4152" stop-color="#FCD8B6"/>
<stop offset="0.4573" stop-color="#F9CFB3"/>
<stop offset="0.5258" stop-color="#EFB7AC"/>
<stop offset="0.6118" stop-color="#E190A1"/>
<stop offset="0.6647" stop-color="#D67499"/>
<stop offset="0.7692" stop-color="#B24761"/>
</linearGradient>
<linearGradient id="paint6_linear" x1="144.174" y1="43.9839" x2="144.617" y2="40.3925" gradientUnits="userSpaceOnUse">
<stop stop-color="#D67499"/>
<stop offset="0.1486" stop-color="#FCA4B6"/>
<stop offset="0.2331" stop-color="#EA8DA8"/>
<stop offset="0.3093" stop-color="#D67499"/>
<stop offset="0.3249" stop-color="#D37094"/>
<stop offset="0.4168" stop-color="#C45E7E"/>
<stop offset="0.5162" stop-color="#BA516E"/>
<stop offset="0.6278" stop-color="#B44964"/>
<stop offset="0.7766" stop-color="#B24761"/>
</linearGradient>
<linearGradient id="paint7_linear" x1="130.221" y1="64.7796" x2="130.66" y2="59.7574" gradientUnits="userSpaceOnUse">
<stop stop-color="#D67499"/>
<stop offset="0.1486" stop-color="#FCA4B6"/>
<stop offset="0.2331" stop-color="#EA8DA8"/>
<stop offset="0.3093" stop-color="#D67499"/>
<stop offset="0.3249" stop-color="#D37094"/>
<stop offset="0.4168" stop-color="#C45E7E"/>
<stop offset="0.5162" stop-color="#BA516E"/>
<stop offset="0.6278" stop-color="#B44964"/>
<stop offset="0.7766" stop-color="#B24761"/>
</linearGradient>
<linearGradient id="paint8_linear" x1="122.04" y1="64.068" x2="123.736" y2="68.1872" gradientUnits="userSpaceOnUse">
<stop stop-color="#D67499"/>
<stop offset="0.2004" stop-color="#FCA4B6"/>
<stop offset="0.3175" stop-color="#EA8DA8"/>
<stop offset="0.4229" stop-color="#D67499"/>
<stop offset="0.7407" stop-color="#B24761"/>
</linearGradient>
</defs>
</svg>
