<svg width="240" height="100" viewBox="0 0 240 100" fill="none" xmlns="http://www.w3.org/2000/svg">
<rect opacity="0.3" width="240" height="100" rx="4" fill="#D67499"/>
<path d="M107.3 48.4001L102.9 51.0001C101 52.1001 99.8001 52.3001 98.9001 52.2001C98.1001 52.1001 97.4001 51.5001 97.3001 50.6001C97.3001 49.9001 97.6001 49.1001 99.0001 48.6001L100.4 48.1001L107.3 48.4001Z" fill="url(#paint0_linear)"/>
<path d="M98.3884 51.8764C98.7143 51.8164 98.8974 51.3274 98.7974 50.7842C98.6974 50.2411 98.3521 49.8494 98.0262 49.9094C97.7003 49.9694 97.5172 50.4584 97.6172 51.0016C97.7172 51.5447 98.0625 51.9364 98.3884 51.8764Z" fill="#B24761"/>
<path d="M88.4001 68.8001C87.8001 67.9001 90.6001 64.5001 91.0001 64.0001C94.8001 59.1001 99.7001 56.1001 105.1 53.4001C109.8 51.0001 114.5 48.6001 119.3 46.3001C122.4 44.8001 125.6 43.2001 128.8 41.8001C128.8 41.8001 137.4 38.9001 139.8 38.2001C142.3 37.5001 141.2 40.5001 141.2 40.5001C141.2 40.5001 137.7 48.5001 122.8 56.8001C118.6 59.1001 114.2 61.4001 109.8 63.5001C105.4 65.6001 100.9 67.8001 96.2001 69.0001C94.6001 69.4001 89.8001 70.7001 88.4001 68.8001Z" fill="url(#paint1_linear)"/>
<path d="M120.7 57.9004C121.4 57.5004 122.1 57.1004 122.8 56.8004C137.7 48.5004 141.2 40.5004 141.2 40.5004C141.2 40.5004 142.3 37.6004 139.8 38.2004C137.3 38.9004 128.8 41.8004 128.8 41.8004C127.5 42.3004 126.2 42.9004 125 43.5004C126.3 43.8004 130.4 45.9004 120.7 57.9004Z" fill="url(#paint2_linear)"/>
<path d="M91.7001 64.7L92.2001 63.7C91.8001 63.4 91.7001 63 91.7001 63L91.0001 63.9C91.1001 64.3 91.3001 64.5 91.7001 64.7Z" fill="#B24761"/>
<path d="M92.0001 65C92.5001 65.2 93.1001 65.4 93.6001 65.5L94.0001 64.4C93.3001 64.4 92.8001 64.2 92.5001 64L92.0001 65Z" fill="#B24761"/>
<path d="M97.1001 63.9004C96.6001 64.1004 96.1001 64.2004 95.7001 64.3004V65.5004C95.9001 65.4004 96.1001 65.3004 96.3001 65.2004L97.2001 64.7004L97.1001 63.9004Z" fill="#B24761"/>
<path d="M95.3001 64.3003C95.0001 64.3003 94.7001 64.4003 94.4001 64.4003L94.0001 65.6003C94.2001 65.6003 94.4001 65.7003 94.6001 65.7003C94.8001 65.7003 95.1001 65.7003 95.3001 65.7003V64.3003Z" fill="#B24761"/>
<path d="M134.9 33L134.4 32.3C134.3 32.1 134 32 133.8 32H133C132.7 32 132.4 32.3 132.4 32.6L132.2 37L135.2 35.1L134.9 33Z" fill="url(#paint3_linear)"/>
<path d="M110.2 50.7003L97.4001 37.5003C96.8001 36.9003 96.0001 36.8003 95.2001 37.1003L94.8001 37.3003C94.5001 37.4003 94.3001 37.8003 94.5001 38.1003L103.2 54.2003L110.2 50.7003Z" fill="url(#paint4_linear)"/>
<path d="M127.5 43.9002C127.2 44.1002 126.9 43.7002 127.1 43.4002C130.1 40.0002 132.9 36.3002 135.3 32.4002C136.2 30.9002 137.1 29.5002 137.9 27.9002C138.3 27.1002 138.7 26.3002 139.1 25.5002C139.6 24.5002 140.1 23.7002 141.1 23.2002C142.6 22.5002 143 22.8002 142.6 24.3002C142.2 25.8002 139.7 38.0002 139.7 38.0002L127.5 43.9002Z" fill="url(#paint5_linear)"/>
<path d="M136.8 42.9002L148.6 42.7002C149.1 42.7002 149.6 42.5002 150.1 42.2002L151.4 41.3002L141.2 38.8002C141.2 38.7002 136 41.3002 136.8 42.9002Z" fill="url(#paint6_linear)"/>
<path d="M111.1 61.2004C111.1 61.2004 118.4 56.4004 121.1 56.4004C121.2 56.4004 121.3 56.4004 121.3 56.5004L126.4 58.9004C127.7 59.5004 129.1 60.0004 130.6 60.3004L149.7 63.8004C149.7 63.8004 148.4 64.8004 146.6 64.9004L110.3 63.2004C110.3 63.2004 109.9 62.1004 111.1 61.2004Z" fill="url(#paint7_linear)"/>
<path d="M127.6 64.0002L123.2 66.6002C121.3 67.7002 120.1 67.9002 119.2 67.8002C118.4 67.7002 117.7 67.1002 117.6 66.2002C117.6 65.5002 117.9 64.7002 119.3 64.2002L120.7 63.7002L127.6 64.0002Z" fill="url(#paint8_linear)"/>
<path d="M118.588 67.4921C118.914 67.4321 119.097 66.9431 118.997 66.4C118.897 65.8568 118.552 65.4651 118.226 65.5251C117.9 65.5851 117.717 66.0741 117.817 66.6173C117.917 67.1605 118.262 67.5521 118.588 67.4921Z" fill="#B24761"/>
<path d="M98.3999 63.4998V64.3998C127.9 51.9998 136.7 45.4998 136.7 45.4998V44.2998C124 51.7998 101.1 62.1998 98.3999 63.4998Z" fill="#B24761"/>
<defs>
<linearGradient id="paint0_linear" x1="101.471" y1="47.4721" x2="103.167" y2="51.5914" gradientUnits="userSpaceOnUse">
<stop stop-color="#D67499"/>
<stop offset="0.1415" stop-color="#D67499"/>
<stop offset="0.2002" stop-color="#D67499"/>
<stop offset="0.5894" stop-color="#B24761"/>
</linearGradient>
<linearGradient id="paint1_linear" x1="112.09" y1="48.6445" x2="118.699" y2="60.566" gradientUnits="userSpaceOnUse">
<stop offset="0.0482287" stop-color="#FCD8B6"/>
<stop offset="0.266" stop-color="#FCF3DB"/>
<stop offset="0.3259" stop-color="#FCEACF"/>
<stop offset="0.4152" stop-color="#FCD8B6"/>
<stop offset="0.4573" stop-color="#F9CFB3"/>
<stop offset="0.5258" stop-color="#EFB7AC"/>
<stop offset="0.6118" stop-color="#E190A1"/>
<stop offset="0.6647" stop-color="#D67499"/>
<stop offset="0.7692" stop-color="#B24761"/>
</linearGradient>
<linearGradient id="paint2_linear" x1="127.301" y1="41.4797" x2="133.311" y2="52.3236" gradientUnits="userSpaceOnUse">
<stop stop-color="#D67499"/>
<stop offset="0.2004" stop-color="#FCA4B6"/>
<stop offset="0.3175" stop-color="#EA8DA8"/>
<stop offset="0.4229" stop-color="#D67499"/>
<stop offset="0.5894" stop-color="#B24761"/>
</linearGradient>
<linearGradient id="paint3_linear" x1="132.202" y1="34.5898" x2="135.2" y2="34.5898" gradientUnits="userSpaceOnUse">
<stop stop-color="#D67499"/>
<stop offset="0.1486" stop-color="#FCA4B6"/>
<stop offset="0.2331" stop-color="#EA8DA8"/>
<stop offset="0.3093" stop-color="#D67499"/>
<stop offset="0.3249" stop-color="#D37094"/>
<stop offset="0.4168" stop-color="#C45E7E"/>
<stop offset="0.5162" stop-color="#BA516E"/>
<stop offset="0.6278" stop-color="#B44964"/>
<stop offset="0.7766" stop-color="#B24761"/>
</linearGradient>
<linearGradient id="paint4_linear" x1="98.8563" y1="46.37" x2="105.328" y2="42.1674" gradientUnits="userSpaceOnUse">
<stop stop-color="#D67499"/>
<stop offset="0.1486" stop-color="#FCA4B6"/>
<stop offset="0.2331" stop-color="#EA8DA8"/>
<stop offset="0.3093" stop-color="#D67499"/>
<stop offset="0.3249" stop-color="#D37094"/>
<stop offset="0.4168" stop-color="#C45E7E"/>
<stop offset="0.5162" stop-color="#BA516E"/>
<stop offset="0.6278" stop-color="#B44964"/>
<stop offset="0.7766" stop-color="#B24761"/>
</linearGradient>
<linearGradient id="paint5_linear" x1="132.826" y1="32.32" x2="143.877" y2="38.446" gradientUnits="userSpaceOnUse">
<stop stop-color="#D67499"/>
<stop offset="0.1486" stop-color="#FCA4B6"/>
<stop offset="0.2331" stop-color="#EA8DA8"/>
<stop offset="0.3093" stop-color="#D67499"/>
<stop offset="0.3188" stop-color="#D37094"/>
<stop offset="0.3747" stop-color="#C45E7E"/>
<stop offset="0.4352" stop-color="#BA516E"/>
<stop offset="0.5032" stop-color="#B44964"/>
<stop offset="0.5938" stop-color="#B24761"/>
</linearGradient>
<linearGradient id="paint6_linear" x1="143.883" y1="43" x2="144.326" y2="39.4086" gradientUnits="userSpaceOnUse">
<stop stop-color="#D67499"/>
<stop offset="0.1486" stop-color="#FCA4B6"/>
<stop offset="0.2331" stop-color="#EA8DA8"/>
<stop offset="0.3093" stop-color="#D67499"/>
<stop offset="0.3249" stop-color="#D37094"/>
<stop offset="0.4168" stop-color="#C45E7E"/>
<stop offset="0.5162" stop-color="#BA516E"/>
<stop offset="0.6278" stop-color="#B44964"/>
<stop offset="0.7766" stop-color="#B24761"/>
</linearGradient>
<linearGradient id="paint7_linear" x1="129.929" y1="63.7957" x2="130.369" y2="58.7735" gradientUnits="userSpaceOnUse">
<stop stop-color="#D67499"/>
<stop offset="0.1486" stop-color="#FCA4B6"/>
<stop offset="0.2331" stop-color="#EA8DA8"/>
<stop offset="0.3093" stop-color="#D67499"/>
<stop offset="0.3249" stop-color="#D37094"/>
<stop offset="0.4168" stop-color="#C45E7E"/>
<stop offset="0.5162" stop-color="#BA516E"/>
<stop offset="0.6278" stop-color="#B44964"/>
<stop offset="0.7766" stop-color="#B24761"/>
</linearGradient>
<linearGradient id="paint8_linear" x1="121.749" y1="63.0841" x2="123.445" y2="67.2033" gradientUnits="userSpaceOnUse">
<stop stop-color="#D67499"/>
<stop offset="0.1415" stop-color="#D67499"/>
<stop offset="0.2002" stop-color="#D67499"/>
<stop offset="0.5894" stop-color="#B24761"/>
</linearGradient>
</defs>
</svg>
