<svg width="240" height="100" viewBox="0 0 240 100" fill="none" xmlns="http://www.w3.org/2000/svg">
<rect opacity="0.4" width="240" height="100" rx="4" fill="#EFEFEF"/>
<path d="M90.925 71.2667C89.556 70.5832 89.0427 69.5578 89.0427 68.5325C89.0427 67.5072 89.0427 67.1654 89.0427 67.1654L113 53.3234C115.567 51.7854 119.845 51.7854 122.412 53.3234L146.198 67.1654C146.198 67.1654 146.198 67.5072 146.198 68.5325C146.198 69.5578 145.513 70.5832 144.315 71.2667L122.412 83.9125C119.845 85.4505 115.567 85.4505 113 83.9125L90.925 71.2667Z" fill="url(#paint0_linear)"/>
<path d="M90.9251 69.3868C88.3583 67.8488 88.3583 65.4564 90.9251 64.0893L113 51.4435C115.567 49.9055 119.845 49.9055 122.412 51.4435L144.315 64.0893C146.882 65.6273 146.882 68.0197 144.315 69.5577L122.412 82.2035C119.845 83.7415 115.567 83.7415 113 82.2035L90.9251 69.3868Z" fill="#FCFEE5"/>
<path d="M100.679 68.3616C100.165 68.0198 99.9942 67.6781 99.9942 67.3363C99.9942 66.9945 99.9942 31.4497 99.9942 31.4497L117.62 39.6524C118.647 39.1397 135.245 31.4497 135.245 31.4497C135.245 31.4497 135.245 66.9945 135.245 67.5072C135.245 67.849 135.074 68.3616 134.561 68.5325L119.673 77.0769C118.647 77.5896 116.935 77.5896 115.909 77.0769L100.679 68.3616Z" fill="url(#paint1_linear)"/>
<path d="M117.62 40.6776C117.106 40.6776 116.422 40.5068 116.08 40.3359L101.192 31.7914C100.85 31.6205 100.679 31.4496 100.679 31.2788C100.679 31.1079 100.85 30.937 101.192 30.7661L116.251 22.2217C116.593 22.0508 117.278 21.8799 117.791 21.8799C118.304 21.8799 118.989 22.0508 119.331 22.2217L134.219 30.7661C134.561 30.937 134.732 31.1079 134.732 31.2788C134.732 31.4496 134.561 31.6205 134.219 31.7914L119.331 40.3359C118.647 40.6776 118.133 40.6776 117.62 40.6776Z" fill="#FCFEE5"/>
<path d="M117.62 22.5644C118.133 22.5644 118.476 22.7353 118.818 22.9062L133.535 31.4506L118.647 39.995C118.305 40.1659 117.962 40.3368 117.449 40.3368C116.936 40.3368 116.593 40.1659 116.251 39.995L101.363 31.4506L116.251 22.9062C116.765 22.5644 117.107 22.5644 117.62 22.5644ZM117.62 21.1973C116.936 21.1973 116.251 21.3682 115.738 21.7099L100.679 30.2544C99.6523 30.767 99.6523 31.7924 100.679 32.4759L115.567 41.0203C116.08 41.3621 116.765 41.533 117.449 41.533C118.134 41.533 118.818 41.3621 119.331 41.0203L134.219 32.4759C135.246 31.9633 135.246 30.9379 134.219 30.2544L119.331 21.7099C118.989 21.3682 118.305 21.1973 117.62 21.1973Z" fill="#F79A8B"/>
<path d="M106.155 30.9369L117.62 20L128.914 30.9369L117.62 37.6015L106.155 30.9369Z" fill="#D87399"/>
<path d="M102.904 37.2598V39.4813L113.513 45.6333V43.4117L102.904 37.2598Z" fill="#F79A8B"/>
<path d="M102.904 42.0444V44.266L113.513 50.418V48.1964L102.904 42.0444Z" fill="#F79A8B"/>
<path d="M102.904 47.0005V49.222L113.513 55.374V53.1525L102.904 47.0005Z" fill="#F79A8B"/>
<path d="M102.904 51.7852V54.0067L113.513 60.1587V57.9371L102.904 51.7852Z" fill="#F79A8B"/>
<path d="M102.904 56.5703V58.7918L113.513 64.9438V62.8932L102.904 56.5703Z" fill="#F79A8B"/>
<path d="M102.904 61.5259V63.7474L113.513 69.8994V67.6778L102.904 61.5259Z" fill="#F79A8B"/>
<path d="M132.337 37.2598V39.4813L121.556 45.6333V43.4117L132.337 37.2598Z" fill="#B24761"/>
<path d="M132.337 42.0444V44.266L121.556 50.418V48.1964L132.337 42.0444Z" fill="#B24761"/>
<path d="M132.337 47.0005V49.222L121.556 55.374V53.1525L132.337 47.0005Z" fill="#B24761"/>
<path d="M132.337 51.7852V54.0067L121.556 60.1587V57.9371L132.337 51.7852Z" fill="#B24761"/>
<path d="M132.337 56.5703V58.7918L121.556 64.9438V62.8932L132.337 56.5703Z" fill="#B24761"/>
<path d="M132.337 61.5259V63.7474L121.556 69.8994V67.6778L132.337 61.5259Z" fill="#B24761"/>
<path d="M106.155 68.1904V71.4373L109.064 73.1462V69.8993L106.155 68.1904Z" fill="#F79A8B"/>
<path d="M117.62 20V37.6015L106.155 30.9369L117.62 20Z" fill="#FCD8B6"/>
<defs>
<linearGradient id="paint0_linear" x1="88.9752" y1="68.5684" x2="146.114" y2="68.5684" gradientUnits="userSpaceOnUse">
<stop offset="0.4719" stop-color="#F79A8B"/>
<stop offset="0.5034" stop-color="#E98A91"/>
<stop offset="0.5493" stop-color="#DB7A97"/>
<stop offset="0.5842" stop-color="#D67499"/>
</linearGradient>
<linearGradient id="paint1_linear" x1="99.9947" y1="54.3319" x2="135.093" y2="54.3319" gradientUnits="userSpaceOnUse">
<stop stop-color="#FCD8B6"/>
<stop offset="0.4705" stop-color="#FCD8B6"/>
<stop offset="0.4794" stop-color="#FCD8B6"/>
<stop offset="0.4941" stop-color="#F6C9B2"/>
<stop offset="0.5286" stop-color="#EBAAA9"/>
<stop offset="0.5648" stop-color="#E192A2"/>
<stop offset="0.6031" stop-color="#DB819D"/>
<stop offset="0.645" stop-color="#D7779A"/>
<stop offset="0.6968" stop-color="#D67499"/>
</linearGradient>
</defs>
</svg>
