<svg width="562" height="498" viewBox="0 0 562 498" fill="none" xmlns="http://www.w3.org/2000/svg">
<path d="M422.9 184.9L55.2 397.3" stroke="url(#paint0_linear)" stroke-miterlimit="10"/>
<path d="M262.5 416.2L142.6 484.7" stroke="url(#paint1_linear)" stroke-miterlimit="10"/>
<path d="M415.5 58.3L125.9 225.5" stroke="url(#paint2_linear)" stroke-miterlimit="10"/>
<path d="M263.2 265.1V417.8" stroke="#F79A8B" stroke-miterlimit="10"/>
<path d="M382 200.3V352.9" stroke="#F79A8B" stroke-miterlimit="10"/>
<path d="M550.6 247.3L376.2 348" stroke="url(#paint3_linear)" stroke-miterlimit="10"/>
<path d="M21.2 136.9L537.1 434.8" stroke="url(#paint4_linear)" stroke-miterlimit="10"/>
<path d="M121.3 58.3L395.7 216.7" stroke="url(#paint5_linear)" stroke-miterlimit="10"/>
<path d="M146.6 343.3L276.3 417.4" stroke="url(#paint6_linear)" stroke-miterlimit="10"/>
<path d="M106.5 213.3C104.6 212.2 103.6 210.7 103.6 209.3C103.6 207.9 103.6 207.2 103.6 207.2L139.3 186.5C143.1 184.3 149.4 184.3 153.2 186.5L188.5 207.2C188.5 207.2 188.5 207.7 188.5 209.1C188.5 210.6 187.6 212.1 185.6 213.2L152.9 232.1C149.1 234.3 142.8 234.3 139 232.1L106.5 213.3Z" fill="url(#paint7_linear)"/>
<path d="M106.5 211.6C102.7 209.4 102.7 205.8 106.5 203.6L139.3 184.8C143.1 182.6 149.4 182.6 153.2 184.8L185.6 203.5C189.4 205.7 189.4 209.3 185.6 211.5L152.9 230.4C149.1 232.6 142.8 232.6 139 230.4L106.5 211.6Z" fill="#FCFEE5"/>
<path d="M342.7 213.3C340.8 212.2 339.8 210.7 339.8 209.3C339.8 207.9 339.8 207.2 339.8 207.2L375.5 186.5C379.3 184.3 385.6 184.3 389.4 186.5L424.7 207.2C424.7 207.2 424.7 207.7 424.7 209.1C424.7 210.6 423.8 212.1 421.8 213.2L389.1 232.1C385.3 234.3 379 234.3 375.2 232.1L342.7 213.3Z" fill="url(#paint8_linear)"/>
<path d="M342.7 211.6C338.9 209.4 338.9 205.8 342.7 203.6L375.5 184.8C379.3 182.6 385.6 182.6 389.4 184.8L421.8 203.5C425.6 205.7 425.6 209.3 421.8 211.5L389.1 230.4C385.3 232.6 379 232.6 375.2 230.4L342.7 211.6Z" fill="#FCFEE5"/>
<path d="M106.5 346.9C104.6 345.8 103.6 344.3 103.6 342.9C103.6 341.5 103.6 340.8 103.6 340.8L139.3 320.1C143.1 317.9 149.4 317.9 153.2 320.1L188.5 340.8C188.5 340.8 188.5 341.3 188.5 342.7C188.5 344.2 187.6 345.7 185.6 346.8L152.9 365.7C149.1 367.9 142.8 367.9 139 365.7L106.5 346.9Z" fill="url(#paint9_linear)"/>
<path d="M106.5 345.4C102.7 343.2 102.7 339.6 106.5 337.4L139.3 318.6C143.1 316.4 149.4 316.4 153.2 318.6L185.6 337.3C189.4 339.5 189.4 343.1 185.6 345.3L152.9 364.2C149.1 366.4 142.8 366.4 139 364.2L106.5 345.4Z" fill="#FCFEE5"/>
<path d="M205.2 284.7C202.4 283.1 201 281 201.1 278.9C201.2 276.8 201.1 276.5 201.1 276.5L252.9 245.9C258.5 242.7 267.5 242.7 273.1 245.9L324.3 276.9C324.3 276.9 324.3 268.9 324.3 278.8C324.3 281 323 283.1 320.1 284.8L272.7 312C267.2 315.2 258.1 315.2 252.6 312L205.2 284.7Z" fill="url(#paint10_linear)"/>
<path d="M205.2 282.4C199.7 279.2 199.7 274 205.2 270.8L252.8 243.5C258.4 240.3 267.4 240.3 273 243.5L320.1 270.7C325.6 273.9 325.6 279.1 320.1 282.3L272.7 309.7C267.2 312.9 258.1 312.9 252.6 309.7L205.2 282.4Z" fill="#FCFEE5"/>
<path d="M222.2 418.1C219.4 416.5 219.4 413.9 222.2 412.3L257.7 392C260.5 390.4 265 390.4 267.8 392L303 412.3C305.8 413.9 305.8 416.5 303 418.1L267.6 438.5C264.8 440.1 260.3 440.1 257.5 438.5L222.2 418.1Z" fill="url(#paint11_linear)"/>
<path d="M222.2 416.6C219.4 415 219.4 412.4 222.2 410.8L257.7 390.5C260.5 388.9 265 388.9 267.8 390.5L303 410.8C305.8 412.4 305.8 415 303 416.6L267.7 437C264.9 438.6 260.4 438.6 257.6 437L222.2 416.6Z" fill="#FCFEE5"/>
<path d="M277.8 134.8V134.1H283.7V134.8L280.8 136.5L277.8 134.8Z" fill="#FCD8B6"/>
<path d="M280.8 135.7L283.7 134.1V134.8L280.8 136.5V135.7Z" fill="#D67499"/>
<path d="M277.8 134.1L280.8 132.4L283.7 134.1L280.8 135.7L277.8 134.1Z" fill="#FCFEE5"/>
<path d="M324.116 77.9209C324.216 64.3209 324.116 50.8209 324.216 37.2209C324.216 36.2209 324.016 35.7209 322.916 35.4209C306.416 31.4209 289.616 28.9209 272.616 28.2209C249.016 27.2209 225.716 29.6209 202.816 35.3209C201.416 35.6209 201.016 36.1209 201.016 37.6209C201.116 55.5209 201.016 73.3209 201.016 91.2209C201.016 100.221 200.916 109.321 201.216 118.321C201.416 126.121 204.016 133.321 208.516 139.721C212.316 145.121 217.016 149.521 221.716 154.021C233.816 165.421 247.216 175.021 261.816 183.121C262.216 183.321 263.016 183.421 263.416 183.121C268.116 180.521 272.916 178.021 277.416 175.221C290.316 167.121 301.616 157.221 312.016 146.021C319.616 137.821 323.916 128.321 324.016 117.121C324.216 104.021 324.116 91.0209 324.116 77.9209Z" fill="url(#paint12_linear)" stroke="#F79A8B" stroke-miterlimit="10"/>
<path d="M342.4 346.9C340.5 345.8 339.5 344.3 339.5 342.9C339.5 341.5 339.5 340.8 339.5 340.8L375.2 320.1C379 317.9 385.3 317.9 389.1 320.1L424.4 340.8C424.4 340.8 424.4 341.3 424.4 342.7C424.4 344.2 423.5 345.7 421.5 346.8L388.8 365.7C385 367.9 378.7 367.9 374.9 365.7L342.4 346.9Z" fill="url(#paint13_linear)"/>
<path d="M342.4 345.4C338.6 343.2 338.6 339.6 342.4 337.4L375.2 318.6C379 316.4 385.3 316.4 389.1 318.6L421.5 337.3C425.3 339.5 425.3 343.1 421.5 345.3L388.8 364.2C385 366.4 378.7 366.4 374.9 364.2L342.4 345.4Z" fill="#FCFEE5"/>
<path d="M118.8 181.5L148.7 207.6V222.3L118.8 205.1V181.5Z" fill="#FFC28F"/>
<path d="M174.1 193L148.7 198.1V222.3L174.1 207.8V193Z" fill="#B24761"/>
<path d="M151.1 197.4L149.2 198.4V221.9L171.7 209.2L151.1 197.4Z" fill="#F79A8B"/>
<path d="M155.7 195.3V217.4" stroke="#D67499" stroke-miterlimit="10"/>
<path d="M161.4 191.4V214.7" stroke="#D67499" stroke-miterlimit="10"/>
<path d="M167.1 187.6V210.9" stroke="#D67499" stroke-miterlimit="10"/>
<path d="M148.7 222L118.8 204.8L142.4 191.2L148.7 197V222Z" fill="#F79A8B"/>
<path d="M126.6 180.7V208.8" stroke="#FDD8B4" stroke-miterlimit="10"/>
<path d="M133.6 187V213" stroke="#FDD8B4" stroke-miterlimit="10"/>
<path d="M140.5 216.8V193.2" stroke="#FDD8B4" stroke-miterlimit="10"/>
<path d="M119.8 183.7L147.7 208.1V220.6L119.8 204.5V183.7ZM118.8 181.5V205L148.7 222.2V207.5L118.8 181.5Z" fill="#FDD8B4"/>
<path d="M173.1 194.7V207.2L149.8 220.5V208.1L173.1 194.7ZM174.1 193L148.8 207.6V222.3L174.1 207.8V193Z" fill="#D67499"/>
<path d="M119.5 181.6L144 167.4L173.4 192.9L148.8 207.2L119.5 181.6Z" fill="#FCFEE5"/>
<path d="M143.9 167.8L172.7 192.8L148.7 206.6L120 181.5L143.9 167.8ZM144 166.9L118.8 181.5L148.7 207.6L174 193L144 166.9Z" fill="#F79A8B"/>
<path d="M223.8 277.7L249 263.2V232.3L223.8 246.8V277.7Z" fill="#FFC28F"/>
<path d="M303.8 277.6L278.6 263.2V232.3L303.8 246.8V277.6Z" fill="#B24761"/>
<path d="M223.8 277.6V274.7L263.8 297.8V300.6L223.8 277.6Z" fill="#FDD8B4"/>
<path d="M223.8 274.7L263.8 251.6L303.8 274.7L263.8 297.8L223.8 274.7Z" fill="#F79A8B"/>
<path d="M223.8 266.4L263.8 243.3L303.8 266.4L263.8 289.5L223.8 266.4Z" fill="#F79A8B"/>
<path d="M223.8 258.2L263.8 235.1L303.8 258.2L263.8 281.3L223.8 258.2Z" fill="#F79A8B"/>
<path d="M223.8 250.3V244.1L263.8 267.2V273.4L223.8 250.3Z" fill="#FDD8B4"/>
<path d="M303.8 277.6V274.7L263.8 297.8V300.6L303.8 277.6Z" fill="#D87399"/>
<path d="M303.8 250.3V244.1L263.8 267.2V273.4L303.8 250.3Z" fill="#D87399"/>
<path d="M224.6 244.1L263.8 221.4L303 244.1L263.8 266.7L224.6 244.1Z" fill="#FCFEE5"/>
<path d="M263.8 221.9L302.3 244.1L263.8 266.3L225.3 244.1L263.8 221.9ZM263.8 221L223.8 244.1L263.8 267.2L303.8 244.1L263.8 221Z" fill="#F79A8B"/>
<path d="M238.6 244.1V241.7L263.8 256.3V258.6L238.6 244.1Z" fill="#FDD8B4"/>
<path d="M289 244.1V241.7L263.8 256.3V258.6L289 244.1Z" fill="#D87399"/>
<path d="M238.6 241.7L263.8 227.2L289 241.7L263.8 256.3L238.6 241.7Z" fill="#F79A8B"/>
<path d="M238.6 241.7L263.8 227.2V200.8L238.6 215.4V241.7Z" fill="#FFC28F"/>
<path d="M289 241.7L263.8 227.2V200.8L289 215.4V241.7Z" fill="#B24761"/>
<path d="M239.6 217.1L262.8 230.5V256.9L239.6 243.5V217.1ZM238.6 215.4V244.1L263.8 258.6V229.9L238.6 215.4Z" fill="#FDD8B4"/>
<path d="M224.8 245.8L262.8 267.7V298.9L224.8 277V245.8ZM223.8 244.1V277.6L263.8 300.7V267.2L223.8 244.1Z" fill="#FDD8B4"/>
<path d="M288 217.1V243.5L264.8 256.9V230.5L288 217.1ZM289 215.4L263.8 229.9V258.6L289 244.1V215.4Z" fill="#D87399"/>
<path d="M302.8 245.8V276.9L264.8 298.9V267.8L302.8 245.8ZM303.8 244.1L263.8 267.2V300.6L303.8 277.5V244.1Z" fill="#D87399"/>
<path d="M239.4 215.4L263.8 201.3L288.2 215.4L263.8 229.5L239.4 215.4Z" fill="#FCFEE5"/>
<path d="M263.8 201.7L287.5 215.4L263.8 229L240.1 215.3L263.8 201.7ZM263.8 200.8L238.6 215.3L263.8 229.8L289 215.3L263.8 200.8Z" fill="#F79A8B"/>
<path d="M265 238.9L288.1 225.5" stroke="#D87399" stroke-miterlimit="10" stroke-linecap="round"/>
<path d="M265 247.4L288.1 234.1" stroke="#D87399" stroke-miterlimit="10" stroke-linecap="round"/>
<path d="M262.8 247.4L239.6 234.1" stroke="#FDD8B4" stroke-miterlimit="10" stroke-linecap="round"/>
<path d="M262.8 239L239.6 225.6" stroke="#FDD8B4" stroke-miterlimit="10" stroke-linecap="round"/>
<path d="M263.1 280.9L224.8 258.8" stroke="#FDD8B4" stroke-miterlimit="10" stroke-linecap="round"/>
<path d="M263.2 289.3L224.8 267.2" stroke="#FDD8B4" stroke-miterlimit="10" stroke-linecap="round"/>
<path d="M264.5 280.7L302.9 258.6" stroke="#D87399" stroke-miterlimit="10" stroke-linecap="round"/>
<path d="M264.4 289.3L302.6 267.2" stroke="#D87399" stroke-miterlimit="10" stroke-linecap="round"/>
<path d="M276.4 223.4V250.6" stroke="#D87399" stroke-miterlimit="10" stroke-linecap="round"/>
<path d="M276.4 264V291.1" stroke="#D87399" stroke-miterlimit="10" stroke-linecap="round"/>
<path d="M291.2 256.3V283.4" stroke="#D87399" stroke-miterlimit="10" stroke-linecap="round"/>
<path d="M251.2 264V291.1" stroke="#FDD8B4" stroke-miterlimit="10" stroke-linecap="round"/>
<path d="M236.4 256.3V283.4" stroke="#FDD8B4" stroke-miterlimit="10" stroke-linecap="round"/>
<path d="M251.2 223.4V250.6" stroke="#FDD8B4" stroke-miterlimit="10" stroke-linecap="round"/>
<path d="M456.9 152C454.5 150.6 454.5 148.4 456.9 147L477.4 135.3C479.8 133.9 483.7 133.9 486.1 135.3L506.4 147C508.8 148.4 508.8 150.6 506.4 152L486 163.8C483.6 165.2 479.7 165.2 477.3 163.8L456.9 152Z" fill="#CEE3CD"/>
<path d="M497.9 150.7V132.1L481.7 141.5V160L497.9 150.7Z" fill="#6FAC9C"/>
<path d="M465.5 150.7V149.2L481.7 158.5V160L465.5 150.7Z" fill="#FDD8B4"/>
<path d="M485.1 143.7L483.9 144.3V143L485.1 142.3V143.7Z" fill="#3A9492"/>
<path d="M485.1 147.6L483.9 148.3V147L485.1 146.3V147.6Z" fill="#3A9492"/>
<path d="M485.1 151.6L483.9 152.2V150.9L485.1 150.2V151.6Z" fill="#3A9492"/>
<path d="M485.1 155.5L483.9 156.2V154.9L485.1 154.2V155.5Z" fill="#3A9492"/>
<path d="M496.1 137.3L494.9 138V136.7L496.1 136V137.3Z" fill="#3A9492"/>
<path d="M496.1 141.3L494.9 141.9V140.6L496.1 139.9V141.3Z" fill="#3A9492"/>
<path d="M496.1 145.2L494.9 145.9V144.6L496.1 143.9V145.2Z" fill="#3A9492"/>
<path d="M496.1 149.2L494.9 149.9V148.5L496.1 147.9V149.2Z" fill="#3A9492"/>
<path d="M488.8 141.5L487.6 142.2V140.9L488.8 140.2V141.5Z" fill="#3A9492"/>
<path d="M488.8 145.5L487.6 146.2V144.8L488.8 144.2V145.5Z" fill="#3A9492"/>
<path d="M488.8 149.4L487.6 150.1V148.8L488.8 148.1V149.4Z" fill="#3A9492"/>
<path d="M488.8 153.4L487.6 154.1V152.8L488.8 152.1V153.4Z" fill="#3A9492"/>
<path d="M492.4 139.4L491.3 140.1V138.8L492.4 138.1V139.4Z" fill="#3A9492"/>
<path d="M492.4 143.4L491.3 144V142.7L492.4 142V143.4Z" fill="#3A9492"/>
<path d="M492.4 147.3L491.3 148V146.7L492.4 146V147.3Z" fill="#3A9492"/>
<path d="M492.4 151.3L491.3 152V150.6L492.4 150V151.3Z" fill="#3A9492"/>
<path d="M466 150.4V133L481.2 141.8V159.2L466 150.4Z" fill="#93C1AF"/>
<path d="M466.5 133.9L480.7 142.1V158.3L466.5 150.1V133.9ZM465.5 132.1V150.6L481.7 160V141.5L465.5 132.1Z" fill="#93C1AF"/>
<path d="M466.2 132.1L481.7 123.2L497.2 132.1L481.7 141.1L466.2 132.1Z" fill="#FCFEE5"/>
<path d="M481.7 123.7L496.4 132.2L481.7 140.7L467 132.2L481.7 123.7ZM481.7 122.8L465.5 132.2L481.7 141.6L497.9 132.2L481.7 122.8Z" fill="#CEE3CD"/>
<path d="M474 131.8V131.4L481.2 135.6V136L474 131.8Z" fill="#93C1AF"/>
<path d="M473.5 130.6V132.1L481.7 136.9V135.3L473.5 130.6Z" fill="#93C1AF"/>
<path d="M489.9 132.1V130.6L481.7 135.3V136.9L489.9 132.1Z" fill="#6FAC9C"/>
<path d="M474.2 130.6L481.7 126.3L489.2 130.6L481.7 134.9L474.2 130.6Z" fill="#FCFEE5"/>
<path d="M481.7 126.7L488.4 130.6L481.7 134.5L475 130.6L481.7 126.7ZM481.7 125.8L473.5 130.6L481.7 135.4L489.9 130.6L481.7 125.8Z" fill="#CEE3CD"/>
<path d="M354.2 342.3L371.7 332.2V310.8L354.2 320.9V342.3Z" fill="#FFC28F"/>
<path d="M409.7 342.2L392.3 332.2V310.8L409.7 320.9V342.2Z" fill="#B24761"/>
<path d="M354.2 341.1L382 325.1L409.7 341.1L382 357.1L354.2 341.1Z" fill="#F79A8B"/>
<path d="M354.2 325.1V319L382 335V341.1L354.2 325.1Z" fill="#FDD8B4"/>
<path d="M409.7 325.1V319L382 335V341.1L409.7 325.1Z" fill="#D87399"/>
<path d="M355 319L382 303.4L409 319L382 334.6L355 319Z" fill="#FCFEE5"/>
<path d="M382 303.8L408.2 318.9L382 334.1L355.7 319L382 303.8ZM382 303L354.3 319L382 335L409.7 319L382 303Z" fill="#F79A8B"/>
<path d="M355.2 320.7L380.9 335.5V356.4L355.2 341.6V320.7ZM354.2 319V342.2L381.9 358.2V335L354.2 319Z" fill="#FDD8B4"/>
<path d="M408.7 320.7V341.6L383 356.5V335.6L408.7 320.7ZM409.7 319L382 335V358.2L409.7 342.2V319Z" fill="#D87399"/>
<path d="M391.6 332.8V351.6" stroke="#D87399" stroke-miterlimit="10" stroke-linecap="round"/>
<path d="M401 327.4V346.3" stroke="#D87399" stroke-miterlimit="10" stroke-linecap="round"/>
<path d="M372.3 332.4V351.2" stroke="#FDD8B4" stroke-miterlimit="10" stroke-linecap="round"/>
<path d="M363 327.4V346.3" stroke="#FDD8B4" stroke-miterlimit="10" stroke-linecap="round"/>
<path d="M171.2 343.1L144.3 327.9V306.5L171.2 321.9V343.1Z" fill="#B24761"/>
<path d="M125.4 335.7L143.5 325.5V304L125.4 314.4V335.7Z" fill="#FFC28F"/>
<path d="M171.2 340.9L143.9 325.1L125.4 335.7L152.7 351.6L171.2 340.9Z" fill="#F79A8B"/>
<path d="M171.2 343.1V340.9L153.2 351.3V353.4L171.2 343.1Z" fill="#D87399"/>
<path d="M126.2 314.4L143.5 304.5L170.4 320L153.2 330L126.2 314.4Z" fill="#FCFEE5"/>
<path d="M143.5 304.9L169.7 320L153.2 329.5L127 314.4L143.5 304.9ZM143.5 304L125.5 314.4L153.2 330.4L171.2 320L143.5 304Z" fill="#F79A8B"/>
<path d="M170.2 321.8V342.5L154.2 351.7V331L170.2 321.8ZM171.2 320L153.2 330.4V353.4L171.2 343V320Z" fill="#D87399"/>
<path d="M126.4 316L152.1 330.9V351.8L126.4 336.9V316ZM125.4 314.2V337.4L153.1 353.4V330.2L125.4 314.2Z" fill="#FDD8B4"/>
<path d="M143.5 325.5V346.8" stroke="#FDD8B4" stroke-miterlimit="10" stroke-linecap="round"/>
<path d="M134.2 319.9V341.5" stroke="#FDD8B4" stroke-miterlimit="10" stroke-linecap="round"/>
<path d="M134.2 327V340.4" stroke="#FDD8B4" stroke-miterlimit="10" stroke-linecap="round"/>
<path d="M162.5 325.8V347.3" stroke="#D87399" stroke-miterlimit="10" stroke-linecap="round"/>
<path d="M235.5 414.4L263.2 399.5V375.8L235.5 392.9V414.4Z" fill="#FFC28F"/>
<path d="M291 414.2L263.2 399.5V378.1L291 392.9V414.2Z" fill="#B24761"/>
<path d="M263.4 392.6C263.3 392.6 263.3 392.6 263.2 392.6C263.1 392.6 263.1 392.6 263 392.6L250.9 399.6L236.2 391.1L263.2 375.5L290.2 391.1L275.5 399.6L263.4 392.6Z" fill="#FCFEE5"/>
<path d="M263.2 375.9L289.4 391L275.4 399.1L263.5 392.2C263.4 392.1 263.3 392.1 263.1 392.1C262.9 392.1 262.8 392.1 262.7 392.2L250.8 399.1L236.8 391L263.2 375.9ZM263.2 375L235.5 391L251 400L263.3 392.9L275.6 400L291 391L263.2 375Z" fill="#F79A8B"/>
<path d="M263.2 415.1L275.5 422.2L291 413.3L263.2 397.3L235.5 413.3L251 422.2L263.2 415.1Z" fill="#F79A8B"/>
<path d="M291 397.2V391L275.5 400V406.1L291 397.2Z" fill="#D87399"/>
<path d="M263.2 399.2V393.1L250.9 400V406.1L263.2 399.2Z" fill="#D87399"/>
<path d="M290 392.8V413.7L276.5 421.5V400.6L290 392.8ZM291 391L275.5 399.9V423.1L291 414.2V391Z" fill="#D87399"/>
<path d="M262.2 394.6V415.5L251.9 421.4V400.5L262.2 394.6ZM263.2 392.9L250.9 400V423.2L263.2 416.1V392.9Z" fill="#D87399"/>
<path d="M264.2 394.6L274.5 400.5V421.4L264.2 415.5V394.6ZM263.2 392.9V416.1L275.5 423.2V400L263.2 392.9Z" fill="#FDD8B4"/>
<path d="M235.5 397.2V391L250.9 400V406.1L235.5 397.2Z" fill="#FDD8B4"/>
<path d="M235.5 414.2V411.7L250.9 420.6V423.1L235.5 414.2Z" fill="#FDD8B4"/>
<path d="M263.2 416.1V413.7L275.5 420.6V423.1L263.2 416.1Z" fill="#FDD8B4"/>
<path d="M290 413.4V413.5L276.6 421.3V421.2L290 413.4ZM291 411.7L275.6 420.6V423L291 414.1V411.7Z" fill="#D87399"/>
<path d="M261.6 415.7V415.8L251.9 421.3V421.2L261.6 415.7ZM262.6 414L250.9 420.6V423L262.6 416.4V414Z" fill="#D87399"/>
<path d="M263.2 399V392.9L275.5 400V406.1L263.2 399Z" fill="#FDD8B4"/>
<path d="M236.5 392.8L249.9 400.6V421.5L236.5 413.7V392.8ZM235.5 391V414.2L250.9 423.1V400L235.5 391Z" fill="#FDD8B4"/>
<path d="M125.4 337.3V335.3L153.2 351.4V353.3L125.4 337.3Z" fill="#FDD8B4"/>
<path d="M151.5 351.4L127.9 337.8C125.5 339.6 124.2 341.7 124.2 344C124.2 346.7 126 349.2 129.3 351.1C132.7 353 137.2 354.1 142 354.1C145.4 354.1 148.7 353.5 151.5 352.5V351.4Z" fill="url(#paint14_linear)"/>
<path d="M127.3 337.1C125.3 338.8 124.2 340.7 124.2 342.8C124.2 345.5 126 348 129.3 349.9C132.7 351.8 137.2 352.9 142 352.9C145.4 352.9 148.7 352.3 151.5 351.3L127.3 337.1Z" fill="#FCFEE5"/>
<path d="M150.3 349.7L129.3 337.6C127.1 339.2 126.1 341.1 126.1 343.2C126.1 345.6 127.7 347.8 130.6 349.5C133.6 351.2 137.6 352.2 141.8 352.2C144.9 352.2 147.8 351.7 150.3 350.8V349.7Z" fill="url(#paint15_linear)"/>
<path d="M150.3 349.7L128.6 337.1C126.9 338.6 126.1 340.3 126.1 342.1C126.1 344.5 127.7 346.7 130.6 348.4C133.6 350.1 137.6 351.1 141.8 351.1C144.9 351.1 147.8 350.6 150.3 349.7Z" fill="#FCFEE5"/>
<path d="M126.1 326.5L152.5 341.7" stroke="#FDD8B4" stroke-miterlimit="10" stroke-linecap="round"/>
<path d="M170.6 331.9L153.9 341.5" stroke="#D87399" stroke-miterlimit="10"/>
<path d="M409.4 184.1L383.6 169.2V196.3L409.4 206V184.1Z" fill="#B24761"/>
<path d="M360.1 187.4L385.9 173.3V197.4L360.1 207.1V187.4Z" fill="#FFC28F"/>
<path d="M409.4 206L383.6 191.1L364.8 202C361.4 204 359.5 206.6 359.5 209.3C359.5 212.1 361.4 214.7 364.8 216.6C368.3 218.6 372.9 219.7 377.9 219.7C382.5 219.7 386.8 218.7 390.2 217L409.4 206Z" fill="#F79A8B"/>
<path d="M363.8 194.8V216.1" stroke="#FED8B2" stroke-width="0.75" stroke-miterlimit="10" stroke-linejoin="round"/>
<path d="M372.7 197.6V219" stroke="#FED8B2" stroke-width="0.75" stroke-miterlimit="10" stroke-linejoin="round"/>
<path d="M382.4 197.6V219" stroke="#E08DA0" stroke-width="0.75" stroke-miterlimit="10" stroke-linejoin="round"/>
<path d="M391.8 194.3V215.6" stroke="#D87399" stroke-width="0.75" stroke-miterlimit="10" stroke-linejoin="round"/>
<path d="M401.2 189.1V210.4" stroke="#D87399" stroke-width="0.75" stroke-miterlimit="10" stroke-linejoin="round"/>
<path d="M377.8 197.5C372.9 197.5 368.3 196.4 364.9 194.4C361.6 192.5 359.8 190 359.8 187.4C359.8 184.8 361.6 182.3 364.9 180.4L383.5 169.6L408.6 184.1L389.9 194.8C386.6 196.5 382.3 197.5 377.8 197.5Z" fill="#FCFEE5"/>
<path d="M383.6 170L407.9 184L389.8 194.4C386.5 196.1 382.3 197 377.9 197C373.1 197 368.6 195.9 365.2 194C362 192.2 360.3 189.8 360.3 187.3C360.3 184.8 362 182.5 365.2 180.6L383.6 170ZM383.6 169.2L364.8 180.1C361.4 182.1 359.5 184.7 359.5 187.4C359.5 190.2 361.4 192.8 364.8 194.7C368.3 196.7 372.9 197.8 377.9 197.8C382.5 197.8 386.8 196.8 390.2 195.1L409.5 184L383.6 169.2Z" fill="#F79A8B"/>
<path d="M408.4 185.8V205.5L389.7 216.3C386.5 218 382.3 218.9 377.9 218.9C373.1 218.9 368.7 217.8 365.3 215.9C362.2 214.1 360.5 211.8 360.5 209.4C360.5 207.6 360.5 198.5 360.5 192.6C361.4 193.7 362.7 194.8 364.3 195.7C367.9 197.8 372.7 198.9 377.9 198.9C382.6 198.9 387.1 197.9 390.7 196.1L408.4 185.8ZM409.4 184.1L390.1 195.2C386.7 196.9 382.4 197.9 377.8 197.9C372.8 197.9 368.2 196.8 364.7 194.8C361.3 192.8 359.4 190.2 359.4 187.5C359.4 187.5 359.4 206.7 359.4 209.5C359.4 212.3 361.3 214.9 364.7 216.8C368.2 218.8 372.8 219.9 377.8 219.9C382.4 219.9 386.7 218.9 390.1 217.2L409.4 206.1V184.1Z" fill="url(#paint16_linear)"/>
<path d="M10.6 279.3C8.20005 277.9 8.20005 275.7 10.6 274.3L31.1 262.6C33.5 261.2 37.4 261.2 39.8 262.6L60.1 274.3C62.5 275.7 62.5 277.9 60.1 279.3L39.7 291.1C37.3 292.5 33.4 292.5 31 291.1L10.6 279.3Z" fill="#CEE3CD"/>
<path d="M19.7 278.3C19.2 278 19 277.7 19 277.3C19 276.9 19 257.6 19 257.6L35.3 265.4C36.3 264.9 51.6 257.6 51.6 257.6C51.6 257.6 51.6 277 51.6 277.3C51.6 277.7 51.4 278 50.9 278.3L37 286.3C36 286.8 34.5 286.8 33.5 286.3L19.7 278.3Z" fill="url(#paint17_linear)"/>
<path d="M35.3001 266.6C34.7001 266.6 34.2001 266.5 33.8001 266.2L19.9001 258.2C19.6001 258 19.4001 257.8 19.4001 257.5C19.4001 257.2 19.6001 257 19.9001 256.8L33.8001 248.8C34.2001 248.6 34.8001 248.4 35.3001 248.4C35.9001 248.4 36.5001 248.5 36.9001 248.8L50.7001 256.8C51.0001 257 51.2001 257.2 51.2001 257.5C51.2001 257.8 51.0001 258 50.7001 258.2L36.8001 266.2C36.5001 266.5 35.9001 266.6 35.3001 266.6Z" fill="#FCFEE5"/>
<path d="M35.4001 249C35.9001 249 36.4 249.1 36.8 249.3L50.6 257.3C50.8 257.4 50.9001 257.6 50.9001 257.6C50.9001 257.7 50.8 257.8 50.6 257.9L36.7001 265.9C36.4001 266.1 35.9 266.2 35.3 266.2C34.7 266.2 34.3001 266.1 33.9001 265.9L20 257.9C19.8 257.8 19.7001 257.6 19.7001 257.6C19.7001 257.6 19.8 257.4 20 257.3L33.9001 249.3C34.4001 249.1 34.9001 249 35.4001 249ZM35.4001 248.2C34.8001 248.2 34.2001 248.3 33.7001 248.6L19.8 256.6C18.8 257.1 18.8 258 19.8 258.6L33.7001 266.6C34.2001 266.9 34.8001 267 35.4001 267C36.0001 267 36.7 266.9 37.1 266.6L51 258.6C52 258.1 52 257.2 51 256.6L37.2001 248.6C36.7001 248.3 36.0001 248.2 35.4001 248.2Z" fill="#CEE3CD"/>
<path d="M27 258.1C26.5 257.8 26.5 257.3 27 257L34.5 252.7C35 252.4 35.8 252.4 36.4 252.7L43.8 257C44.3 257.3 44.3 257.8 43.8 258.1L36.4 262.4C35.9 262.7 35.1 262.7 34.5 262.4L27 258.1Z" fill="#CEE3CD"/>
<path d="M21.7 264.2V266.2L31.7 271.9V269.9L21.7 264.2Z" fill="#44A095"/>
<path d="M21.7 268.7V270.7L31.7 276.4V274.4L21.7 268.7Z" fill="#44A095"/>
<path d="M21.7 273.2V275.2L31.7 281V278.9L21.7 273.2Z" fill="#44A095"/>
<path d="M49.0001 264.2V266.2L39.1001 271.9V269.9L49.0001 264.2Z" fill="#3A9492"/>
<path d="M49.0001 268.7V270.7L39.1001 276.4V274.4L49.0001 268.7Z" fill="#3A9492"/>
<path d="M49.0001 273.2V275.2L39.1001 281V278.9L49.0001 273.2Z" fill="#3A9492"/>
<path d="M478.4 143.7L479.5 144.3V143L478.4 142.3V143.7Z" fill="#44A095"/>
<path d="M478.4 147.6L479.5 148.3V147L478.4 146.3V147.6Z" fill="#44A095"/>
<path d="M478.4 151.6L479.5 152.2V150.9L478.4 150.2V151.6Z" fill="#44A095"/>
<path d="M478.4 155.5L479.5 156.2V154.9L478.4 154.2V155.5Z" fill="#44A095"/>
<path d="M467.4 137.3L468.6 138V136.7L467.4 136V137.3Z" fill="#44A095"/>
<path d="M467.4 141.3L468.6 141.9V140.6L467.4 139.9V141.3Z" fill="#44A095"/>
<path d="M467.4 145.2L468.6 145.9V144.6L467.4 143.9V145.2Z" fill="#44A095"/>
<path d="M467.4 149.2L468.6 149.9V148.5L467.4 147.9V149.2Z" fill="#44A095"/>
<path d="M474.7 141.5L475.9 142.2V140.9L474.7 140.2V141.5Z" fill="#44A095"/>
<path d="M474.7 145.5L475.9 146.2V144.8L474.7 144.2V145.5Z" fill="#44A095"/>
<path d="M474.7 149.4L475.9 150.1V148.8L474.7 148.1V149.4Z" fill="#44A095"/>
<path d="M474.7 153.4L475.9 154.1V152.8L474.7 152.1V153.4Z" fill="#44A095"/>
<path d="M471.1 139.4L472.2 140.1V138.8L471.1 138.1V139.4Z" fill="#44A095"/>
<path d="M471.1 143.4L472.2 144V142.7L471.1 142V143.4Z" fill="#44A095"/>
<path d="M471.1 147.3L472.2 148V146.7L471.1 146V147.3Z" fill="#44A095"/>
<path d="M471.1 151.3L472.2 152V150.6L471.1 150V151.3Z" fill="#44A095"/>
<path d="M357.4 477.7C355 476.3 355 474.1 357.4 472.7L377.9 461C380.3 459.6 384.2 459.6 386.6 461L406.9 472.7C409.3 474.1 409.3 476.3 406.9 477.7L386.5 489.5C384.1 490.9 380.2 490.9 377.8 489.5L357.4 477.7Z" fill="#CEE3CD"/>
<path d="M398.4 476.4V457.9L382.1 467.2V485.7L398.4 476.4Z" fill="#6FAC9C"/>
<path d="M365.9 476.4V474.9L382.1 484.2V485.7L365.9 476.4Z" fill="#FDD8B4"/>
<path d="M366.4 476.1V458.7L381.6 467.5V484.9L366.4 476.1Z" fill="#93C1AF"/>
<path d="M366.9 459.6L381.1 467.8V484L366.9 475.8V459.6ZM365.9 457.9V476.4L382.1 485.8V467.3L365.9 457.9Z" fill="#93C1AF"/>
<path d="M368.7 476.4V461.6L370.1 462.4V477.2L368.7 476.4Z" fill="#44A095"/>
<path d="M373 478.8V464.1L374.4 464.9V479.6L373 478.8Z" fill="#44A095"/>
<path d="M377.3 481.3V466.5L378.7 467.4V482.1L377.3 481.3Z" fill="#44A095"/>
<path d="M395.7 476.4V461.6L394.3 462.4V477.2L395.7 476.4Z" fill="#3A9492"/>
<path d="M391.4 478.8V464.1L390 464.9V479.6L391.4 478.8Z" fill="#3A9492"/>
<path d="M387.1 481.3V466.5L385.7 467.4V482.1L387.1 481.3Z" fill="#3A9492"/>
<path d="M366.7 457.9L382.1 448.9L397.6 457.9L382.1 466.8L366.7 457.9Z" fill="#FCFEE5"/>
<path d="M382.1 449.4L396.8 457.9L382.1 466.4L367.4 457.9L382.1 449.4ZM382.1 448.5L365.9 457.9L382.1 467.3L398.3 457.9L382.1 448.5Z" fill="#CEE3CD"/>
<path d="M378.2 457.4V456.7L382.1 459V459.7L378.2 457.4Z" fill="#93C1AF"/>
<path d="M378.2 456.7V457.4L382.1 459.7V459L378.2 456.7Z" fill="#93C1AF"/>
<path d="M386.1 457.4V456.7L382.1 459V459.7L386.1 457.4Z" fill="#6FAC9C"/>
<path d="M379 456.7L382.1 454.8L385.3 456.7L382.1 458.5L379 456.7Z" fill="#FCFEE5"/>
<path d="M382.1 455.3L384.5 456.7L382.1 458.1L379.7 456.7L382.1 455.3ZM382.1 454.4L378.2 456.7L382.1 459L386 456.7L382.1 454.4Z" fill="#CEE3CD"/>
<path d="M292.355 106.828L292.355 106.828C293.889 108.362 293.889 110.849 292.355 112.383C290.821 113.917 288.333 113.917 286.8 112.383L280.335 105.918L280.335 105.918C278.801 104.384 278.8 101.897 280.335 100.363L292.355 106.828ZM292.355 106.828L285.89 100.363C285.89 100.363 285.89 100.363 285.89 100.363C284.356 98.8288 281.869 98.8289 280.335 100.363L292.355 106.828Z" fill="#FCFEE5" stroke="#FCFEE5" stroke-width="0.999999"/>
<path d="M269.021 110.767L269.021 110.767L278.718 120.464C278.718 120.464 278.718 120.464 278.718 120.464C280.253 121.998 282.74 121.998 284.274 120.464C285.808 118.93 285.808 116.442 284.274 114.908L274.577 105.212C274.577 105.212 274.577 105.211 274.577 105.211C273.044 103.677 270.556 103.677 269.021 105.211C267.488 106.745 267.488 109.233 269.021 110.767Z" fill="#FCFEE5" stroke="#FCFEE5" stroke-width="0.999999"/>
<path d="M276.194 122.989L276.194 122.989C277.727 124.523 277.727 127.011 276.194 128.545C274.659 130.079 272.172 130.079 270.638 128.545L264.173 122.08C264.173 122.08 264.173 122.08 264.173 122.08C262.639 120.546 262.639 118.058 264.173 116.525L276.194 122.989ZM276.194 122.989L269.729 116.525C269.729 116.525 269.728 116.525 269.728 116.525C268.195 114.99 265.707 114.991 264.173 116.525L276.194 122.989Z" fill="#FCFEE5" stroke="#FCFEE5" stroke-width="0.999999"/>
<path d="M264.88 127.837L264.88 127.837C263.346 126.304 260.859 126.304 259.325 127.837C257.791 129.372 257.791 131.859 259.325 133.393L260.941 135.01L260.941 135.01C262.475 136.543 264.962 136.543 266.497 135.01L266.497 135.01C268.03 133.475 268.03 130.988 266.497 129.454L266.497 129.454L264.88 127.837Z" fill="#FCFEE5" stroke="#FCFEE5" stroke-width="0.999999"/>
<path d="M241.211 85.7245L241.211 85.7246L245.819 90.333L246.173 90.6865L245.819 91.0401L232.94 103.92L232.419 104.44L232.127 103.764C231.393 102.066 231.023 100.23 231.023 98.3311L241.211 85.7245ZM241.211 85.7245C240.512 85.0265 240.512 83.8972 241.211 83.1993L241.211 83.199C241.908 82.5013 243.038 82.5011 243.736 83.1992L246.892 86.3555C247.889 87.3528 249.506 87.3531 250.503 86.3556M241.211 85.7245L250.503 86.3556M250.503 86.3556C250.503 86.3555 250.503 86.3554 250.503 86.3554C254.226 82.6339 260.282 82.634 264.004 86.3555L268.214 90.5652C269.3 91.6519 271.066 91.6519 272.153 90.5652C273.24 89.4779 273.24 87.7129 272.153 86.6256L259.885 74.3577L259.739 74.2113H259.531H254.325L246.848 66.7346C245.76 65.6464 243.998 65.6461 242.909 66.7337C242.909 66.734 242.909 66.7343 242.909 66.7346L223.318 86.1269L223.316 86.1287C222.228 87.2172 222.228 88.9792 223.316 90.0677L223.316 90.0678L223.322 90.0729L231.022 97.549L231.023 98.3305L244.089 82.8456L247.246 86.002C248.048 86.8042 249.348 86.8042 250.15 86.002L250.503 86.3556Z" fill="#FCFEE5" stroke="#FCFEE5"/>
<path d="M300.683 86.1316L300.68 86.1284L280.939 66.7375C280.939 66.7369 280.938 66.7364 280.938 66.7358C279.849 65.649 278.088 65.6496 277 66.7375L269.521 74.216H266.17C266.15 74.2132 266.126 74.2112 266.1 74.2112H265.996H264.789L265.642 75.0648L274.678 84.1001C277.156 86.5786 277.156 90.6115 274.678 93.09L274.678 93.09C272.2 95.5685 268.166 95.5685 265.688 93.09L265.688 93.09L261.479 88.8809L261.479 88.8809C259.148 86.5505 255.359 86.5504 253.029 88.8809L233.466 108.443C231.931 109.978 231.931 112.465 233.466 113.999L233.466 113.999C235 115.533 237.487 115.533 239.021 113.999L249.173 103.848L251.698 106.373L241.547 116.525C241.547 116.525 241.547 116.525 241.547 116.525C240.013 118.058 240.013 120.546 241.547 122.08C243.081 123.614 245.568 123.614 247.102 122.08L247.102 122.08L257.254 111.929L259.779 114.454L249.628 124.606C248.094 126.14 248.093 128.627 249.628 130.161C250.94 131.474 252.902 131.591 254.397 130.694L254.628 130.556L254.64 130.287C254.719 128.472 255.425 126.687 256.799 125.313C257.72 124.392 258.836 123.792 260.023 123.45L260.609 123.281L260.328 122.74C258.865 119.912 259.287 116.36 261.648 113.999C262.568 113.079 263.684 112.479 264.872 112.137L265.457 111.968L265.177 111.427C263.714 108.598 264.135 105.047 266.496 102.686C268.857 100.325 272.408 99.9032 275.237 101.367L275.779 101.647L275.947 101.061C276.289 99.874 276.889 98.7579 277.809 97.8378C280.732 94.9147 285.491 94.9142 288.414 97.8363C288.414 97.8368 288.415 97.8373 288.415 97.8378L291.805 101.289L292.522 102.018L292.658 101.005C292.667 100.938 292.676 100.869 292.686 100.798C292.737 100.436 292.794 100.033 292.794 99.6272V97.5569L300.674 90.0798L300.674 90.0799L300.683 90.0708C301.772 88.9828 301.772 87.22 300.683 86.1316ZM265.959 75.1898L265.966 75.1919C265.961 75.1905 265.957 75.1893 265.959 75.1898ZM266.264 74.2374L266.257 74.2353C266.262 74.2367 266.266 74.238 266.264 74.2374Z" fill="#FCFEE5" stroke="#FCFEE5"/>
<defs>
<linearGradient id="paint0_linear" x1="54.9336" y1="291.079" x2="423.18" y2="291.079" gradientUnits="userSpaceOnUse">
<stop stop-color="#FCFEE5" stop-opacity="0"/>
<stop offset="0.016039" stop-color="#FBF0D9" stop-opacity="0.0295774"/>
<stop offset="0.054242" stop-color="#FAD6C1" stop-opacity="0.1"/>
<stop offset="0.0981353" stop-color="#F9C0AD" stop-opacity="0.181"/>
<stop offset="0.1493" stop-color="#F8AF9E" stop-opacity="0.2753"/>
<stop offset="0.2125" stop-color="#F7A393" stop-opacity="0.3918"/>
<stop offset="0.3007" stop-color="#F79C8D" stop-opacity="0.5546"/>
<stop offset="0.5423" stop-color="#F79A8B"/>
<stop offset="0.7481" stop-color="#F79C8D" stop-opacity="0.5503"/>
<stop offset="0.8223" stop-color="#F7A393" stop-opacity="0.3883"/>
<stop offset="0.8751" stop-color="#F8AE9D" stop-opacity="0.2728"/>
<stop offset="0.9179" stop-color="#F9BFAD" stop-opacity="0.1795"/>
<stop offset="0.9545" stop-color="#FAD5C0" stop-opacity="0.0994801"/>
<stop offset="0.9863" stop-color="#FBF0D8" stop-opacity="0.029945"/>
<stop offset="1" stop-color="#FCFEE5" stop-opacity="0"/>
</linearGradient>
<linearGradient id="paint1_linear" x1="142.37" y1="450.432" x2="262.755" y2="450.432" gradientUnits="userSpaceOnUse">
<stop stop-color="#FCFEE5" stop-opacity="0"/>
<stop offset="0.1199" stop-color="#FBEBD4" stop-opacity="0.1199"/>
<stop offset="0.3721" stop-color="#F9C8B4" stop-opacity="0.3721"/>
<stop offset="0.6101" stop-color="#F8AF9E" stop-opacity="0.6101"/>
<stop offset="0.826" stop-color="#F79F90" stop-opacity="0.826"/>
<stop offset="1" stop-color="#F79A8B"/>
</linearGradient>
<linearGradient id="paint2_linear" x1="125.657" y1="141.91" x2="415.701" y2="141.91" gradientUnits="userSpaceOnUse">
<stop stop-color="#FCFEE5" stop-opacity="0"/>
<stop offset="0.016039" stop-color="#FBF0D9" stop-opacity="0.0295774"/>
<stop offset="0.054242" stop-color="#FAD6C1" stop-opacity="0.1"/>
<stop offset="0.0981353" stop-color="#F9C0AD" stop-opacity="0.181"/>
<stop offset="0.1493" stop-color="#F8AF9E" stop-opacity="0.2753"/>
<stop offset="0.2125" stop-color="#F7A393" stop-opacity="0.3918"/>
<stop offset="0.3007" stop-color="#F79C8D" stop-opacity="0.5546"/>
<stop offset="0.5423" stop-color="#F79A8B"/>
<stop offset="0.6948" stop-color="#F79C8D" stop-opacity="0.6668"/>
<stop offset="0.7775" stop-color="#F8A494" stop-opacity="0.4862"/>
<stop offset="0.8434" stop-color="#F8B2A1" stop-opacity="0.3421"/>
<stop offset="0.9005" stop-color="#F9C5B2" stop-opacity="0.2174"/>
<stop offset="0.9513" stop-color="#FADEC8" stop-opacity="0.1063"/>
<stop offset="0.998" stop-color="#FCFCE4" stop-opacity="0.01"/>
<stop offset="1" stop-color="#FCFEE5" stop-opacity="0"/>
</linearGradient>
<linearGradient id="paint3_linear" x1="375.961" y1="297.668" x2="550.847" y2="297.668" gradientUnits="userSpaceOnUse">
<stop offset="0.314" stop-color="#F79A8B"/>
<stop offset="0.4281" stop-color="#F79F91"/>
<stop offset="0.5813" stop-color="#F9AFA2"/>
<stop offset="0.7566" stop-color="#FBC8BE"/>
<stop offset="0.947" stop-color="#FEEBE5"/>
<stop offset="1" stop-color="#FFF6F1"/>
</linearGradient>
<linearGradient id="paint4_linear" x1="20.9277" y1="285.829" x2="537.387" y2="285.829" gradientUnits="userSpaceOnUse">
<stop stop-color="#FCFEE5" stop-opacity="0"/>
<stop offset="0.0150661" stop-color="#F3E7DB" stop-opacity="0.0194483"/>
<stop offset="0.0428922" stop-color="#E6C2CB" stop-opacity="0.0553679"/>
<stop offset="0.074206" stop-color="#DAA2BD" stop-opacity="0.0957899"/>
<stop offset="0.1088" stop-color="#CF87B2" stop-opacity="0.1404"/>
<stop offset="0.1478" stop-color="#C771A8" stop-opacity="0.1907"/>
<stop offset="0.1932" stop-color="#C160A1" stop-opacity="0.2494"/>
<stop offset="0.2493" stop-color="#BC549C" stop-opacity="0.3219"/>
<stop offset="0.3277" stop-color="#BA4D99" stop-opacity="0.4231"/>
<stop offset="0.5423" stop-color="#B94B98" stop-opacity="0.7"/>
<stop offset="0.6709" stop-color="#BA4D99" stop-opacity="0.5033"/>
<stop offset="0.7406" stop-color="#BD559C" stop-opacity="0.3967"/>
<stop offset="0.7962" stop-color="#C263A2" stop-opacity="0.3117"/>
<stop offset="0.8443" stop-color="#C976AB" stop-opacity="0.2381"/>
<stop offset="0.8877" stop-color="#D38FB5" stop-opacity="0.1718"/>
<stop offset="0.9276" stop-color="#DEAEC3" stop-opacity="0.1108"/>
<stop offset="0.964" stop-color="#ECD2D2" stop-opacity="0.0549926"/>
<stop offset="0.9983" stop-color="#FBFCE4" stop-opacity="0.01"/>
<stop offset="1" stop-color="#FCFEE5" stop-opacity="0"/>
</linearGradient>
<linearGradient id="paint5_linear" x1="121.084" y1="137.528" x2="395.95" y2="137.528" gradientUnits="userSpaceOnUse">
<stop stop-color="#FCFEE5" stop-opacity="0"/>
<stop offset="0.0150661" stop-color="#F3E7DB" stop-opacity="0.0194483"/>
<stop offset="0.0428922" stop-color="#E6C2CB" stop-opacity="0.0553679"/>
<stop offset="0.074206" stop-color="#DAA2BD" stop-opacity="0.0957899"/>
<stop offset="0.1088" stop-color="#CF87B2" stop-opacity="0.1404"/>
<stop offset="0.1478" stop-color="#C771A8" stop-opacity="0.1907"/>
<stop offset="0.1932" stop-color="#C160A1" stop-opacity="0.2494"/>
<stop offset="0.2493" stop-color="#BC549C" stop-opacity="0.3219"/>
<stop offset="0.3277" stop-color="#BA4D99" stop-opacity="0.4231"/>
<stop offset="0.5423" stop-color="#B94B98" stop-opacity="0.7"/>
<stop offset="0.6709" stop-color="#BA4D99" stop-opacity="0.5033"/>
<stop offset="0.7406" stop-color="#BD559C" stop-opacity="0.3967"/>
<stop offset="0.7962" stop-color="#C263A2" stop-opacity="0.3117"/>
<stop offset="0.8443" stop-color="#C976AB" stop-opacity="0.2381"/>
<stop offset="0.8877" stop-color="#D38FB5" stop-opacity="0.1718"/>
<stop offset="0.9276" stop-color="#DEAEC3" stop-opacity="0.1108"/>
<stop offset="0.964" stop-color="#ECD2D2" stop-opacity="0.0549926"/>
<stop offset="0.9983" stop-color="#FBFCE4" stop-opacity="0.01"/>
<stop offset="1" stop-color="#FCFEE5" stop-opacity="0"/>
</linearGradient>
<linearGradient id="paint6_linear" x1="146.384" y1="380.333" x2="276.592" y2="380.333" gradientUnits="userSpaceOnUse">
<stop stop-color="#B94B98" stop-opacity="0.7"/>
<stop offset="0.6752" stop-color="#B94B98" stop-opacity="0.7"/>
<stop offset="0.7887" stop-color="#B94B98" stop-opacity="0.7"/>
</linearGradient>
<linearGradient id="paint7_linear" x1="103.662" y1="209.368" x2="188.586" y2="209.368" gradientUnits="userSpaceOnUse">
<stop offset="0.4719" stop-color="#F79A8B"/>
<stop offset="0.5034" stop-color="#E98A91"/>
<stop offset="0.5493" stop-color="#DB7A97"/>
<stop offset="0.5842" stop-color="#D67499"/>
</linearGradient>
<linearGradient id="paint8_linear" x1="339.876" y1="209.368" x2="424.8" y2="209.368" gradientUnits="userSpaceOnUse">
<stop offset="0.4719" stop-color="#F79A8B"/>
<stop offset="0.5034" stop-color="#E98A91"/>
<stop offset="0.5493" stop-color="#DB7A97"/>
<stop offset="0.5842" stop-color="#D67499"/>
</linearGradient>
<linearGradient id="paint9_linear" x1="103.662" y1="342.929" x2="188.586" y2="342.929" gradientUnits="userSpaceOnUse">
<stop offset="0.4719" stop-color="#F79A8B"/>
<stop offset="0.5034" stop-color="#E98A91"/>
<stop offset="0.5493" stop-color="#DB7A97"/>
<stop offset="0.5842" stop-color="#D67499"/>
</linearGradient>
<linearGradient id="paint10_linear" x1="201.021" y1="278.924" x2="324.253" y2="278.924" gradientUnits="userSpaceOnUse">
<stop offset="0.4719" stop-color="#F79A8B"/>
<stop offset="0.5034" stop-color="#E98A91"/>
<stop offset="0.5493" stop-color="#DB7A97"/>
<stop offset="0.5842" stop-color="#D67499"/>
</linearGradient>
<linearGradient id="paint11_linear" x1="220.16" y1="415.228" x2="305.113" y2="415.228" gradientUnits="userSpaceOnUse">
<stop offset="0.4719" stop-color="#F79A8B"/>
<stop offset="0.5034" stop-color="#E98A91"/>
<stop offset="0.5493" stop-color="#DB7A97"/>
<stop offset="0.5842" stop-color="#D67499"/>
</linearGradient>
<linearGradient id="paint12_linear" x1="207.552" y1="29.7854" x2="317.973" y2="140.206" gradientUnits="userSpaceOnUse">
<stop stop-color="#FCD8B6"/>
<stop offset="0.3051" stop-color="#FFC28F"/>
<stop offset="0.4577" stop-color="#FDB88E"/>
<stop offset="0.7192" stop-color="#F79C8B"/>
<stop offset="0.7384" stop-color="#F79A8B"/>
</linearGradient>
<linearGradient id="paint13_linear" x1="339.54" y1="342.929" x2="424.464" y2="342.929" gradientUnits="userSpaceOnUse">
<stop offset="0.4719" stop-color="#F79A8B"/>
<stop offset="0.5034" stop-color="#E98A91"/>
<stop offset="0.5493" stop-color="#DB7A97"/>
<stop offset="0.5842" stop-color="#D67499"/>
</linearGradient>
<linearGradient id="paint14_linear" x1="124.225" y1="345.858" x2="151.487" y2="345.858" gradientUnits="userSpaceOnUse">
<stop offset="0.4719" stop-color="#F99A89"/>
<stop offset="0.5949" stop-color="#EB8A90"/>
<stop offset="0.7741" stop-color="#DB7A97"/>
<stop offset="0.91" stop-color="#D67499"/>
</linearGradient>
<linearGradient id="paint15_linear" x1="126.069" y1="344.83" x2="150.3" y2="344.83" gradientUnits="userSpaceOnUse">
<stop offset="0.4719" stop-color="#F99A89"/>
<stop offset="0.5949" stop-color="#EB8A90"/>
<stop offset="0.7741" stop-color="#DB7A97"/>
<stop offset="0.91" stop-color="#D67499"/>
</linearGradient>
<linearGradient id="paint16_linear" x1="359.474" y1="201.939" x2="409.388" y2="201.939" gradientUnits="userSpaceOnUse">
<stop offset="0.3971" stop-color="#FDD8B4"/>
<stop offset="0.4093" stop-color="#F8CCB1"/>
<stop offset="0.4522" stop-color="#E9A6A6"/>
<stop offset="0.4919" stop-color="#DF8A9F"/>
<stop offset="0.5269" stop-color="#D87A9B"/>
<stop offset="0.5533" stop-color="#D67499"/>
</linearGradient>
<linearGradient id="paint17_linear" x1="19.0278" y1="272.174" x2="51.6458" y2="272.174" gradientUnits="userSpaceOnUse">
<stop stop-color="#93C1AF"/>
<stop offset="0.4705" stop-color="#93C1AF"/>
<stop offset="0.4794" stop-color="#93C1AF"/>
<stop offset="0.495" stop-color="#8DBEAC"/>
<stop offset="0.5535" stop-color="#7CB4A3"/>
<stop offset="0.6175" stop-color="#72AE9E"/>
<stop offset="0.6968" stop-color="#6FAC9C"/>
</linearGradient>
</defs>
</svg>
