<svg width="684" height="454" viewBox="0 0 684 454" fill="none" xmlns="http://www.w3.org/2000/svg">
<path d="M605.398 139.4H60.3984V334.7H605.398V139.4Z" fill="#FBF3E9"/>
<path d="M673.001 40.4004L10.3008 423.1" stroke="url(#paint0_linear)" stroke-miterlimit="10"/>
<path d="M162.301 139.3V335.3" stroke="#F17F67" stroke-miterlimit="10"/>
<path d="M501.398 139.3V335.3" stroke="#F17F67" stroke-miterlimit="10"/>
<path d="M162.301 335.3L329.701 430.6" stroke="url(#paint1_linear)" stroke-miterlimit="10"/>
<path d="M616.2 270L361.5 417.1" stroke="url(#paint2_linear)" stroke-miterlimit="10"/>
<path d="M372.301 18.9004L76.3008 189.7" stroke="url(#paint3_linear)" stroke-miterlimit="10"/>
<path d="M24 60.2002L673 434.9" stroke="url(#paint4_linear)" stroke-miterlimit="10"/>
<path d="M162.301 335.3L329.701 430.6" stroke="url(#paint5_linear)" stroke-miterlimit="10"/>
<path d="M405.301 83.7998L639.301 218.5" stroke="url(#paint6_linear)" stroke-miterlimit="10"/>
<path d="M272.051 108.573C273.198 108.573 274.345 108.859 275.778 109.719L444.051 206.613C449.785 209.766 454.371 218.079 454.371 224.386V354.533C454.371 355.679 454.085 358.546 452.651 359.406C452.078 359.693 443.765 364.566 443.765 364.566C442.618 364.566 279.218 261.653 279.218 261.653C273.485 258.499 268.898 250.186 268.898 243.879L262.305 114.019L270.331 109.433C270.905 108.859 271.191 108.573 272.051 108.573Z" fill="url(#paint7_linear)"/>
<path d="M441.471 365.426C440.037 365.426 438.604 364.853 436.884 363.993L270.617 268.246C264.597 264.806 259.438 255.92 259.438 249.04V120.326C259.438 116.026 261.157 113.446 264.311 113.446C265.744 113.446 267.177 114.02 268.897 114.88L435.164 210.626C441.184 214.066 446.344 222.953 446.344 229.833V358.546C446.344 362.846 444.624 365.426 441.471 365.426Z" fill="#FCFEE5"/>
<path d="M264.598 115.167C265.745 115.167 266.892 115.454 268.325 116.314L434.592 212.06C440.038 215.214 444.912 223.24 444.912 229.834V358.547C444.912 359.98 444.625 363.707 441.758 363.707C440.612 363.707 439.465 363.42 438.032 362.56L271.765 266.814C266.318 263.66 261.445 255.634 261.445 249.04V120.327C261.158 118.607 261.445 115.167 264.598 115.167Z" fill="#FCFEE5"/>
<path d="M440.61 236.713C442.043 237.573 443.476 238.719 444.623 239.866V229.546C444.623 223.239 440.036 214.926 434.303 211.773L268.036 116.026C266.603 115.166 265.456 114.879 264.31 114.879C261.443 114.879 261.156 118.319 261.156 120.039V133.226L440.61 236.713Z" fill="#3A9492"/>
<path d="M290.973 143.548C292.12 144.408 293.266 143.548 293.266 142.114C293.266 140.681 292.12 138.961 290.973 138.101C289.826 137.241 288.68 138.101 288.68 139.534C288.68 140.968 289.826 142.688 290.973 143.548Z" fill="#CEE3CD"/>
<path d="M281.227 137.814C282.374 138.674 283.52 137.814 283.52 136.381C283.52 134.948 282.374 133.228 281.227 132.368C280.08 131.794 278.934 132.368 278.934 133.801C278.934 135.234 280.08 136.954 281.227 137.814Z" fill="#CEE3CD"/>
<path d="M271.762 132.367C272.909 133.227 274.055 132.367 274.055 130.934C274.055 129.501 272.909 127.781 271.762 126.921C270.615 126.061 269.469 126.921 269.469 128.354C269.469 129.787 270.329 131.507 271.762 132.367Z" fill="#CEE3CD"/>
<path d="M277.5 159.314L374.967 216.074V274.267L277.787 217.794L277.5 159.314Z" fill="#93C1AF"/>
<path d="M384.422 221.521L426.849 245.887L426.562 270.254L384.422 245.887V221.521Z" fill="#93C1AF"/>
<path d="M384.707 255.06L426.847 279.427V303.793L384.707 279.427V255.06Z" fill="#93C1AF"/>
<path d="M384.707 289.747L426.847 314.113V338.48L384.707 314.113V289.747Z" fill="#93C1AF"/>
<path d="M265.176 114.879C266.323 114.879 267.47 115.166 268.903 116.026L435.17 211.773C440.616 214.926 445.49 222.953 445.49 229.546V358.259C445.49 359.693 445.203 363.419 442.336 363.419C441.19 363.419 440.043 363.133 438.61 362.273L272.343 266.526C266.896 263.373 262.023 255.346 262.023 248.753V120.039C261.736 118.319 262.31 114.879 265.176 114.879Z" stroke="#CEE3CD" stroke-width="4.03125" stroke-miterlimit="10"/>
<path d="M341.213 307.337C341.213 326.353 316.491 341.566 285.794 341.566C255.096 341.566 230.375 326.353 230.375 307.337C230.375 303.806 230.375 296.199 230.375 296.199C237.167 282.073 260.801 273.108 285.794 273.108C308.342 273.108 332.519 284.246 341.213 296.199C341.213 296.199 341.213 302.447 341.213 307.337Z" fill="url(#paint8_linear)"/>
<path d="M285.794 330.429C316.401 330.429 341.213 315.104 341.213 296.2C341.213 277.296 316.401 261.971 285.794 261.971C255.187 261.971 230.375 277.296 230.375 296.2C230.375 315.104 255.187 330.429 285.794 330.429Z" fill="#3A9492"/>
<path d="M341.213 292.669C341.213 311.685 316.491 326.898 285.794 326.898C255.096 326.898 230.375 311.685 230.375 292.669C230.375 289.137 230.375 281.531 230.375 281.531C237.167 267.404 260.801 258.439 285.794 258.439C308.342 258.439 332.519 269.578 341.213 281.531C341.213 281.531 341.213 287.779 341.213 292.669Z" fill="url(#paint9_linear)"/>
<path d="M285.794 315.761C316.401 315.761 341.213 300.436 341.213 281.531C341.213 262.627 316.401 247.302 285.794 247.302C255.187 247.302 230.375 262.627 230.375 281.531C230.375 300.436 255.187 315.761 285.794 315.761Z" fill="#3A9492"/>
<path d="M341.213 277.998C341.213 297.015 316.491 312.228 285.794 312.228C255.096 312.228 230.375 297.015 230.375 277.998C230.375 274.467 230.375 266.86 230.375 266.86C237.167 252.734 260.801 243.769 285.794 243.769C308.342 243.769 332.519 254.907 341.213 266.86C341.213 266.86 341.213 273.108 341.213 277.998Z" fill="url(#paint10_linear)"/>
<path d="M285.794 301.09C316.401 301.09 341.213 285.765 341.213 266.861C341.213 247.957 316.401 232.632 285.794 232.632C255.187 232.632 230.375 247.957 230.375 266.861C230.375 285.765 255.187 301.09 285.794 301.09Z" fill="#6FAC9C"/>
<path d="M328.994 262.513C328.994 281.529 304.273 296.742 273.575 296.742C242.877 296.742 218.156 281.258 218.156 262.513C218.156 258.981 218.156 251.375 218.156 251.375C224.948 237.248 248.582 228.284 273.575 228.284C296.123 228.284 320.301 239.422 328.994 251.375C328.994 251.375 328.994 257.623 328.994 262.513Z" fill="url(#paint11_linear)"/>
<path d="M273.572 284.247C243.69 284.247 219.512 269.577 219.512 251.376C219.512 233.175 243.69 218.505 273.572 218.505C303.455 218.505 327.633 233.175 327.633 251.376C327.633 269.577 303.183 284.247 273.572 284.247Z" fill="#CEE3CD"/>
<path d="M273.575 219.592C302.643 219.592 326.277 233.718 326.277 251.104C326.277 268.491 302.643 282.617 273.575 282.617C244.507 282.617 220.873 268.491 220.873 251.104C220.873 233.718 244.507 219.592 273.575 219.592ZM273.575 216.875C242.877 216.875 218.156 232.088 218.156 251.104C218.156 270.12 242.877 285.333 273.575 285.333C304.273 285.333 328.994 270.12 328.994 251.104C328.994 232.088 304.001 216.875 273.575 216.875Z" fill="#FCFEE5"/>
<path d="M273.571 276.911C299.227 276.911 320.025 265.478 320.025 251.375C320.025 237.272 299.227 225.839 273.571 225.839C247.915 225.839 227.117 237.272 227.117 251.375C227.117 265.478 247.915 276.911 273.571 276.911Z" fill="#3A9492"/>
<g clip-path="url(#clip0)">
<g opacity="0.6">
<path opacity="0.8" d="M279.896 247.993L259.455 243.556L265.234 256.457L287.576 259.79L279.896 247.993Z" fill="#FCFEE5"/>
</g>
<g opacity="0.45">
<path opacity="0.65" d="M259.452 243.556L265.231 256.457L296.782 238.243L259.452 243.556Z" fill="#FCFEE5"/>
</g>
<g opacity="0.8">
<path d="M296.781 238.243L265.23 256.458L287.573 259.791L296.781 238.243Z" fill="#FCFEE5"/>
</g>
<g opacity="0.45">
<path opacity="0.65" d="M256.797 245.09L251.105 264.613L262.576 257.991L256.797 245.09Z" fill="#FCFEE5"/>
</g>
<g opacity="0.8">
<path d="M262.575 257.991L251.104 264.613L284.929 261.331L262.575 257.991Z" fill="#FCFEE5"/>
</g>
</g>
<defs>
<linearGradient id="paint0_linear" x1="10.0774" y1="231.749" x2="673.247" y2="231.749" gradientUnits="userSpaceOnUse">
<stop stop-color="#FCFEE5" stop-opacity="0"/>
<stop offset="0.016039" stop-color="#FBF0D9" stop-opacity="0.0295774"/>
<stop offset="0.054242" stop-color="#FAD6C1" stop-opacity="0.1"/>
<stop offset="0.0981353" stop-color="#F9C0AD" stop-opacity="0.181"/>
<stop offset="0.1493" stop-color="#F8AF9E" stop-opacity="0.2753"/>
<stop offset="0.2125" stop-color="#F7A393" stop-opacity="0.3918"/>
<stop offset="0.3007" stop-color="#F79C8D" stop-opacity="0.5546"/>
<stop offset="0.5423" stop-color="#F79A8B"/>
<stop offset="0.6948" stop-color="#F79C8D" stop-opacity="0.6668"/>
<stop offset="0.7775" stop-color="#F8A494" stop-opacity="0.4862"/>
<stop offset="0.8434" stop-color="#F8B2A1" stop-opacity="0.3421"/>
<stop offset="0.9005" stop-color="#F9C5B2" stop-opacity="0.2174"/>
<stop offset="0.9513" stop-color="#FADEC8" stop-opacity="0.1063"/>
<stop offset="0.998" stop-color="#FCFCE4" stop-opacity="0.01"/>
<stop offset="1" stop-color="#FCFEE5" stop-opacity="0"/>
</linearGradient>
<linearGradient id="paint1_linear" x1="162.069" y1="382.969" x2="329.951" y2="382.969" gradientUnits="userSpaceOnUse">
<stop stop-color="#EFEFEF" stop-opacity="0.5"/>
<stop offset="0.032661" stop-color="#ECECEC" stop-opacity="0.5201"/>
<stop offset="0.2841" stop-color="#DDDDDD" stop-opacity="0.6748"/>
<stop offset="0.4876" stop-color="#D8D8D8" stop-opacity="0.8"/>
<stop offset="1" stop-color="#EFEFEF" stop-opacity="0.5"/>
</linearGradient>
<linearGradient id="paint2_linear" x1="361.269" y1="343.531" x2="616.458" y2="343.531" gradientUnits="userSpaceOnUse">
<stop stop-color="#FCFEE5" stop-opacity="0"/>
<stop offset="0.016039" stop-color="#FBF0D9" stop-opacity="0.0295774"/>
<stop offset="0.054242" stop-color="#FAD6C1" stop-opacity="0.1"/>
<stop offset="0.0981353" stop-color="#F9C0AD" stop-opacity="0.181"/>
<stop offset="0.1493" stop-color="#F8AF9E" stop-opacity="0.2753"/>
<stop offset="0.2125" stop-color="#F7A393" stop-opacity="0.3918"/>
<stop offset="0.3007" stop-color="#F79C8D" stop-opacity="0.5546"/>
<stop offset="0.5423" stop-color="#F79A8B"/>
<stop offset="0.6948" stop-color="#F79C8D" stop-opacity="0.6668"/>
<stop offset="0.7775" stop-color="#F8A494" stop-opacity="0.4862"/>
<stop offset="0.8434" stop-color="#F8B2A1" stop-opacity="0.3421"/>
<stop offset="0.9005" stop-color="#F9C5B2" stop-opacity="0.2174"/>
<stop offset="0.9513" stop-color="#FADEC8" stop-opacity="0.1063"/>
<stop offset="0.998" stop-color="#FCFCE4" stop-opacity="0.01"/>
<stop offset="1" stop-color="#FCFEE5" stop-opacity="0"/>
</linearGradient>
<linearGradient id="paint3_linear" x1="76.0657" y1="104.309" x2="372.502" y2="104.309" gradientUnits="userSpaceOnUse">
<stop stop-color="#FCFEE5" stop-opacity="0"/>
<stop offset="0.016039" stop-color="#FBF0D9" stop-opacity="0.0295774"/>
<stop offset="0.054242" stop-color="#FAD6C1" stop-opacity="0.1"/>
<stop offset="0.0981353" stop-color="#F9C0AD" stop-opacity="0.181"/>
<stop offset="0.1493" stop-color="#F8AF9E" stop-opacity="0.2753"/>
<stop offset="0.2125" stop-color="#F7A393" stop-opacity="0.3918"/>
<stop offset="0.3007" stop-color="#F79C8D" stop-opacity="0.5546"/>
<stop offset="0.5423" stop-color="#F79A8B"/>
<stop offset="0.6948" stop-color="#F79C8D" stop-opacity="0.6668"/>
<stop offset="0.7775" stop-color="#F8A494" stop-opacity="0.4862"/>
<stop offset="0.8434" stop-color="#F8B2A1" stop-opacity="0.3421"/>
<stop offset="0.9005" stop-color="#F9C5B2" stop-opacity="0.2174"/>
<stop offset="0.9513" stop-color="#FADEC8" stop-opacity="0.1063"/>
<stop offset="0.998" stop-color="#FCFCE4" stop-opacity="0.01"/>
<stop offset="1" stop-color="#FCFEE5" stop-opacity="0"/>
</linearGradient>
<linearGradient id="paint4_linear" x1="23.7534" y1="247.534" x2="673.246" y2="247.534" gradientUnits="userSpaceOnUse">
<stop stop-color="#FCFEE5" stop-opacity="0"/>
<stop offset="0.0165844" stop-color="#F7EADA" stop-opacity="0.0305832"/>
<stop offset="0.0487949" stop-color="#EECBC9" stop-opacity="0.0899822"/>
<stop offset="0.085206" stop-color="#E6B0BA" stop-opacity="0.1571"/>
<stop offset="0.1263" stop-color="#E09AAE" stop-opacity="0.2329"/>
<stop offset="0.1742" stop-color="#DC89A4" stop-opacity="0.3213"/>
<stop offset="0.2334" stop-color="#D87D9E" stop-opacity="0.4304"/>
<stop offset="0.3161" stop-color="#D7769A" stop-opacity="0.5829"/>
<stop offset="0.5423" stop-color="#D67499"/>
<stop offset="0.6811" stop-color="#D7769A" stop-opacity="0.6968"/>
<stop offset="0.7563" stop-color="#D97E9F" stop-opacity="0.5325"/>
<stop offset="0.8162" stop-color="#DD8CA6" stop-opacity="0.4014"/>
<stop offset="0.8682" stop-color="#E29FB1" stop-opacity="0.288"/>
<stop offset="0.9149" stop-color="#E9B8BF" stop-opacity="0.1859"/>
<stop offset="0.9575" stop-color="#F1D7CF" stop-opacity="0.0928819"/>
<stop offset="0.9969" stop-color="#FBFBE3" stop-opacity="0.01"/>
<stop offset="1" stop-color="#FCFEE5" stop-opacity="0"/>
</linearGradient>
<linearGradient id="paint5_linear" x1="162.069" y1="382.969" x2="329.951" y2="382.969" gradientUnits="userSpaceOnUse">
<stop offset="0.2301" stop-color="#D87399"/>
<stop offset="0.3398" stop-color="#DB7D9F"/>
<stop offset="0.5233" stop-color="#E296AF"/>
<stop offset="0.758" stop-color="#EDC0C9"/>
<stop offset="1" stop-color="#FBF3E8"/>
</linearGradient>
<linearGradient id="paint6_linear" x1="405.046" y1="151.139" x2="639.586" y2="151.139" gradientUnits="userSpaceOnUse">
<stop stop-color="#FCFEE5" stop-opacity="0"/>
<stop offset="0.0165844" stop-color="#F7EADA" stop-opacity="0.0305832"/>
<stop offset="0.0487949" stop-color="#EECBC9" stop-opacity="0.0899822"/>
<stop offset="0.085206" stop-color="#E6B0BA" stop-opacity="0.1571"/>
<stop offset="0.1263" stop-color="#E09AAE" stop-opacity="0.2329"/>
<stop offset="0.1742" stop-color="#DC89A4" stop-opacity="0.3213"/>
<stop offset="0.2334" stop-color="#D87D9E" stop-opacity="0.4304"/>
<stop offset="0.3161" stop-color="#D7769A" stop-opacity="0.5829"/>
<stop offset="0.5423" stop-color="#D67499"/>
<stop offset="0.6811" stop-color="#D7769A" stop-opacity="0.6968"/>
<stop offset="0.7563" stop-color="#D97E9F" stop-opacity="0.5325"/>
<stop offset="0.8162" stop-color="#DD8CA6" stop-opacity="0.4014"/>
<stop offset="0.8682" stop-color="#E29FB1" stop-opacity="0.288"/>
<stop offset="0.9149" stop-color="#E9B8BF" stop-opacity="0.1859"/>
<stop offset="0.9575" stop-color="#F1D7CF" stop-opacity="0.0928819"/>
<stop offset="0.9969" stop-color="#FBFBE3" stop-opacity="0.01"/>
<stop offset="1" stop-color="#FCFEE5" stop-opacity="0"/>
</linearGradient>
<linearGradient id="paint7_linear" x1="283.803" y1="99.6451" x2="438.754" y2="368.029" gradientUnits="userSpaceOnUse">
<stop stop-color="#93C1AF"/>
<stop offset="0.5364" stop-color="#93C1AF"/>
<stop offset="0.5883" stop-color="#CEE3CD"/>
<stop offset="0.6065" stop-color="#B0D3C1"/>
<stop offset="0.6303" stop-color="#91C2B5"/>
<stop offset="0.6573" stop-color="#75B4AA"/>
<stop offset="0.6877" stop-color="#5FA8A1"/>
<stop offset="0.7233" stop-color="#4E9F9A"/>
<stop offset="0.7672" stop-color="#439995"/>
<stop offset="0.8288" stop-color="#3C9593"/>
<stop offset="1" stop-color="#3A9492"/>
</linearGradient>
<linearGradient id="paint8_linear" x1="230.451" y1="307.285" x2="341.221" y2="307.285" gradientUnits="userSpaceOnUse">
<stop stop-color="#6FAC9C"/>
<stop offset="0.0155111" stop-color="#81B7A6"/>
<stop offset="0.0565777" stop-color="#ADD0BC"/>
<stop offset="0.0962894" stop-color="#CFE4CE"/>
<stop offset="0.1338" stop-color="#E8F2DB"/>
<stop offset="0.1681" stop-color="#F7FBE2"/>
<stop offset="0.1964" stop-color="#FCFEE5"/>
<stop offset="0.3058" stop-color="#DBEBD4"/>
<stop offset="0.5145" stop-color="#A1C9B6"/>
<stop offset="0.669" stop-color="#7DB4A3"/>
<stop offset="0.7512" stop-color="#6FAC9C"/>
<stop offset="0.8359" stop-color="#5CA398"/>
<stop offset="1" stop-color="#3A9492"/>
</linearGradient>
<linearGradient id="paint9_linear" x1="230.451" y1="292.709" x2="341.221" y2="292.709" gradientUnits="userSpaceOnUse">
<stop stop-color="#6FAC9C"/>
<stop offset="0.0155111" stop-color="#81B7A6"/>
<stop offset="0.0565777" stop-color="#ADD0BC"/>
<stop offset="0.0962894" stop-color="#CFE4CE"/>
<stop offset="0.1338" stop-color="#E8F2DB"/>
<stop offset="0.1681" stop-color="#F7FBE2"/>
<stop offset="0.1964" stop-color="#FCFEE5"/>
<stop offset="0.3058" stop-color="#DBEBD4"/>
<stop offset="0.5145" stop-color="#A1C9B6"/>
<stop offset="0.669" stop-color="#7DB4A3"/>
<stop offset="0.7512" stop-color="#6FAC9C"/>
<stop offset="0.8359" stop-color="#5CA398"/>
<stop offset="1" stop-color="#3A9492"/>
</linearGradient>
<linearGradient id="paint10_linear" x1="230.451" y1="278.13" x2="341.221" y2="278.13" gradientUnits="userSpaceOnUse">
<stop stop-color="#6FAC9C"/>
<stop offset="0.0155111" stop-color="#81B7A6"/>
<stop offset="0.0565777" stop-color="#ADD0BC"/>
<stop offset="0.0962894" stop-color="#CFE4CE"/>
<stop offset="0.1338" stop-color="#E8F2DB"/>
<stop offset="0.1681" stop-color="#F7FBE2"/>
<stop offset="0.1964" stop-color="#FCFEE5"/>
<stop offset="0.3058" stop-color="#DBEBD4"/>
<stop offset="0.5145" stop-color="#A1C9B6"/>
<stop offset="0.669" stop-color="#7DB4A3"/>
<stop offset="0.7512" stop-color="#6FAC9C"/>
<stop offset="0.8359" stop-color="#5CA398"/>
<stop offset="1" stop-color="#3A9492"/>
</linearGradient>
<linearGradient id="paint11_linear" x1="218.146" y1="262.433" x2="328.916" y2="262.433" gradientUnits="userSpaceOnUse">
<stop stop-color="#6FAC9C"/>
<stop offset="0.0155111" stop-color="#81B7A6"/>
<stop offset="0.0565777" stop-color="#ADD0BC"/>
<stop offset="0.0962894" stop-color="#CFE4CE"/>
<stop offset="0.1338" stop-color="#E8F2DB"/>
<stop offset="0.1681" stop-color="#F7FBE2"/>
<stop offset="0.1964" stop-color="#FCFEE5"/>
<stop offset="0.3058" stop-color="#DBEBD4"/>
<stop offset="0.5145" stop-color="#A1C9B6"/>
<stop offset="0.669" stop-color="#7DB4A3"/>
<stop offset="0.7512" stop-color="#6FAC9C"/>
<stop offset="0.8359" stop-color="#5CA398"/>
<stop offset="1" stop-color="#3A9492"/>
</linearGradient>
<clipPath id="clip0">
<rect width="32.9162" height="53.5844" fill="white" transform="matrix(0.866044 0.499967 -0.866044 0.499967 283.172 229.752)"/>
</clipPath>
</defs>
</svg>
