<svg width="355" height="282" viewBox="0 0 355 282" fill="none" xmlns="http://www.w3.org/2000/svg">
<g clip-path="url(#clip0)">
<path d="M454.766 45.6401L70.0166 267.811" stroke="url(#paint0_linear)" stroke-miterlimit="10"/>
<path d="M-98 0.709473L389.263 282" stroke="url(#paint1_linear)" stroke-miterlimit="10"/>
<path d="M195.469 0L47.1973 84.6591" stroke="url(#paint2_linear)" stroke-miterlimit="10"/>
<path d="M288.878 59.2378L471.321 164.589" stroke="url(#paint3_linear)" stroke-miterlimit="10"/>
<path d="M151.366 189.773C148.174 187.882 146.637 185.517 146.637 183.152C146.637 180.787 146.637 181.97 146.637 181.97L206.229 145.079C212.614 141.414 223.019 141.414 229.404 145.079L288.287 181.26C288.287 181.26 288.287 180.551 288.287 182.916C288.405 185.399 286.75 187.882 283.557 189.773L229.049 221.225C222.664 224.89 212.259 224.89 205.874 221.225L151.366 189.773Z" fill="url(#paint4_linear)"/>
<path d="M151.366 188C144.981 184.335 144.981 178.304 151.366 174.639L206.11 143.306C212.495 139.64 222.9 139.64 229.285 143.306L283.439 174.521C289.824 178.186 289.824 184.216 283.439 187.882L228.931 219.333C222.546 222.999 212.141 222.999 205.756 219.333L151.366 188Z" fill="#FFF6F1"/>
<path d="M163.071 127.225V185.399L204.928 209.519V151.346L163.071 127.225Z" fill="#FCE0D1"/>
<path d="M273.743 95.3008L220.181 101.922V188.118L241.345 200.297L273.743 181.615V95.3008Z" fill="#FDA789"/>
<path d="M220.181 101.567L241.109 113.627V200.296L220.299 188.118L220.181 101.567Z" fill="#FCCDB9"/>
<path d="M212.613 96.9559L244.065 78.7471L272.915 95.3005L241.345 113.509L212.613 96.9559Z" fill="#FFF6F1"/>
<path d="M244.065 79.2203L271.97 95.3008L241.346 113.037L213.442 96.9562L244.065 79.2203ZM244.065 78.2744L211.668 96.9562L241.346 113.983L273.743 95.3008L244.065 78.2744Z" fill="#FCCDB9"/>
<path d="M231.532 136.211L204.929 151.464V209.52L231.414 194.267L231.532 136.211Z" fill="#FDA789"/>
<path d="M164.018 127.343L189.794 112.563L230.586 136.211L204.928 150.991L164.018 127.343Z" fill="#FFF6F1"/>
<path d="M189.794 113.154L229.759 136.211L205.047 150.518L165.082 127.461L189.794 113.154ZM189.794 112.09L163.19 127.343L205.047 151.464L231.533 136.211L189.794 112.09Z" fill="#FCCDB9"/>
<path d="M215.452 72.244L186.602 55.5723V124.151L215.452 140.704V72.244Z" fill="#FCE0D1"/>
<path d="M250.45 39.7285L236.498 47.6505V110.081L250.332 102.277L250.45 39.7285Z" fill="#FDA789"/>
<path d="M222.31 39.7285L236.498 47.6505V116.111L222.428 108.071L222.31 39.7285Z" fill="#FCCDB9"/>
<path d="M187.547 55.5722L215.57 39.4917L232.123 49.0691L214.742 59.0011C214.624 59.1194 214.505 59.2376 214.505 59.3558C214.505 59.4741 214.624 59.7106 214.742 59.7106L225.383 65.859L215.451 71.5345L187.547 55.5722Z" fill="#FFF6F1"/>
<path d="M215.57 40.0832L231.296 49.1876L214.506 58.7649C214.269 58.8832 214.033 59.2379 214.033 59.4744C214.033 59.7109 214.151 60.0656 214.506 60.302L224.438 66.0958L215.452 71.2983L188.375 55.6907L215.57 40.0832ZM215.57 39.019L186.602 55.5725L215.452 72.2442L226.212 65.9775L214.979 59.4744L233.069 49.0693L215.57 39.019Z" fill="#FCCDB9"/>
<path d="M226.211 65.9771L215.451 72.2437V140.704L226.093 134.437L226.211 65.9771Z" fill="#FDA789"/>
<path d="M214.742 34.999L236.498 47.6506V72.126L214.742 59.4745V34.999Z" fill="#FCE0D1"/>
<path d="M193.222 121.313L189.32 119.066V63.6123L193.222 65.9771V121.313Z" fill="#FCBAA1"/>
<path d="M199.607 124.86L195.587 122.495V67.1597L199.607 69.5244V124.86Z" fill="#FCBAA1"/>
<path d="M205.993 128.526L201.973 126.279V70.8252L205.993 73.19V128.526Z" fill="#FCBAA1"/>
<path d="M212.258 132.191L208.356 129.945V74.6089L212.258 76.8554V132.191Z" fill="#FCBAA1"/>
<path d="M232.596 56.3998L218.289 48.8325V41.9746L232.596 49.5419V56.3998Z" fill="#FCBAA1"/>
<path d="M232.596 66.5687L218.289 59.0014V52.1436L232.596 59.7108V66.5687Z" fill="#FCBAA1"/>
<path d="M168.984 142.596L166.501 141.059V135.975L168.984 137.393V142.596Z" fill="#FCBAA1"/>
<path d="M168.984 152.174L166.501 150.637V145.552L168.984 147.089V152.174Z" fill="#FCBAA1"/>
<path d="M168.984 161.751L166.501 160.332V155.248L168.984 156.666V161.751Z" fill="#FCBAA1"/>
<path d="M168.984 171.328L166.501 169.909V164.825L168.984 166.244V171.328Z" fill="#FCBAA1"/>
<path d="M168.984 180.905L166.501 179.487V174.402L168.984 175.821V180.905Z" fill="#FCBAA1"/>
<path d="M174.423 145.788L172.059 144.369V139.285L174.423 140.704V145.788Z" fill="#FCBAA1"/>
<path d="M174.423 155.366L172.059 153.947V148.863L174.423 150.282V155.366Z" fill="#FCBAA1"/>
<path d="M174.423 164.943L172.059 163.524V158.44L174.423 159.859V164.943Z" fill="#FCBAA1"/>
<path d="M174.423 174.638L172.059 173.101V168.017L174.423 169.436V174.638Z" fill="#FCBAA1"/>
<path d="M174.423 184.216L172.059 182.679V177.595L174.423 179.132V184.216Z" fill="#FCBAA1"/>
<path d="M179.98 148.863L177.497 147.444V142.359L179.98 143.778V148.863Z" fill="#FCBAA1"/>
<path d="M179.98 158.44L177.497 157.021V151.937L179.98 153.356V158.44Z" fill="#FCBAA1"/>
<path d="M179.98 168.018L177.497 166.599V161.515L179.98 162.934V168.018Z" fill="#FCBAA1"/>
<path d="M179.98 177.594L177.497 176.176V171.091L179.98 172.51V177.594Z" fill="#FCBAA1"/>
<path d="M179.98 187.172L177.497 185.753V180.669L179.98 182.088V187.172Z" fill="#FCBAA1"/>
<path d="M185.42 152.174L182.937 150.637V145.552L185.42 146.971V152.174Z" fill="#FCBAA1"/>
<path d="M185.42 161.751L182.937 160.214V155.13L185.42 156.667V161.751Z" fill="#FCBAA1"/>
<path d="M185.42 171.328L182.937 169.909V164.825L185.42 166.244V171.328Z" fill="#FCBAA1"/>
<path d="M185.42 180.905L182.937 179.487V174.402L185.42 175.821V180.905Z" fill="#FCBAA1"/>
<path d="M185.42 190.483L182.937 189.064V183.98L185.42 185.399V190.483Z" fill="#FCBAA1"/>
<path d="M190.858 155.248L188.375 153.711V148.626L190.858 150.164V155.248Z" fill="#FCBAA1"/>
<path d="M190.858 164.825L188.375 163.407V158.322L190.858 159.741V164.825Z" fill="#FCBAA1"/>
<path d="M190.858 174.403L188.375 172.984V167.899L190.858 169.318V174.403Z" fill="#FCBAA1"/>
<path d="M190.858 183.98L188.375 182.561V177.477L190.858 178.895V183.98Z" fill="#FCBAA1"/>
<path d="M190.858 193.557L188.375 192.138V187.054L190.858 188.473V193.557Z" fill="#FCBAA1"/>
<path d="M196.296 158.44L193.932 157.021V151.937L196.296 153.356V158.44Z" fill="#FCBAA1"/>
<path d="M196.296 168.018L193.932 166.599V161.515L196.296 162.934V168.018Z" fill="#FCBAA1"/>
<path d="M196.296 177.595L193.932 176.176V171.092L196.296 172.511V177.595Z" fill="#FCBAA1"/>
<path d="M196.296 187.172L193.932 185.753V180.669L196.296 182.088V187.172Z" fill="#FCBAA1"/>
<path d="M196.296 196.867L193.932 195.33V190.246L196.296 191.783V196.867Z" fill="#FCBAA1"/>
<path d="M201.735 161.515L199.37 160.096V155.012L201.735 156.431V161.515Z" fill="#FCBAA1"/>
<path d="M201.735 171.092L199.37 169.674V164.589L201.735 166.008V171.092Z" fill="#FCBAA1"/>
<path d="M201.735 180.67L199.37 179.251V174.167L201.735 175.585V180.67Z" fill="#FCBAA1"/>
<path d="M201.735 190.247L199.37 188.828V183.744L201.735 185.163V190.247Z" fill="#FCBAA1"/>
<path d="M201.735 199.824L199.37 198.405V193.321L201.735 194.74V199.824Z" fill="#FCBAA1"/>
<path d="M225.029 152.174L227.394 150.637V145.552L225.029 146.971V152.174Z" fill="#FB9475"/>
<path d="M225.029 161.751L227.394 160.214V155.13L225.029 156.667V161.751Z" fill="#FB9475"/>
<path d="M225.029 171.328L227.394 169.909V164.825L225.029 166.244V171.328Z" fill="#FB9475"/>
<path d="M225.029 180.905L227.394 179.487V174.402L225.029 175.821V180.905Z" fill="#FB9475"/>
<path d="M225.029 190.483L227.394 189.064V183.98L225.029 185.399V190.483Z" fill="#FB9475"/>
<path d="M219.59 155.248L221.955 153.711V148.626L219.59 150.164V155.248Z" fill="#FB9475"/>
<path d="M219.59 164.825L221.955 163.407V158.322L219.59 159.741V164.825Z" fill="#FB9475"/>
<path d="M219.59 174.403L221.955 172.984V167.899L219.59 169.318V174.403Z" fill="#FB9475"/>
<path d="M219.59 183.98L221.955 182.561V177.477L219.59 178.895V183.98Z" fill="#FB9475"/>
<path d="M219.59 193.557L221.955 192.138V187.054L219.59 188.473V193.557Z" fill="#FB9475"/>
<path d="M214.032 158.44L216.515 157.021V151.937L214.032 153.356V158.44Z" fill="#FB9475"/>
<path d="M214.032 168.018L216.515 166.599V161.515L214.032 162.934V168.018Z" fill="#FB9475"/>
<path d="M214.032 177.595L216.515 176.176V171.092L214.032 172.511V177.595Z" fill="#FB9475"/>
<path d="M214.032 187.172L216.515 185.753V180.669L214.032 182.088V187.172Z" fill="#FB9475"/>
<path d="M214.032 196.868L216.515 195.331V190.247L214.032 191.784V196.868Z" fill="#FB9475"/>
<path d="M208.594 161.514L211.077 160.096V155.011L208.594 156.43V161.514Z" fill="#FB9475"/>
<path d="M208.594 171.092L211.077 169.673V164.589L208.594 166.008V171.092Z" fill="#FB9475"/>
<path d="M208.594 180.67L211.077 179.251V174.167L208.594 175.585V180.67Z" fill="#FB9475"/>
<path d="M208.594 190.246L211.077 188.827V183.743L208.594 185.162V190.246Z" fill="#FB9475"/>
<path d="M208.594 199.824L211.077 198.405V193.321L208.594 194.74V199.824Z" fill="#FB9475"/>
<path d="M267.595 113.036L270.078 111.617V106.533L267.595 107.952V113.036Z" fill="#FB9475"/>
<path d="M267.595 122.614L270.078 121.195V116.111L267.595 117.53V122.614Z" fill="#FB9475"/>
<path d="M267.595 132.31L270.078 130.773V125.688L267.595 127.226V132.31Z" fill="#FB9475"/>
<path d="M267.595 141.887L270.078 140.468V135.384L267.595 136.803V141.887Z" fill="#FB9475"/>
<path d="M267.595 151.464L270.078 150.045V144.961L267.595 146.38V151.464Z" fill="#FB9475"/>
<path d="M262.156 116.347L264.639 114.928V109.844L262.156 111.263V116.347Z" fill="#FB9475"/>
<path d="M262.156 125.925L264.639 124.506V119.421L262.156 120.84V125.925Z" fill="#FB9475"/>
<path d="M262.156 135.502L264.639 134.083V128.999L262.156 130.418V135.502Z" fill="#FB9475"/>
<path d="M262.156 145.079L264.639 143.66V138.576L262.156 139.995V145.079Z" fill="#FB9475"/>
<path d="M262.156 154.775L264.639 153.238V148.153L262.156 149.572V154.775Z" fill="#FB9475"/>
<path d="M256.717 119.421L259.2 118.002V112.918L256.717 114.337V119.421Z" fill="#FB9475"/>
<path d="M256.717 128.999L259.2 127.58V122.496L256.717 123.914V128.999Z" fill="#FB9475"/>
<path d="M256.717 138.576L259.2 137.158V132.073L256.717 133.492V138.576Z" fill="#FB9475"/>
<path d="M256.717 148.153L259.2 146.734V141.65L256.717 143.069V148.153Z" fill="#FB9475"/>
<path d="M256.717 157.849L259.2 156.312V151.228L256.717 152.765V157.849Z" fill="#FB9475"/>
<path d="M251.279 122.614L253.644 121.195V116.111L251.279 117.53V122.614Z" fill="#FB9475"/>
<path d="M251.278 132.31L253.643 130.773V125.688L251.278 127.226V132.31Z" fill="#FB9475"/>
<path d="M251.278 141.887L253.643 140.468V135.384L251.278 136.803V141.887Z" fill="#FB9475"/>
<path d="M251.278 151.464L253.643 150.045V144.961L251.278 146.38V151.464Z" fill="#FB9475"/>
<path d="M251.278 161.042L253.643 159.623V154.539L251.278 155.957V161.042Z" fill="#FB9475"/>
<path d="M245.722 125.688L248.205 124.269V119.185L245.722 120.604V125.688Z" fill="#FB9475"/>
<path d="M245.721 135.266L248.204 133.847V128.763L245.721 130.182V135.266Z" fill="#FB9475"/>
<path d="M245.721 144.962L248.204 143.425V138.34L245.721 139.877V144.962Z" fill="#FB9475"/>
<path d="M245.721 154.538L248.204 153.119V148.035L245.721 149.454V154.538Z" fill="#FB9475"/>
<path d="M245.721 164.116L248.204 162.697V157.613L245.721 159.032V164.116Z" fill="#FB9475"/>
<path d="M267.595 161.751L270.078 160.332V155.13L267.595 156.667V161.751Z" fill="#FB9475"/>
<path d="M267.595 171.329L270.078 169.91V164.826L267.595 166.245V171.329Z" fill="#FB9475"/>
<path d="M267.595 180.905L270.078 179.487V174.402L267.595 175.821V180.905Z" fill="#FB9475"/>
<path d="M262.156 164.944L264.639 163.525V158.44L262.156 159.859V164.944Z" fill="#FB9475"/>
<path d="M262.156 174.521L264.639 173.102V168.018L262.156 169.437V174.521Z" fill="#FB9475"/>
<path d="M262.156 184.217L264.639 182.68V177.596L262.156 179.133V184.217Z" fill="#FB9475"/>
<path d="M256.717 168.018L259.2 166.599V161.515L256.717 162.934V168.018Z" fill="#FB9475"/>
<path d="M256.717 177.713L259.2 176.176V171.092L256.717 172.511V177.713Z" fill="#FB9475"/>
<path d="M256.717 187.291L259.2 185.872V180.669L256.717 182.207V187.291Z" fill="#FB9475"/>
<path d="M251.279 171.329L253.644 169.91V164.826L251.279 166.245V171.329Z" fill="#FB9475"/>
<path d="M251.278 180.906L253.643 179.487V174.403L251.278 175.822V180.906Z" fill="#FB9475"/>
<path d="M251.278 190.484L253.643 189.065V183.98L251.278 185.399V190.484Z" fill="#FB9475"/>
<path d="M245.722 174.403L248.205 172.984V167.782L245.722 169.319V174.403Z" fill="#FB9475"/>
<path d="M245.721 183.981L248.204 182.562V177.478L245.721 178.896V183.981Z" fill="#FB9475"/>
<path d="M245.721 193.557L248.204 192.138V187.054L245.721 188.473V193.557Z" fill="#FB9475"/>
<path d="M196.533 56.636V54.626H212.259V56.636L204.337 61.2474L196.533 56.636Z" fill="#FCE0D1"/>
<path d="M204.337 59.2373L212.259 54.626V56.636L204.337 61.2474V59.2373Z" fill="#FCBAA1"/>
<path d="M197.361 54.6261L204.456 50.606L211.432 54.6261L204.337 58.7644L197.361 54.6261Z" fill="#FEF1EA"/>
<path d="M204.455 51.0792L210.604 54.6264L204.455 58.1736L198.307 54.6264L204.455 51.0792ZM204.455 50.1333L196.533 54.6264L204.455 59.2377L212.377 54.6264L204.455 50.1333Z" fill="#FFE6DD"/>
<path d="M172.059 127.817V126.752H180.454V127.817L176.197 130.3L172.059 127.817Z" fill="#FCE0D1"/>
<path d="M176.197 129.235L180.454 126.752V127.817L176.197 130.3V129.235Z" fill="#FCBAA1"/>
<path d="M172.887 126.752L176.316 124.86L179.626 126.752L176.197 128.644L172.887 126.752Z" fill="#FEF1EA"/>
<path d="M176.315 125.333L178.798 126.752L176.315 128.171L173.832 126.752L176.315 125.333ZM176.315 124.269L172.059 126.752L176.315 129.235L180.572 126.752L176.315 124.269Z" fill="#FFE6DD"/>
<path d="M179.744 132.309V131.245H188.257V132.309L184.001 134.792L179.744 132.309Z" fill="#FCE0D1"/>
<path d="M184.001 133.728L188.258 131.245V132.309L184.001 134.792V133.728Z" fill="#FCBAA1"/>
<path d="M180.69 131.245L184.001 129.354L187.43 131.245L184.001 133.137L180.69 131.245Z" fill="#FEF1EA"/>
<path d="M184.001 129.826L186.484 131.245L184.001 132.664L181.518 131.245L184.001 129.826ZM184.001 128.762L179.744 131.245L184.001 133.728L188.257 131.245L184.001 128.762Z" fill="#FFE6DD"/>
<path d="M228.693 193.912V205.499" stroke="#FD9471" stroke-miterlimit="10" stroke-linecap="round"/>
<path d="M228.694 201.716C232.285 201.716 235.197 198.804 235.197 195.213C235.197 191.621 232.285 188.709 228.694 188.709C225.102 188.709 222.19 191.621 222.19 195.213C222.19 198.804 225.102 201.716 228.694 201.716Z" fill="url(#paint5_linear)"/>
<path d="M215.452 200.415V212.002" stroke="#FD9471" stroke-miterlimit="10" stroke-linecap="round"/>
<path d="M215.451 208.219C219.043 208.219 221.955 205.307 221.955 201.716C221.955 198.124 219.043 195.212 215.451 195.212C211.86 195.212 208.948 198.124 208.948 201.716C208.948 205.307 211.86 208.219 215.451 208.219Z" fill="url(#paint6_linear)"/>
</g>
<defs>
<linearGradient id="paint0_linear" x1="69.7229" y1="156.734" x2="455.08" y2="156.734" gradientUnits="userSpaceOnUse">
<stop stop-color="#FFF6F1"/>
<stop offset="0.106" stop-color="#FEDCCF"/>
<stop offset="0.2074" stop-color="#FDC9B6"/>
<stop offset="0.2994" stop-color="#FCBEA6"/>
<stop offset="0.3738" stop-color="#FCBAA1"/>
<stop offset="0.5279" stop-color="#FCBEA6" stop-opacity="0.8523"/>
<stop offset="0.7014" stop-color="#FCC8B3" stop-opacity="0.6861"/>
<stop offset="0.8837" stop-color="#FBDACA" stop-opacity="0.5115"/>
<stop offset="1" stop-color="#FBE9DC" stop-opacity="0.4"/>
</linearGradient>
<linearGradient id="paint1_linear" x1="-98.2956" y1="141.34" x2="389.517" y2="141.34" gradientUnits="userSpaceOnUse">
<stop stop-color="#FEDACD" stop-opacity="0"/>
<stop offset="0.0552463" stop-color="#FED5C7" stop-opacity="0.0779572"/>
<stop offset="0.2789" stop-color="#FDC6B2" stop-opacity="0.3936"/>
<stop offset="0.4988" stop-color="#FCBDA5" stop-opacity="0.7039"/>
<stop offset="0.7087" stop-color="#FCBAA1"/>
<stop offset="0.792" stop-color="#FCBDA6" stop-opacity="0.7138"/>
<stop offset="0.8901" stop-color="#FDC8B4" stop-opacity="0.3772"/>
<stop offset="0.9953" stop-color="#FED8CC" stop-opacity="0.0162014"/>
<stop offset="1" stop-color="#FED9CD" stop-opacity="0"/>
</linearGradient>
<linearGradient id="paint2_linear" x1="195.749" y1="42.3485" x2="46.9609" y2="42.3485" gradientUnits="userSpaceOnUse">
<stop stop-color="#FBE9DC" stop-opacity="0.1"/>
<stop offset="0.2093" stop-color="#FCE3D5" stop-opacity="0.4527"/>
<stop offset="0.534" stop-color="#FCE0D1"/>
<stop offset="0.9147" stop-color="#FDDBCE"/>
<stop offset="1" stop-color="#FED9CD"/>
</linearGradient>
<linearGradient id="paint3_linear" x1="288.636" y1="111.894" x2="471.666" y2="111.894" gradientUnits="userSpaceOnUse">
<stop stop-color="#FFF6F1"/>
<stop offset="0.05761" stop-color="#FEECE3"/>
<stop offset="0.1749" stop-color="#FDDBCC"/>
<stop offset="0.2853" stop-color="#FCD1BE"/>
<stop offset="0.3808" stop-color="#FCCDB9"/>
<stop offset="0.5862" stop-color="#FCCFBC"/>
<stop offset="0.731" stop-color="#FDD6C5"/>
<stop offset="0.8571" stop-color="#FDE1D5"/>
<stop offset="0.972" stop-color="#FFF1EA"/>
<stop offset="1" stop-color="#FFF6F1"/>
</linearGradient>
<linearGradient id="paint4_linear" x1="146.552" y1="183.23" x2="288.199" y2="183.23" gradientUnits="userSpaceOnUse">
<stop stop-color="#FCA98F"/>
<stop offset="0.4452" stop-color="#FED2C4"/>
<stop offset="0.7521" stop-color="#FCA98F"/>
</linearGradient>
<linearGradient id="paint5_linear" x1="224.094" y1="190.62" x2="233.266" y2="199.791" gradientUnits="userSpaceOnUse">
<stop offset="0.135" stop-color="#FCE0D1"/>
<stop offset="0.1929" stop-color="#FCD7C6"/>
<stop offset="0.3892" stop-color="#FDBDA5"/>
<stop offset="0.5526" stop-color="#FDAD90"/>
<stop offset="0.662" stop-color="#FDA789"/>
<stop offset="0.8306" stop-color="#FC9B7C"/>
<stop offset="1" stop-color="#FB9475"/>
</linearGradient>
<linearGradient id="paint6_linear" x1="210.911" y1="197.118" x2="220.083" y2="206.289" gradientUnits="userSpaceOnUse">
<stop offset="0.135" stop-color="#FCE0D1"/>
<stop offset="0.1929" stop-color="#FCD7C6"/>
<stop offset="0.3892" stop-color="#FDBDA5"/>
<stop offset="0.5526" stop-color="#FDAD90"/>
<stop offset="0.662" stop-color="#FDA789"/>
<stop offset="0.8306" stop-color="#FC9B7C"/>
<stop offset="1" stop-color="#FB9475"/>
</linearGradient>
<clipPath id="clip0">
<rect width="355" height="282" fill="white"/>
</clipPath>
</defs>
</svg>
