<svg width="342" height="205" viewBox="0 0 342 205" fill="none" xmlns="http://www.w3.org/2000/svg">
<path d="M332.734 36.6211L77.3291 184.047" stroke="url(#paint0_linear)" stroke-miterlimit="10"/>
<path d="M6.9873 30.5801L289.207 193.485" stroke="url(#paint1_linear)" stroke-miterlimit="10"/>
<path d="M187.895 22.8408L43.2441 103.727" stroke="url(#paint2_linear)" stroke-miterlimit="10"/>
<path d="M222.641 58.4229L347.463 130.437" stroke="url(#paint3_linear)" stroke-miterlimit="10"/>
<path d="M108.488 135.723C105.183 133.835 103.483 131.287 103.483 128.738C103.483 126.19 103.483 127.511 103.483 127.511L165.989 88.8143C172.693 84.9446 183.646 85.0389 190.349 88.8143L252.1 126.756C252.1 126.756 252.1 126.001 252.1 128.455C252.194 131.098 250.495 133.646 247.095 135.628L189.877 168.662C183.173 172.532 172.221 172.532 165.611 168.662L108.488 135.723Z" fill="url(#paint4_linear)"/>
<path d="M108.488 134.402C101.784 130.532 101.784 124.208 108.488 120.433L165.989 87.5877C172.693 83.718 183.646 83.8124 190.349 87.5877L247.19 120.339C253.894 124.208 253.894 130.532 247.19 134.402L189.972 167.436C183.268 171.305 172.315 171.305 165.706 167.436L108.488 134.402Z" fill="#FCFEE5"/>
<path d="M231.234 70.5986L202.719 84.1897V84.0009L123.218 63.3311V125.152L158.814 145.916C171.749 153.373 187.706 153.373 200.642 145.916L202.719 144.689L231.234 128.267V70.5986Z" fill="url(#paint5_linear)"/>
<path d="M155.886 86.077L133.792 73.4297" stroke="url(#paint6_linear)" stroke-miterlimit="10" stroke-linecap="round"/>
<path d="M156.169 93.2508L133.792 80.3203" stroke="url(#paint7_linear)" stroke-miterlimit="10" stroke-linecap="round"/>
<path d="M156.358 100.33L133.792 87.3047" stroke="url(#paint8_linear)" stroke-miterlimit="10" stroke-linecap="round"/>
<path d="M156.641 107.503L133.792 94.2891" stroke="url(#paint9_linear)" stroke-miterlimit="10" stroke-linecap="round"/>
<path d="M156.925 114.676L133.792 101.273" stroke="url(#paint10_linear)" stroke-miterlimit="10" stroke-linecap="round"/>
<path d="M157.208 121.755L133.792 108.258" stroke="url(#paint11_linear)" stroke-miterlimit="10" stroke-linecap="round"/>
<path d="M154.942 127.418L133.792 115.242" stroke="url(#paint12_linear)" stroke-miterlimit="10" stroke-linecap="round"/>
<path d="M123.312 28.0322L159.002 59.1786V89.0981L123.312 68.9001V28.0322Z" fill="#FDD8B4"/>
<path d="M123.312 28.0322L159.002 59.1786V89.0981L123.312 67.4843V28.0322Z" fill="#FFC28F"/>
<path d="M123.312 70.5986L157.303 88.9089V144.689L123.312 125.152V70.5986Z" fill="#FFC28F"/>
<path d="M189.216 41.7168L159.002 59.1777V88.0589L189.216 70.7868V41.7168Z" fill="#B24761"/>
<path d="M161.835 58.3291L159.475 59.5561V87.7766L186.29 72.4866L161.835 58.3291Z" fill="#F79A8B"/>
<path d="M167.217 55.875V82.2079" stroke="#D67499" stroke-miterlimit="10"/>
<path d="M174.015 51.25V79.093" stroke="#D67499" stroke-miterlimit="10"/>
<path d="M180.813 46.7197V74.4683" stroke="#D67499" stroke-miterlimit="10"/>
<path d="M159.002 88.7199L123.312 68.1444L151.354 52.0049L159.002 58.8005V88.7199Z" fill="#F79A8B"/>
<path d="M157.963 106.464L123.312 86.4549L136.436 78.9043L157.775 93.2505L157.963 106.464Z" fill="#F79A8B"/>
<path d="M157.963 118.451L123.312 98.3475L136.436 90.7969L157.775 105.143L157.963 118.451Z" fill="#F79A8B"/>
<path d="M157.963 130.438L123.312 110.429L136.436 102.878L157.775 117.224L157.963 130.438Z" fill="#F79A8B"/>
<path d="M157.963 143.462L123.312 123.453L136.436 115.902L157.775 130.249L157.963 143.462Z" fill="#F79A8B"/>
<path d="M123.784 110.711L158.153 130.531" stroke="#FDD8B4" stroke-miterlimit="10"/>
<path d="M123.784 98.7246L158.153 118.545" stroke="#FDD8B4" stroke-miterlimit="10"/>
<path d="M123.784 86.7383L158.153 106.559" stroke="#FDD8B4" stroke-miterlimit="10"/>
<path d="M123.784 74.751L158.153 94.5714" stroke="#FDD8B4" stroke-miterlimit="10"/>
<path d="M130.677 34.9219V128.833" stroke="#FDD8B4" stroke-miterlimit="10"/>
<path d="M137.663 41.0566V133.08" stroke="#FDD8B4" stroke-miterlimit="10"/>
<path d="M144.65 47.1914V136.667" stroke="#FDD8B4" stroke-miterlimit="10"/>
<path d="M151.638 139.876V53.4209" stroke="#FDD8B4" stroke-miterlimit="10"/>
<path d="M123.312 74.3743L159.002 94.9498V88.0599L123.312 67.4844V74.3743Z" fill="#FDD8B4"/>
<path d="M123.312 30.5806L159.002 61.6326V59.1786L123.312 28.0322V30.5806Z" fill="#FDD8B4"/>
<path d="M126.144 34.2615L156.169 60.4056V84.0958L126.144 66.7293V34.2615ZM123.312 28.0322V68.5226L159.002 89.0981V59.1786L123.312 28.0322Z" fill="#FDD8B4"/>
<path d="M126.144 75.3178L156.169 91.7404V140.914L126.144 123.453V75.3178ZM123.312 70.5986V125.152L159.002 145.916V90.0415L123.312 70.5986Z" fill="#FDD8B4"/>
<path d="M186.384 46.6247V69.0879L161.835 83.0566V60.7822L186.384 46.6247ZM189.216 41.7168L159.002 59.0833V87.9645L189.216 70.6924V41.7168Z" fill="#D67499"/>
<path d="M179.775 93.2509C172.694 93.2509 165.613 91.3632 159.381 87.8711L210.179 58.6123L230.479 70.599L200.453 87.6823C194.222 91.2688 187.046 93.2509 179.775 93.2509Z" fill="#FCFEE5"/>
<path d="M210.178 58.9894L229.817 70.5042L200.358 87.3044C194.127 90.8909 186.951 92.873 179.775 92.873C172.882 92.873 166.179 91.1741 160.136 87.8706L210.178 58.9894ZM210.178 58.2344L158.908 87.7763V87.965C165.329 91.7404 172.599 93.5336 179.775 93.5336C187.045 93.5336 194.221 91.646 200.736 87.8706L231.234 70.5042L210.178 58.2344Z" fill="#F79A8B"/>
<path d="M178.548 89.4752C174.393 89.4752 170.145 88.0595 168.351 87.3044L203.286 67.1064L216.316 74.6571C212.917 76.5448 198.565 84.7561 198.565 84.7561C193.277 87.7763 186.196 89.4752 178.548 89.4752Z" fill="#CEE3CD"/>
<path d="M203.191 67.6726L215.276 74.657C208.384 78.6211 198.281 84.2841 198.281 84.3784C193.088 87.3987 186.101 89.0032 178.453 89.0032C174.959 89.0032 171.371 87.965 169.388 87.2099L203.191 67.6726ZM203.191 66.54L167.217 87.3987C167.217 87.3987 172.882 89.947 178.453 89.947C185.251 89.947 192.804 88.6257 198.753 85.1335L217.165 74.657L203.191 66.54Z" fill="#6FAC9C"/>
<path d="M180.908 85.1338H182.986" stroke="#FCFEE5" stroke-miterlimit="10" stroke-linecap="round"/>
<path d="M187.895 80.5088H195.448" stroke="#FCFEE5" stroke-miterlimit="10" stroke-linecap="round"/>
<path d="M197.147 82.8682H198.942" stroke="#FCFEE5" stroke-miterlimit="10" stroke-linecap="round"/>
<path d="M204.135 74.6572H205.93" stroke="#FCFEE5" stroke-miterlimit="10" stroke-linecap="round"/>
<path d="M205.929 65.0298V59.2725L219.903 67.295V73.0524L205.929 65.0298Z" fill="#FDD8B4"/>
<path d="M219.903 67.2948L224.247 64.8408V70.5982L219.903 73.0521V67.2948Z" fill="#D87399"/>
<path d="M206.59 59.2727L210.178 57.1963L223.491 64.8413L219.903 66.9177L206.59 59.2727Z" fill="#FCFEE5"/>
<path d="M210.177 57.5741L222.829 64.8416L219.902 66.5405L207.25 59.273L210.177 57.5741ZM210.177 56.7246L205.834 59.1786L219.902 67.2955L224.246 64.8416L210.177 56.7246Z" fill="#F79A8B"/>
<path d="M210.178 96.4594L224.246 88.5313V81.8301L210.178 89.7583V96.4594Z" fill="#B24761"/>
<path d="M203.191 93.7217L200.736 95.1374C187.801 102.594 171.844 102.688 158.908 95.1374V101.839C171.844 109.295 187.801 109.295 200.736 101.839L203.191 100.423V93.7217Z" fill="url(#paint13_linear)"/>
<path d="M203.191 93.6279L200.736 95.0437C187.801 102.5 171.844 102.594 158.908 95.0437V100.801C171.844 108.257 187.801 108.257 200.736 100.801L203.191 99.3853V93.6279Z" fill="#B24761"/>
<path d="M210.178 108.257L224.246 100.329V93.6279L210.178 101.556V108.257Z" fill="#B24761"/>
<path d="M203.191 105.614L200.736 107.03C187.801 114.486 171.844 114.581 158.908 107.03V113.731C171.844 121.187 187.801 121.187 200.736 113.731L203.191 112.315V105.614Z" fill="url(#paint14_linear)"/>
<path d="M203.191 105.426L200.736 106.842C187.801 114.298 171.844 114.392 158.908 106.842V112.599C171.844 120.055 187.801 120.055 200.736 112.599L203.191 111.183V105.426Z" fill="#B24761"/>
<path d="M210.178 120.622L224.246 112.599V105.992L210.178 113.92V120.622Z" fill="#B24761"/>
<path d="M203.191 117.884L200.736 119.3C187.801 126.756 171.844 126.85 158.908 119.3V126.001C171.844 133.457 187.801 133.457 200.736 126.001L203.191 124.585V117.884Z" fill="url(#paint15_linear)"/>
<path d="M203.191 117.79L200.736 119.206C187.801 126.662 171.844 126.756 158.908 119.206V124.963C171.844 132.419 187.801 132.419 200.736 124.963L203.191 123.547V117.79Z" fill="#B24761"/>
<path d="M210.178 131.947L224.246 123.925V117.224L210.178 125.246V131.947Z" fill="#B24761"/>
<path d="M203.191 129.21L200.736 130.626C187.801 138.082 171.844 138.176 158.908 130.626V137.327C171.844 144.783 187.801 144.783 200.736 137.327L203.191 135.911V129.21Z" fill="url(#paint16_linear)"/>
<path d="M203.191 129.116L200.736 130.532C187.801 137.988 171.844 138.083 158.908 130.532V136.289C171.844 143.746 187.801 143.746 200.736 136.289L203.191 134.874V129.116Z" fill="#B24761"/>
<path d="M217.259 82.8682V131.664" stroke="#D67499" stroke-miterlimit="10"/>
<path d="M216.409 135.439V145.633" stroke="#B24761" stroke-width="2" stroke-miterlimit="10" stroke-linecap="round"/>
<path d="M216.409 142.33C219.538 142.33 222.074 139.794 222.074 136.667C222.074 133.539 219.538 131.004 216.409 131.004C213.281 131.004 210.744 133.539 210.744 136.667C210.744 139.794 213.281 142.33 216.409 142.33Z" fill="url(#paint17_linear)"/>
<path d="M204.04 142.801V152.994" stroke="#B24761" stroke-width="2" stroke-miterlimit="10" stroke-linecap="round"/>
<path d="M204.04 149.691C207.169 149.691 209.705 147.156 209.705 144.028C209.705 140.901 207.169 138.365 204.04 138.365C200.911 138.365 198.375 140.901 198.375 144.028C198.375 147.156 200.911 149.691 204.04 149.691Z" fill="url(#paint18_linear)"/>
<path d="M241.053 121.565V131.759" stroke="#B24761" stroke-width="2" stroke-miterlimit="10" stroke-linecap="round"/>
<path d="M241.053 128.456C244.182 128.456 246.718 125.92 246.718 122.793C246.718 119.665 244.182 117.13 241.053 117.13C237.924 117.13 235.388 119.665 235.388 122.793C235.388 125.92 237.924 128.456 241.053 128.456Z" fill="url(#paint19_linear)"/>
<path d="M228.778 128.549V138.742" stroke="#B24761" stroke-width="2" stroke-miterlimit="10" stroke-linecap="round"/>
<path d="M228.778 135.439C231.907 135.439 234.444 132.904 234.444 129.776C234.444 126.649 231.907 124.113 228.778 124.113C225.65 124.113 223.113 126.649 223.113 129.776C223.113 132.904 225.65 135.439 228.778 135.439Z" fill="url(#paint20_linear)"/>
<path d="M123.878 28.1257L153.337 11.1367L188.555 41.7168L159.002 58.7058L123.878 28.1257Z" fill="#FCFEE5"/>
<path d="M153.242 11.5145L187.894 41.6227L159.002 58.3285L124.445 28.2203L153.242 11.5145ZM153.337 10.665L123.312 28.0315L159.002 59.1779L189.216 41.8114L153.337 10.665Z" fill="#F79A8B"/>
<path d="M157.681 47.4749L138.797 30.9579V28.7871L157.681 45.3041V47.4749Z" fill="#FDD8B4"/>
<path d="M157.681 47.4743V45.0204L173.732 35.8652V38.2248L157.681 47.4743Z" fill="#D87399"/>
<path d="M139.363 28.7864L154.659 20.0088L173.071 35.9595L157.681 44.8315L139.363 28.7864Z" fill="#FCFEE5"/>
<path d="M154.659 20.3866L172.505 35.8654L157.775 44.3599L140.024 28.881L154.659 20.3866ZM154.754 19.5371L138.797 28.7866L157.681 45.3037L173.732 36.0541L154.754 19.5371Z" fill="#F79A8B"/>
<path d="M117.647 126.756C117.647 128.644 116.136 130.154 114.248 130.154C112.359 130.154 110.849 128.644 110.849 126.756C110.849 123.547 112.926 121.754 114.248 121.754C115.57 121.754 117.647 123.83 117.647 126.756Z" fill="url(#paint21_linear)"/>
<defs>
<linearGradient id="paint0_linear" x1="77.0712" y1="110.377" x2="332.955" y2="110.377" gradientUnits="userSpaceOnUse">
<stop stop-color="#FCFEE5" stop-opacity="0"/>
<stop offset="0.0145605" stop-color="#FBF0D9" stop-opacity="0.0295774"/>
<stop offset="0.0492418" stop-color="#FAD6C1" stop-opacity="0.1"/>
<stop offset="0.0890889" stop-color="#F9C0AD" stop-opacity="0.181"/>
<stop offset="0.1355" stop-color="#F8AF9E" stop-opacity="0.2753"/>
<stop offset="0.1929" stop-color="#F7A393" stop-opacity="0.3918"/>
<stop offset="0.273" stop-color="#F79C8D" stop-opacity="0.5546"/>
<stop offset="0.4923" stop-color="#F79A8B"/>
<stop offset="0.5784" stop-color="#F7A393" stop-opacity="0.8304"/>
<stop offset="0.7199" stop-color="#F9BCA9" stop-opacity="0.5517"/>
<stop offset="0.8982" stop-color="#FBE4CE" stop-opacity="0.2005"/>
<stop offset="1" stop-color="#FCFEE5" stop-opacity="0"/>
</linearGradient>
<linearGradient id="paint1_linear" x1="6.70631" y1="112.042" x2="289.433" y2="112.042" gradientUnits="userSpaceOnUse">
<stop stop-color="#FCFEE5" stop-opacity="0"/>
<stop offset="0.0854601" stop-color="#F5E4D7" stop-opacity="0.1364"/>
<stop offset="0.2614" stop-color="#E8B4BC" stop-opacity="0.4173"/>
<stop offset="0.4166" stop-color="#DE91A9" stop-opacity="0.665"/>
<stop offset="0.5435" stop-color="#D87C9D" stop-opacity="0.8677"/>
<stop offset="0.6264" stop-color="#D67499"/>
<stop offset="0.7397" stop-color="#D7769A" stop-opacity="0.6968"/>
<stop offset="0.8011" stop-color="#D97E9F" stop-opacity="0.5325"/>
<stop offset="0.85" stop-color="#DD8CA6" stop-opacity="0.4014"/>
<stop offset="0.8924" stop-color="#E29FB1" stop-opacity="0.288"/>
<stop offset="0.9306" stop-color="#E9B8BF" stop-opacity="0.1859"/>
<stop offset="0.9653" stop-color="#F1D7CF" stop-opacity="0.0928819"/>
<stop offset="0.9975" stop-color="#FBFBE3" stop-opacity="0.01"/>
<stop offset="1" stop-color="#FCFEE5" stop-opacity="0"/>
</linearGradient>
<linearGradient id="paint2_linear" x1="188.133" y1="63.2764" x2="43.0093" y2="63.2764" gradientUnits="userSpaceOnUse">
<stop stop-color="#FCFEE5" stop-opacity="0"/>
<stop offset="0.1018" stop-color="#FBE4CE" stop-opacity="0.1203"/>
<stop offset="0.2801" stop-color="#F9BCA9" stop-opacity="0.331"/>
<stop offset="0.4216" stop-color="#F7A393" stop-opacity="0.4982"/>
<stop offset="0.5077" stop-color="#F79A8B" stop-opacity="0.6"/>
<stop offset="0.727" stop-color="#F79C8D" stop-opacity="0.3327"/>
<stop offset="0.8071" stop-color="#F7A393" stop-opacity="0.2351"/>
<stop offset="0.8645" stop-color="#F8AF9E" stop-opacity="0.1652"/>
<stop offset="0.9109" stop-color="#F9C0AD" stop-opacity="0.1086"/>
<stop offset="0.9508" stop-color="#FAD6C1" stop-opacity="0.0600163"/>
<stop offset="0.9854" stop-color="#FBF0D9" stop-opacity="0.0177465"/>
<stop offset="1" stop-color="#FCFEE5" stop-opacity="0"/>
</linearGradient>
<linearGradient id="paint3_linear" x1="222.428" y1="94.4611" x2="347.695" y2="94.4611" gradientUnits="userSpaceOnUse">
<stop stop-color="#FCFEE5" stop-opacity="0"/>
<stop offset="0.0425308" stop-color="#F5E4D7" stop-opacity="0.0818568"/>
<stop offset="0.1301" stop-color="#E8B4BC" stop-opacity="0.2504"/>
<stop offset="0.2073" stop-color="#DE91A9" stop-opacity="0.399"/>
<stop offset="0.2705" stop-color="#D87C9D" stop-opacity="0.5206"/>
<stop offset="0.3117" stop-color="#D67499" stop-opacity="0.6"/>
<stop offset="0.5204" stop-color="#D7769A" stop-opacity="0.4181"/>
<stop offset="0.6335" stop-color="#D97E9F" stop-opacity="0.3195"/>
<stop offset="0.7237" stop-color="#DD8CA6" stop-opacity="0.2409"/>
<stop offset="0.8018" stop-color="#E29FB1" stop-opacity="0.1728"/>
<stop offset="0.8721" stop-color="#E9B8BF" stop-opacity="0.1115"/>
<stop offset="0.9361" stop-color="#F1D7CF" stop-opacity="0.0557292"/>
<stop offset="0.9954" stop-color="#FBFBE3" stop-opacity="0.01"/>
<stop offset="1" stop-color="#FCFEE5" stop-opacity="0"/>
</linearGradient>
<linearGradient id="paint4_linear" x1="103.523" y1="128.818" x2="252.194" y2="128.818" gradientUnits="userSpaceOnUse">
<stop stop-color="#F79A8B"/>
<stop offset="0.2076" stop-color="#F79C8D"/>
<stop offset="0.3092" stop-color="#F8A492"/>
<stop offset="0.3877" stop-color="#F9B19B"/>
<stop offset="0.454" stop-color="#FAC3A8"/>
<stop offset="0.5059" stop-color="#FCD8B6"/>
<stop offset="0.5252" stop-color="#F7CCB2"/>
<stop offset="0.5928" stop-color="#E9A6A7"/>
<stop offset="0.6553" stop-color="#DF8AA0"/>
<stop offset="0.7104" stop-color="#D87A9B"/>
<stop offset="0.7521" stop-color="#D67499"/>
</linearGradient>
<linearGradient id="paint5_linear" x1="123.304" y1="107.372" x2="231.246" y2="107.372" gradientUnits="userSpaceOnUse">
<stop offset="0.4034" stop-color="#FCD8B6"/>
<stop offset="0.439" stop-color="#F7CAB2"/>
<stop offset="0.5068" stop-color="#E8A4A7"/>
<stop offset="0.5808" stop-color="#D67499"/>
</linearGradient>
<linearGradient id="paint6_linear" x1="133.326" y1="79.7532" x2="156.327" y2="79.7532" gradientUnits="userSpaceOnUse">
<stop stop-color="#F79A8B"/>
<stop offset="0.6247" stop-color="#F79A8B"/>
<stop offset="0.8418" stop-color="#B24761"/>
</linearGradient>
<linearGradient id="paint7_linear" x1="133.326" y1="86.8038" x2="156.597" y2="86.8038" gradientUnits="userSpaceOnUse">
<stop stop-color="#F79A8B"/>
<stop offset="0.6247" stop-color="#F79A8B"/>
<stop offset="0.8418" stop-color="#B24761"/>
</linearGradient>
<linearGradient id="paint8_linear" x1="133.326" y1="93.8537" x2="156.867" y2="93.8537" gradientUnits="userSpaceOnUse">
<stop stop-color="#F79A8B"/>
<stop offset="0.6247" stop-color="#F79A8B"/>
<stop offset="0.8418" stop-color="#B24761"/>
</linearGradient>
<linearGradient id="paint9_linear" x1="133.326" y1="100.904" x2="157.137" y2="100.904" gradientUnits="userSpaceOnUse">
<stop stop-color="#F79A8B"/>
<stop offset="0.6247" stop-color="#F79A8B"/>
<stop offset="0.8418" stop-color="#B24761"/>
</linearGradient>
<linearGradient id="paint10_linear" x1="133.326" y1="107.954" x2="157.408" y2="107.954" gradientUnits="userSpaceOnUse">
<stop stop-color="#F79A8B"/>
<stop offset="0.6247" stop-color="#F79A8B"/>
<stop offset="0.8418" stop-color="#B24761"/>
</linearGradient>
<linearGradient id="paint11_linear" x1="133.326" y1="115.004" x2="157.678" y2="115.004" gradientUnits="userSpaceOnUse">
<stop stop-color="#F79A8B"/>
<stop offset="0.6247" stop-color="#F79A8B"/>
<stop offset="0.8418" stop-color="#B24761"/>
</linearGradient>
<linearGradient id="paint12_linear" x1="133.326" y1="121.334" x2="155.454" y2="121.334" gradientUnits="userSpaceOnUse">
<stop stop-color="#F79A8B"/>
<stop offset="0.6247" stop-color="#F79A8B"/>
<stop offset="0.8418" stop-color="#B24761"/>
</linearGradient>
<linearGradient id="paint13_linear" x1="158.891" y1="100.647" x2="203.201" y2="100.647" gradientUnits="userSpaceOnUse">
<stop stop-color="#F79A8B"/>
<stop offset="1" stop-color="#D67499"/>
</linearGradient>
<linearGradient id="paint14_linear" x1="158.891" y1="112.454" x2="203.201" y2="112.454" gradientUnits="userSpaceOnUse">
<stop stop-color="#F79A8B"/>
<stop offset="1" stop-color="#D67499"/>
</linearGradient>
<linearGradient id="paint15_linear" x1="158.891" y1="124.799" x2="203.201" y2="124.799" gradientUnits="userSpaceOnUse">
<stop stop-color="#F79A8B"/>
<stop offset="1" stop-color="#D67499"/>
</linearGradient>
<linearGradient id="paint16_linear" x1="158.891" y1="136.088" x2="203.201" y2="136.088" gradientUnits="userSpaceOnUse">
<stop stop-color="#F79A8B"/>
<stop offset="1" stop-color="#D67499"/>
</linearGradient>
<linearGradient id="paint17_linear" x1="212.385" y1="132.609" x2="220.448" y2="140.674" gradientUnits="userSpaceOnUse">
<stop offset="0.0891089" stop-color="#CEE3CD"/>
<stop offset="0.2093" stop-color="#B0D2BD"/>
<stop offset="0.3747" stop-color="#8DBDAB"/>
<stop offset="0.5101" stop-color="#77B1A0"/>
<stop offset="0.5977" stop-color="#6FAC9C"/>
<stop offset="0.7432" stop-color="#56A197"/>
<stop offset="0.8969" stop-color="#419793"/>
<stop offset="1" stop-color="#3A9492"/>
</linearGradient>
<linearGradient id="paint18_linear" x1="200.053" y1="139.968" x2="208.116" y2="148.034" gradientUnits="userSpaceOnUse">
<stop offset="0.0891089" stop-color="#CEE3CD"/>
<stop offset="0.2093" stop-color="#B0D2BD"/>
<stop offset="0.3747" stop-color="#8DBDAB"/>
<stop offset="0.5101" stop-color="#77B1A0"/>
<stop offset="0.5977" stop-color="#6FAC9C"/>
<stop offset="0.7432" stop-color="#56A197"/>
<stop offset="0.8969" stop-color="#419793"/>
<stop offset="1" stop-color="#3A9492"/>
</linearGradient>
<linearGradient id="paint19_linear" x1="237.049" y1="118.723" x2="245.112" y2="126.789" gradientUnits="userSpaceOnUse">
<stop offset="0.0891089" stop-color="#CEE3CD"/>
<stop offset="0.2093" stop-color="#B0D2BD"/>
<stop offset="0.3747" stop-color="#8DBDAB"/>
<stop offset="0.5101" stop-color="#77B1A0"/>
<stop offset="0.5977" stop-color="#6FAC9C"/>
<stop offset="0.7432" stop-color="#56A197"/>
<stop offset="0.8969" stop-color="#419793"/>
<stop offset="1" stop-color="#3A9492"/>
</linearGradient>
<linearGradient id="paint20_linear" x1="224.717" y1="125.729" x2="232.78" y2="133.795" gradientUnits="userSpaceOnUse">
<stop offset="0.0891089" stop-color="#CEE3CD"/>
<stop offset="0.2093" stop-color="#B0D2BD"/>
<stop offset="0.3747" stop-color="#8DBDAB"/>
<stop offset="0.5101" stop-color="#77B1A0"/>
<stop offset="0.5977" stop-color="#6FAC9C"/>
<stop offset="0.7432" stop-color="#56A197"/>
<stop offset="0.8969" stop-color="#419793"/>
<stop offset="1" stop-color="#3A9492"/>
</linearGradient>
<linearGradient id="paint21_linear" x1="111.502" y1="123.557" x2="116.897" y2="128.954" gradientUnits="userSpaceOnUse">
<stop offset="0.0891089" stop-color="#CEE3CD"/>
<stop offset="0.2093" stop-color="#B0D2BD"/>
<stop offset="0.3747" stop-color="#8DBDAB"/>
<stop offset="0.5101" stop-color="#77B1A0"/>
<stop offset="0.5977" stop-color="#6FAC9C"/>
<stop offset="0.7432" stop-color="#56A197"/>
<stop offset="0.8969" stop-color="#419793"/>
<stop offset="1" stop-color="#3A9492"/>
</linearGradient>
</defs>
</svg>
