<svg width="40" height="40" viewBox="0 0 40 40" fill="none" xmlns="http://www.w3.org/2000/svg">
<g opacity="0.4">
<g clip-path="url(#clip0)">
<path d="M4.6114 2.4353H27.9275C30.4663 2.4353 32.5389 4.50784 32.5389 7.0467V31.0363C32.5389 33.5752 30.4663 35.6477 27.9275 35.6477H4.6114C2.07254 35.6477 0 33.5752 0 31.0363V6.99489C0 4.50784 2.07254 2.4353 4.6114 2.4353Z" fill="#5E666A"/>
<path d="M15.0777 24.145L8.23835 17.3057L0 25.544V27.2539V30.9844C0 33.5233 2.07254 35.5958 4.6114 35.5958H27.9275C30.4663 35.5958 32.5389 33.5233 32.5389 30.9844V27.2539V22.1243L24.8187 14.3523L15.0777 24.145Z" fill="#8F999F"/>
<path d="M14.8703 16.3212C16.4728 16.3212 17.7719 15.0221 17.7719 13.4196C17.7719 11.8171 16.4728 10.5181 14.8703 10.5181C13.2678 10.5181 11.9688 11.8171 11.9688 13.4196C11.9688 15.0221 13.2678 16.3212 14.8703 16.3212Z" fill="#EFEFEF"/>
<path d="M32.5393 37.5649C36.6599 37.5649 40.0004 34.2244 40.0004 30.1037C40.0004 25.983 36.6599 22.6426 32.5393 22.6426C28.4186 22.6426 25.0781 25.983 25.0781 30.1037C25.0781 34.2244 28.4186 37.5649 32.5393 37.5649Z" fill="white"/>
<path d="M31.4512 26.6323C31.4512 26.0105 31.9175 25.5442 32.5393 25.5442C33.1092 25.5442 33.6274 26.0105 33.6274 26.6323V33.6789C33.6274 34.3007 33.161 34.767 32.5393 34.767C31.9175 34.767 31.4512 34.3007 31.4512 33.6789V26.6323Z" fill="#42424F"/>
<path d="M31.7621 27.3577C31.3475 26.9432 31.3475 26.2696 31.7621 25.8551C32.1766 25.4406 32.8501 25.4406 33.2646 25.8551L35.7517 28.3421C36.1662 28.7566 36.1662 29.4302 35.7517 29.8447C35.3372 30.2592 34.6636 30.2592 34.2491 29.8447L31.7621 27.3577Z" fill="#42424F"/>
<path d="M31.7617 25.8551C32.1763 25.4406 32.8498 25.4406 33.2643 25.8551C33.6788 26.2696 33.6788 26.9432 33.2643 27.3577L30.8291 29.8447C30.4146 30.2592 29.741 30.2592 29.3265 29.8447C28.912 29.4302 28.912 28.7566 29.3265 28.3421L31.7617 25.8551Z" fill="#42424F"/>
</g>
</g>
<defs>
<clipPath id="clip0">
<rect width="40" height="40" fill="white"/>
</clipPath>
</defs>
</svg>
