<svg width="20" height="26" viewBox="0 0 20 26" fill="none" xmlns="http://www.w3.org/2000/svg">
<path d="M12.5 0.5H2.5C1.83696 0.5 1.20107 0.763392 0.732233 1.23223C0.263392 1.70107 0 2.33696 0 3V23C0 23.663 0.263392 24.2989 0.732233 24.7678C1.20107 25.2366 1.83696 25.5 2.5 25.5H17.5C18.163 25.5 18.7989 25.2366 19.2678 24.7678C19.7366 24.2989 20 23.663 20 23V8L12.5 0.5ZM5.0275 18.88C5.0275 20.0813 4.45125 20.5 3.5275 20.5C3.3075 20.5 3.02 20.4638 2.83125 20.4L2.93875 19.6313C3.06875 19.675 3.2375 19.7062 3.4275 19.7062C3.82625 19.7062 4.0775 19.525 4.0775 18.8687V16.2162H5.02875V18.88H5.0275ZM6.85125 20.4938C6.37 20.4938 5.89375 20.3688 5.6575 20.2375L5.85125 19.4487C6.10625 19.58 6.5025 19.7125 6.90875 19.7125C7.34625 19.7125 7.57625 19.53 7.57625 19.2562C7.57625 18.9925 7.3775 18.8425 6.87125 18.6612C6.16875 18.4175 5.7125 18.0287 5.7125 17.4163C5.7125 16.6963 6.31375 16.145 7.30875 16.145C7.78375 16.145 8.1325 16.245 8.385 16.3588L8.17 17.1275C8.00125 17.0462 7.70125 16.9275 7.28875 16.9275C6.87625 16.9275 6.675 17.115 6.675 17.3337C6.675 17.6025 6.9125 17.7225 7.45875 17.9287C8.20375 18.2038 8.55375 18.5912 8.55375 19.1862C8.555 19.8937 8.00875 20.4938 6.85125 20.4938ZM10.9837 20.5C9.7325 20.5 9.00125 19.5562 9.00125 18.355C9.00125 17.09 9.80875 16.145 11.0538 16.145C12.3475 16.145 13.055 17.115 13.055 18.2787C13.0538 19.6625 12.2162 20.5 10.9837 20.5ZM17.1675 20.4312H16.165L15.2638 18.8037C14.9941 18.3211 14.7501 17.8245 14.5325 17.3162L14.5125 17.3225C14.5387 17.8787 14.5512 18.4738 14.5512 19.1625V20.4325H13.675V16.2162H14.7888L15.665 17.7612C15.915 18.2038 16.165 18.73 16.355 19.205H16.3725C16.31 18.6488 16.2913 18.08 16.2913 17.4475V16.2162H17.1688V20.4312H17.1675ZM12.5 9.25H11.25V3L17.5 9.25H12.5Z" fill="#8F999F"/>
</svg>
