<svg width="32" height="34" viewBox="0 0 32 34" fill="none" xmlns="http://www.w3.org/2000/svg">
<path d="M26.4755 3.88135H5.52316C4.7654 3.88135 4.03867 4.18747 3.50285 4.73237C2.96704 5.27727 2.66602 6.01631 2.66602 6.78692L2.66602 28.0944C2.66602 28.865 2.96704 29.6041 3.50285 30.149C4.03867 30.6939 4.7654 31 5.52316 31H13.6928V21.7803H9.9428V17.4407H13.6928V14.1332C13.6928 10.3711 15.8952 8.29297 19.2684 8.29297C20.8839 8.29297 22.5732 8.58595 22.5732 8.58595V12.2784H20.7119C18.8779 12.2784 18.3059 13.4358 18.3059 14.6229V17.4407H22.3999L21.7452 21.7803H18.3059V31H26.4755C27.2333 31 27.96 30.6939 28.4958 30.149C29.0317 29.6041 29.3327 28.865 29.3327 28.0944V6.78692C29.3327 6.01631 29.0317 5.27727 28.4958 4.73237C27.96 4.18747 27.2333 3.88135 26.4755 3.88135Z" fill="#4873C4"/>
</svg>
