<svg width="20" height="20" viewBox="0 0 20 20" fill="none" xmlns="http://www.w3.org/2000/svg">
<path d="M16.547 2.00003H3.45173C2.97813 2.00003 2.52393 2.18817 2.18904 2.52305C1.85415 2.85794 1.66602 3.31214 1.66602 3.78574L1.66602 16.881C1.66602 17.3546 1.85415 17.8088 2.18904 18.1437C2.52393 18.4786 2.97813 18.6667 3.45173 18.6667H8.55776V13.0004H6.21401V10.3334H8.55776V8.30063C8.55776 5.9885 9.93425 4.71134 12.0425 4.71134C13.0522 4.71134 14.108 4.8914 14.108 4.8914V7.16075H12.9447C11.7985 7.16075 11.4409 7.87205 11.4409 8.60159V10.3334H13.9997L13.5905 13.0004H11.4409V18.6667H16.547C17.0206 18.6667 17.4748 18.4786 17.8097 18.1437C18.1445 17.8088 18.3327 17.3546 18.3327 16.881V3.78574C18.3327 3.31214 18.1445 2.85794 17.8097 2.52305C17.4748 2.18817 17.0206 2.00003 16.547 2.00003Z" fill="#4873C4"/>
</svg>
