<svg width="22" height="22" viewBox="0 0 22 22" fill="none" xmlns="http://www.w3.org/2000/svg">
<path fill-rule="evenodd" clip-rule="evenodd" d="M11 0C17.0751 0 22 4.92487 22 11C22 17.0751 17.0751 22 11 22C4.92487 22 0 17.0751 0 11C0 4.92487 4.92487 0 11 0ZM2.06577 9.90775C2.35755 10.2808 3.16805 10.7581 4.40809 11.1475C4.89656 11.3009 5.43154 11.4357 6.00555 11.5502C6.00186 11.3679 6 11.1844 6 11C6 7.6724 6.60555 4.66738 7.65451 2.64238C4.66408 3.84058 2.46627 6.59726 2.06577 9.90775ZM6.12914 13.6109C4.52345 13.3318 3.14663 12.9094 2.10315 12.366C2.5886 15.5542 4.74688 18.1926 7.6545 19.3576C6.88865 17.8791 6.35916 15.8783 6.12914 13.6109ZM8.17907 13.8774C9.07608 13.9582 10.0208 14 10.9998 14C11.9633 14 12.9125 13.9454 13.8254 13.8441C13.3744 17.4417 12.1272 20 11.0002 20C9.87664 20 8.63363 17.4574 8.17907 13.8774ZM13.9865 11.8045C13.0368 11.9275 12.028 12 10.9998 12C9.95573 12 8.95348 11.9483 8.01548 11.8502C8.00538 11.5706 8.00016 11.287 8.00016 11C8.00016 5.98399 9.59377 1.99999 11.0002 1.99999C12.4066 1.99999 14.0002 5.98399 14.0002 11C14.0002 11.2713 13.9955 11.5396 13.9865 11.8045ZM15.8792 13.5268C15.6539 15.8289 15.1208 17.8611 14.3454 19.3578C17.3047 18.1722 19.4878 15.4605 19.9214 12.1962C18.8612 12.7477 17.4648 13.2089 15.8792 13.5268ZM19.9286 9.85981C19.4584 10.388 17.974 11.0156 15.9962 11.4541C15.9987 11.3034 16 11.1521 16 11C16 7.67231 15.3944 4.66722 14.3454 2.64222C17.3216 3.83454 19.5128 6.57051 19.9286 9.85981Z" fill="#F0806E"/>
</svg>
