<svg width="416" height="372" viewBox="0 0 416 372" fill="none" xmlns="http://www.w3.org/2000/svg">
<g filter="url(#filter0_dd)">
<rect x="12" y="8" width="288" height="72" rx="8" fill="white"/>
<rect x="12.5" y="8.5" width="287" height="71" rx="7.5" stroke="#EFEFEF"/>
</g>
<path d="M32.6665 59.2434V57.2915L42.0529 61.753V64.7274L32.6665 59.2434Z" fill="#CEE3CD"/>
<path d="M42.0527 61.7531L65.6582 48.7402V51.064L42.0527 64.7274V61.7531Z" fill="#6FAC9C"/>
<path d="M31.8301 56.8268V55.8973L65.6583 48.0896V49.0191L42.0529 62.6826L31.8301 56.8268Z" fill="#CEE3CD"/>
<path d="M42.0527 60.3588L65.6582 48.0896V49.0191L42.0527 62.6826V60.3588Z" fill="#3A9492"/>
<path d="M31.8301 55.8044L55.5284 42.2339L65.6583 46.4166V48.0897L42.0529 61.7531L31.8301 55.8044Z" fill="#FCFEE5"/>
<path d="M34.9897 54.0384V52.0865L65.6582 45.2083V47.2531L44.2832 59.5224L34.9897 54.0384Z" fill="#CEE3CD"/>
<path d="M44.2832 57.4775L65.6582 45.2083V47.2531L44.2832 59.5224V57.4775Z" fill="#6FAC9C"/>
<path d="M34.1533 51.6218V50.6923L65.6582 44.2788V45.2083L44.2832 57.4775L34.1533 51.6218Z" fill="#CEE3CD"/>
<path d="M44.2832 55.6185L65.6582 44.1858V45.2082L44.2832 57.4775V55.6185Z" fill="#3A9492"/>
<path d="M34.1533 50.6923L55.5283 38.3301L65.6582 42.8846V44.2788L44.2832 56.548L34.1533 50.6923Z" fill="#FCFEE5"/>
<path d="M46.5137 51.4359L48.7441 50.1346L65.6582 41.3975V43.3494L46.5137 54.4103V51.4359Z" fill="#6FAC9C"/>
<path d="M37.2202 48.9263V46.9744L46.5137 51.4359V54.4103L37.2202 48.9263Z" fill="#CEE3CD"/>
<path d="M46.5137 50.3206L65.6582 40.468V41.3975L46.5137 52.3655V50.3206Z" fill="#3A9492"/>
<path d="M36.3838 46.4168V45.4873L46.5137 50.3206V52.3655L36.3838 46.4168Z" fill="#CEE3CD"/>
<path d="M36.3838 45.4872L55.5284 34.5193L65.6582 38.0513V40.468L46.5137 51.436L36.3838 45.4872Z" fill="#FCFEE5"/>
<path d="M39.4507 43.8142V41.7693L65.6583 37.4937V39.5385L48.7442 49.2052L39.4507 43.8142Z" fill="#CEE3CD"/>
<path d="M48.7441 46.3238L65.6583 37.4937V39.5385L48.7441 49.2052V46.3238Z" fill="#6FAC9C"/>
<path d="M38.6143 41.3045V40.375L48.7441 46.3237V47.2532L38.6143 41.3045Z" fill="#CEE3CD"/>
<path d="M48.7441 46.3238L65.6583 36.5642V37.4937L48.7441 47.2533V46.3238Z" fill="#3A9492"/>
<path d="M38.6143 40.3751L55.5284 30.6155L65.6583 34.1475V36.5642L48.7441 46.3238L38.6143 40.3751Z" fill="#FCFEE5"/>
<path d="M42.7964 37.9582V35.9133L65.6583 33.5896V35.6345L52.1828 43.3492L42.7964 37.9582Z" fill="#CEE3CD"/>
<path d="M52.0898 40.9326L65.6583 33.5896V35.6345L52.1828 43.3492L52.0898 40.9326Z" fill="#6FAC9C"/>
<path d="M41.96 35.4486V34.5191L65.6583 32.6602V33.5896L52.1828 41.3973L41.96 35.4486Z" fill="#CEE3CD"/>
<path d="M52.1826 38.8877L65.6582 32.6602V33.5896L52.1826 41.3973V38.8877Z" fill="#3A9492"/>
<path d="M41.96 34.5192L55.5284 26.8044L65.6583 32.6602L52.1828 40.4679L41.96 34.5192Z" fill="#FCFEE5"/>
<path d="M46.0493 34.5192L51.6254 31.4519L57.6662 34.891L52.183 38.0513L46.0493 34.5192Z" fill="#CEE3CD"/>
<path d="M51.6252 31.7308L57.2013 34.891L52.1828 37.6795L46.6068 34.5192L51.6252 31.7308ZM51.6252 31.1731L45.5845 34.5192L52.1828 38.2372L58.1307 34.891L51.6252 31.1731Z" fill="#6FAC9C"/>
<path d="M55.5283 24.109L60.8256 23.5513L70.8626 29.5L65.6582 29.8718L55.5283 24.109Z" fill="#FCFEE5"/>
<path d="M65.6582 29.8718L70.8626 29.5V47.9968L65.6582 51.0641V29.8718Z" fill="#6FAC9C"/>
<path d="M55.5283 24.1089V26.8044L65.6582 32.6602V29.8717L55.5283 24.1089Z" fill="#CEE3CD"/>
<rect x="96" y="30" width="68" height="10" fill="#98CCB0"/>
<rect x="96" y="48" width="184" height="10" fill="#E9EAED"/>
<g filter="url(#filter1_dd)">
<rect x="12" y="284" width="288" height="72" rx="8" fill="white"/>
<rect x="12.5" y="284.5" width="287" height="71" rx="7.5" stroke="#EFEFEF"/>
</g>
<path d="M46.6035 335.104H57.1401V336.084L51.8718 339.106L46.6035 336.084V335.104Z" fill="#CEE3CD"/>
<path d="M51.8721 338.126L57.1404 335.104V336.084L51.8721 339.106V338.126Z" fill="#6FAC9C"/>
<path d="M51.8718 332.082L57.1401 335.104L51.8718 338.126L46.6035 335.104L51.8718 332.082Z" fill="#FCFEE5"/>
<path d="M53.683 334.941V314.275L51.8721 315.337V336.002L53.683 334.941Z" fill="#6FAC9C"/>
<path d="M49.9785 334.941V314.275L51.8718 315.337V336.002L49.9785 334.941Z" fill="#CEE3CD"/>
<path d="M39.936 302.921L42.2409 301.696L63.3141 313.785L61.0092 315.01L39.936 302.921Z" fill="#FCFEE5"/>
<path d="M39.936 320.401V302.921L61.0092 315.01V332.49L39.936 320.401Z" fill="#CEE3CD"/>
<path d="M63.3142 331.347V313.785L61.0093 315.01V332.49L63.3142 331.347Z" fill="#3A9492"/>
<path d="M40.5944 313.621L60.6798 324.975V331.183L40.2651 320.238L40.5944 313.621Z" fill="#6FAC9C"/>
<path d="M40.1831 317.297C40.1831 317.297 43.0642 317.869 45.3691 320.238C47.674 322.607 57.8813 327.753 60.2685 325.874V332L40.5124 320.401L40.1831 317.297Z" fill="#FCFEE5"/>
<path d="M56.9755 323.913C57.0578 323.913 57.0578 323.913 57.1401 323.995C57.1401 324.159 57.0578 324.322 57.0578 324.485C57.1401 324.485 57.1401 324.485 57.2224 324.567C57.2224 324.73 57.1401 324.894 57.1401 325.057C57.2224 325.057 57.2224 325.139 57.3047 325.139C57.3047 325.302 57.2224 325.465 57.2224 325.629C57.2224 325.629 57.3047 325.71 57.3871 325.71C57.3047 325.874 57.3047 326.037 57.3047 326.201C57.3871 326.201 57.3871 326.201 57.3871 326.282C57.3047 326.446 57.3047 326.609 57.2224 326.772L57.3047 326.854C57.2224 327.017 57.2224 327.181 57.1401 327.262L57.2224 327.344C57.1401 327.508 57.1401 327.589 57.0578 327.753L57.1401 327.834C57.0578 327.916 57.0578 327.998 56.9755 328.161C56.9755 328.161 56.9755 328.161 56.8932 328.161C56.5639 327.998 56.2346 327.753 55.9054 327.589C55.9054 327.426 55.9054 327.181 55.823 327.017C55.9054 327.099 55.9054 327.099 55.9877 327.181C55.9877 327.017 55.9054 326.772 55.9054 326.609C55.9877 326.691 55.9877 326.691 56.07 326.772C56.07 326.609 55.9877 326.364 55.9877 326.201C56.07 326.282 56.07 326.282 56.1523 326.282C56.1523 326.119 56.07 325.874 56.07 325.71C56.1523 325.71 56.1523 325.792 56.2346 325.792C56.2346 325.629 56.1523 325.384 56.1523 325.22C56.2346 325.22 56.2346 325.302 56.3169 325.302C56.3169 325.139 56.2346 324.894 56.2346 324.73C56.2346 324.73 56.3169 324.73 56.3169 324.812C56.2346 324.649 56.2346 324.404 56.1523 324.24C56.2346 324.24 56.2346 324.322 56.2346 324.322C56.1523 324.159 56.1523 323.913 56.07 323.75H56.1523C56.07 323.587 56.07 323.342 55.9877 323.178H56.07C55.9877 323.015 55.9877 322.77 55.9054 322.607H55.9877C55.9054 322.443 55.823 322.198 55.823 322.035C55.823 322.035 55.823 322.035 55.9054 322.035C55.823 321.871 55.7407 321.708 55.7407 321.545V321.463C55.6584 321.3 55.5761 321.136 55.4938 320.973V320.891C55.4115 320.728 55.3291 320.483 55.2468 320.319C55.2468 320.319 55.2468 320.319 55.3291 320.319C55.2468 320.156 55.1645 319.911 54.9999 319.748H55.0822C54.9999 319.584 54.8352 319.339 54.7529 319.176H54.8352C54.7529 319.094 54.7529 319.012 54.6706 318.931C54.3413 319.258 54.1767 320.074 54.8352 321.3C54.6706 321.055 54.506 320.809 54.259 320.564C54.4236 321.218 54.7529 321.871 55.1645 322.443C54.9176 322.198 54.7529 321.953 54.506 321.79C54.7529 322.28 54.9999 322.688 55.3291 323.097C55.2468 323.015 55.1645 323.015 55.0822 322.933C54.5883 322.525 54.0944 322.116 53.6828 321.545C53.3535 321.055 53.0243 320.564 52.9419 320.074C52.8596 319.666 52.9419 319.339 53.1889 319.094C53.1889 319.094 53.2712 319.012 53.2712 318.931C53.1889 318.931 53.1066 319.012 53.1066 319.012C53.0243 319.094 53.0243 319.094 52.9419 319.176C52.8596 319.258 52.8596 319.339 52.7773 319.339C52.7773 319.094 52.7773 318.849 52.9419 318.604C53.0243 318.441 53.1889 318.277 53.4358 318.196C53.6005 318.114 53.8474 318.114 54.0944 318.114C53.3535 317.951 52.7773 318.196 52.5304 318.767C52.5304 318.604 52.6127 318.359 52.6127 318.196C52.2011 318.441 51.9541 318.767 51.8718 319.339C51.8718 319.094 51.7895 318.849 51.7895 318.604C51.6249 318.849 51.4602 319.176 51.4602 319.584C50.7194 317.951 51.131 316.317 52.9419 317.052C52.8596 316.97 52.7773 316.97 52.695 316.889C52.6127 316.807 52.5304 316.807 52.3657 316.807C52.2834 316.807 52.2011 316.725 52.1188 316.725C52.2011 316.644 52.5304 316.644 52.7773 316.725C53.0243 316.807 53.2712 316.889 53.6005 317.052C53.8474 317.215 54.1767 317.379 54.4236 317.624C54.0121 317.052 53.3535 316.562 52.6127 316.317C52.7773 316.317 52.8596 316.317 53.0243 316.317C52.5304 315.99 52.1188 315.827 51.7072 315.827C51.7895 315.745 51.8718 315.663 52.0365 315.663C51.7072 315.582 51.4602 315.5 51.2133 315.5C51.2133 315.5 51.2133 315.5 51.2133 315.418C51.3779 314.602 52.2011 314.602 53.0243 315.337C53.1889 315.5 53.3535 315.663 53.5182 315.827C53.6828 315.99 53.7651 316.154 53.9297 316.317C53.7651 316.072 53.5182 315.745 53.2712 315.5C53.7651 315.909 54.1767 316.399 54.5883 316.97C54.5883 316.644 54.6706 316.399 54.7529 316.154C54.7529 316.399 54.7529 316.562 54.7529 316.807C54.7529 316.644 54.8352 316.48 54.8352 316.317C54.9176 315.99 55.0822 315.827 55.4115 315.827C55.823 315.745 56.3169 316.072 56.8108 316.562C56.5639 316.48 56.3169 316.48 56.1523 316.562C56.3169 316.644 56.3993 316.725 56.5639 316.807C56.1523 316.725 55.9054 316.889 55.6584 317.052C55.823 317.052 55.9054 317.134 56.07 317.134C55.5761 317.215 55.3291 317.542 55.2468 318.032C55.4938 317.46 56.07 317.379 56.7285 317.624C56.5639 317.706 56.3993 317.706 56.1523 317.787C56.1523 317.787 56.1523 317.787 56.1523 317.869C56.7285 317.706 57.4694 317.951 58.2102 318.686C58.7041 319.176 59.1157 319.829 59.3627 320.483C59.0334 320.156 58.7865 319.829 58.4572 319.584C58.4572 319.584 58.4572 319.584 58.4572 319.503C58.6218 319.748 58.7041 319.911 58.8688 320.156C58.3749 319.666 57.881 319.258 57.3871 318.931C57.5517 319.094 57.7163 319.339 57.881 319.503C57.2224 318.931 56.5639 318.604 55.9054 318.686C56.6462 318.849 57.3047 319.258 57.881 320.074C57.634 319.911 57.3871 319.748 57.1401 319.503C57.2224 319.584 57.3047 319.584 57.3871 319.666C57.4694 319.748 57.5517 319.829 57.634 319.911C58.1279 320.401 58.3749 320.973 58.4572 321.545C58.4572 322.116 58.2926 322.525 57.9633 322.77L57.881 322.852C57.881 322.852 57.881 322.852 57.7986 322.852C57.7986 322.525 57.7986 322.198 57.7163 321.79C57.634 321.953 57.5517 322.116 57.5517 322.28C57.5517 321.79 57.4694 321.3 57.1401 320.728C57.1401 320.891 57.1401 321.136 57.1401 321.3C57.0578 320.891 56.8932 320.401 56.6462 319.993C56.3169 319.584 55.9877 319.176 55.5761 318.931C55.5761 319.012 55.6584 319.176 55.6584 319.258C55.7407 319.258 55.7407 319.258 55.823 319.258C55.9054 319.503 55.9054 319.666 55.9877 319.911C56.07 319.911 56.07 319.911 56.1523 319.911C56.1523 320.156 56.2346 320.319 56.2346 320.564C56.3169 320.564 56.3169 320.564 56.3993 320.564C56.3993 320.809 56.4816 320.973 56.4816 321.218C56.5639 321.218 56.5639 321.218 56.6462 321.218C56.6462 321.381 56.6462 321.626 56.7285 321.79C56.8108 321.79 56.8108 321.79 56.8932 321.79C56.8932 321.953 56.8932 322.198 56.8932 322.361C56.9755 322.361 56.9755 322.361 57.0578 322.443C57.0578 322.607 57.0578 322.852 57.0578 323.015C57.1401 323.015 57.1401 323.015 57.2224 323.097C57.2224 323.26 57.2224 323.505 57.2224 323.668C57.3047 323.668 57.3047 323.668 57.3871 323.75C57.0578 323.587 57.0578 323.75 56.9755 323.913Z" fill="#3A9492"/>
<path d="M45.2865 309.047C44.381 308.557 43.6401 308.965 43.6401 310.027C43.6401 311.089 44.381 312.396 45.2865 312.886C46.192 313.376 46.9328 312.968 46.9328 311.906C46.9328 310.844 46.192 309.537 45.2865 309.047Z" fill="#FCFEE5"/>
<path d="M40.2651 309.619L42.4877 313.621H43.8871L44.7926 315.173L47.6737 315.01L50.4725 319.258L40.5944 313.621L40.2651 309.619Z" fill="#3A9492"/>
<path d="M40.7592 304.31L60.186 315.418V331.02L40.7592 319.993V304.31ZM39.936 302.921V320.401L61.0092 332.49V315.01L39.936 302.921Z" fill="#6FAC9C"/>
<rect x="96" y="306" width="68" height="10" fill="#F58F7F"/>
<rect x="96" y="324" width="184" height="10" fill="#E9EAED"/>
<g filter="url(#filter2_dd)">
<rect x="116" y="100" width="288" height="72" rx="8" fill="white"/>
<rect x="116.5" y="100.5" width="287" height="71" rx="7.5" stroke="#EFEFEF"/>
</g>
<path d="M133.84 152.089C133.44 151.451 135.44 148.982 135.68 148.584C138.4 145.08 142 142.85 145.92 140.938C149.36 139.266 152.72 137.513 156.16 135.841C158.4 134.726 160.72 133.611 163.04 132.655C163.04 132.655 169.28 130.584 171.04 130.106C172.8 129.628 172.08 131.699 172.08 131.699C172.08 131.699 169.6 137.434 158.8 143.487C155.76 145.159 152.64 146.832 149.44 148.266C146.24 149.779 143.04 151.372 139.6 152.248C138.24 152.566 134.8 153.443 133.84 152.089Z" fill="url(#paint0_linear)"/>
<path d="M136.16 149.221L136.56 148.505C136.32 148.266 136.24 147.947 136.24 147.947L135.68 148.584C135.76 148.823 135.92 149.062 136.16 149.221Z" fill="#3A9492"/>
<path d="M136.4 149.381C136.72 149.54 137.2 149.699 137.6 149.779L137.84 148.982C137.36 148.982 137.04 148.823 136.8 148.664L136.4 149.381Z" fill="#3A9492"/>
<path d="M140.08 148.584C139.68 148.664 139.36 148.744 139.12 148.823V149.699C139.28 149.62 139.36 149.62 139.52 149.54L140.16 149.221L140.08 148.584Z" fill="#3A9492"/>
<path d="M138.8 148.903C138.56 148.903 138.4 148.982 138.16 148.982L137.84 149.779C138 149.779 138.16 149.859 138.24 149.859C138.4 149.859 138.56 149.859 138.72 149.859L138.8 148.903Z" fill="#3A9492"/>
<path d="M167.52 126.363L167.12 125.885C167.04 125.726 166.88 125.646 166.72 125.646H166.16C165.92 125.646 165.68 125.806 165.68 126.124L165.52 129.23L167.68 127.876L167.52 126.363Z" fill="url(#paint1_linear)"/>
<path d="M149.6 139.106L140.32 129.549C139.92 129.151 139.28 128.991 138.72 129.23L138.48 129.389C138.24 129.469 138.16 129.788 138.24 130.027L144.56 141.655L149.6 139.106Z" fill="url(#paint2_linear)"/>
<path d="M162.08 134.168C161.84 134.248 161.6 134.009 161.84 133.77C164 131.301 166 128.673 167.76 125.885C168.4 124.85 169.04 123.735 169.68 122.699C170 122.142 170.32 121.584 170.56 121.027C170.88 120.31 171.2 119.673 172 119.354C173.12 118.876 173.36 119.036 173.12 120.151C172.88 121.266 171.04 130.027 171.04 130.027L162.08 134.168Z" fill="url(#paint3_linear)"/>
<path d="M168.8 133.451L177.28 133.292C177.68 133.292 178 133.133 178.32 132.973L179.28 132.336L172 130.425C172 130.425 168.24 132.257 168.8 133.451Z" fill="url(#paint4_linear)"/>
<path d="M150.24 146.673C150.24 146.673 155.52 143.168 157.44 143.168C157.52 143.168 157.52 143.168 157.6 143.168L161.28 144.92C162.24 145.398 163.28 145.717 164.32 145.876L178.16 148.425C178.16 148.425 177.2 149.142 175.92 149.221L149.6 148.106C149.6 148.106 149.36 147.31 150.24 146.673Z" fill="url(#paint5_linear)"/>
<path d="M162.16 148.664L158.96 150.575C157.6 151.372 156.72 151.531 156.08 151.452C155.52 151.372 154.96 150.894 154.96 150.336C154.96 149.859 155.2 149.301 156.24 148.903L157.2 148.505L162.16 148.664Z" fill="url(#paint6_linear)"/>
<path d="M155.646 151.127C155.907 151.079 156.06 150.724 155.988 150.335C155.916 149.946 155.646 149.669 155.386 149.717C155.125 149.764 154.972 150.119 155.044 150.508C155.116 150.898 155.386 151.174 155.646 151.127Z" fill="#3A9492"/>
<path d="M134.32 150.575C133.92 151.213 133.68 151.85 133.84 152.168C134.16 152.646 134.88 152.885 135.68 152.885C136.24 151.452 135.2 150.814 134.32 150.575Z" fill="#3A9492"/>
<path d="M141.04 148.265V148.903C162.4 139.982 168.8 135.283 168.8 135.283V134.407C159.6 139.903 142.96 147.389 141.04 148.265Z" fill="#3A9492"/>
<rect x="200" y="140" width="100" height="10" fill="#F58F7F"/>
<rect x="200" y="122" width="156" height="10" fill="#E9EAED"/>
<g filter="url(#filter3_dd)">
<rect x="64" y="192" width="288" height="72" rx="8" fill="white"/>
<rect x="64.5" y="192.5" width="287" height="71" rx="7.5" stroke="#EFEFEF"/>
</g>
<g clip-path="url(#clip0)">
<path d="M116.729 220.602C116.729 219.512 117.5 218.229 118.4 217.652C119.3 217.075 120.071 217.588 120.071 218.678V230.287L116.793 228.427V220.602H116.729Z" fill="#3A9492"/>
<path d="M103.55 218.101V212.97C103.55 211.88 104.321 210.597 105.221 210.02C105.671 209.763 106.057 209.763 106.378 209.956L119.621 217.652C119.236 217.459 118.914 217.395 118.4 217.716C117.5 218.229 116.728 219.576 116.728 220.666V232.531C116.728 233.622 115.957 234.904 115.057 235.482C114.157 236.059 113.386 235.546 113.386 234.456V224.835C113.386 224.322 113.193 223.873 112.936 223.745L103.55 218.101Z" fill="url(#paint7_linear)"/>
<path d="M99.5642 215.856C99.3071 215.792 98.9856 215.856 98.6642 216.048C97.7642 216.562 96.9928 217.908 96.9928 218.999V229.774C96.9928 231.249 96.2213 232.66 94.9356 233.365L87.0928 237.855L100.271 245.487L108.178 240.933C109.4 240.228 110.171 238.881 110.171 237.47V226.631C110.171 225.541 110.943 224.258 111.843 223.681C112.293 223.424 112.678 223.424 112.936 223.552C112.936 223.552 100.014 215.984 99.5642 215.856Z" fill="url(#paint8_linear)"/>
<path d="M110.171 233.301L114.028 235.546C113.643 235.417 113.45 234.969 113.45 234.391V224.771C113.45 223.681 112.743 223.232 111.778 223.745C110.878 224.258 110.107 225.605 110.107 226.695V233.109L110.171 233.301Z" fill="#3A9492"/>
<path d="M101.943 239.522C102.393 239.138 102.586 238.689 102.393 238.176C102.264 237.791 102.072 237.47 101.622 237.085C101.557 237.021 101.429 236.893 101.3 236.829C101.429 236.765 101.557 236.7 101.686 236.636C101.557 236.572 101.429 236.444 101.236 236.38C101.107 236.444 100.979 236.508 100.85 236.572C100.593 236.444 100.4 236.38 100.143 236.251C99.4359 235.995 98.7287 235.802 97.9573 235.802C97.3144 235.802 96.6716 235.867 96.1573 236.059C96.093 236.059 96.0287 236.123 95.9002 236.187C96.8644 236.251 97.7644 236.765 97.7644 237.342C98.1502 237.342 98.5359 237.47 98.8573 237.598C98.2787 237.919 97.3787 238.368 96.993 238.56C96.8644 238.624 96.7359 238.624 96.6073 238.624C96.4144 238.624 96.2216 238.56 96.093 238.432C95.9644 238.304 95.9644 238.176 96.093 238.111C96.1573 238.047 96.2216 238.047 96.2859 237.983C96.3502 237.919 96.4787 237.919 96.543 237.855C96.4144 237.791 96.2859 237.662 96.093 237.598C95.9644 237.662 95.8359 237.727 95.7716 237.791C95.7073 237.855 95.643 237.855 95.5787 237.919C95.3216 238.176 95.5144 238.624 96.0287 238.817C96.4787 239.009 97.0573 239.009 97.443 238.817C97.8287 238.624 98.7287 238.111 99.3716 237.791C99.6287 237.983 99.693 238.176 99.693 238.432C100.207 238.432 100.593 238.56 100.979 238.817C101.364 239.073 101.493 239.33 101.557 239.587C101.75 239.651 101.879 239.587 101.943 239.522Z" fill="#3A9492"/>
<path d="M107.214 227.08L101.171 223.616C101.043 223.552 100.914 223.36 100.914 223.232C100.914 223.103 101.043 223.039 101.171 223.103L107.214 226.567C107.343 226.631 107.471 226.823 107.471 226.951C107.471 227.144 107.407 227.144 107.214 227.08Z" fill="#3A9492"/>
<path d="M100.143 222.718C100.143 223.103 99.8212 223.232 99.4998 222.975C99.1141 222.783 98.8569 222.27 98.8569 221.949C98.8569 221.564 99.1784 221.436 99.4998 221.692C99.8212 221.885 100.143 222.334 100.143 222.718Z" fill="#3A9492"/>
<path d="M107.214 229.966L101.171 226.503C101.043 226.438 100.914 226.246 100.914 226.118C100.914 225.99 101.043 225.925 101.171 225.99L107.214 229.453C107.343 229.517 107.471 229.709 107.471 229.838C107.471 229.966 107.407 230.03 107.214 229.966Z" fill="#3A9492"/>
<path d="M100.143 225.605C100.143 225.99 99.8212 226.118 99.4998 225.861C99.1141 225.669 98.8569 225.156 98.8569 224.835C98.8569 224.45 99.1784 224.322 99.4998 224.579C99.8212 224.771 100.143 225.22 100.143 225.605Z" fill="#3A9492"/>
<path d="M107.214 232.724L101.171 229.26C101.043 229.196 100.914 229.004 100.914 228.876C100.914 228.747 101.043 228.683 101.171 228.747L107.214 232.211C107.343 232.275 107.471 232.467 107.471 232.595C107.471 232.788 107.407 232.852 107.214 232.724Z" fill="#3A9492"/>
<path d="M100.143 228.363C100.143 228.747 99.8212 228.876 99.4998 228.619C99.1141 228.427 98.8569 227.914 98.8569 227.593C98.8569 227.208 99.1784 227.08 99.4998 227.336C99.8212 227.529 100.143 227.978 100.143 228.363Z" fill="#3A9492"/>
<path d="M107.214 235.546L101.171 232.082C101.043 232.018 100.914 231.826 100.914 231.698C100.914 231.569 101.043 231.505 101.171 231.569L107.214 235.033C107.343 235.097 107.471 235.289 107.471 235.418C107.471 235.546 107.407 235.61 107.214 235.546Z" fill="#3A9492"/>
<path d="M100.143 231.12C100.143 231.505 99.8212 231.633 99.4998 231.377C99.1141 231.185 98.8569 230.671 98.8569 230.351C98.8569 230.03 99.1784 229.838 99.4998 230.094C99.8212 230.287 100.143 230.8 100.143 231.12Z" fill="#3A9492"/>
<path d="M114.221 219.897L108.179 216.433C108.05 216.369 107.921 216.177 107.921 216.048C107.921 215.92 108.05 215.856 108.179 215.92L114.221 219.384C114.35 219.448 114.479 219.64 114.479 219.768C114.479 219.961 114.35 219.961 114.221 219.897Z" fill="#3A9492"/>
<path d="M107.086 215.535C107.086 215.92 106.764 216.049 106.443 215.792C106.057 215.6 105.8 215.086 105.8 214.766C105.8 214.445 106.121 214.253 106.443 214.509C106.828 214.702 107.086 215.151 107.086 215.535Z" fill="#3A9492"/>
<path d="M114.221 222.783L108.179 219.319C108.05 219.255 107.921 219.063 107.921 218.935C107.921 218.806 108.05 218.742 108.179 218.806L114.221 222.27C114.35 222.334 114.479 222.526 114.479 222.655C114.479 222.783 114.35 222.847 114.221 222.783Z" fill="#3A9492"/>
<path d="M107.086 218.357C107.086 218.742 106.764 218.87 106.443 218.614C106.121 218.357 105.8 217.908 105.8 217.588C105.8 217.203 106.121 217.075 106.443 217.331C106.764 217.588 107.086 218.037 107.086 218.357Z" fill="#3A9492"/>
</g>
<rect x="148" y="214" width="172" height="10" fill="#E9EAED"/>
<circle cx="153" cy="239" r="5" fill="#98CCB0"/>
<circle cx="168" cy="239" r="5" fill="#98CCB0"/>
<circle cx="183" cy="239" r="5" fill="#E9EAED"/>
<defs>
<filter id="filter0_dd" x="0" y="0" width="312" height="96" filterUnits="userSpaceOnUse" color-interpolation-filters="sRGB">
<feFlood flood-opacity="0" result="BackgroundImageFix"/>
<feColorMatrix in="SourceAlpha" type="matrix" values="0 0 0 0 0 0 0 0 0 0 0 0 0 0 0 0 0 0 127 0"/>
<feOffset dy="2"/>
<feGaussianBlur stdDeviation="3"/>
<feColorMatrix type="matrix" values="0 0 0 0 0.0392157 0 0 0 0 0.0901961 0 0 0 0 0.2 0 0 0 0.04 0"/>
<feBlend mode="normal" in2="BackgroundImageFix" result="effect1_dropShadow"/>
<feColorMatrix in="SourceAlpha" type="matrix" values="0 0 0 0 0 0 0 0 0 0 0 0 0 0 0 0 0 0 127 0"/>
<feOffset dy="4"/>
<feGaussianBlur stdDeviation="6"/>
<feColorMatrix type="matrix" values="0 0 0 0 0.0387097 0 0 0 0 0.0903226 0 0 0 0 0.2 0 0 0 0.04 0"/>
<feBlend mode="normal" in2="effect1_dropShadow" result="effect2_dropShadow"/>
<feBlend mode="normal" in="SourceGraphic" in2="effect2_dropShadow" result="shape"/>
</filter>
<filter id="filter1_dd" x="0" y="276" width="312" height="96" filterUnits="userSpaceOnUse" color-interpolation-filters="sRGB">
<feFlood flood-opacity="0" result="BackgroundImageFix"/>
<feColorMatrix in="SourceAlpha" type="matrix" values="0 0 0 0 0 0 0 0 0 0 0 0 0 0 0 0 0 0 127 0"/>
<feOffset dy="2"/>
<feGaussianBlur stdDeviation="3"/>
<feColorMatrix type="matrix" values="0 0 0 0 0.0392157 0 0 0 0 0.0901961 0 0 0 0 0.2 0 0 0 0.04 0"/>
<feBlend mode="normal" in2="BackgroundImageFix" result="effect1_dropShadow"/>
<feColorMatrix in="SourceAlpha" type="matrix" values="0 0 0 0 0 0 0 0 0 0 0 0 0 0 0 0 0 0 127 0"/>
<feOffset dy="4"/>
<feGaussianBlur stdDeviation="6"/>
<feColorMatrix type="matrix" values="0 0 0 0 0.0387097 0 0 0 0 0.0903226 0 0 0 0 0.2 0 0 0 0.04 0"/>
<feBlend mode="normal" in2="effect1_dropShadow" result="effect2_dropShadow"/>
<feBlend mode="normal" in="SourceGraphic" in2="effect2_dropShadow" result="shape"/>
</filter>
<filter id="filter2_dd" x="104" y="92" width="312" height="96" filterUnits="userSpaceOnUse" color-interpolation-filters="sRGB">
<feFlood flood-opacity="0" result="BackgroundImageFix"/>
<feColorMatrix in="SourceAlpha" type="matrix" values="0 0 0 0 0 0 0 0 0 0 0 0 0 0 0 0 0 0 127 0"/>
<feOffset dy="2"/>
<feGaussianBlur stdDeviation="3"/>
<feColorMatrix type="matrix" values="0 0 0 0 0.0392157 0 0 0 0 0.0901961 0 0 0 0 0.2 0 0 0 0.04 0"/>
<feBlend mode="normal" in2="BackgroundImageFix" result="effect1_dropShadow"/>
<feColorMatrix in="SourceAlpha" type="matrix" values="0 0 0 0 0 0 0 0 0 0 0 0 0 0 0 0 0 0 127 0"/>
<feOffset dy="4"/>
<feGaussianBlur stdDeviation="6"/>
<feColorMatrix type="matrix" values="0 0 0 0 0.0387097 0 0 0 0 0.0903226 0 0 0 0 0.2 0 0 0 0.04 0"/>
<feBlend mode="normal" in2="effect1_dropShadow" result="effect2_dropShadow"/>
<feBlend mode="normal" in="SourceGraphic" in2="effect2_dropShadow" result="shape"/>
</filter>
<filter id="filter3_dd" x="52" y="184" width="312" height="96" filterUnits="userSpaceOnUse" color-interpolation-filters="sRGB">
<feFlood flood-opacity="0" result="BackgroundImageFix"/>
<feColorMatrix in="SourceAlpha" type="matrix" values="0 0 0 0 0 0 0 0 0 0 0 0 0 0 0 0 0 0 127 0"/>
<feOffset dy="2"/>
<feGaussianBlur stdDeviation="3"/>
<feColorMatrix type="matrix" values="0 0 0 0 0.0392157 0 0 0 0 0.0901961 0 0 0 0 0.2 0 0 0 0.04 0"/>
<feBlend mode="normal" in2="BackgroundImageFix" result="effect1_dropShadow"/>
<feColorMatrix in="SourceAlpha" type="matrix" values="0 0 0 0 0 0 0 0 0 0 0 0 0 0 0 0 0 0 127 0"/>
<feOffset dy="4"/>
<feGaussianBlur stdDeviation="6"/>
<feColorMatrix type="matrix" values="0 0 0 0 0.0387097 0 0 0 0 0.0903226 0 0 0 0 0.2 0 0 0 0.04 0"/>
<feBlend mode="normal" in2="effect1_dropShadow" result="effect2_dropShadow"/>
<feBlend mode="normal" in="SourceGraphic" in2="effect2_dropShadow" result="shape"/>
</filter>
<linearGradient id="paint0_linear" x1="150.947" y1="137.597" x2="155.697" y2="146.206" gradientUnits="userSpaceOnUse">
<stop offset="0.0650913" stop-color="#B0D1BD"/>
<stop offset="0.0861318" stop-color="#B9D6C2"/>
<stop offset="0.1855" stop-color="#DDECD5"/>
<stop offset="0.2661" stop-color="#F4F9E1"/>
<stop offset="0.3173" stop-color="#FCFEE5"/>
<stop offset="0.3872" stop-color="#E7F2DA"/>
<stop offset="0.5316" stop-color="#B1D2BE"/>
<stop offset="0.6905" stop-color="#6FAC9C"/>
<stop offset="0.7209" stop-color="#66A89A"/>
<stop offset="0.8252" stop-color="#4E9D96"/>
<stop offset="0.921" stop-color="#3F9693"/>
<stop offset="1" stop-color="#3A9492"/>
</linearGradient>
<linearGradient id="paint1_linear" x1="165.504" y1="127.47" x2="167.674" y2="127.47" gradientUnits="userSpaceOnUse">
<stop stop-color="#B0D1BD"/>
<stop offset="0.0698128" stop-color="#BAD7C2"/>
<stop offset="0.2114" stop-color="#C9E0CA"/>
<stop offset="0.3283" stop-color="#CEE3CD"/>
<stop offset="0.6001" stop-color="#6FAC9C"/>
<stop offset="0.6304" stop-color="#66A89A"/>
<stop offset="0.7344" stop-color="#4E9D96"/>
<stop offset="0.8301" stop-color="#3F9693"/>
<stop offset="0.9088" stop-color="#3A9492"/>
</linearGradient>
<linearGradient id="paint2_linear" x1="141.368" y1="135.958" x2="146.039" y2="132.911" gradientUnits="userSpaceOnUse">
<stop stop-color="#B0D1BD"/>
<stop offset="0.0698128" stop-color="#BAD7C2"/>
<stop offset="0.2114" stop-color="#C9E0CA"/>
<stop offset="0.3283" stop-color="#CEE3CD"/>
<stop offset="0.6001" stop-color="#6FAC9C"/>
<stop offset="0.6304" stop-color="#66A89A"/>
<stop offset="0.7344" stop-color="#4E9D96"/>
<stop offset="0.8301" stop-color="#3F9693"/>
<stop offset="0.9088" stop-color="#3A9492"/>
</linearGradient>
<linearGradient id="paint3_linear" x1="164.882" y1="125.605" x2="174.497" y2="129.596" gradientUnits="userSpaceOnUse">
<stop stop-color="#B0D1BD"/>
<stop offset="0.0698128" stop-color="#BAD7C2"/>
<stop offset="0.2114" stop-color="#C9E0CA"/>
<stop offset="0.3283" stop-color="#CEE3CD"/>
<stop offset="0.6001" stop-color="#6FAC9C"/>
<stop offset="0.6304" stop-color="#66A89A"/>
<stop offset="0.7344" stop-color="#4E9D96"/>
<stop offset="0.8301" stop-color="#3F9693"/>
<stop offset="0.9088" stop-color="#3A9492"/>
</linearGradient>
<linearGradient id="paint4_linear" x1="173.958" y1="133.53" x2="174.276" y2="130.942" gradientUnits="userSpaceOnUse">
<stop stop-color="#B0D1BD"/>
<stop offset="0.0698128" stop-color="#BAD7C2"/>
<stop offset="0.2114" stop-color="#C9E0CA"/>
<stop offset="0.3283" stop-color="#CEE3CD"/>
<stop offset="0.6001" stop-color="#6FAC9C"/>
<stop offset="0.6304" stop-color="#66A89A"/>
<stop offset="0.7344" stop-color="#4E9D96"/>
<stop offset="0.8301" stop-color="#3F9693"/>
<stop offset="0.9088" stop-color="#3A9492"/>
</linearGradient>
<linearGradient id="paint5_linear" x1="163.858" y1="148.515" x2="164.174" y2="144.896" gradientUnits="userSpaceOnUse">
<stop stop-color="#B0D1BD"/>
<stop offset="0.0698128" stop-color="#BAD7C2"/>
<stop offset="0.2114" stop-color="#C9E0CA"/>
<stop offset="0.3283" stop-color="#CEE3CD"/>
<stop offset="0.6001" stop-color="#6FAC9C"/>
<stop offset="0.6304" stop-color="#66A89A"/>
<stop offset="0.7344" stop-color="#4E9D96"/>
<stop offset="0.8301" stop-color="#3F9693"/>
<stop offset="0.9088" stop-color="#3A9492"/>
</linearGradient>
<linearGradient id="paint6_linear" x1="157.938" y1="148.003" x2="159.156" y2="150.975" gradientUnits="userSpaceOnUse">
<stop offset="0.2582" stop-color="#B0D1BD"/>
<stop offset="0.3266" stop-color="#9BC5B3"/>
<stop offset="0.4287" stop-color="#83B7A6"/>
<stop offset="0.5227" stop-color="#74AF9F"/>
<stop offset="0.6001" stop-color="#6FAC9C"/>
<stop offset="0.6304" stop-color="#66A89A"/>
<stop offset="0.7344" stop-color="#4E9D96"/>
<stop offset="0.8301" stop-color="#3F9693"/>
<stop offset="0.9088" stop-color="#3A9492"/>
</linearGradient>
<linearGradient id="paint7_linear" x1="115.062" y1="214.497" x2="104.953" y2="231.36" gradientUnits="userSpaceOnUse">
<stop offset="0.0312113" stop-color="#CEE3CD"/>
<stop offset="0.107" stop-color="#FCFEE5"/>
<stop offset="0.1659" stop-color="#CEE3CD"/>
<stop offset="0.4846" stop-color="#CEE3CD"/>
<stop offset="0.572" stop-color="#B1D2BE"/>
<stop offset="0.6813" stop-color="#94C2AF"/>
<stop offset="0.79" stop-color="#80B6A5"/>
<stop offset="0.8969" stop-color="#73AE9E"/>
<stop offset="1" stop-color="#6FAC9C"/>
</linearGradient>
<linearGradient id="paint8_linear" x1="107.537" y1="221.513" x2="94.5605" y2="244.041" gradientUnits="userSpaceOnUse">
<stop stop-color="#CEE3CD"/>
<stop offset="0.0474745" stop-color="#FCFEE5"/>
<stop offset="0.269" stop-color="#CEE3CD"/>
<stop offset="0.5062" stop-color="#CEE3CD"/>
<stop offset="0.6449" stop-color="#CEE3CD"/>
<stop offset="1" stop-color="#CEE3CD"/>
</linearGradient>
<clipPath id="clip0">
<rect x="86" y="209.25" width="36" height="36.75" fill="white"/>
</clipPath>
</defs>
</svg>
