<svg width="383" height="306" viewBox="0 0 383 306" fill="none" xmlns="http://www.w3.org/2000/svg">
<path d="M67 91.5C65.9821 91.5 65.0128 91.2975 64.1292 90.9311L63.9377 91.393C61.9822 90.582 60.418 89.0178 59.607 87.0623L60.0689 86.8708C59.7025 85.9872 59.5 85.0179 59.5 84V80.2H59V72.6H59.5V65H59V57.4H59.5V49.8H59V42.2H59.5V34.6H59V27H59.5V19.4H59V11.8H59.5V8C59.5 6.98214 59.7025 6.01284 60.0689 5.12922L59.607 4.9377C60.418 2.98217 61.9822 1.41797 63.9377 0.607044L64.1292 1.06891C65.0128 0.702487 65.9821 0.5 67 0.5H70.8V0H78.4V0.5H86V0H93.6V0.5H101.2V0H108.8V0.5H116.4V0H124V0.5H131.6V0H139.2V0.5H143C144.018 0.5 144.987 0.702487 145.871 1.06891L146.062 0.607045C148.018 1.41797 149.582 2.98217 150.393 4.9377L149.931 5.12922C150.298 6.01284 150.5 6.98214 150.5 8V11.8H151V19.4H150.5V27H151V34.6H150.5V42.2H151V49.8H150.5V57.4H151V65H150.5V72.6H151V80.2H150.5V84C150.5 85.0179 150.298 85.9872 149.931 86.8708L150.393 87.0623C149.582 89.0178 148.018 90.582 146.062 91.393L145.871 90.9311C144.987 91.2975 144.018 91.5 143 91.5H139.2V92H131.6V91.5H124V92H116.4V91.5H108.8V92H101.2V91.5H93.6V92H86V91.5H78.4V92H70.8V91.5H67Z" fill="white" stroke="#E9EAED" stroke-dasharray="8 8"/>
<path d="M74.6321 59.4949C73.1985 58.7291 72.4165 57.5805 72.4165 56.4318C72.4165 55.2832 72.4165 54.9003 72.4165 54.9003L99.7865 39.3296C102.784 37.6704 107.476 37.6704 110.474 39.3296L137.583 54.9003C137.583 54.9003 137.583 55.2832 137.583 56.3042C137.583 57.4529 136.931 58.6015 135.367 59.3673L110.343 73.5341C107.476 75.1933 102.654 75.1933 99.6562 73.5341L74.6321 59.4949Z" fill="#FFB36B"/>
<path d="M74.6319 57.9635C71.7646 56.3043 71.7646 53.6241 74.6319 51.9649L99.7863 37.7981C102.784 36.1389 107.476 36.1389 110.474 37.7981L135.367 51.8373C138.235 53.4964 138.235 56.1766 135.367 57.8358L110.343 72.0026C107.476 73.6618 102.654 73.6618 99.656 72.0026L74.6319 57.9635Z" fill="#FAFAFA"/>
<path d="M83.4963 56.3044V29.2471H126.506V56.3044L116.21 62.1753C109.302 66.1318 100.7 66.1318 93.7927 62.1753L83.4963 56.3044Z" fill="#EDEDED"/>
<path d="M126.507 51.199L116.21 57.0699C109.303 61.0264 100.701 61.0264 93.7929 57.0699L83.4966 51.199" stroke="#D4D4D4" stroke-miterlimit="10" stroke-linecap="round"/>
<path d="M126.507 44.1797L116.21 50.0506C109.303 54.0071 100.701 54.0071 93.7929 50.0506L83.4966 44.1797" stroke="#FFB36B" stroke-miterlimit="10" stroke-linecap="round"/>
<path d="M126.507 37.0325L116.21 42.9034C109.303 46.8599 100.701 46.8599 93.7929 42.9034L83.4966 37.0325" stroke="#D4D4D4" stroke-miterlimit="10" stroke-linecap="round"/>
<path d="M105.001 37.5432C101.221 37.5432 97.311 36.5222 94.0527 34.6077L84.5383 29.2473L105.131 17.7607L125.593 29.2473L116.079 34.6077C112.56 36.6498 108.78 37.5432 105.001 37.5432Z" fill="#FAFAFA"/>
<path d="M105.132 18.3987L124.551 29.3748L115.689 34.3523C112.43 36.1391 108.781 37.1601 105.001 37.1601C101.222 37.1601 97.5723 36.1391 94.314 34.3523L85.4513 29.3748L105.132 18.3987ZM105.132 17.25L83.4963 29.3748L93.7927 35.2457C97.3117 37.1601 101.091 38.1811 105.001 38.1811C108.911 38.1811 112.691 37.1601 116.21 35.2457L126.506 29.3748L105.132 17.25Z" fill="#FFB36B"/>
<path d="M95.8774 31.1614V28.9917H113.994V31.1614L112.43 32.0548C107.738 34.735 102.003 34.735 97.3111 32.0548L95.8774 31.1614Z" fill="#D4D4D4"/>
<path d="M95.8774 28.9919L105.001 23.8867L113.994 28.9919L112.43 29.8853C107.738 32.5655 102.003 32.5655 97.3111 29.8853L95.8774 28.9919Z" fill="#EDEDED"/>
<rect x="171" width="55" height="8" fill="#98CCB0"/>
<rect x="59" y="132" width="55" height="8" fill="#F58F7F"/>
<rect x="171" y="16" width="120" height="8" fill="#F1F2F5"/>
<rect x="59" y="148" width="218" height="8" fill="#F1F2F5"/>
<rect x="59" y="164" width="133" height="8" fill="#F1F2F5"/>
<g filter="url(#filter0_dd)">
<rect x="171" y="40" width="200" height="80" rx="8" fill="white"/>
<rect x="171.5" y="40.5" width="199" height="79" rx="7.5" stroke="#EFEFEF"/>
</g>
<rect x="215" y="64" width="132" height="8" fill="#E9EAED"/>
<rect x="215" y="88" width="66" height="8" fill="#E9EAED"/>
<path fill-rule="evenodd" clip-rule="evenodd" d="M198.545 76C194.182 74.0561 192 72.1167 192 70.1818V62.9091C192 62.1818 192.364 62.1818 193.455 61.4545C193.572 61.3761 196.046 60 198.545 60C200.724 60 202.545 60.7273 203.636 61.4545C204.727 62.1818 205.091 62.1818 205.091 62.9091C205.11 63.121 205.091 69.0909 205.091 70.1818C205.091 72.1212 202.909 74.0606 198.545 76Z" fill="#FFB36B"/>
<path fill-rule="evenodd" clip-rule="evenodd" d="M202 65.8105L198.567 70L196 67.9113L196.98 66.9017L198.349 68.015L200.819 65L202 65.8105Z" fill="white"/>
<path fill-rule="evenodd" clip-rule="evenodd" d="M198.545 100C194.182 98.0561 192 96.1167 192 94.1818V86.9091C192 86.1818 192.364 86.1818 193.455 85.4545C193.572 85.3761 196.046 84 198.545 84C200.724 84 202.545 84.7273 203.636 85.4545C204.727 86.1818 205.091 86.1818 205.091 86.9091C205.11 87.121 205.091 93.0909 205.091 94.1818C205.091 96.1212 202.909 98.0606 198.545 100Z" fill="#FFB36B"/>
<path fill-rule="evenodd" clip-rule="evenodd" d="M202 89.8105L198.567 94L196 91.9113L196.98 90.9017L198.349 92.015L200.819 89L202 89.8105Z" fill="white"/>
<g filter="url(#filter1_dd)">
<rect x="12" y="186" width="257" height="104" rx="8" fill="white"/>
<rect x="12.5" y="186.5" width="256" height="103" rx="7.5" stroke="#EFEFEF"/>
</g>
<rect x="59" y="210" width="190" height="8" fill="#E9EAED"/>
<rect x="59" y="234" width="190" height="8" fill="#E9EAED"/>
<rect x="59" y="258" width="190" height="8" fill="#E9EAED"/>
<path d="M40.4332 212.667C39.8865 211.113 38.4065 210 36.6665 210C34.4598 210 32.6665 211.793 32.6665 214C32.6665 216.207 34.4598 218 36.6665 218C38.4065 218 39.8865 216.887 40.4332 215.333H43.3332V218H45.9998V215.333H47.3332V212.667H40.4332ZM36.6665 215.333C35.9332 215.333 35.3332 214.733 35.3332 214C35.3332 213.267 35.9332 212.667 36.6665 212.667C37.3998 212.667 37.9998 213.267 37.9998 214C37.9998 214.733 37.3998 215.333 36.6665 215.333Z" fill="#F58F7F"/>
<path d="M40.4332 236.667C39.8865 235.113 38.4065 234 36.6665 234C34.4598 234 32.6665 235.793 32.6665 238C32.6665 240.207 34.4598 242 36.6665 242C38.4065 242 39.8865 240.887 40.4332 239.333H43.3332V242H45.9998V239.333H47.3332V236.667H40.4332ZM36.6665 239.333C35.9332 239.333 35.3332 238.733 35.3332 238C35.3332 237.267 35.9332 236.667 36.6665 236.667C37.3998 236.667 37.9998 237.267 37.9998 238C37.9998 238.733 37.3998 239.333 36.6665 239.333Z" fill="#F58F7F"/>
<path d="M40.4332 260.667C39.8865 259.113 38.4065 258 36.6665 258C34.4598 258 32.6665 259.793 32.6665 262C32.6665 264.207 34.4598 266 36.6665 266C38.4065 266 39.8865 264.887 40.4332 263.333H43.3332V266H45.9998V263.333H47.3332V260.667H40.4332ZM36.6665 263.333C35.9332 263.333 35.3332 262.733 35.3332 262C35.3332 261.267 35.9332 260.667 36.6665 260.667C37.3998 260.667 37.9998 261.267 37.9998 262C37.9998 262.733 37.3998 263.333 36.6665 263.333Z" fill="#F58F7F"/>
<defs>
<filter id="filter0_dd" x="159" y="32" width="224" height="104" filterUnits="userSpaceOnUse" color-interpolation-filters="sRGB">
<feFlood flood-opacity="0" result="BackgroundImageFix"/>
<feColorMatrix in="SourceAlpha" type="matrix" values="0 0 0 0 0 0 0 0 0 0 0 0 0 0 0 0 0 0 127 0"/>
<feOffset dy="2"/>
<feGaussianBlur stdDeviation="3"/>
<feColorMatrix type="matrix" values="0 0 0 0 0.0392157 0 0 0 0 0.0901961 0 0 0 0 0.2 0 0 0 0.04 0"/>
<feBlend mode="normal" in2="BackgroundImageFix" result="effect1_dropShadow"/>
<feColorMatrix in="SourceAlpha" type="matrix" values="0 0 0 0 0 0 0 0 0 0 0 0 0 0 0 0 0 0 127 0"/>
<feOffset dy="4"/>
<feGaussianBlur stdDeviation="6"/>
<feColorMatrix type="matrix" values="0 0 0 0 0.0387097 0 0 0 0 0.0903226 0 0 0 0 0.2 0 0 0 0.04 0"/>
<feBlend mode="normal" in2="effect1_dropShadow" result="effect2_dropShadow"/>
<feBlend mode="normal" in="SourceGraphic" in2="effect2_dropShadow" result="shape"/>
</filter>
<filter id="filter1_dd" x="0" y="178" width="281" height="128" filterUnits="userSpaceOnUse" color-interpolation-filters="sRGB">
<feFlood flood-opacity="0" result="BackgroundImageFix"/>
<feColorMatrix in="SourceAlpha" type="matrix" values="0 0 0 0 0 0 0 0 0 0 0 0 0 0 0 0 0 0 127 0"/>
<feOffset dy="2"/>
<feGaussianBlur stdDeviation="3"/>
<feColorMatrix type="matrix" values="0 0 0 0 0.0392157 0 0 0 0 0.0901961 0 0 0 0 0.2 0 0 0 0.04 0"/>
<feBlend mode="normal" in2="BackgroundImageFix" result="effect1_dropShadow"/>
<feColorMatrix in="SourceAlpha" type="matrix" values="0 0 0 0 0 0 0 0 0 0 0 0 0 0 0 0 0 0 127 0"/>
<feOffset dy="4"/>
<feGaussianBlur stdDeviation="6"/>
<feColorMatrix type="matrix" values="0 0 0 0 0.0387097 0 0 0 0 0.0903226 0 0 0 0 0.2 0 0 0 0.04 0"/>
<feBlend mode="normal" in2="effect1_dropShadow" result="effect2_dropShadow"/>
<feBlend mode="normal" in="SourceGraphic" in2="effect2_dropShadow" result="shape"/>
</filter>
</defs>
</svg>
