<svg width="57" height="58" viewBox="0 0 57 58" fill="none" xmlns="http://www.w3.org/2000/svg">
<path d="M3.22166 49.3248V46.7222L15.7369 52.6709V56.6368L3.22166 49.3248Z" fill="#CEE3CD"/>
<path d="M15.7369 52.6709L47.2108 35.3205V38.4188L15.7369 56.6367V52.6709Z" fill="#6FAC9C"/>
<path d="M2.10649 46.1025V44.8632L47.2108 34.453V35.6923L15.7369 53.9102L2.10649 46.1025Z" fill="#CEE3CD"/>
<path d="M15.7369 50.8119L47.2108 34.453V35.6923L15.7369 53.9102V50.8119Z" fill="#3A9492"/>
<path d="M2.10649 44.7393L33.7043 26.6453L47.2108 32.2222V34.453L15.7369 52.6709L2.10649 44.7393Z" fill="#FCFEE5"/>
<path d="M6.31956 42.3846V39.782L47.2109 30.6111V33.3376L18.7109 49.6966L6.31956 42.3846Z" fill="#CEE3CD"/>
<path d="M18.7109 46.9701L47.2109 30.6111V33.3376L18.7109 49.6966V46.9701Z" fill="#6FAC9C"/>
<path d="M5.20439 39.1624V37.9231L47.2109 29.3718V30.6111L18.7109 46.9701L5.20439 39.1624Z" fill="#CEE3CD"/>
<path d="M18.7109 44.4914L47.2109 29.2478V30.6111L18.7109 46.9701V44.4914Z" fill="#3A9492"/>
<path d="M5.20439 37.9231L33.7044 21.4402L47.2109 27.5128V29.3718L18.7109 45.7308L5.20439 37.9231Z" fill="#FCFEE5"/>
<path d="M21.6847 38.9145L24.6586 37.1795L47.2108 25.5299V28.1325L21.6847 42.8803V38.9145Z" fill="#6FAC9C"/>
<path d="M9.29341 35.5684V32.9658L21.6847 38.9145V42.8803L9.29341 35.5684Z" fill="#CEE3CD"/>
<path d="M21.6847 37.4274L47.2108 24.2906V25.5299L21.6847 40.1539V37.4274Z" fill="#3A9492"/>
<path d="M8.17824 32.2222V30.9829L21.6848 37.4274V40.1539L8.17824 32.2222Z" fill="#CEE3CD"/>
<path d="M8.17824 30.9829L33.7043 16.359L47.2109 21.0684V24.2906L21.6848 38.9145L8.17824 30.9829Z" fill="#FCFEE5"/>
<path d="M12.2674 28.7521V26.0256L47.2108 20.3248V23.0513L24.6587 35.9401L12.2674 28.7521Z" fill="#CEE3CD"/>
<path d="M24.6587 32.0983L47.2108 20.3248V23.0513L24.6587 35.9401V32.0983Z" fill="#6FAC9C"/>
<path d="M11.1522 25.406V24.1667L24.6587 32.0983V33.3376L11.1522 25.406Z" fill="#CEE3CD"/>
<path d="M24.6587 32.0983L47.2108 19.0855V20.3248L24.6587 33.3376V32.0983Z" fill="#3A9492"/>
<path d="M11.1522 24.1667L33.7044 11.1538L47.2109 15.8632V19.0855L24.6587 32.0983L11.1522 24.1667Z" fill="#FCFEE5"/>
<path d="M16.7282 20.9444V18.218L47.2108 15.1197V17.8462L29.2435 28.1325L16.7282 20.9444Z" fill="#CEE3CD"/>
<path d="M29.1196 24.9103L47.2109 15.1197V17.8462L29.2435 28.1325L29.1196 24.9103Z" fill="#6FAC9C"/>
<path d="M15.6131 17.5983V16.359L47.2109 13.8803V15.1197L29.2435 25.5299L15.6131 17.5983Z" fill="#CEE3CD"/>
<path d="M29.2435 22.1838L47.2109 13.8803V15.1197L29.2435 25.5299V22.1838Z" fill="#3A9492"/>
<path d="M15.6131 16.359L33.7044 6.07266L47.2109 13.8804L29.2435 24.2906L15.6131 16.359Z" fill="#FCFEE5"/>
<path d="M21.0653 16.359L28.5001 12.2693L36.5544 16.8547L29.2435 21.0684L21.0653 16.359Z" fill="#CEE3CD"/>
<path d="M28.5001 12.641L35.9348 16.8547L29.2435 20.5727L21.8088 16.359L28.5001 12.641ZM28.5001 11.8975L20.4457 16.359L29.2435 21.3163L37.174 16.8547L28.5001 11.8975Z" fill="#6FAC9C"/>
<path d="M33.7044 2.47864L40.7674 1.73505L54.15 9.66667L47.2109 10.1624L33.7044 2.47864Z" fill="#FCFEE5"/>
<path d="M47.2109 10.1624L54.15 9.66669V34.3291L47.2109 38.4188V10.1624Z" fill="#6FAC9C"/>
<path d="M33.7044 2.47864V6.07265L47.2109 13.8803V10.1624L33.7044 2.47864Z" fill="#CEE3CD"/>
</svg>
