<svg width="24" height="21" viewBox="0 0 24 21" fill="none" xmlns="http://www.w3.org/2000/svg">
<path d="M23.1642 8.77068L12.3842 0.216227C12.2088 0.0764262 11.9889 0 11.7619 0C11.5349 0 11.3149 0.0764262 11.1396 0.216227L0.359588 8.77068C0.259849 8.84995 0.177182 8.94748 0.116309 9.05773C0.0554359 9.16798 0.0175477 9.28877 0.00480754 9.41322C-0.0209224 9.66456 0.057344 9.91551 0.222388 10.1109C0.387432 10.3062 0.625735 10.43 0.884873 10.455C1.14401 10.4799 1.40276 10.404 1.60419 10.244L2.94189 9.1794V18.0618C2.94189 18.818 3.25164 19.5433 3.80299 20.0781C4.35435 20.6128 5.10215 20.9133 5.88189 20.9133H17.6419C18.4216 20.9133 19.1694 20.6128 19.7208 20.0781C20.2721 19.5433 20.5819 18.818 20.5819 18.0618V9.1794L21.9196 10.244C22.0953 10.3829 22.3152 10.4585 22.5419 10.4578C22.7444 10.4584 22.9422 10.3981 23.108 10.2852C23.2737 10.1724 23.3994 10.0125 23.4676 9.82749C23.5358 9.64252 23.5433 9.44159 23.489 9.25235C23.4346 9.0631 23.3212 8.89483 23.1642 8.77068ZM9.80189 19.0123V14.2598C9.80189 14.0077 9.90514 13.7659 10.0889 13.5877C10.2727 13.4094 10.522 13.3093 10.7819 13.3093H12.7419C13.0018 13.3093 13.2511 13.4094 13.4349 13.5877C13.6186 13.7659 13.7219 14.0077 13.7219 14.2598V19.0123H9.80189ZM18.6219 18.0618C18.6219 18.3139 18.5186 18.5556 18.3349 18.7339C18.1511 18.9121 17.9018 19.0123 17.6419 19.0123H15.6819V14.2598C15.6819 13.5035 15.3721 12.7782 14.8208 12.2435C14.2694 11.7087 13.5216 11.4083 12.7419 11.4083H10.7819C10.0022 11.4083 9.25435 11.7087 8.70299 12.2435C8.15164 12.7782 7.84189 13.5035 7.84189 14.2598V19.0123H5.88189C5.62198 19.0123 5.37271 18.9121 5.18892 18.7339C5.00514 18.5556 4.90189 18.3139 4.90189 18.0618V7.60633L11.7619 2.179L18.6219 7.60633V18.0618Z" fill="#5E666A"/>
</svg>
