<svg width="48" height="49" viewBox="0 0 48 49" fill="none" xmlns="http://www.w3.org/2000/svg">
<path d="M40.9714 15.1361C40.9714 13.6824 41.9999 11.9721 43.1999 11.2024C44.3999 10.4328 45.4285 11.1169 45.4285 12.5707V28.0488L41.0571 25.5689V15.1361H40.9714Z" fill="#3A9492"/>
<path d="M23.4 11.801V4.95985C23.4 3.5061 24.4285 1.7958 25.6285 1.02617C26.2285 0.684106 26.7428 0.684106 27.1714 0.94065L44.8285 11.2024C44.3142 10.9459 43.8857 10.8604 43.2 11.2879C42 11.9721 40.9714 13.7679 40.9714 15.2216V31.0419C40.9714 32.4956 39.9428 34.2059 38.7428 34.9756C37.5428 35.7452 36.5142 35.0611 36.5142 33.6073V20.7801C36.5142 20.096 36.2571 19.4974 35.9143 19.3263L23.4 11.801Z" fill="url(#paint0_linear)"/>
<path d="M18.0857 8.80801C17.7428 8.72249 17.3142 8.80801 16.8857 9.06455C15.6857 9.74867 14.6571 11.5445 14.6571 12.9982V27.3647C14.6571 29.3316 13.6285 31.2129 11.9142 32.1536L1.45709 38.1396L19.0285 48.3159L29.5714 42.2443C31.1999 41.3036 32.2285 39.5078 32.2285 37.6265V23.1745C32.2285 21.7207 33.2571 20.0105 34.4571 19.2408C35.0571 18.8988 35.5714 18.8988 35.9142 19.0698C35.9142 19.0698 18.6857 8.97904 18.0857 8.80801Z" fill="url(#paint1_linear)"/>
<path d="M32.2285 32.0681L37.3714 35.0611C36.8571 34.8901 36.6 34.2915 36.6 33.5218V20.6946C36.6 19.2408 35.6571 18.6422 34.3714 19.3264C33.1714 20.0105 32.1428 21.8063 32.1428 23.26V31.8115L32.2285 32.0681Z" fill="#3A9492"/>
<path d="M21.2571 40.363C21.8571 39.8499 22.1142 39.2513 21.8571 38.5672C21.6857 38.0541 21.4285 37.6265 20.8285 37.1134C20.7428 37.0279 20.5714 36.8569 20.4 36.7714C20.5714 36.6859 20.7428 36.6003 20.9142 36.5148C20.7428 36.4293 20.5714 36.2583 20.3142 36.1728C20.1428 36.2583 19.9714 36.3438 19.8 36.4293C19.4571 36.2583 19.2 36.1728 18.8571 36.0017C17.9142 35.6597 16.9714 35.4031 15.9428 35.4031C15.0857 35.4031 14.2285 35.4887 13.5428 35.7452C13.4571 35.7452 13.3714 35.8307 13.2 35.9162C14.4857 36.0017 15.6857 36.6859 15.6857 37.4555C16.2 37.4555 16.7142 37.6265 17.1428 37.7976C16.3714 38.2251 15.1714 38.8237 14.6571 39.0803C14.4857 39.1658 14.3142 39.1658 14.1428 39.1658C13.8857 39.1658 13.6285 39.0803 13.4571 38.9092C13.2857 38.7382 13.2857 38.5672 13.4571 38.4817C13.5428 38.3962 13.6285 38.3962 13.7142 38.3106C13.8 38.2251 13.9714 38.2251 14.0571 38.1396C13.8857 38.0541 13.7142 37.8831 13.4571 37.7976C13.2857 37.8831 13.1142 37.9686 13.0285 38.0541C12.9428 38.1396 12.8571 38.1396 12.7714 38.2251C12.4285 38.5672 12.6857 39.1658 13.3714 39.4223C13.9714 39.6789 14.7428 39.6789 15.2571 39.4223C15.7714 39.1658 16.9714 38.4817 17.8285 38.0541C18.1714 38.3106 18.2571 38.5672 18.2571 38.9092C18.9428 38.9092 19.4571 39.0803 19.9714 39.4223C20.4857 39.7644 20.6571 40.1065 20.7428 40.4485C21 40.534 21.1714 40.4485 21.2571 40.363Z" fill="#3A9492"/>
<path d="M28.2857 23.7731L20.2285 19.1553C20.0571 19.0698 19.8857 18.8132 19.8857 18.6422C19.8857 18.4712 20.0571 18.3857 20.2285 18.4712L28.2857 23.089C28.4571 23.1745 28.6285 23.431 28.6285 23.6021C28.6285 23.8586 28.5428 23.8586 28.2857 23.7731Z" fill="#3A9492"/>
<path d="M18.8571 17.9581C18.8571 18.4712 18.4285 18.6422 18 18.3002C17.4857 18.0436 17.1428 17.3595 17.1428 16.9319C17.1428 16.4188 17.5714 16.2478 18 16.5899C18.4285 16.8464 18.8571 17.445 18.8571 17.9581Z" fill="#3A9492"/>
<path d="M28.2857 27.6213L20.2285 23.0035C20.0571 22.9179 19.8857 22.6614 19.8857 22.4904C19.8857 22.3193 20.0571 22.2338 20.2285 22.3193L28.2857 26.9371C28.4571 27.0227 28.6285 27.2792 28.6285 27.4502C28.6285 27.6213 28.5428 27.7068 28.2857 27.6213Z" fill="#3A9492"/>
<path d="M18.8571 21.8063C18.8571 22.3194 18.4285 22.4904 18 22.1483C17.4857 21.8918 17.1428 21.2077 17.1428 20.7801C17.1428 20.267 17.5714 20.096 18 20.438C18.4285 20.6946 18.8571 21.2932 18.8571 21.8063Z" fill="#3A9492"/>
<path d="M28.2857 31.2984L20.2285 26.6806C20.0571 26.5951 19.8857 26.3386 19.8857 26.1675C19.8857 25.9965 20.0571 25.911 20.2285 25.9965L28.2857 30.6143C28.4571 30.6998 28.6285 30.9564 28.6285 31.1274C28.6285 31.3839 28.5428 31.4694 28.2857 31.2984Z" fill="#3A9492"/>
<path d="M18.8571 25.4834C18.8571 25.9965 18.4285 26.1675 18 25.8255C17.4857 25.5689 17.1428 24.8848 17.1428 24.4572C17.1428 23.9442 17.5714 23.7731 18 24.1152C18.4285 24.3717 18.8571 24.9703 18.8571 25.4834Z" fill="#3A9492"/>
<path d="M28.2857 35.0611L20.2285 30.4433C20.0571 30.3577 19.8857 30.1012 19.8857 29.9302C19.8857 29.7591 20.0571 29.6736 20.2285 29.7591L28.2857 34.3769C28.4571 34.4624 28.6285 34.719 28.6285 34.89C28.6285 35.0611 28.5428 35.1466 28.2857 35.0611Z" fill="#3A9492"/>
<path d="M18.8571 29.1605C18.8571 29.6736 18.4285 29.8447 18 29.5026C17.4857 29.2461 17.1428 28.5619 17.1428 28.1344C17.1428 27.7068 17.5714 27.4502 18 27.7923C18.4285 28.0488 18.8571 28.733 18.8571 29.1605Z" fill="#3A9492"/>
<path d="M37.6286 14.1955L29.5714 9.57765C29.4 9.49214 29.2286 9.23559 29.2286 9.06456C29.2286 8.89353 29.4 8.80802 29.5714 8.89353L37.6286 13.5113C37.8 13.5969 37.9714 13.8534 37.9714 14.0244C37.9714 14.281 37.8 14.281 37.6286 14.1955Z" fill="#3A9492"/>
<path d="M28.1142 8.38045C28.1142 8.89353 27.6857 9.06456 27.2571 8.7225C26.7428 8.46596 26.4 7.78184 26.4 7.35427C26.4 6.92669 26.8285 6.67015 27.2571 7.01221C27.7714 7.26875 28.1142 7.86736 28.1142 8.38045Z" fill="#3A9492"/>
<path d="M37.6286 18.0436L29.5714 13.4258C29.4 13.3403 29.2286 13.0838 29.2286 12.9127C29.2286 12.7417 29.4 12.6562 29.5714 12.7417L37.6286 17.3595C37.8 17.445 37.9714 17.7016 37.9714 17.8726C37.9714 18.0436 37.8 18.1291 37.6286 18.0436Z" fill="#3A9492"/>
<path d="M28.1142 12.1431C28.1142 12.6562 27.6857 12.8272 27.2571 12.4851C26.8285 12.1431 26.4 11.5445 26.4 11.1169C26.4 10.6038 26.8285 10.4328 27.2571 10.7749C27.6857 11.1169 28.1142 11.7155 28.1142 12.1431Z" fill="#3A9492"/>
<defs>
<linearGradient id="paint0_linear" x1="38.7492" y1="6.99561" x2="25.271" y2="29.4794" gradientUnits="userSpaceOnUse">
<stop offset="0.0312113" stop-color="#CEE3CD"/>
<stop offset="0.107" stop-color="#FCFEE5"/>
<stop offset="0.1659" stop-color="#CEE3CD"/>
<stop offset="0.4846" stop-color="#CEE3CD"/>
<stop offset="0.572" stop-color="#B1D2BE"/>
<stop offset="0.6813" stop-color="#94C2AF"/>
<stop offset="0.79" stop-color="#80B6A5"/>
<stop offset="0.8969" stop-color="#73AE9E"/>
<stop offset="1" stop-color="#6FAC9C"/>
</linearGradient>
<linearGradient id="paint1_linear" x1="28.716" y1="16.3502" x2="11.4141" y2="46.3879" gradientUnits="userSpaceOnUse">
<stop stop-color="#CEE3CD"/>
<stop offset="0.0474745" stop-color="#FCFEE5"/>
<stop offset="0.269" stop-color="#CEE3CD"/>
<stop offset="0.5062" stop-color="#CEE3CD"/>
<stop offset="0.6449" stop-color="#CEE3CD"/>
<stop offset="1" stop-color="#CEE3CD"/>
</linearGradient>
</defs>
</svg>
