<svg width="64" height="64" viewBox="0 0 64 64" fill="none" xmlns="http://www.w3.org/2000/svg">
<path d="M14.6482 0.142212C14.9327 0.142212 15.2171 0.213323 15.5727 0.426656L57.3149 24.4622C58.7371 25.2444 59.8749 27.3067 59.8749 28.8711V61.1555C59.8749 61.44 59.8038 62.1511 59.4482 62.3644C59.306 62.4355 57.2438 63.6444 57.2438 63.6444C56.9594 63.6444 16.426 38.1155 16.426 38.1155C15.0038 37.3333 13.866 35.2711 13.866 33.7067L12.2305 1.49332L14.2216 0.355545C14.3638 0.213323 14.4349 0.142212 14.6482 0.142212Z" fill="url(#paint0_linear)"/>
<path d="M56.6751 63.8577C56.3195 63.8577 55.964 63.7155 55.5373 63.5022L14.2929 39.7511C12.7995 38.8977 11.5195 36.6933 11.5195 34.9866V3.05774C11.5195 1.99107 11.9462 1.35107 12.7284 1.35107C13.084 1.35107 13.4395 1.4933 13.8662 1.70663L55.1106 25.4577C56.604 26.3111 57.884 28.5155 57.884 30.2222V62.1511C57.884 63.2177 57.4573 63.8577 56.6751 63.8577Z" fill="#FCFEE5"/>
<path d="M12.7996 1.77777C13.084 1.77777 13.3685 1.84888 13.724 2.06222L54.9685 25.8133C56.3196 26.5955 57.5285 28.5867 57.5285 30.2222V62.1511C57.5285 62.5067 57.4574 63.4311 56.7463 63.4311C56.4618 63.4311 56.1774 63.36 55.8218 63.1467L14.5774 39.3955C13.2262 38.6133 12.0174 36.6222 12.0174 34.9867V3.05777C11.9462 2.6311 12.0174 1.77777 12.7996 1.77777Z" fill="#FCFEE5"/>
<path d="M56.4628 31.9289C56.8184 32.1422 57.1739 32.4267 57.4584 32.7111V30.1511C57.4584 28.5867 56.3206 26.5244 54.8984 25.7422L13.6539 1.99111C13.2984 1.77778 13.0139 1.70667 12.7295 1.70667C12.0184 1.70667 11.9473 2.56 11.9473 2.98667V6.25778L56.4628 31.9289Z" fill="#3A9492"/>
<path d="M19.3423 8.81776C19.6268 9.03109 19.9112 8.81776 19.9112 8.4622C19.9112 8.10665 19.6268 7.67998 19.3423 7.46665C19.0579 7.25331 18.7734 7.46665 18.7734 7.8222C18.7734 8.17776 19.0579 8.60442 19.3423 8.81776Z" fill="#CEE3CD"/>
<path d="M16.9244 7.39554C17.2088 7.60887 17.4932 7.39554 17.4932 7.03998C17.4932 6.68443 17.2088 6.25776 16.9244 6.04443C16.6399 5.90221 16.3555 6.04443 16.3555 6.39998C16.3555 6.75554 16.6399 7.18221 16.9244 7.39554Z" fill="#CEE3CD"/>
<path d="M14.5787 6.04444C14.8631 6.25777 15.1475 6.04444 15.1475 5.68889C15.1475 5.33333 14.8631 4.90666 14.5787 4.69333C14.2942 4.48 14.0098 4.69333 14.0098 5.04889C14.0098 5.40444 14.2231 5.83111 14.5787 6.04444Z" fill="#CEE3CD"/>
<path d="M16 12.7289L40.1778 26.8089V41.2444L16.0711 27.2355L16 12.7289Z" fill="#93C1AF"/>
<path d="M42.5234 28.16L53.0479 34.2045L52.9768 40.2489L42.5234 34.2045V28.16Z" fill="#93C1AF"/>
<path d="M42.5957 36.48L53.049 42.5244V48.5689L42.5957 42.5244V36.48Z" fill="#93C1AF"/>
<path d="M42.5957 45.0845L53.049 51.1289V57.1734L42.5957 51.1289V45.0845Z" fill="#93C1AF"/>
<path d="M12.9432 1.70667C13.2276 1.70667 13.512 1.77778 13.8676 1.99111L55.112 25.7422C56.4632 26.5244 57.672 28.5156 57.672 30.1511V62.08C57.672 62.4356 57.6009 63.36 56.8898 63.36C56.6054 63.36 56.3209 63.2889 55.9654 63.0755L14.7209 39.3244C13.3698 38.5422 12.1609 36.5511 12.1609 34.9155V2.98666C12.0898 2.56 12.232 1.70667 12.9432 1.70667Z" stroke="#CEE3CD" stroke-miterlimit="10"/>
<path d="M35.5258 50.4405C35.5258 55.1577 29.3935 58.9315 21.7785 58.9315C14.1636 58.9315 8.03125 55.1577 8.03125 50.4405C8.03125 49.5644 8.03125 47.6776 8.03125 47.6776C9.71597 44.1733 15.5788 41.9495 21.7785 41.9495C27.3718 41.9495 33.3694 44.7125 35.5258 47.6776C35.5258 47.6776 35.5258 49.2275 35.5258 50.4405Z" fill="url(#paint1_linear)"/>
<path d="M21.7785 56.1686C29.371 56.1686 35.5258 52.3671 35.5258 47.6776C35.5258 42.9882 29.371 39.1866 21.7785 39.1866C14.1861 39.1866 8.03125 42.9882 8.03125 47.6776C8.03125 52.3671 14.1861 56.1686 21.7785 56.1686Z" fill="#3A9492"/>
<path d="M35.5258 46.8015C35.5258 51.5187 29.3935 55.2924 21.7785 55.2924C14.1636 55.2924 8.03125 51.5187 8.03125 46.8015C8.03125 45.9254 8.03125 44.0385 8.03125 44.0385C9.71597 40.5343 15.5788 38.3105 21.7785 38.3105C27.3718 38.3105 33.3694 41.0734 35.5258 44.0385C35.5258 44.0385 35.5258 45.5885 35.5258 46.8015Z" fill="url(#paint2_linear)"/>
<path d="M21.7785 52.5296C29.371 52.5296 35.5258 48.728 35.5258 44.0386C35.5258 39.3491 29.371 35.5476 21.7785 35.5476C14.1861 35.5476 8.03125 39.3491 8.03125 44.0386C8.03125 48.728 14.1861 52.5296 21.7785 52.5296Z" fill="#3A9492"/>
<path d="M35.5258 43.1625C35.5258 47.8797 29.3935 51.6535 21.7785 51.6535C14.1636 51.6535 8.03125 47.8797 8.03125 43.1625C8.03125 42.2864 8.03125 40.3995 8.03125 40.3995C9.71597 36.8953 15.5788 34.6715 21.7785 34.6715C27.3718 34.6715 33.3694 37.4344 35.5258 40.3995C35.5258 40.3995 35.5258 41.9495 35.5258 43.1625Z" fill="url(#paint3_linear)"/>
<path d="M21.7785 48.8905C29.371 48.8905 35.5258 45.089 35.5258 40.3995C35.5258 35.7101 29.371 31.9086 21.7785 31.9086C14.1861 31.9086 8.03125 35.7101 8.03125 40.3995C8.03125 45.089 14.1861 48.8905 21.7785 48.8905Z" fill="#6FAC9C"/>
<path d="M32.4946 39.3213C32.4946 44.0385 26.3622 47.8123 18.7473 47.8123C11.1324 47.8123 5 43.9711 5 39.3213C5 38.4452 5 36.5584 5 36.5584C6.68472 33.0541 12.5475 30.8303 18.7473 30.8303C24.3406 30.8303 30.3381 33.5933 32.4946 36.5584C32.4946 36.5584 32.4946 38.1083 32.4946 39.3213Z" fill="url(#paint4_linear)"/>
<path d="M18.7463 44.7124C11.3335 44.7124 5.33594 41.0734 5.33594 36.5584C5.33594 32.0433 11.3335 28.4044 18.7463 28.4044C26.159 28.4044 32.1566 32.0433 32.1566 36.5584C32.1566 41.0734 26.0917 44.7124 18.7463 44.7124Z" fill="#CEE3CD"/>
<path d="M18.7473 28.6739C25.9579 28.6739 31.8207 32.1781 31.8207 36.491C31.8207 40.8038 25.9579 44.3081 18.7473 44.3081C11.5367 44.3081 5.67389 40.8038 5.67389 36.491C5.67389 32.1781 11.5367 28.6739 18.7473 28.6739ZM18.7473 28C11.1324 28 5 31.7738 5 36.491C5 41.2082 11.1324 44.9819 18.7473 44.9819C26.3622 44.9819 32.4946 41.2082 32.4946 36.491C32.4946 31.7738 26.2948 28 18.7473 28Z" fill="#FCFEE5"/>
<path d="M18.7461 42.893C25.1104 42.893 30.2696 40.0569 30.2696 36.5584C30.2696 33.0599 25.1104 30.2239 18.7461 30.2239C12.3819 30.2239 7.22266 33.0599 7.22266 36.5584C7.22266 40.0569 12.3819 42.893 18.7461 42.893Z" fill="#3A9492"/>
<path d="M22.2527 38.917H15.2443V34.1324C15.2443 33.4585 14.4356 32.9194 13.4922 32.9194V38.917V40.13H15.2443H23.9374C23.9374 39.4561 23.1962 38.917 22.2527 38.917Z" fill="#FCFEE5"/>
<path d="M16.998 37.7714C20.8392 37.8387 23.9391 35.6823 23.9391 32.9868V32.9194C20.0979 32.9194 16.998 35.0758 16.998 37.7714Z" fill="#FCFEE5"/>
<defs>
<linearGradient id="paint0_linear" x1="17.5634" y1="-2.0724" x2="56.0009" y2="64.5034" gradientUnits="userSpaceOnUse">
<stop stop-color="#93C1AF"/>
<stop offset="0.5364" stop-color="#93C1AF"/>
<stop offset="0.5883" stop-color="#CEE3CD"/>
<stop offset="0.6065" stop-color="#B0D3C1"/>
<stop offset="0.6303" stop-color="#91C2B5"/>
<stop offset="0.6573" stop-color="#75B4AA"/>
<stop offset="0.6877" stop-color="#5FA8A1"/>
<stop offset="0.7233" stop-color="#4E9F9A"/>
<stop offset="0.7672" stop-color="#439995"/>
<stop offset="0.8288" stop-color="#3C9593"/>
<stop offset="1" stop-color="#3A9492"/>
</linearGradient>
<linearGradient id="paint1_linear" x1="8.05019" y1="50.4276" x2="35.5279" y2="50.4276" gradientUnits="userSpaceOnUse">
<stop stop-color="#6FAC9C"/>
<stop offset="0.0155111" stop-color="#81B7A6"/>
<stop offset="0.0565777" stop-color="#ADD0BC"/>
<stop offset="0.0962894" stop-color="#CFE4CE"/>
<stop offset="0.1338" stop-color="#E8F2DB"/>
<stop offset="0.1681" stop-color="#F7FBE2"/>
<stop offset="0.1964" stop-color="#FCFEE5"/>
<stop offset="0.3058" stop-color="#DBEBD4"/>
<stop offset="0.5145" stop-color="#A1C9B6"/>
<stop offset="0.669" stop-color="#7DB4A3"/>
<stop offset="0.7512" stop-color="#6FAC9C"/>
<stop offset="0.8359" stop-color="#5CA398"/>
<stop offset="1" stop-color="#3A9492"/>
</linearGradient>
<linearGradient id="paint2_linear" x1="8.05019" y1="46.8114" x2="35.5279" y2="46.8114" gradientUnits="userSpaceOnUse">
<stop stop-color="#6FAC9C"/>
<stop offset="0.0155111" stop-color="#81B7A6"/>
<stop offset="0.0565777" stop-color="#ADD0BC"/>
<stop offset="0.0962894" stop-color="#CFE4CE"/>
<stop offset="0.1338" stop-color="#E8F2DB"/>
<stop offset="0.1681" stop-color="#F7FBE2"/>
<stop offset="0.1964" stop-color="#FCFEE5"/>
<stop offset="0.3058" stop-color="#DBEBD4"/>
<stop offset="0.5145" stop-color="#A1C9B6"/>
<stop offset="0.669" stop-color="#7DB4A3"/>
<stop offset="0.7512" stop-color="#6FAC9C"/>
<stop offset="0.8359" stop-color="#5CA398"/>
<stop offset="1" stop-color="#3A9492"/>
</linearGradient>
<linearGradient id="paint3_linear" x1="8.05019" y1="43.1952" x2="35.5279" y2="43.1952" gradientUnits="userSpaceOnUse">
<stop stop-color="#6FAC9C"/>
<stop offset="0.0155111" stop-color="#81B7A6"/>
<stop offset="0.0565777" stop-color="#ADD0BC"/>
<stop offset="0.0962894" stop-color="#CFE4CE"/>
<stop offset="0.1338" stop-color="#E8F2DB"/>
<stop offset="0.1681" stop-color="#F7FBE2"/>
<stop offset="0.1964" stop-color="#FCFEE5"/>
<stop offset="0.3058" stop-color="#DBEBD4"/>
<stop offset="0.5145" stop-color="#A1C9B6"/>
<stop offset="0.669" stop-color="#7DB4A3"/>
<stop offset="0.7512" stop-color="#6FAC9C"/>
<stop offset="0.8359" stop-color="#5CA398"/>
<stop offset="1" stop-color="#3A9492"/>
</linearGradient>
<linearGradient id="paint4_linear" x1="4.99751" y1="39.3015" x2="32.4752" y2="39.3015" gradientUnits="userSpaceOnUse">
<stop stop-color="#6FAC9C"/>
<stop offset="0.0155111" stop-color="#81B7A6"/>
<stop offset="0.0565777" stop-color="#ADD0BC"/>
<stop offset="0.0962894" stop-color="#CFE4CE"/>
<stop offset="0.1338" stop-color="#E8F2DB"/>
<stop offset="0.1681" stop-color="#F7FBE2"/>
<stop offset="0.1964" stop-color="#FCFEE5"/>
<stop offset="0.3058" stop-color="#DBEBD4"/>
<stop offset="0.5145" stop-color="#A1C9B6"/>
<stop offset="0.669" stop-color="#7DB4A3"/>
<stop offset="0.7512" stop-color="#6FAC9C"/>
<stop offset="0.8359" stop-color="#5CA398"/>
<stop offset="1" stop-color="#3A9492"/>
</linearGradient>
</defs>
</svg>
