<svg width="16" height="16" viewBox="0 0 16 16" fill="none" xmlns="http://www.w3.org/2000/svg">
<path d="M8.85996 6.19338L6.19329 8.86004C6.13081 8.92202 6.08121 8.99575 6.04737 9.07699C6.01352 9.15823 5.99609 9.24537 5.99609 9.33338C5.99609 9.42138 6.01352 9.50852 6.04737 9.58976C6.08121 9.671 6.13081 9.74473 6.19329 9.80671C6.25527 9.86919 6.329 9.91879 6.41024 9.95264C6.49148 9.98648 6.57862 10.0039 6.66663 10.0039C6.75463 10.0039 6.84177 9.98648 6.92301 9.95264C7.00425 9.91879 7.07798 9.86919 7.13996 9.80671L9.80663 7.14004C9.93216 7.01451 10.0027 6.84424 10.0027 6.66671C10.0027 6.48917 9.93216 6.31891 9.80663 6.19338C9.68109 6.06784 9.51083 5.99731 9.33329 5.99731C9.15576 5.99731 8.98549 6.06784 8.85996 6.19338Z" fill="black"/>
<path d="M8.18669 11.6001L7.33335 12.4468C6.85431 12.9404 6.21031 13.2404 5.52421 13.2896C4.83811 13.3388 4.15791 13.1337 3.61335 12.7134C3.32553 12.4763 3.09066 12.1814 2.92391 11.8478C2.75716 11.5142 2.66224 11.1493 2.64528 10.7768C2.62831 10.4042 2.68969 10.0322 2.82543 9.68485C2.96118 9.33748 3.16828 9.02245 3.43335 8.76011L4.38002 7.80677C4.44251 7.7448 4.4921 7.67106 4.52595 7.58982C4.55979 7.50858 4.57722 7.42145 4.57722 7.33344C4.57722 7.24543 4.55979 7.15829 4.52595 7.07705C4.4921 6.99582 4.44251 6.92208 4.38002 6.86011C4.31805 6.79762 4.24431 6.74802 4.16307 6.71418C4.08183 6.68033 3.9947 6.66291 3.90669 6.66291C3.81868 6.66291 3.73154 6.68033 3.6503 6.71418C3.56906 6.74802 3.49533 6.79762 3.43335 6.86011L2.58669 7.71344C1.87346 8.40411 1.43508 9.33012 1.35293 10.3196C1.27079 11.309 1.55046 12.2946 2.14002 13.0934C2.48994 13.5474 2.93245 13.9217 3.43815 14.1915C3.94385 14.4613 4.50116 14.6203 5.07307 14.6582C5.64499 14.696 6.2184 14.6117 6.75523 14.4109C7.29206 14.2101 7.78002 13.8973 8.18669 13.4934L9.13335 12.5468C9.25889 12.4212 9.32942 12.251 9.32942 12.0734C9.32942 11.8959 9.25889 11.7256 9.13335 11.6001C9.00782 11.4746 8.83755 11.404 8.66002 11.404C8.48249 11.404 8.31222 11.4746 8.18669 11.6001ZM13.1067 2.14677C12.3024 1.55108 11.3087 1.26856 10.3113 1.35199C9.31383 1.43541 8.38089 1.87908 7.68669 2.60011L6.96669 3.33344C6.88439 3.39326 6.81558 3.4697 6.7647 3.55781C6.71382 3.64592 6.68201 3.74372 6.67132 3.8449C6.66064 3.94608 6.67132 4.04838 6.70268 4.14517C6.73404 4.24195 6.78537 4.33108 6.85335 4.40677C6.91533 4.46926 6.98906 4.51885 7.0703 4.5527C7.15154 4.58655 7.23868 4.60397 7.32669 4.60397C7.41469 4.60397 7.50183 4.58655 7.58307 4.5527C7.66431 4.51885 7.73805 4.46926 7.80002 4.40677L8.66669 3.53344C9.14309 3.03765 9.78631 2.736 10.4721 2.68675C11.1579 2.6375 11.8377 2.84414 12.38 3.26677C12.67 3.50397 12.9067 3.79961 13.0748 4.13442C13.2429 4.46922 13.3385 4.83568 13.3555 5.20993C13.3725 5.58417 13.3104 5.95778 13.1734 6.30644C13.0363 6.65509 12.8273 6.97095 12.56 7.23344L11.6134 8.18677C11.5509 8.24875 11.5013 8.32248 11.4674 8.40372C11.4336 8.48496 11.4162 8.5721 11.4162 8.66011C11.4162 8.74811 11.4336 8.83525 11.4674 8.91649C11.5013 8.99773 11.5509 9.07146 11.6134 9.13344C11.6753 9.19593 11.7491 9.24552 11.8303 9.27937C11.9115 9.31321 11.9987 9.33064 12.0867 9.33064C12.1747 9.33064 12.2618 9.31321 12.3431 9.27937C12.4243 9.24552 12.498 9.19593 12.56 9.13344L13.5067 8.18677C13.9095 7.78018 14.2212 7.29264 14.4214 6.75647C14.6215 6.22029 14.7055 5.64771 14.6677 5.07664C14.6298 4.50558 14.4711 3.94907 14.202 3.44397C13.9329 2.93887 13.5596 2.49671 13.1067 2.14677Z" fill="black"/>
</svg>
