<svg width="684" height="454" viewBox="0 0 684 454" fill="none" xmlns="http://www.w3.org/2000/svg">
<path d="M605.4 139.4H60.3999V334.7H605.4V139.4Z" fill="#FBF3E9"/>
<path d="M673 40.4L10.2998 423.1" stroke="url(#paint0_linear)" stroke-miterlimit="10"/>
<path d="M162.3 139.3V335.3" stroke="#F17F67" stroke-miterlimit="10"/>
<path d="M501.4 139.3V335.3" stroke="#F17F67" stroke-miterlimit="10"/>
<path d="M162.3 335.3L329.7 430.6" stroke="url(#paint1_linear)" stroke-miterlimit="10"/>
<path d="M616.2 270L361.5 417.1" stroke="url(#paint2_linear)" stroke-miterlimit="10"/>
<path d="M372.3 18.9L76.2998 189.7" stroke="url(#paint3_linear)" stroke-miterlimit="10"/>
<path d="M24 60.2L673 434.9" stroke="url(#paint4_linear)" stroke-miterlimit="10"/>
<path d="M162.3 335.3L329.7 430.6" stroke="url(#paint5_linear)" stroke-miterlimit="10"/>
<path d="M405.3 83.8L639.3 218.5" stroke="url(#paint6_linear)" stroke-miterlimit="10"/>
<path d="M235.8 233.1L209.7 294.3L324.1 288.8L294.1 241.2L290.4 215.9L235.8 233.1Z" fill="#FFEED4" stroke="#FFEED4" stroke-linecap="round" stroke-linejoin="round"/>
<path d="M324.1 288.8L322.2 264.7L294.1 241.2L324.1 288.8Z" fill="#F79A8B" stroke="#F79A8B" stroke-linecap="round" stroke-linejoin="round"/>
<path d="M391.6 215.9L434.1 229.5L442.2 278.2L408.3 282.2L420.2 237.9L391.6 215.9Z" fill="#FFEED4" stroke="#FFEED4" stroke-linecap="round" stroke-linejoin="round"/>
<path d="M367.8 184.4L451 124.6L453.2 160.2L441.8 195.4L447.7 199.8L440.3 204.5L446.2 208.9L439.6 215.2L444 218.8L434.1 229.5L391.6 215.9L367.8 184.4Z" fill="#D67499" stroke="#D67499" stroke-linecap="round" stroke-linejoin="round"/>
<path d="M245.3 99.7L335.5 184.4L290.4 215.9L235.8 233.1L224.8 217L230.3 213L220.7 205.6L226.6 199.4L218.9 192.1L223.3 187.7L221.1 141.1L245.3 99.7Z" fill="#D67499" stroke="#D67499" stroke-linecap="round" stroke-linejoin="round"/>
<path d="M365.7 145.1L451 124.6L367.8 184.4L365.7 145.1Z" fill="#FCD8B6" stroke="#FCD8B6" stroke-linecap="round" stroke-linejoin="round"/>
<path d="M305.4 139.6L335.5 184.4L245.3 99.7L305.4 139.6Z" fill="#FCD8B6" stroke="#FCD8B6" stroke-linecap="round" stroke-linejoin="round"/>
<path d="M365.7 145.1L305.4 139.6L335.5 184.4L354 242.7L361.9 261.4L391.2 305.3L417.6 303.5L386.8 259.5L367.8 184.4L365.7 145.1Z" fill="#FFEED4" stroke="#FFEED4" stroke-linecap="round" stroke-linejoin="round"/>
<path d="M290.4 215.9L294.1 241.2L354 242.7L335.5 184.4L290.4 215.9Z" fill="#FCD8B6" stroke="#FCD8B6" stroke-linecap="round" stroke-linejoin="round"/>
<path d="M382.5 242.7L420.2 237.9L391.6 215.9L367.8 184.4L382.5 242.7Z" fill="#FCD8B6" stroke="#FCD8B6" stroke-linecap="round" stroke-linejoin="round"/>
<path d="M393 268.3L408.3 259.9L420.2 237.9L382.5 242.7L386.8 259.5L393 268.3Z" fill="#FFC28F" stroke="#FFC28F" stroke-linecap="round" stroke-linejoin="round"/>
<path d="M294.1 241.2L322.2 264.7L351.6 271.3L354 242.7L294.1 241.2Z" fill="#FFC28F" stroke="#FFC28F" stroke-linecap="round" stroke-linejoin="round"/>
<path d="M351.6 271.3L391.2 305.3L361.9 261.4L354 242.7L351.6 271.3Z" fill="#F79A8B" stroke="#F79A8B" stroke-linecap="round" stroke-linejoin="round"/>
<path d="M322.2 264.7L341.4 253.1L351.6 271.3L322.2 264.7Z" fill="#B24761" stroke="#B24761" stroke-linecap="round" stroke-linejoin="round"/>
<path d="M324.1 288.8L386.4 309.4L391.2 305.3L351.6 271.3L322.2 264.7L324.1 288.8Z" fill="#FFEED4" stroke="#FFEED4" stroke-linecap="round" stroke-linejoin="round"/>
<path d="M209.7 294.3L226.2 355.9L305.4 330.3L286.3 290.7L209.7 294.3Z" fill="#FCD8B6" stroke="#FCD8B6" stroke-linecap="round" stroke-linejoin="round"/>
<path d="M324.1 288.8L305.4 330.3L286.3 290.7L324.1 288.8Z" fill="#F79A8B" stroke="#F79A8B" stroke-linecap="round" stroke-linejoin="round"/>
<path d="M386.4 309.4L324.1 288.8L305.4 330.3L386.4 309.4Z" fill="#FCD8B6" stroke="#FCD8B6" stroke-linecap="round" stroke-linejoin="round"/>
<path d="M408.3 282.2L417.6 303.5L393 268.3L408.3 259.9V282.2Z" fill="#FFEED4" stroke="#FFEED4" stroke-linecap="round" stroke-linejoin="round"/>
<path d="M442.2 278.2L426.8 330.3L420.2 327L425.7 309.4L417.6 303.5L408.3 282.2L442.2 278.2Z" fill="#FCD8B6" stroke="#FCD8B6" stroke-linecap="round" stroke-linejoin="round"/>
<path d="M414.3 295.8L425.7 280.2L408.3 282.2L414.3 295.8Z" fill="#F79A8B" stroke="#F79A8B" stroke-linecap="round" stroke-linejoin="round"/>
<path d="M305.4 330.3L324.1 338.7L379.9 349.3L410.5 344.2L420.2 327L389.7 328.4L382.5 330.3L376.2 338.2L305.4 330.3Z" fill="#FFC28F" stroke="#FFC28F" stroke-linecap="round" stroke-linejoin="round"/>
<path d="M386.4 309.4L305.4 330.3L376.2 338.2L382.5 330.3L386.4 309.4Z" fill="#FFEED4" stroke="#FFEED4" stroke-linecap="round" stroke-linejoin="round"/>
<path d="M408.3 259.9V282.2L420.2 237.9L408.3 259.9Z" fill="#F79A8B" stroke="#F79A8B" stroke-linecap="round" stroke-linejoin="round"/>
<path d="M391.2 253.1L408.3 259.9L393 268.3L389.7 263.7L391.2 253.1Z" fill="#B24761" stroke="#B24761" stroke-linecap="round" stroke-linejoin="round"/>
<path d="M382.5 330.3L386.4 309.4L391.2 305.3L417.6 303.5L425.7 309.4L420.2 327L389.7 328.4L382.5 330.3Z" fill="#B24761" stroke="#B24761" stroke-linecap="round" stroke-linejoin="round"/>
<defs>
<linearGradient id="paint0_linear" x1="10.0764" y1="231.748" x2="673.246" y2="231.748" gradientUnits="userSpaceOnUse">
<stop stop-color="#FCFEE5" stop-opacity="0"/>
<stop offset="0.016039" stop-color="#FBF0D9" stop-opacity="0.0295774"/>
<stop offset="0.054242" stop-color="#FAD6C1" stop-opacity="0.1"/>
<stop offset="0.0981353" stop-color="#F9C0AD" stop-opacity="0.181"/>
<stop offset="0.1493" stop-color="#F8AF9E" stop-opacity="0.2753"/>
<stop offset="0.2125" stop-color="#F7A393" stop-opacity="0.3918"/>
<stop offset="0.3007" stop-color="#F79C8D" stop-opacity="0.5546"/>
<stop offset="0.5423" stop-color="#F79A8B"/>
<stop offset="0.6948" stop-color="#F79C8D" stop-opacity="0.6668"/>
<stop offset="0.7775" stop-color="#F8A494" stop-opacity="0.4862"/>
<stop offset="0.8434" stop-color="#F8B2A1" stop-opacity="0.3421"/>
<stop offset="0.9005" stop-color="#F9C5B2" stop-opacity="0.2174"/>
<stop offset="0.9513" stop-color="#FADEC8" stop-opacity="0.1063"/>
<stop offset="0.998" stop-color="#FCFCE4" stop-opacity="0.01"/>
<stop offset="1" stop-color="#FCFEE5" stop-opacity="0"/>
</linearGradient>
<linearGradient id="paint1_linear" x1="162.068" y1="382.969" x2="329.95" y2="382.969" gradientUnits="userSpaceOnUse">
<stop stop-color="#EFEFEF" stop-opacity="0.5"/>
<stop offset="0.032661" stop-color="#ECECEC" stop-opacity="0.5201"/>
<stop offset="0.2841" stop-color="#DDDDDD" stop-opacity="0.6748"/>
<stop offset="0.4876" stop-color="#D8D8D8" stop-opacity="0.8"/>
<stop offset="1" stop-color="#EFEFEF" stop-opacity="0.5"/>
</linearGradient>
<linearGradient id="paint2_linear" x1="361.269" y1="343.531" x2="616.458" y2="343.531" gradientUnits="userSpaceOnUse">
<stop stop-color="#FCFEE5" stop-opacity="0"/>
<stop offset="0.016039" stop-color="#FBF0D9" stop-opacity="0.0295774"/>
<stop offset="0.054242" stop-color="#FAD6C1" stop-opacity="0.1"/>
<stop offset="0.0981353" stop-color="#F9C0AD" stop-opacity="0.181"/>
<stop offset="0.1493" stop-color="#F8AF9E" stop-opacity="0.2753"/>
<stop offset="0.2125" stop-color="#F7A393" stop-opacity="0.3918"/>
<stop offset="0.3007" stop-color="#F79C8D" stop-opacity="0.5546"/>
<stop offset="0.5423" stop-color="#F79A8B"/>
<stop offset="0.6948" stop-color="#F79C8D" stop-opacity="0.6668"/>
<stop offset="0.7775" stop-color="#F8A494" stop-opacity="0.4862"/>
<stop offset="0.8434" stop-color="#F8B2A1" stop-opacity="0.3421"/>
<stop offset="0.9005" stop-color="#F9C5B2" stop-opacity="0.2174"/>
<stop offset="0.9513" stop-color="#FADEC8" stop-opacity="0.1063"/>
<stop offset="0.998" stop-color="#FCFCE4" stop-opacity="0.01"/>
<stop offset="1" stop-color="#FCFEE5" stop-opacity="0"/>
</linearGradient>
<linearGradient id="paint3_linear" x1="76.0647" y1="104.309" x2="372.501" y2="104.309" gradientUnits="userSpaceOnUse">
<stop stop-color="#FCFEE5" stop-opacity="0"/>
<stop offset="0.016039" stop-color="#FBF0D9" stop-opacity="0.0295774"/>
<stop offset="0.054242" stop-color="#FAD6C1" stop-opacity="0.1"/>
<stop offset="0.0981353" stop-color="#F9C0AD" stop-opacity="0.181"/>
<stop offset="0.1493" stop-color="#F8AF9E" stop-opacity="0.2753"/>
<stop offset="0.2125" stop-color="#F7A393" stop-opacity="0.3918"/>
<stop offset="0.3007" stop-color="#F79C8D" stop-opacity="0.5546"/>
<stop offset="0.5423" stop-color="#F79A8B"/>
<stop offset="0.6948" stop-color="#F79C8D" stop-opacity="0.6668"/>
<stop offset="0.7775" stop-color="#F8A494" stop-opacity="0.4862"/>
<stop offset="0.8434" stop-color="#F8B2A1" stop-opacity="0.3421"/>
<stop offset="0.9005" stop-color="#F9C5B2" stop-opacity="0.2174"/>
<stop offset="0.9513" stop-color="#FADEC8" stop-opacity="0.1063"/>
<stop offset="0.998" stop-color="#FCFCE4" stop-opacity="0.01"/>
<stop offset="1" stop-color="#FCFEE5" stop-opacity="0"/>
</linearGradient>
<linearGradient id="paint4_linear" x1="23.7534" y1="247.534" x2="673.246" y2="247.534" gradientUnits="userSpaceOnUse">
<stop stop-color="#FCFEE5" stop-opacity="0"/>
<stop offset="0.0165844" stop-color="#F7EADA" stop-opacity="0.0305832"/>
<stop offset="0.0487949" stop-color="#EECBC9" stop-opacity="0.0899822"/>
<stop offset="0.085206" stop-color="#E6B0BA" stop-opacity="0.1571"/>
<stop offset="0.1263" stop-color="#E09AAE" stop-opacity="0.2329"/>
<stop offset="0.1742" stop-color="#DC89A4" stop-opacity="0.3213"/>
<stop offset="0.2334" stop-color="#D87D9E" stop-opacity="0.4304"/>
<stop offset="0.3161" stop-color="#D7769A" stop-opacity="0.5829"/>
<stop offset="0.5423" stop-color="#D67499"/>
<stop offset="0.6811" stop-color="#D7769A" stop-opacity="0.6968"/>
<stop offset="0.7563" stop-color="#D97E9F" stop-opacity="0.5325"/>
<stop offset="0.8162" stop-color="#DD8CA6" stop-opacity="0.4014"/>
<stop offset="0.8682" stop-color="#E29FB1" stop-opacity="0.288"/>
<stop offset="0.9149" stop-color="#E9B8BF" stop-opacity="0.1859"/>
<stop offset="0.9575" stop-color="#F1D7CF" stop-opacity="0.0928819"/>
<stop offset="0.9969" stop-color="#FBFBE3" stop-opacity="0.01"/>
<stop offset="1" stop-color="#FCFEE5" stop-opacity="0"/>
</linearGradient>
<linearGradient id="paint5_linear" x1="162.068" y1="382.969" x2="329.95" y2="382.969" gradientUnits="userSpaceOnUse">
<stop offset="0.2301" stop-color="#D87399"/>
<stop offset="0.3398" stop-color="#DB7D9F"/>
<stop offset="0.5233" stop-color="#E296AF"/>
<stop offset="0.758" stop-color="#EDC0C9"/>
<stop offset="1" stop-color="#FBF3E8"/>
</linearGradient>
<linearGradient id="paint6_linear" x1="405.045" y1="151.139" x2="639.585" y2="151.139" gradientUnits="userSpaceOnUse">
<stop stop-color="#FCFEE5" stop-opacity="0"/>
<stop offset="0.0165844" stop-color="#F7EADA" stop-opacity="0.0305832"/>
<stop offset="0.0487949" stop-color="#EECBC9" stop-opacity="0.0899822"/>
<stop offset="0.085206" stop-color="#E6B0BA" stop-opacity="0.1571"/>
<stop offset="0.1263" stop-color="#E09AAE" stop-opacity="0.2329"/>
<stop offset="0.1742" stop-color="#DC89A4" stop-opacity="0.3213"/>
<stop offset="0.2334" stop-color="#D87D9E" stop-opacity="0.4304"/>
<stop offset="0.3161" stop-color="#D7769A" stop-opacity="0.5829"/>
<stop offset="0.5423" stop-color="#D67499"/>
<stop offset="0.6811" stop-color="#D7769A" stop-opacity="0.6968"/>
<stop offset="0.7563" stop-color="#D97E9F" stop-opacity="0.5325"/>
<stop offset="0.8162" stop-color="#DD8CA6" stop-opacity="0.4014"/>
<stop offset="0.8682" stop-color="#E29FB1" stop-opacity="0.288"/>
<stop offset="0.9149" stop-color="#E9B8BF" stop-opacity="0.1859"/>
<stop offset="0.9575" stop-color="#F1D7CF" stop-opacity="0.0928819"/>
<stop offset="0.9969" stop-color="#FBFBE3" stop-opacity="0.01"/>
<stop offset="1" stop-color="#FCFEE5" stop-opacity="0"/>
</linearGradient>
</defs>
</svg>
