<svg width="38" height="48" viewBox="0 0 38 48" fill="none" xmlns="http://www.w3.org/2000/svg">
<path d="M37 15.6752C37 11.7082 37 7.64441 37 3.67741C37 3.38714 36.9042 3.19362 36.617 3.19362C31.734 2.03255 26.8511 1.2585 21.8723 1.06499C14.9787 0.774719 8.18085 1.45201 1.47872 3.19362C1.09574 3.29038 1 3.48389 1 3.87092C1 9.19251 1 14.4173 1 19.7389C1 22.4481 1.00001 25.0605 1.09575 27.7697C1.1915 30.0918 1.95745 32.2205 3.20213 34.0589C4.25532 35.607 5.69149 36.9615 7.03192 38.3161C10.5745 41.7026 14.5 44.5085 18.7128 46.9274C18.8085 47.0242 19.0957 47.0242 19.1915 46.9274C20.5319 46.1534 21.9681 45.4761 23.3085 44.6053C27.0426 42.1864 30.3936 39.2837 33.4575 35.994C35.6596 33.5751 36.9043 30.7691 37 27.4794C37 23.4157 37 19.5454 37 15.6752Z" fill="url(#paint0_linear)" stroke="#F79A8B" stroke-miterlimit="10"/>
<path d="M16.2827 28.9998C17.5714 29.0091 18.8491 28.7557 20.0417 28.2542C21.2344 27.7528 22.3182 27.0134 23.2303 26.0787C24.1425 25.144 24.8649 24.0328 25.3555 22.8094C25.8462 21.586 26.0955 20.2748 26.0889 18.9517C26.0889 18.7984 26.0889 18.6451 26.0889 18.4982C26.7593 17.9946 27.3385 17.3741 27.8 16.6649C27.1714 16.9511 26.5043 17.1385 25.8213 17.2206C26.5391 16.7783 27.0763 16.0839 27.3333 15.266C26.6585 15.6777 25.9198 15.9673 25.1493 16.1219C24.6306 15.5524 23.9431 15.1746 23.1938 15.0474C22.4444 14.9202 21.6751 15.0506 21.0054 15.4184C20.3357 15.7863 19.803 16.3708 19.4902 17.0814C19.1774 17.7919 19.1019 18.5887 19.2756 19.3478C17.9043 19.2792 16.5626 18.9144 15.3382 18.277C14.1137 17.6397 13.0341 16.7443 12.1698 15.6492C11.7287 16.4284 11.5932 17.3508 11.7908 18.2288C11.9885 19.1069 12.5044 19.8747 13.2338 20.3762C12.6864 20.3592 12.1509 20.2081 11.672 19.9354V19.9802C11.6731 20.7965 11.9486 21.5874 12.4519 22.2193C12.9553 22.8512 13.6556 23.2855 14.4347 23.4487C13.9272 23.5892 13.3951 23.6089 12.8791 23.5062C13.1004 24.2095 13.5298 24.8243 14.1075 25.2651C14.6852 25.706 15.3825 25.9508 16.1022 25.9655C14.882 26.9506 13.3736 27.484 11.8213 27.4795C11.5467 27.4815 11.2723 27.4645 11 27.4284C12.5775 28.4617 14.4114 29.0072 16.2827 28.9998Z" fill="white"/>
<defs>
<linearGradient id="paint0_linear" x1="2.93213" y1="1.42773" x2="35.5639" y2="33.7183" gradientUnits="userSpaceOnUse">
<stop stop-color="#FCD8B6"/>
<stop offset="0.3051" stop-color="#FFC28F"/>
<stop offset="0.4577" stop-color="#FDB88E"/>
<stop offset="0.7192" stop-color="#F79C8B"/>
<stop offset="0.7384" stop-color="#F79A8B"/>
</linearGradient>
</defs>
</svg>
