<svg width="38" height="48" viewBox="0 0 38 48" fill="none" xmlns="http://www.w3.org/2000/svg">
<path d="M37 15.7061C37 11.7307 37 7.65842 37 3.68305C37 3.39217 36.9043 3.19825 36.617 3.19825C31.734 2.03473 26.8511 1.25904 21.8723 1.06512C14.9787 0.774244 8.18085 1.45297 1.47872 3.19825C1.09574 3.19825 1 3.29521 1 3.78001C1 9.11282 1 14.3487 1 19.6815C1 22.3964 0.999999 25.0143 1.09574 27.7292C1.19149 30.0562 1.95745 32.1893 3.20213 34.0316C4.25532 35.5829 5.69149 36.9404 7.03192 38.2978C10.5745 41.6914 14.5 44.5033 18.7128 46.9273C18.8085 47.0242 19.0957 47.0242 19.1915 46.9273C20.5319 46.1516 21.9681 45.4729 23.3085 44.6002C27.0426 42.1762 30.3936 39.2674 33.4575 35.9708C35.6596 33.5468 36.9043 30.7349 37 27.4383C37 23.4629 37 19.5845 37 15.7061Z" fill="url(#paint0_linear)" stroke="#F79A8B" stroke-miterlimit="10"/>
<path d="M30.0103 15.8995L17.4677 28.6013L10.8613 21.8141C11.9145 20.8445 13.6379 20.8445 14.5954 21.9111L17.372 24.7229L26.0847 15.8995C27.2337 14.833 28.9571 14.833 30.0103 15.8995Z" fill="white"/>
<defs>
<linearGradient id="paint0_linear" x1="2.91959" y1="1.44967" x2="35.6194" y2="33.7395" gradientUnits="userSpaceOnUse">
<stop stop-color="#FCD8B6"/>
<stop offset="0.3051" stop-color="#FFC28F"/>
<stop offset="0.4577" stop-color="#FDB88E"/>
<stop offset="0.7192" stop-color="#F79C8B"/>
<stop offset="0.7384" stop-color="#F79A8B"/>
</linearGradient>
</defs>
</svg>
