<svg width="38" height="48" viewBox="0 0 38 48" fill="none" xmlns="http://www.w3.org/2000/svg">
<path d="M37 15.6752C37 11.7082 37 7.64441 37 3.67741C37 3.38714 36.9042 3.19362 36.617 3.19362C31.734 2.03255 26.8511 1.2585 21.8723 1.06499C14.9787 0.774719 8.18085 1.45201 1.47872 3.19362C1.09574 3.29038 1 3.48389 1 3.87092C1 9.19251 1 14.4173 1 19.7389C1 22.4481 1.00001 25.0605 1.09575 27.7697C1.1915 30.0918 1.95745 32.2205 3.20213 34.0589C4.25532 35.607 5.69149 36.9615 7.03192 38.3161C10.5745 41.7026 14.5 44.5085 18.7128 46.9274C18.8085 47.0242 19.0957 47.0242 19.1915 46.9274C20.5319 46.1534 21.9681 45.4761 23.3085 44.6053C27.0426 42.1864 30.3936 39.2837 33.4575 35.994C35.6596 33.5751 36.9043 30.7691 37 27.4794C37 23.4157 37 19.5454 37 15.6752Z" fill="url(#paint0_linear)" stroke="#F79A8B" stroke-miterlimit="10"/>
<path d="M14.213 28.2537H11.8193V13.7402C13.1598 13.7402 14.213 14.8046 14.213 16.1591V28.2537Z" fill="white"/>
<path d="M26.181 28.2539H11.8193V25.835H23.7874C25.1278 25.835 26.181 26.8993 26.181 28.2539Z" fill="white"/>
<path d="M16.6064 23.5126C16.6064 18.0943 20.915 13.7402 26.1809 13.7402V13.837C26.1809 19.1586 21.8724 23.5126 16.6064 23.5126Z" fill="white"/>
<defs>
<linearGradient id="paint0_linear" x1="2.93213" y1="1.42773" x2="35.5639" y2="33.7183" gradientUnits="userSpaceOnUse">
<stop stop-color="#FCD8B6"/>
<stop offset="0.3051" stop-color="#FFC28F"/>
<stop offset="0.4577" stop-color="#FDB88E"/>
<stop offset="0.7192" stop-color="#F79C8B"/>
<stop offset="0.7384" stop-color="#F79A8B"/>
</linearGradient>
</defs>
</svg>
