<svg width="38" height="48" viewBox="0 0 38 48" fill="none" xmlns="http://www.w3.org/2000/svg">
<path d="M37 15.6752C37 11.7082 37 7.64441 37 3.67741C37 3.38714 36.9043 3.19362 36.617 3.19362C31.734 2.03255 26.8511 1.2585 21.8723 1.06499C14.9787 0.774719 8.18085 1.45201 1.47872 3.19362C1.09574 3.29038 1 3.48389 1 3.87092C1 9.19251 1 14.4173 1 19.7389C1 22.4481 0.999999 25.0605 1.09574 27.7697C1.19149 30.0919 1.95745 32.2205 3.20213 34.0589C4.25532 35.607 5.69149 36.9615 7.03191 38.3161C10.5745 41.7026 14.5 44.5085 18.7128 46.9274C18.8085 47.0242 19.0957 47.0242 19.1915 46.9274C20.5319 46.1534 21.9681 45.4761 23.3085 44.6053C27.0426 42.1864 30.3936 39.2837 33.4574 35.994C35.6596 33.5751 36.9043 30.7691 37 27.4794C37 23.4157 37 19.5454 37 15.6752Z" fill="url(#paint0_linear)" stroke="#F79A8B" stroke-miterlimit="10"/>
<path d="M24.25 18.125H23.375V16.375C23.375 13.96 21.415 12 19 12C16.585 12 14.625 13.96 14.625 16.375V18.125H13.75C12.7875 18.125 12 18.9125 12 19.875V28.625C12 29.5875 12.7875 30.375 13.75 30.375H24.25C25.2125 30.375 26 29.5875 26 28.625V19.875C26 18.9125 25.2125 18.125 24.25 18.125ZM19 26C18.0375 26 17.25 25.2125 17.25 24.25C17.25 23.2875 18.0375 22.5 19 22.5C19.9625 22.5 20.75 23.2875 20.75 24.25C20.75 25.2125 19.9625 26 19 26ZM21.7125 18.125H16.2875V16.375C16.2875 14.8787 17.5037 13.6625 19 13.6625C20.4963 13.6625 21.7125 14.8787 21.7125 16.375V18.125Z" fill="white"/>
<defs>
<linearGradient id="paint0_linear" x1="2.91537" y1="1.44872" x2="35.5471" y2="33.7393" gradientUnits="userSpaceOnUse">
<stop stop-color="#FCD8B6"/>
<stop offset="0.3051" stop-color="#FFC28F"/>
<stop offset="0.4577" stop-color="#FDB88E"/>
<stop offset="0.7192" stop-color="#F79C8B"/>
<stop offset="0.7384" stop-color="#F79A8B"/>
</linearGradient>
</defs>
</svg>
