<svg width="348" height="200" viewBox="0 0 348 200" fill="none" xmlns="http://www.w3.org/2000/svg">
<path d="M270.411 168.692L286.334 159.484V161.878L270.411 171.087V168.692Z" fill="#D87399"/>
<path d="M270.411 167.219L286.334 158.011V159.484L270.411 168.692V167.219Z" fill="#B24761"/>
<path d="M246.573 157.274V154.88L270.411 168.692V171.086L246.573 157.274Z" fill="#FDD8B4"/>
<path d="M246.573 154.88V152.854L270.411 153.499V168.692L246.573 154.88Z" fill="#F79A8B"/>
<path d="M270.411 165.378L286.334 156.17V158.564L270.411 167.772V165.378Z" fill="#D87399"/>
<path d="M270.411 163.904L286.334 154.696V156.17L270.411 165.378V163.904Z" fill="#B24761"/>
<path d="M246.573 153.96V151.565L270.411 165.378V167.772L246.573 153.96Z" fill="#FDD8B4"/>
<path d="M246.573 151.566V149.54L270.411 150.185V165.378L246.573 151.566Z" fill="#F79A8B"/>
<path d="M270.411 162.154L286.334 152.946V155.34L270.411 164.548V162.154Z" fill="#D87399"/>
<path d="M270.411 160.681L286.334 151.473V152.946L270.411 162.154V160.681Z" fill="#B24761"/>
<path d="M246.573 150.736V148.342L270.411 162.154V164.548L246.573 150.736Z" fill="#FDD8B4"/>
<path d="M246.573 148.342V146.316L270.411 146.961V162.154L246.573 148.342Z" fill="#F79A8B"/>
<path d="M224.668 9.94521L219.053 6.81445L213.623 10.0373L219.053 13.168L224.668 9.94521Z" fill="#CEE3CD"/>
<path d="M224.667 13.8117V9.94434L219.053 13.1672L219.145 17.0346L224.667 13.8117Z" fill="#3A9492"/>
<path d="M213.623 13.8117V9.94434L219.053 13.1672L219.145 17.0346L213.623 13.8117Z" fill="#93C1AF"/>
<path d="M217.581 13.4438L214.175 11.418L196.136 21.9152L196.78 25.4143L217.581 13.4438Z" fill="#CEE3CD"/>
<path d="M217.581 15.3771V13.4434L196.78 25.4139L195.399 28.0842L217.581 15.3771Z" fill="#3A9492"/>
<path d="M194.387 21.2706L197.793 19.3369V95.9483L194.387 97.882V21.2706Z" fill="#3A9492"/>
<path d="M194.388 21.2706L190.981 19.3369V98.4345L194.388 100.368V21.2706Z" fill="#93C1AF"/>
<path d="M194.387 31.5834L190.981 29.5576L186.563 32.228L189.969 34.0696L194.387 31.5834Z" fill="#CEE3CD"/>
<path d="M190.061 34.1622L186.656 32.2285L184.263 35.3593L187.576 37.2009L190.061 34.1622Z" fill="#CEE3CD"/>
<path d="M187.668 37.2931L184.263 35.3594L186.656 38.306L190.061 40.1476L187.668 37.2931Z" fill="#93C1AF"/>
<path d="M194.386 37.6613V31.584L190.061 34.0702V40.1475L194.386 37.6613Z" fill="#3A9492"/>
<path d="M190.062 40.2397V34.0703L187.576 37.2011L190.062 40.2397Z" fill="#3A9492"/>
<path d="M194.387 21.271L190.981 19.2452L194.387 17.3115L197.792 19.2452L194.387 21.271Z" fill="#CEE3CD"/>
<path d="M194.387 8.47188L196.136 7.45898V18.7849L194.387 19.7978V8.47188Z" fill="#3A9492"/>
<path d="M194.387 8.47188L192.638 7.45898V18.877L194.387 19.8899V8.47188Z" fill="#93C1AF"/>
<path d="M194.386 8.47109L192.638 7.4582L194.386 6.44531L196.135 7.4582L194.386 8.47109Z" fill="#CEE3CD"/>
<path d="M130.88 67.2188V85.3587" stroke="#D67499" stroke-miterlimit="10" stroke-linecap="round"/>
<path d="M137.507 63.168V80.7555" stroke="#D67499" stroke-miterlimit="10" stroke-linecap="round"/>
<path d="M325.267 35.8193L76.3008 179.65" stroke="url(#paint0_linear)" stroke-miterlimit="10"/>
<path d="M7.63965 29.834L282.837 188.766" stroke="url(#paint1_linear)" stroke-miterlimit="10"/>
<path d="M106.673 132.413C103.452 130.571 101.795 128.085 101.795 125.599C101.795 123.113 101.795 124.402 101.795 124.402L162.725 86.6486C169.26 82.8733 179.936 82.9654 186.471 86.6486L246.665 123.665C246.665 123.665 246.665 122.929 246.665 125.323C246.757 127.901 245.1 130.387 241.786 132.321L186.011 164.549C179.476 168.325 168.799 168.325 162.357 164.549L106.673 132.413Z" fill="url(#paint2_linear)"/>
<path d="M106.674 131.124C100.139 127.348 100.139 121.179 106.674 117.496L162.725 85.4514C169.26 81.676 179.937 81.7681 186.471 85.4514L241.879 117.403C248.414 121.179 248.414 127.348 241.879 131.124L186.103 163.352C179.569 167.127 168.892 167.127 162.449 163.352L106.674 131.124Z" fill="#FCFEE5"/>
<path d="M226.324 82.505L198.528 82.1367L182.882 91.529L135.113 92.9102V130.203L155.822 142.174C168.431 149.448 183.986 149.448 196.595 142.174L198.62 140.977L226.416 124.954V82.505H226.324Z" fill="url(#paint3_linear)"/>
<path d="M153.613 104.881L131.34 91.9893" stroke="url(#paint4_linear)" stroke-miterlimit="10" stroke-linecap="round"/>
<path d="M153.889 111.878L131.34 98.8027" stroke="url(#paint5_linear)" stroke-miterlimit="10" stroke-linecap="round"/>
<path d="M154.166 118.785L131.34 105.617" stroke="url(#paint6_linear)" stroke-miterlimit="10" stroke-linecap="round"/>
<path d="M151.957 124.401L131.34 112.431" stroke="url(#paint7_linear)" stroke-miterlimit="10" stroke-linecap="round"/>
<path d="M154.901 115.561L121.123 96.0403L133.916 88.6738L154.717 102.67L154.901 115.561Z" fill="#F79A8B"/>
<path d="M154.901 127.256L121.123 107.735L133.916 100.368L154.717 114.364L154.901 127.256Z" fill="#F79A8B"/>
<path d="M154.901 140.055L121.123 120.442L133.916 113.075L154.717 127.072L154.901 140.055Z" fill="#F79A8B"/>
<path d="M121.584 108.011L155.086 127.348" stroke="#FDD8B4" stroke-miterlimit="10"/>
<path d="M121.584 96.3164L155.086 115.653" stroke="#FDD8B4" stroke-miterlimit="10"/>
<path d="M153.061 103.039V137.569L123.792 120.534L121.031 118.14V122.1L155.822 142.358V103.592" fill="#FDD8B4"/>
<path d="M77.6807 135.359V129.742L91.3945 137.661V143.278L77.6807 135.359Z" fill="#6FAC9C"/>
<path d="M77.6807 129.743L81.9145 127.349L95.5363 135.268L91.3945 137.662L77.6807 129.743Z" fill="#CEE3CD"/>
<path d="M91.3945 137.662L95.5363 135.268V140.885L91.3945 143.279V137.662Z" fill="#3A9492"/>
<path d="M73.5391 137.845V132.229L87.1609 140.055V145.672L73.5391 137.845Z" fill="#93C1AF"/>
<path d="M73.5391 132.228L77.6808 129.834L91.3947 137.661L87.1609 140.055L73.5391 132.228Z" fill="#CEE3CD"/>
<path d="M87.1611 140.055L91.3949 137.661V143.278L87.1611 145.672V140.055Z" fill="#3A9492"/>
<path d="M75.5645 131.032V125.415L89.2783 133.334V138.951L75.5645 131.032Z" fill="#93C1AF"/>
<path d="M75.5645 125.415L79.7983 123.021L93.4201 130.847L89.2783 133.334L75.5645 125.415Z" fill="#CEE3CD"/>
<path d="M89.2773 133.334L93.4191 130.848V136.557L89.2773 138.951V133.334Z" fill="#3A9492"/>
<path d="M121.768 84.8062L150.668 68.5078L180.857 85.819L156.19 104.88L121.768 84.8062Z" fill="#FCFEE5"/>
<path d="M150.668 68.8763L180.212 85.9113L156.19 104.42L122.412 84.8063L150.668 68.8763ZM150.668 68.1396L121.031 84.8063L156.19 105.34L181.409 85.9113L150.668 68.1396Z" fill="#F79A8B"/>
<path d="M205.8 105.709L219.514 97.8825V91.3447L205.8 99.1716V105.709Z" fill="#B24761"/>
<path d="M205.8 117.68L219.514 109.945V103.407L205.8 111.142V117.68Z" fill="#B24761"/>
<path d="M198.989 115.102L196.596 116.483C183.986 123.757 168.432 123.849 155.822 116.483V123.021C168.432 130.295 183.986 130.295 196.596 123.021L198.989 121.639V115.102Z" fill="url(#paint8_linear)"/>
<path d="M198.989 114.917L196.596 116.298C183.986 123.573 168.432 123.665 155.822 116.298V121.915C168.432 129.19 183.986 129.19 196.596 121.915L198.989 120.534V114.917Z" fill="#B24761"/>
<path d="M205.8 128.73L219.514 120.903V114.457L205.8 122.192V128.73Z" fill="#B24761"/>
<path d="M198.989 126.06L196.596 127.441C183.986 134.715 168.432 134.807 155.822 127.441V133.979C168.432 141.253 183.986 141.253 196.596 133.979L198.989 132.597V126.06Z" fill="url(#paint9_linear)"/>
<path d="M198.989 125.967L196.596 127.348C183.986 134.622 168.432 134.714 155.822 127.348V132.965C168.432 140.239 183.986 140.239 196.596 132.965L198.989 131.584V125.967Z" fill="#B24761"/>
<path d="M155.822 99.3555V104.328L159.32 106.262L161.897 101.842L155.822 99.3555Z" fill="#FDD8B4"/>
<path d="M128.211 77.9004V125.69" stroke="#FDD8B4" stroke-miterlimit="10" stroke-linecap="round"/>
<path d="M121.491 73.7568V121.547" stroke="#FDD8B4" stroke-miterlimit="10" stroke-linecap="round"/>
<path d="M135.113 81.8604V129.927" stroke="#FDD8B4" stroke-miterlimit="10" stroke-linecap="round"/>
<path d="M141.925 85.6357V133.334" stroke="#FDD8B4" stroke-miterlimit="10" stroke-linecap="round"/>
<path d="M148.735 136.556V89.5947" stroke="#FDD8B4" stroke-miterlimit="10" stroke-linecap="round"/>
<path d="M198.989 103.039L196.596 104.42C183.986 111.695 168.432 111.787 155.822 104.42V110.958C168.432 118.232 183.986 118.232 196.596 110.958L198.989 109.577V103.039Z" fill="url(#paint10_linear)"/>
<path d="M198.989 102.946L196.596 104.328C183.986 111.602 168.432 111.694 155.822 104.328V109.944C168.432 117.219 183.986 117.219 196.596 109.944L198.989 108.563V102.946Z" fill="#B24761"/>
<path d="M163.922 86.6484V98.5269" stroke="#D67499" stroke-miterlimit="10" stroke-linecap="round"/>
<path d="M170.549 82.5967V91.3444" stroke="#D67499" stroke-miterlimit="10" stroke-linecap="round"/>
<path d="M176.164 104.604C169.261 104.604 162.358 102.763 156.283 99.3557L205.8 70.8105L225.589 82.5048L196.32 99.1715C190.246 102.763 183.251 104.604 176.164 104.604Z" fill="#FCFEE5"/>
<path d="M205.8 71.2711L224.944 82.505L196.228 98.8954C190.153 102.395 183.158 104.328 176.163 104.328C169.444 104.328 162.91 102.671 157.019 99.4479L205.8 71.2711ZM205.8 70.4424L155.73 99.3558V99.54C161.989 103.223 169.076 104.973 176.071 104.973C183.158 104.973 190.153 103.131 196.504 99.4479L226.232 82.505L205.8 70.4424Z" fill="#F79A8B"/>
<path d="M145.883 68.2312L150.669 65.4688L155.639 68.2312L150.761 70.9936L145.883 68.2312Z" fill="#FCFEE5"/>
<path d="M150.761 65.8375L154.994 68.2316L150.853 70.6257L146.711 68.2316L150.761 65.8375ZM150.669 65.0088L145.238 68.2316L150.761 71.3624L156.283 68.1395L150.669 65.0088Z" fill="#F79A8B"/>
<path d="M156.283 82.6887L150.669 79.4658L145.238 82.6887L150.761 85.8194L156.283 82.6887Z" fill="#F79A8B"/>
<path d="M156.282 78.9138V68.2324L150.76 71.3632V82.0446L156.282 78.9138Z" fill="#D67499"/>
<path d="M145.238 78.9138V68.2324L150.761 71.3632V82.0446L145.238 78.9138Z" fill="#FDD8B4"/>
<path d="M150.76 53.5908V68.2317" stroke="#3A9492" stroke-width="0.5" stroke-miterlimit="10" stroke-linecap="round"/>
<path d="M156.283 48.8954L150.669 45.7646L145.238 48.9875L150.761 52.1182L156.283 48.8954Z" stroke="#FCFEE5" stroke-width="0.25" stroke-miterlimit="10"/>
<path d="M156.282 52.7629V48.8955L150.76 52.1183V55.9857L156.282 52.7629Z" fill="#3A9492"/>
<path d="M145.238 52.7629V48.8955L150.761 52.1183V55.9857L145.238 52.7629Z" fill="#93C1AF"/>
<path d="M194.387 23.1124L190.981 21.1787L143.949 48.3426L147.355 50.1842L194.387 23.1124Z" fill="#CEE3CD"/>
<path d="M194.387 27.0718V23.1123L147.355 50.1841L146.066 54.8803L194.387 27.0718Z" fill="#3A9492"/>
<path d="M146.067 54.8805L147.355 50.1844L143.95 48.3428L142.661 53.0389L146.067 54.8805Z" fill="#CEE3CD"/>
<path d="M153.89 43.4619L194.387 6.44531" stroke="#3A9492" stroke-width="0.5" stroke-miterlimit="10" stroke-linecap="round"/>
<path d="M155.822 44.8431L194.387 6.44531L196.135 6.90572L215.924 11.5098" stroke="#3A9492" stroke-width="0.5" stroke-miterlimit="10" stroke-linecap="round"/>
<path d="M270.411 158.84L286.334 149.632V152.026L270.411 161.234V158.84Z" fill="#D87399"/>
<path d="M246.573 147.514V145.12L270.411 158.84V161.234L246.573 147.514Z" fill="#FDD8B4"/>
<path d="M247.218 145.119L262.772 136.464L285.598 149.631L270.412 158.471L247.218 145.119Z" fill="#FCFEE5"/>
<path d="M262.772 136.832L284.954 149.632L270.411 158.011L247.954 145.028L262.772 136.832ZM262.772 136.096L246.573 145.12L270.411 158.932L286.334 149.724L262.772 136.096Z" fill="#F79A8B"/>
<defs>
<linearGradient id="paint0_linear" x1="76.0265" y1="107.71" x2="325.459" y2="107.71" gradientUnits="userSpaceOnUse">
<stop stop-color="#FCFEE5" stop-opacity="0"/>
<stop offset="0.0145605" stop-color="#FBF0D9" stop-opacity="0.0295774"/>
<stop offset="0.0492418" stop-color="#FAD6C1" stop-opacity="0.1"/>
<stop offset="0.0890889" stop-color="#F9C0AD" stop-opacity="0.181"/>
<stop offset="0.1355" stop-color="#F8AF9E" stop-opacity="0.2753"/>
<stop offset="0.1929" stop-color="#F7A393" stop-opacity="0.3918"/>
<stop offset="0.273" stop-color="#F79C8D" stop-opacity="0.5546"/>
<stop offset="0.4923" stop-color="#F79A8B"/>
<stop offset="0.5784" stop-color="#F7A393" stop-opacity="0.8304"/>
<stop offset="0.7199" stop-color="#F9BCA9" stop-opacity="0.5517"/>
<stop offset="0.8982" stop-color="#FBE4CE" stop-opacity="0.2005"/>
<stop offset="1" stop-color="#FCFEE5" stop-opacity="0"/>
</linearGradient>
<linearGradient id="paint1_linear" x1="7.43477" y1="109.335" x2="283.034" y2="109.335" gradientUnits="userSpaceOnUse">
<stop stop-color="#FCFEE5" stop-opacity="0"/>
<stop offset="0.0854601" stop-color="#F5E4D7" stop-opacity="0.1364"/>
<stop offset="0.2614" stop-color="#E8B4BC" stop-opacity="0.4173"/>
<stop offset="0.4166" stop-color="#DE91A9" stop-opacity="0.665"/>
<stop offset="0.5435" stop-color="#D87C9D" stop-opacity="0.8677"/>
<stop offset="0.6264" stop-color="#D67499"/>
<stop offset="0.7397" stop-color="#D7769A" stop-opacity="0.6968"/>
<stop offset="0.8011" stop-color="#D97E9F" stop-opacity="0.5325"/>
<stop offset="0.85" stop-color="#DD8CA6" stop-opacity="0.4014"/>
<stop offset="0.8924" stop-color="#E29FB1" stop-opacity="0.288"/>
<stop offset="0.9306" stop-color="#E9B8BF" stop-opacity="0.1859"/>
<stop offset="0.9653" stop-color="#F1D7CF" stop-opacity="0.0928819"/>
<stop offset="0.9975" stop-color="#FBFBE3" stop-opacity="0.01"/>
<stop offset="1" stop-color="#FCFEE5" stop-opacity="0"/>
</linearGradient>
<linearGradient id="paint2_linear" x1="101.811" y1="125.703" x2="246.734" y2="125.703" gradientUnits="userSpaceOnUse">
<stop stop-color="#F79A8B"/>
<stop offset="0.2076" stop-color="#F79C8D"/>
<stop offset="0.3092" stop-color="#F8A492"/>
<stop offset="0.3877" stop-color="#F9B19B"/>
<stop offset="0.454" stop-color="#FAC3A8"/>
<stop offset="0.5059" stop-color="#FCD8B6"/>
<stop offset="0.5252" stop-color="#F7CCB2"/>
<stop offset="0.5928" stop-color="#E9A6A7"/>
<stop offset="0.6553" stop-color="#DF8AA0"/>
<stop offset="0.7104" stop-color="#D87A9B"/>
<stop offset="0.7521" stop-color="#D67499"/>
</linearGradient>
<linearGradient id="paint3_linear" x1="135.074" y1="114.971" x2="226.313" y2="114.971" gradientUnits="userSpaceOnUse">
<stop offset="0.3152" stop-color="#FCD8B6"/>
<stop offset="0.3556" stop-color="#F7CAB2"/>
<stop offset="0.4326" stop-color="#E8A4A7"/>
<stop offset="0.5166" stop-color="#D67499"/>
</linearGradient>
<linearGradient id="paint4_linear" x1="130.863" y1="98.4687" x2="154.074" y2="98.4687" gradientUnits="userSpaceOnUse">
<stop stop-color="#F79A8B"/>
<stop offset="0.6247" stop-color="#F79A8B"/>
<stop offset="0.8418" stop-color="#B24761"/>
</linearGradient>
<linearGradient id="paint5_linear" x1="130.863" y1="105.346" x2="154.337" y2="105.346" gradientUnits="userSpaceOnUse">
<stop stop-color="#F79A8B"/>
<stop offset="0.6247" stop-color="#F79A8B"/>
<stop offset="0.8418" stop-color="#B24761"/>
</linearGradient>
<linearGradient id="paint6_linear" x1="130.863" y1="112.225" x2="154.601" y2="112.225" gradientUnits="userSpaceOnUse">
<stop stop-color="#F79A8B"/>
<stop offset="0.6247" stop-color="#F79A8B"/>
<stop offset="0.8418" stop-color="#B24761"/>
</linearGradient>
<linearGradient id="paint7_linear" x1="130.863" y1="118.4" x2="152.433" y2="118.4" gradientUnits="userSpaceOnUse">
<stop stop-color="#F79A8B"/>
<stop offset="0.6247" stop-color="#F79A8B"/>
<stop offset="0.8418" stop-color="#B24761"/>
</linearGradient>
<linearGradient id="paint8_linear" x1="155.782" y1="121.782" x2="198.976" y2="121.782" gradientUnits="userSpaceOnUse">
<stop stop-color="#F79A8B"/>
<stop offset="1" stop-color="#D67499"/>
</linearGradient>
<linearGradient id="paint9_linear" x1="155.782" y1="132.796" x2="198.976" y2="132.796" gradientUnits="userSpaceOnUse">
<stop stop-color="#F79A8B"/>
<stop offset="1" stop-color="#D67499"/>
</linearGradient>
<linearGradient id="paint10_linear" x1="155.782" y1="109.738" x2="198.976" y2="109.738" gradientUnits="userSpaceOnUse">
<stop stop-color="#F79A8B"/>
<stop offset="1" stop-color="#D67499"/>
</linearGradient>
</defs>
</svg>
