<svg width="24" height="22" viewBox="0 0 24 22" fill="none" xmlns="http://www.w3.org/2000/svg">
<path fill-rule="evenodd" clip-rule="evenodd" d="M19.68 21.12H3.36C1.488 21.12 0 19.632 0 17.76V8.64C0 7.584 0.864 6.72 1.92 6.72H4.8V1.92C4.8 0.864 5.664 0 6.72 0H21.12C22.176 0 23.04 0.864 23.04 1.92V17.76C23.04 19.632 21.552 21.12 19.68 21.12ZM1.92 8.64V17.76C1.92 18.576 2.544 19.2 3.36 19.2C4.176 19.2 4.8 18.576 4.8 17.76V8.64H1.92ZM19.68 19.2C20.496 19.2 21.12 18.576 21.12 17.76V1.92H6.72V17.76C6.72 18.24 6.624 18.768 6.384 19.2H19.68ZM18.2401 9.60003H9.60014C9.07214 9.60003 8.64014 9.16803 8.64014 8.64003V4.80003C8.64014 4.27203 9.07214 3.84003 9.60014 3.84003H18.2401C18.7681 3.84003 19.2001 4.27203 19.2001 4.80003V8.64003C19.2001 9.16803 18.7681 9.60003 18.2401 9.60003ZM17.2801 5.76003H10.5601V7.68003H17.2801V5.76003ZM9.60014 13.44H18.2401C18.7681 13.44 19.2001 13.008 19.2001 12.48C19.2001 11.952 18.7681 11.52 18.2401 11.52H9.60014C9.07214 11.52 8.64014 11.952 8.64014 12.48C8.64014 13.008 9.07214 13.44 9.60014 13.44ZM15.3601 17.28H9.60014C9.07214 17.28 8.64014 16.848 8.64014 16.32C8.64014 15.792 9.07214 15.36 9.60014 15.36H15.3601C15.8881 15.36 16.3201 15.792 16.3201 16.32C16.3201 16.848 15.8881 17.28 15.3601 17.28Z" fill="#5E666A"/>
</svg>
