<svg width="24" height="24" viewBox="0 0 24 24" fill="none" xmlns="http://www.w3.org/2000/svg">
<path d="M19.4096 7.96729e-06C18.9143 0.000903589 18.4244 0.102655 17.9697 0.299061C17.5149 0.495467 17.105 0.782413 16.7648 1.14241L14.5424 3.49921L5.9456 1.92001C5.7 1.87603 5.44693 1.9294 5.24 2.06881L2.36 3.98881C2.22375 4.07931 2.11288 4.20313 2.03791 4.34852C1.96295 4.4939 1.92637 4.65603 1.93166 4.81952C1.93695 4.98301 1.98393 5.14243 2.06814 5.28267C2.15234 5.42291 2.27098 5.5393 2.4128 5.62081L8.8928 9.51841C8.312 10.1472 7.7456 10.7856 7.1936 11.4L3.08 10.56C2.92538 10.5297 2.76569 10.538 2.61501 10.584C2.46433 10.6301 2.3273 10.7125 2.216 10.824L0.296004 12.744C0.183303 12.8519 0.098611 12.9857 0.0492641 13.1338C-8.28159e-05 13.2818 -0.0125973 13.4396 0.0128041 13.5936C0.0370754 13.7439 0.0967421 13.8863 0.186879 14.0089C0.277016 14.1316 0.395038 14.2311 0.531204 14.2992L6.0032 17.0352L8.7392 22.5072C8.80686 22.6479 8.9078 22.7699 9.03326 22.8627C9.15872 22.9556 9.30492 23.0164 9.4592 23.04C9.51029 23.0448 9.56171 23.0448 9.6128 23.04C9.867 23.0389 10.1104 22.9371 10.2896 22.7568L12.2096 20.8368C12.3211 20.7255 12.4036 20.5885 12.4496 20.4378C12.4956 20.2871 12.5039 20.1274 12.4736 19.9728L11.6528 15.84L13.5296 14.136L17.432 20.64C17.5154 20.7844 17.6349 20.9046 17.7788 20.9888C17.9227 21.0729 18.0861 21.1182 18.2528 21.12C18.4145 21.1237 18.5746 21.0865 18.7181 21.0118C18.8616 20.9371 18.9839 20.8274 19.0736 20.6928L20.9936 17.8128C21.1297 17.6045 21.1796 17.3516 21.1328 17.1072L19.5536 8.51041L21.9056 6.29281C22.4384 5.79337 22.8085 5.14516 22.9679 4.43251C23.1273 3.71986 23.0685 2.97573 22.7993 2.29692C22.53 1.61811 22.0628 1.03603 21.4582 0.626381C20.8537 0.216733 20.1399 -0.00151991 19.4096 7.96729e-06ZM20.5904 4.89601L17.8592 7.46881C17.7427 7.5782 17.6553 7.71496 17.605 7.86667C17.5547 8.01839 17.5431 8.18026 17.5712 8.33761L19.16 17.0688L18.296 18.3648L14.5712 12.1584C14.4983 12.0368 14.3994 11.9328 14.2815 11.854C14.1637 11.7751 14.0298 11.7234 13.8896 11.7024C13.7488 11.6832 13.6056 11.6947 13.4697 11.7362C13.3338 11.7776 13.2085 11.848 13.1024 11.9424L9.9584 14.7984C9.83555 14.9096 9.74357 15.0507 9.69142 15.208C9.63927 15.3653 9.62872 15.5334 9.6608 15.696L10.4912 19.8432L9.8768 20.4576L7.592 15.8928C7.49889 15.7056 7.3472 15.5539 7.16 15.4608L2.5952 13.176L3.2096 12.5616L7.3568 13.392C7.52053 13.4244 7.68987 13.4135 7.84812 13.3605C8.00636 13.3075 8.14805 13.2141 8.2592 13.0896L8.5136 12.8064C9.344 11.88 10.2176 10.8864 11.096 9.96001C11.194 9.85582 11.2674 9.73106 11.311 9.59485C11.3545 9.45864 11.3671 9.31442 11.3478 9.17273C11.3284 9.03104 11.2777 8.89545 11.1993 8.77588C11.1208 8.6563 11.0167 8.55577 10.8944 8.48161L4.688 4.75681L5.984 3.89281L14.7152 5.48161C14.8725 5.50972 15.0344 5.49811 15.1861 5.44781C15.3379 5.39752 15.4746 5.31014 15.584 5.19361L18.1616 2.45761C18.3184 2.28405 18.509 2.14423 18.7216 2.04668C18.9342 1.94913 19.1644 1.89589 19.3983 1.8902C19.6321 1.88452 19.8647 1.9265 20.0818 2.0136C20.2989 2.10069 20.496 2.23108 20.6611 2.39681C20.8261 2.56255 20.9557 2.76015 21.042 2.9776C21.1282 3.19504 21.1693 3.42776 21.1627 3.66159C21.1561 3.89542 21.1019 4.12545 21.0035 4.33767C20.9051 4.5499 20.7646 4.73987 20.5904 4.89601Z" fill="#5E666A"/>
</svg>
