<svg width="488" height="292" viewBox="0 0 488 292" fill="none" xmlns="http://www.w3.org/2000/svg">
<g clip-path="url(#clip0)">
<path d="M463.2 63L156.1 240.2" stroke="url(#paint0_linear)" stroke-miterlimit="10"/>
<path d="M498 176L394.4 235.7" stroke="url(#paint1_linear)" stroke-miterlimit="10"/>
<path d="M-0.599976 24.1997L411.5 262.1" stroke="url(#paint2_linear)" stroke-miterlimit="10"/>
<path d="M254.9 17.3999L120.4 94.1999" stroke="url(#paint3_linear)" stroke-miterlimit="10"/>
<path d="M327.9 66.3999L482.2 155.5" stroke="url(#paint4_linear)" stroke-miterlimit="10"/>
<path d="M267.6 148C264.7 148 261.7 148.6 259.4 149.9L220.8 172C216.3 174.6 216.3 178.8 220.8 181.4L259.3 203.6C261.5 204.9 264.5 205.5 267.5 205.5C270.4 205.5 273.5 204.9 275.7 203.6L314.2 181.4C318.6 178.8 318.6 174.5 314.2 172L276 150C273.6 148.6 270.6 148 267.6 148Z" fill="url(#paint5_linear)"/>
<path d="M267.4 203.9C264.3 203.9 261.5 203.2 259.4 202L220.5 179.6C218.5 178.5 217.3 176.8 217.3 175.3C217.3 173.8 218.4 172.1 220.5 171L259.6 148.7C261.7 147.5 264.5 146.9 267.6 146.9C270.7 146.9 273.5 147.6 275.7 148.8L314.3 171C316.3 172.2 317.5 173.8 317.5 175.3C317.5 176.9 316.4 178.5 314.3 179.6L275.4 202C273.3 203.2 270.5 203.9 267.4 203.9Z" fill="#FCFEE5"/>
<path d="M209.9 217.7C195 209.1 187.2 198 186.3 186.7L186.4 167C212.1 243.2 349.6 212.6 348.7 167.8L348.6 187.2C347.5 198.3 339.6 209.2 325 217.6C293.3 235.9 241.5 235.9 209.9 217.7Z" fill="url(#paint6_linear)"/>
<path d="M210.2 151.4C242 133.2 293.7 133.2 325.2 151.4C337.7 158.6 345.1 167.6 347.7 177C351.6 162.7 344.1 147.6 325.2 136.6C293.7 118.4 242 118.4 210.2 136.6C191 147.6 183.4 162.8 187.3 177.2C189.9 167.8 197.5 158.7 210.2 151.4Z" fill="url(#paint7_linear)"/>
<path d="M325.2 136.6C293.7 118.4 242 118.4 210.2 136.6C178.4 154.8 178.3 184.6 209.9 202.8C241.5 221.1 293.3 221.1 324.9 202.8C356.5 184.5 356.6 154.8 325.2 136.6ZM320.4 198.2C291.2 213.9 243.5 213.9 214.4 198.2C185.2 182.5 185.4 157 214.6 141.4C243.8 125.8 291.6 125.8 320.6 141.4C349.7 156.9 349.6 182.5 320.4 198.2Z" fill="#CEE3CD"/>
<path d="M267.8 123.7C289.4 123.7 309.6 128.5 324.7 137.2C339.6 145.8 347.7 157.2 347.7 169.3C347.7 181.5 339.4 193 324.4 201.7C309.3 210.4 289 215.3 267.4 215.3C245.8 215.3 225.6 210.5 210.4 201.7C195.5 193.1 187.2 181.6 187.3 169.5C187.3 157.3 195.6 145.8 210.7 137.2C225.9 128.5 246.2 123.7 267.8 123.7ZM267.8 122.7C247 122.7 226.1 127.2 210.2 136.3C178.4 154.5 178.3 184.3 209.9 202.5C225.7 211.6 246.5 216.2 267.4 216.2C288.3 216.2 309.1 211.6 324.9 202.5C356.5 184.2 356.6 154.4 325.2 136.3C309.4 127.2 288.6 122.7 267.8 122.7Z" stroke="#FCFEE5" stroke-miterlimit="10" stroke-linejoin="round"/>
<path d="M349.2 229.5L356.9 217L331.9 203.3C330.9 202.7 329.6 202.7 328.1 203.6C325.2 205.3 322.9 209.3 322.9 212.6C322.9 214.2 323.4 215.3 324.3 215.9C324.5 216 324.6 216.1 324.8 216.2L349.2 229.5Z" fill="url(#paint8_linear)"/>
<path d="M357.5 212.1C356 211.1 353.8 211.1 351.3 212.5C346.7 215.2 342.9 221.7 342.9 227C342.9 229.6 343.8 231.4 345.2 232.3L409.6 269.1L421.8 248.9L357.5 212.1Z" fill="url(#paint9_linear)"/>
<path d="M412.1 269.4C409.5 269.4 407.9 267.3 407.9 263.9C407.9 258.7 411.5 252.4 416 249.8C417.2 249.1 418.4 248.7 419.5 248.7C422.1 248.7 423.7 250.8 423.7 254.2C423.7 259.4 420.1 265.7 415.6 268.3C414.3 269 413.1 269.4 412.1 269.4Z" fill="#FB9475"/>
<path d="M412.1 269.3C409.5 269.3 407.9 267.2 407.9 263.8C407.9 258.7 411.6 252.4 416.1 249.7C417.3 249 418.6 248.7 419.5 248.7C422.1 248.7 423.7 250.8 423.7 254.2C423.7 259.3 420 265.6 415.5 268.3C414.3 269 413.1 269.3 412.1 269.3Z" fill="#3A9492"/>
<path d="M419.5 249.2C421.8 249.2 423.2 251.1 423.2 254.2C423.2 259.1 419.6 265.3 415.3 267.8C414.1 268.4 413 268.8 412.1 268.8C409.8 268.8 408.4 266.9 408.4 263.8C408.4 258.9 412 252.7 416.3 250.2C417.4 249.6 418.6 249.2 419.5 249.2ZM419.5 248.2C418.4 248.2 417.1 248.6 415.8 249.3C411.2 252 407.4 258.5 407.4 263.8C407.4 267.6 409.3 269.8 412.1 269.8C413.2 269.8 414.5 269.4 415.8 268.7C420.4 266 424.2 259.5 424.2 254.2C424.2 250.5 422.3 248.2 419.5 248.2Z" fill="#6FAC9C"/>
<path d="M352.1 236.8C350.4 235.9 349.3 233.9 349.3 231C349.3 225.5 353.2 218.6 358 215.9C360.4 214.5 362.6 214.4 364.2 215.3" stroke="url(#paint10_linear)" stroke-miterlimit="10"/>
<path d="M403.7 266.2C402 265.3 400.9 263.3 400.9 260.4C400.9 254.9 404.8 248 409.6 245.3C412 243.9 414.2 243.8 415.8 244.7" stroke="url(#paint11_linear)" stroke-miterlimit="10"/>
<path d="M268 106.2V175.9" stroke="#F79A8B" stroke-miterlimit="10" stroke-linecap="round"/>
<path d="M268 177.8C269.105 177.8 270 176.905 270 175.8C270 174.696 269.105 173.8 268 173.8C266.895 173.8 266 174.696 266 175.8C266 176.905 266.895 177.8 268 177.8Z" fill="#FB9475"/>
<path d="M268 109.1C256.8 109.1 250 102.7 250 85.5002V80.4002C250 63.2002 256.8 56.7002 268 56.7002C279.2 56.7002 286 63.2002 286 80.4002V85.5002C286 102.7 279.2 109.1 268 109.1ZM276.4 80.4002C276.4 67.9002 272.7 64.5002 268 64.5002C263.3 64.5002 259.6 67.9002 259.6 80.4002V85.5002C259.6 98.0002 263.3 101.3 268 101.3C272.7 101.3 276.4 98.0002 276.4 85.5002V80.4002Z" fill="url(#paint12_linear)" stroke="#F79A8B" stroke-miterlimit="10"/>
</g>
<defs>
<linearGradient id="paint0_linear" x1="155.85" y1="151.6" x2="463.45" y2="151.6" gradientUnits="userSpaceOnUse">
<stop stop-color="#FCFEE5" stop-opacity="0"/>
<stop offset="0.0145605" stop-color="#FBF0D9" stop-opacity="0.0295774"/>
<stop offset="0.0492418" stop-color="#FAD6C1" stop-opacity="0.1"/>
<stop offset="0.0890889" stop-color="#F9C0AD" stop-opacity="0.181"/>
<stop offset="0.1355" stop-color="#F8AF9E" stop-opacity="0.2753"/>
<stop offset="0.1929" stop-color="#F7A393" stop-opacity="0.3918"/>
<stop offset="0.273" stop-color="#F79C8D" stop-opacity="0.5546"/>
<stop offset="0.4923" stop-color="#F79A8B"/>
<stop offset="0.5784" stop-color="#F7A393" stop-opacity="0.8304"/>
<stop offset="0.7199" stop-color="#F9BCA9" stop-opacity="0.5517"/>
<stop offset="0.8982" stop-color="#FBE4CE" stop-opacity="0.2005"/>
<stop offset="1" stop-color="#FCFEE5" stop-opacity="0"/>
</linearGradient>
<linearGradient id="paint1_linear" x1="394.15" y1="205.8" x2="498.25" y2="205.8" gradientUnits="userSpaceOnUse">
<stop stop-color="#FCCDB9"/>
<stop offset="0.3698" stop-color="#FCD0BC" stop-opacity="0.7041"/>
<stop offset="0.6672" stop-color="#FCD8C6" stop-opacity="0.4662"/>
<stop offset="0.9386" stop-color="#FBE5D7" stop-opacity="0.2491"/>
<stop offset="1" stop-color="#FBE9DC" stop-opacity="0.2"/>
</linearGradient>
<linearGradient id="paint2_linear" x1="-0.850076" y1="143.15" x2="411.75" y2="143.15" gradientUnits="userSpaceOnUse">
<stop stop-color="#FCFEE5" stop-opacity="0"/>
<stop offset="0.0854601" stop-color="#F5E4D7" stop-opacity="0.1364"/>
<stop offset="0.2614" stop-color="#E8B4BC" stop-opacity="0.4173"/>
<stop offset="0.4166" stop-color="#DE91A9" stop-opacity="0.665"/>
<stop offset="0.5435" stop-color="#D87C9D" stop-opacity="0.8677"/>
<stop offset="0.6264" stop-color="#D67499"/>
<stop offset="0.7397" stop-color="#D7769A" stop-opacity="0.6968"/>
<stop offset="0.8011" stop-color="#D97E9F" stop-opacity="0.5325"/>
<stop offset="0.85" stop-color="#DD8CA6" stop-opacity="0.4014"/>
<stop offset="0.8924" stop-color="#E29FB1" stop-opacity="0.288"/>
<stop offset="0.9306" stop-color="#E9B8BF" stop-opacity="0.1859"/>
<stop offset="0.9653" stop-color="#F1D7CF" stop-opacity="0.0928819"/>
<stop offset="0.9975" stop-color="#FBFBE3" stop-opacity="0.01"/>
<stop offset="1" stop-color="#FCFEE5" stop-opacity="0"/>
</linearGradient>
<linearGradient id="paint3_linear" x1="255.148" y1="55.7499" x2="120.152" y2="55.7499" gradientUnits="userSpaceOnUse">
<stop stop-color="#FBE9DC" stop-opacity="0.1"/>
<stop offset="1" stop-color="#D67499" stop-opacity="0.4"/>
</linearGradient>
<linearGradient id="paint4_linear" x1="327.65" y1="110.9" x2="482.45" y2="110.9" gradientUnits="userSpaceOnUse">
<stop stop-color="#FCFEE5" stop-opacity="0"/>
<stop offset="0.016039" stop-color="#FBF0D9" stop-opacity="0.011831"/>
<stop offset="0.054242" stop-color="#FAD6C1" stop-opacity="0.0400109"/>
<stop offset="0.0981353" stop-color="#F9C0AD" stop-opacity="0.0723882"/>
<stop offset="0.1493" stop-color="#F8AF9E" stop-opacity="0.1101"/>
<stop offset="0.2125" stop-color="#F7A393" stop-opacity="0.1567"/>
<stop offset="0.3007" stop-color="#F79C8D" stop-opacity="0.2218"/>
<stop offset="0.5423" stop-color="#F79A8B" stop-opacity="0.4"/>
<stop offset="0.6948" stop-color="#F79C8D" stop-opacity="0.2667"/>
<stop offset="0.7775" stop-color="#F8A494" stop-opacity="0.1945"/>
<stop offset="0.8434" stop-color="#F8B2A1" stop-opacity="0.1368"/>
<stop offset="0.9005" stop-color="#F9C5B2" stop-opacity="0.0869732"/>
<stop offset="0.9513" stop-color="#FADEC8" stop-opacity="0.0425343"/>
<stop offset="0.998" stop-color="#FCFCE4" stop-opacity="0.01"/>
<stop offset="1" stop-color="#FCFEE5" stop-opacity="0"/>
</linearGradient>
<linearGradient id="paint5_linear" x1="217.363" y1="176.75" x2="317.363" y2="176.75" gradientUnits="userSpaceOnUse">
<stop offset="0.4719" stop-color="#F79A8B"/>
<stop offset="0.5034" stop-color="#E98A91"/>
<stop offset="0.5493" stop-color="#DB7A97"/>
<stop offset="0.5842" stop-color="#D67499"/>
</linearGradient>
<linearGradient id="paint6_linear" x1="186.3" y1="199.119" x2="348.704" y2="199.119" gradientUnits="userSpaceOnUse">
<stop stop-color="#6FAC9C"/>
<stop offset="0.0149002" stop-color="#7FB6A4"/>
<stop offset="0.0507327" stop-color="#A1C9B6"/>
<stop offset="0.0847695" stop-color="#BAD7C3"/>
<stop offset="0.116" stop-color="#C9E0CA"/>
<stop offset="0.1416" stop-color="#CEE3CD"/>
<stop offset="0.6001" stop-color="#6FAC9C"/>
<stop offset="0.6304" stop-color="#66A89A"/>
<stop offset="0.7344" stop-color="#4E9D96"/>
<stop offset="0.8301" stop-color="#3F9693"/>
<stop offset="0.9088" stop-color="#3A9492"/>
</linearGradient>
<linearGradient id="paint7_linear" x1="186.309" y1="150.025" x2="348.701" y2="150.025" gradientUnits="userSpaceOnUse">
<stop stop-color="#6FAC9C"/>
<stop offset="0.0675063" stop-color="#66A89A"/>
<stop offset="0.2989" stop-color="#4E9D96"/>
<stop offset="0.5117" stop-color="#3F9693"/>
<stop offset="0.687" stop-color="#3A9492"/>
</linearGradient>
<linearGradient id="paint8_linear" x1="334.993" y1="222.009" x2="342.673" y2="208.707" gradientUnits="userSpaceOnUse">
<stop offset="0.309" stop-color="#3A9492"/>
<stop offset="0.3881" stop-color="#439995"/>
<stop offset="0.5154" stop-color="#5AA59F"/>
<stop offset="0.6742" stop-color="#81BAAE"/>
<stop offset="0.7967" stop-color="#A3CCBC"/>
<stop offset="0.9385" stop-color="#8ABFB2"/>
</linearGradient>
<linearGradient id="paint9_linear" x1="374.656" y1="249.256" x2="386.618" y2="228.538" gradientUnits="userSpaceOnUse">
<stop stop-color="#509F97"/>
<stop offset="0.1752" stop-color="#3B9694"/>
<stop offset="0.2596" stop-color="#469B96"/>
<stop offset="0.4079" stop-color="#6FAC9C"/>
<stop offset="0.7607" stop-color="#CEE3CD"/>
<stop offset="1" stop-color="#9AC5B2"/>
</linearGradient>
<linearGradient id="paint10_linear" x1="347.564" y1="233.2" x2="365.197" y2="215.566" gradientUnits="userSpaceOnUse">
<stop offset="0.2761" stop-color="#3A9492"/>
<stop offset="0.3504" stop-color="#3E9693"/>
<stop offset="0.4201" stop-color="#499C98"/>
<stop offset="0.4879" stop-color="#5CA6A0"/>
<stop offset="0.5546" stop-color="#77B4AA"/>
<stop offset="0.6204" stop-color="#99C7B8"/>
<stop offset="0.6848" stop-color="#C2DDC8"/>
<stop offset="0.7008" stop-color="#CEE3CD"/>
<stop offset="1" stop-color="#6FAC9C"/>
</linearGradient>
<linearGradient id="paint11_linear" x1="399.164" y1="262.7" x2="416.797" y2="245.066" gradientUnits="userSpaceOnUse">
<stop offset="0.2761" stop-color="#3A9492"/>
<stop offset="0.3504" stop-color="#3E9693"/>
<stop offset="0.4201" stop-color="#499C98"/>
<stop offset="0.4879" stop-color="#5CA6A0"/>
<stop offset="0.5546" stop-color="#77B4AA"/>
<stop offset="0.6204" stop-color="#99C7B8"/>
<stop offset="0.6848" stop-color="#C2DDC8"/>
<stop offset="0.7008" stop-color="#CEE3CD"/>
<stop offset="1" stop-color="#6FAC9C"/>
</linearGradient>
<linearGradient id="paint12_linear" x1="250.979" y1="65.8508" x2="285.098" y2="99.9693" gradientUnits="userSpaceOnUse">
<stop stop-color="#FCD8B6"/>
<stop offset="0.3051" stop-color="#FFC28F"/>
<stop offset="0.4577" stop-color="#FDB88E"/>
<stop offset="0.7192" stop-color="#F79C8B"/>
<stop offset="0.7384" stop-color="#F79A8B"/>
</linearGradient>
<clipPath id="clip0">
<rect width="488" height="292" fill="white"/>
</clipPath>
</defs>
</svg>
