<svg width="45" height="55" viewBox="0 0 45 55" fill="none" xmlns="http://www.w3.org/2000/svg">
<path d="M15.8049 48.1386H29.8537V49.4455L22.8293 53.4752L15.8049 49.4455V48.1386Z" fill="#CEE3CD"/>
<path d="M22.8293 52.1683L29.8537 48.1386V49.4455L22.8293 53.4752V52.1683Z" fill="#6FAC9C"/>
<path d="M22.8293 44.1089L29.8537 48.1386L22.8293 52.1683L15.8049 48.1386L22.8293 44.1089Z" fill="#FCFEE5"/>
<path d="M25.244 47.9208V20.3663L22.8293 21.7822V49.3366L25.244 47.9208Z" fill="#6FAC9C"/>
<path d="M20.3049 47.9208V20.3663L22.8293 21.7822V49.3366L20.3049 47.9208Z" fill="#CEE3CD"/>
<path d="M6.91467 5.22772L9.98784 3.59406L38.0854 19.7129L35.0122 21.3465L6.91467 5.22772Z" fill="#FCFEE5"/>
<path d="M6.91467 28.5347V5.22772L35.0122 21.3465V44.6535L6.91467 28.5347Z" fill="#CEE3CD"/>
<path d="M38.0854 43.1287V19.7129L35.0122 21.3465V44.6535L38.0854 43.1287Z" fill="#3A9492"/>
<path d="M7.79266 19.4951L34.5732 34.6337V42.9109L7.35364 28.3168L7.79266 19.4951Z" fill="#6FAC9C"/>
<path d="M7.2439 24.396C7.2439 24.396 11.0854 25.1584 14.1585 28.3168C17.2317 31.4752 30.8415 38.3366 34.0244 35.8317V44L7.68292 28.5346L7.2439 24.396Z" fill="#FCFEE5"/>
<path d="M29.6342 33.2178C29.744 33.2178 29.744 33.2178 29.8537 33.3267C29.8537 33.5445 29.744 33.7624 29.744 33.9802C29.8537 33.9802 29.8537 33.9802 29.9635 34.0891C29.9635 34.3069 29.8537 34.5247 29.8537 34.7426C29.9635 34.7426 29.9635 34.8515 30.0732 34.8515C30.0732 35.0693 29.9635 35.2871 29.9635 35.5049C29.9635 35.5049 30.0732 35.6138 30.183 35.6138C30.0732 35.8317 30.0732 36.0495 30.0732 36.2673C30.183 36.2673 30.183 36.2673 30.183 36.3762C30.0732 36.594 30.0732 36.8119 29.9635 37.0297L30.0732 37.1386C29.9635 37.3564 29.9635 37.5742 29.8537 37.6831L29.9635 37.7921C29.8537 38.0099 29.8537 38.1188 29.744 38.3366L29.8537 38.4455C29.744 38.5544 29.744 38.6634 29.6342 38.8812C29.6342 38.8812 29.6342 38.8812 29.5245 38.8812C29.0854 38.6634 28.6464 38.3366 28.2074 38.1188C28.2074 37.901 28.2074 37.5742 28.0976 37.3564C28.2074 37.4653 28.2074 37.4653 28.3171 37.5742C28.3171 37.3564 28.2074 37.0297 28.2074 36.8119C28.3171 36.9208 28.3171 36.9208 28.4269 37.0297C28.4269 36.8119 28.3171 36.4851 28.3171 36.2673C28.4269 36.3762 28.4269 36.3762 28.5367 36.3762C28.5367 36.1584 28.4269 35.8317 28.4269 35.6138C28.5367 35.6138 28.5367 35.7228 28.6464 35.7228C28.6464 35.5049 28.5367 35.1782 28.5367 34.9604C28.6464 34.9604 28.6464 35.0693 28.7562 35.0693C28.7562 34.8515 28.6464 34.5247 28.6464 34.3069C28.6464 34.3069 28.7562 34.3069 28.7562 34.4158C28.6464 34.198 28.6464 33.8713 28.5367 33.6534C28.6464 33.6534 28.6464 33.7624 28.6464 33.7624C28.5367 33.5445 28.5367 33.2178 28.4269 33H28.5367C28.4269 32.7822 28.4269 32.4554 28.3171 32.2376H28.4269C28.3171 32.0198 28.3171 31.6931 28.2074 31.4752H28.3171C28.2074 31.2574 28.0976 30.9307 28.0976 30.7129C28.0976 30.7129 28.0976 30.7129 28.2074 30.7129C28.0976 30.495 27.9879 30.2772 27.9879 30.0594V29.9505C27.8781 29.7327 27.7684 29.5148 27.6586 29.297V29.1881C27.5488 28.9703 27.4391 28.6435 27.3293 28.4257C27.3293 28.4257 27.3293 28.4257 27.4391 28.4257C27.3293 28.2079 27.2196 27.8812 27.0001 27.6633H27.1098C27.0001 27.4455 26.7806 27.1188 26.6708 26.901H26.7806C26.6708 26.7921 26.6708 26.6832 26.561 26.5742C26.122 27.0099 25.9025 28.099 26.7806 29.7327C26.561 29.4059 26.3415 29.0792 26.0123 28.7525C26.2318 29.6237 26.6708 30.495 27.2196 31.2574C26.8903 30.9307 26.6708 30.6039 26.3415 30.3861C26.6708 31.0396 27.0001 31.5841 27.4391 32.1287C27.3293 32.0198 27.2196 32.0198 27.1098 31.9109C26.4513 31.3663 25.7928 30.8218 25.244 30.0594C24.8049 29.4059 24.3659 28.7525 24.2562 28.099C24.1464 27.5544 24.2562 27.1188 24.5854 26.7921C24.5854 26.7921 24.6952 26.6832 24.6952 26.5742C24.5854 26.5742 24.4757 26.6832 24.4757 26.6832C24.3659 26.7921 24.3659 26.7921 24.2562 26.901C24.1464 27.0099 24.1464 27.1188 24.0367 27.1188C24.0367 26.7921 24.0367 26.4653 24.2562 26.1386C24.3659 25.9208 24.5854 25.703 24.9147 25.594C25.1342 25.4851 25.4635 25.4851 25.7928 25.4851C24.8049 25.2673 24.0367 25.594 23.7074 26.3564C23.7074 26.1386 23.8171 25.8119 23.8171 25.594C23.2684 25.9208 22.9391 26.3564 22.8293 27.1188C22.8293 26.7921 22.7196 26.4653 22.7196 26.1386C22.5001 26.4653 22.2806 26.901 22.2806 27.4455C21.2927 25.2673 21.8415 23.0891 24.2562 24.0693C24.1464 23.9604 24.0367 23.9604 23.9269 23.8515C23.8171 23.7426 23.7074 23.7426 23.4879 23.7426C23.3781 23.7426 23.2684 23.6336 23.1586 23.6336C23.2684 23.5247 23.7074 23.5247 24.0367 23.6336C24.3659 23.7426 24.6952 23.8515 25.1342 24.0693C25.4635 24.2871 25.9025 24.5049 26.2318 24.8317C25.683 24.0693 24.8049 23.4158 23.8171 23.0891C24.0367 23.0891 24.1464 23.0891 24.3659 23.0891C23.7074 22.6534 23.1586 22.4356 22.6098 22.4356C22.7196 22.3267 22.8293 22.2178 23.0488 22.2178C22.6098 22.1089 22.2806 22 21.9513 22C21.9513 22 21.9513 22 21.9513 21.8911C22.1708 20.802 23.2684 20.802 24.3659 21.7822C24.5854 22 24.8049 22.2178 25.0245 22.4356C25.244 22.6534 25.3537 22.8713 25.5732 23.0891C25.3537 22.7624 25.0245 22.3267 24.6952 22C25.3537 22.5445 25.9025 23.198 26.4513 23.9604C26.4513 23.5247 26.561 23.198 26.6708 22.8713C26.6708 23.198 26.6708 23.4158 26.6708 23.7426C26.6708 23.5247 26.7806 23.3069 26.7806 23.0891C26.8903 22.6534 27.1098 22.4356 27.5488 22.4356C28.0976 22.3267 28.7562 22.7624 29.4147 23.4158C29.0854 23.3069 28.7562 23.3069 28.5367 23.4158C28.7562 23.5247 28.8659 23.6336 29.0854 23.7426C28.5367 23.6336 28.2074 23.8515 27.8781 24.0693C28.0976 24.0693 28.2074 24.1782 28.4269 24.1782C27.7684 24.2871 27.4391 24.7228 27.3293 25.3762C27.6586 24.6138 28.4269 24.5049 29.3049 24.8317C29.0854 24.9406 28.8659 24.9406 28.5367 25.0495C28.5367 25.0495 28.5367 25.0495 28.5367 25.1584C29.3049 24.9406 30.2928 25.2673 31.2806 26.2475C31.9391 26.901 32.4879 27.7723 32.8171 28.6435C32.3781 28.2079 32.0488 27.7723 31.6098 27.4455C31.6098 27.4455 31.6098 27.4455 31.6098 27.3366C31.8293 27.6634 31.9391 27.8812 32.1586 28.2079C31.5001 27.5544 30.8415 27.0099 30.183 26.5742C30.4025 26.7921 30.622 27.1188 30.8415 27.3366C29.9635 26.5742 29.0854 26.1386 28.2074 26.2475C29.1952 26.4653 30.0732 27.0099 30.8415 28.099C30.5123 27.8812 30.183 27.6634 29.8537 27.3366C29.9635 27.4455 30.0732 27.4455 30.183 27.5544C30.2928 27.6633 30.4025 27.7723 30.5123 27.8812C31.1708 28.5346 31.5001 29.297 31.6098 30.0594C31.6098 30.8218 31.3903 31.3663 30.9513 31.6931L30.8415 31.802C30.8415 31.802 30.8415 31.802 30.7318 31.802C30.7318 31.3663 30.7318 30.9307 30.622 30.3861C30.5123 30.6039 30.4025 30.8218 30.4025 31.0396C30.4025 30.3861 30.2928 29.7327 29.8537 28.9703C29.8537 29.1881 29.8537 29.5148 29.8537 29.7327C29.744 29.1881 29.5245 28.5346 29.1952 27.9901C28.7562 27.4455 28.3171 26.901 27.7684 26.5742C27.7684 26.6832 27.8781 26.901 27.8781 27.0099C27.9879 27.0099 27.9879 27.0099 28.0976 27.0099C28.2074 27.3366 28.2074 27.5544 28.3171 27.8812C28.4269 27.8812 28.4269 27.8812 28.5367 27.8812C28.5367 28.2079 28.6464 28.4257 28.6464 28.7525C28.7562 28.7525 28.7562 28.7525 28.8659 28.7525C28.8659 29.0792 28.9757 29.297 28.9757 29.6237C29.0854 29.6237 29.0854 29.6237 29.1952 29.6237C29.1952 29.8416 29.1952 30.1683 29.3049 30.3861C29.4147 30.3861 29.4147 30.3861 29.5245 30.3861C29.5245 30.6039 29.5245 30.9307 29.5245 31.1485C29.6342 31.1485 29.6342 31.1485 29.744 31.2574C29.744 31.4752 29.744 31.802 29.744 32.0198C29.8537 32.0198 29.8537 32.0198 29.9635 32.1287C29.9635 32.3465 29.9635 32.6733 29.9635 32.8911C30.0732 32.8911 30.0732 32.8911 30.183 33C29.744 32.7822 29.744 33 29.6342 33.2178Z" fill="#3A9492"/>
<path d="M14.0488 13.396C12.8414 12.7426 11.8536 13.2871 11.8536 14.703C11.8536 16.1188 12.8414 17.8614 14.0488 18.5148C15.2561 19.1683 16.2439 18.6237 16.2439 17.2079C16.2439 15.7921 15.2561 14.0495 14.0488 13.396Z" fill="#FCFEE5"/>
<path d="M7.35364 14.1584L10.3171 19.495H12.1829L13.3902 21.5644L17.2317 21.3465L20.9634 27.0099L7.79266 19.495L7.35364 14.1584Z" fill="#3A9492"/>
<path d="M8.01223 7.07921L33.9147 21.8911V42.6931L8.01223 27.9901V7.07921ZM6.91467 5.22772V28.5347L35.0122 44.6535V21.3465L6.91467 5.22772Z" fill="#6FAC9C"/>
</svg>
