<svg width="22" height="24" viewBox="0 0 22 24" fill="none" xmlns="http://www.w3.org/2000/svg">
<path d="M21.2711 7.01442L17.3511 3.16827C17.1682 2.9877 16.9197 2.88569 16.6602 2.88462H10.7802V0.961538C10.7802 0.706523 10.677 0.461952 10.4932 0.281628C10.3094 0.101305 10.0602 0 9.80024 0C9.54033 0 9.29106 0.101305 9.10727 0.281628C8.92349 0.461952 8.82024 0.706523 8.82024 0.961538V2.88462H0.980237C0.786482 2.88422 0.596956 2.94018 0.435609 3.04544C0.274261 3.15069 0.148332 3.30051 0.0737366 3.47596C-8.85534e-05 3.65198 -0.019009 3.84554 0.0193718 4.03211C0.0577527 4.21869 0.151708 4.38989 0.289337 4.52404L3.51354 7.69231L0.289337 10.8606C0.151708 10.9947 0.0577527 11.1659 0.0193718 11.3525C-0.019009 11.5391 -8.85534e-05 11.7326 0.0737366 11.9087C0.148332 12.0841 0.274261 12.2339 0.435609 12.3392C0.596956 12.4444 0.786482 12.5004 0.980237 12.5H8.82024V17.3077H7.84024C7.0605 17.3077 6.3127 17.6116 5.76134 18.1526C5.20999 18.6935 4.90024 19.4273 4.90024 20.1923V22.1154C4.90024 22.3704 5.00349 22.615 5.18727 22.7953C5.37106 22.9756 5.62033 23.0769 5.88024 23.0769H13.7202C13.9802 23.0769 14.2294 22.9756 14.4132 22.7953C14.597 22.615 14.7002 22.3704 14.7002 22.1154V20.1923C14.7002 19.4273 14.3905 18.6935 13.8391 18.1526C13.2878 17.6116 12.54 17.3077 11.7602 17.3077H10.7802V12.5H16.6602C16.9197 12.4989 17.1682 12.3969 17.3511 12.2163L21.2711 8.37019C21.4537 8.19003 21.5561 7.94633 21.5561 7.69231C21.5561 7.43828 21.4537 7.19458 21.2711 7.01442ZM12.7402 20.1923V21.1538H6.86024V20.1923C6.86024 19.9373 6.96349 19.6927 7.14727 19.5124C7.33106 19.3321 7.58033 19.2308 7.84024 19.2308H11.7602C12.0202 19.2308 12.2694 19.3321 12.4532 19.5124C12.637 19.6927 12.7402 19.9373 12.7402 20.1923ZM16.2535 10.5769H3.34694L5.59114 8.37019C5.77366 8.19003 5.87611 7.94633 5.87611 7.69231C5.87611 7.43828 5.77366 7.19458 5.59114 7.01442L3.34694 4.80769H16.2535L19.1935 7.69231L16.2535 10.5769Z" fill="#5E666A"/>
</svg>
