<svg width="80" height="84" viewBox="0 0 80 84" fill="none" xmlns="http://www.w3.org/2000/svg">
<path d="M71.0124 43.7233L79.4463 63.5192L42.3793 61.7407L52.1192 46.3303L53.3035 38.1447L71.0124 43.7233Z" fill="#FCFEE5" stroke="#CEE3CD" stroke-linecap="round" stroke-linejoin="round"/>
<path d="M42.3792 61.7406L42.999 53.9195L52.1191 46.3303L42.3792 61.7406Z" fill="#6FAC9C" stroke="#6FAC9C" stroke-linecap="round" stroke-linejoin="round"/>
<path d="M20.5205 38.1447L6.7297 42.5302L4.11764 58.3051L15.0861 59.6086L11.2455 45.2588L20.5205 38.1447Z" fill="#FCFEE5" stroke="#CEE3CD" stroke-linecap="round" stroke-linejoin="round"/>
<path d="M28.2344 27.9485L1.2615 8.61658L0.553141 20.1163L4.23881 31.5056L2.3351 32.9306L4.71474 34.4661L2.81103 35.8912L4.94716 37.9017L3.51938 39.0947L6.72912 42.5303L20.5199 38.1447L28.2344 27.9485Z" fill="#6FAC9C" stroke="#6FAC9C" stroke-linecap="round" stroke-linejoin="round"/>
<path d="M67.9249 0.552368L38.683 27.9485L53.3039 38.1447L71.0128 43.7233L74.5768 38.4982L72.7948 37.1947L75.8828 34.8196L73.9791 32.8091L76.4805 30.434L75.0527 29.009L75.761 13.9522L67.9249 0.552368Z" fill="#6FAC9C" stroke="#6FAC9C" stroke-linecap="round" stroke-linejoin="round"/>
<path d="M28.8984 15.2557L1.26146 8.61658L28.2344 27.9485L28.8984 15.2557Z" fill="#CEE3CD" stroke="#CEE3CD" stroke-linecap="round" stroke-linejoin="round"/>
<path d="M48.4339 13.4771L38.683 27.9485L67.9248 0.552368L48.4339 13.4771Z" fill="#CEE3CD" stroke="#CEE3CD" stroke-linecap="round" stroke-linejoin="round"/>
<path d="M28.8985 15.2557L48.4336 13.4772L38.6826 27.9485L32.6948 46.8054L30.1381 52.848L20.6306 67.0763L12.075 66.4908L22.0584 52.2515L28.2344 27.9485L28.8985 15.2557Z" fill="#FCFEE5" stroke="#CEE3CD" stroke-linecap="round" stroke-linejoin="round"/>
<path d="M53.3037 38.1447L52.1194 46.3304L32.695 46.8054L38.6828 27.9485L53.3037 38.1447Z" fill="#CEE3CD" stroke="#CEE3CD" stroke-linecap="round" stroke-linejoin="round"/>
<path d="M23.4419 46.8054L11.2449 45.2589L20.5199 38.1447L28.2344 27.9485L23.4419 46.8054Z" fill="#CEE3CD" stroke="#CEE3CD" stroke-linecap="round" stroke-linejoin="round"/>
<path d="M20.0666 55.1015L15.086 52.3729L11.2454 45.2588L23.4424 46.8053L22.0589 52.2514L20.0666 55.1015Z" fill="#93C1AF" stroke="#93C1AF" stroke-linecap="round" stroke-linejoin="round"/>
<path d="M52.1191 46.3303L42.9991 53.9195L33.4694 56.0515L32.6947 46.8053L52.1191 46.3303Z" fill="#93C1AF" stroke="#93C1AF" stroke-linecap="round" stroke-linejoin="round"/>
<path d="M33.4697 56.0516L20.6308 67.0763L30.1382 52.848L32.695 46.8054L33.4697 56.0516Z" fill="#6FAC9C" stroke="#6FAC9C" stroke-linecap="round" stroke-linejoin="round"/>
<path d="M42.999 53.9196L36.7898 50.1747L33.4694 56.0516L42.999 53.9196Z" fill="#3A9492" stroke="#3A9492" stroke-linecap="round" stroke-linejoin="round"/>
<path d="M42.3792 61.7407L22.18 68.3798L20.6305 67.0763L33.4694 56.0516L42.999 53.9196L42.3792 61.7407Z" fill="#FCFEE5" stroke="#FCFEE5" stroke-linecap="round" stroke-linejoin="round"/>
<path d="M79.4463 63.5192L74.1004 83.4477L48.4336 75.1405L54.6206 62.3262L79.4463 63.5192Z" fill="#CEE3CD" stroke="#CEE3CD" stroke-linecap="round" stroke-linejoin="round"/>
<path d="M42.3798 61.7407L48.434 75.1405L54.6211 62.3262L42.3798 61.7407Z" fill="#6FAC9C" stroke="#6FAC9C" stroke-linecap="round" stroke-linejoin="round"/>
<path d="M22.1801 68.3799L42.3794 61.7407L48.4336 75.1405L22.1801 68.3799Z" fill="#CEE3CD" stroke="#CEE3CD" stroke-linecap="round" stroke-linejoin="round"/>
<path d="M15.0858 59.6086L12.0753 66.4908L20.0664 55.1015L15.0858 52.3729V59.6086Z" fill="#FCFEE5" stroke="#FCFEE5" stroke-linecap="round" stroke-linejoin="round"/>
<path d="M4.11749 58.3051L9.10918 75.1404L11.2453 74.0799L9.46336 68.3798L12.0754 66.4907L15.0859 59.6086L4.11749 58.3051Z" fill="#CEE3CD" stroke="#CEE3CD" stroke-linecap="round" stroke-linejoin="round"/>
<path d="M13.1601 64.0053L9.46336 58.9348L15.0859 59.6087L13.1601 64.0053Z" fill="#6FAC9C" stroke="#6FAC9C" stroke-linecap="round" stroke-linejoin="round"/>
<path d="M48.4336 75.1404L42.3794 77.869L24.3163 81.3046L14.3993 79.6476L11.2449 74.08L21.1176 74.5439L23.4419 75.1404L25.5006 77.6923L48.4336 75.1404Z" fill="#93C1AF" stroke="#93C1AF" stroke-linecap="round" stroke-linejoin="round"/>
<path d="M22.1801 68.3798L48.4336 75.1404L25.5005 77.6922L23.4419 75.1404L22.1801 68.3798Z" fill="#FCFEE5" stroke="#FCFEE5" stroke-linecap="round" stroke-linejoin="round"/>
<path d="M15.0859 52.3729V59.6086L11.2453 45.2588L15.0859 52.3729Z" fill="#6FAC9C" stroke="#6FAC9C" stroke-linecap="round" stroke-linejoin="round"/>
<path d="M20.6312 50.1747L15.0861 52.373L20.0667 55.1016L21.1182 53.5992L20.6312 50.1747Z" fill="#3A9492" stroke="#3A9492" stroke-linecap="round" stroke-linejoin="round"/>
<path d="M23.4424 75.1404L22.1806 68.3797L20.6311 67.0762L12.0755 66.4907L9.46341 68.3797L11.2454 74.0799L21.1181 74.5439L23.4424 75.1404Z" fill="#3A9492" stroke="#3A9492" stroke-linecap="round" stroke-linejoin="round"/>
</svg>
