<svg width="90" height="90" viewBox="0 0 90 90" fill="none" xmlns="http://www.w3.org/2000/svg">
<path d="M20.6002 0.199951C21.0002 0.199951 21.4002 0.299951 21.9002 0.599951L80.6002 34.4C82.6002 35.5 84.2002 38.3999 84.2002 40.5999V86C84.2002 86.4 84.1002 87.3999 83.6002 87.7C83.4002 87.7999 80.5002 89.5 80.5002 89.5C80.1002 89.5 23.1002 53.5999 23.1002 53.5999C21.1002 52.5 19.5002 49.6 19.5002 47.4L17.2002 2.09995L20.0002 0.499951C20.2002 0.299951 20.3002 0.199951 20.6002 0.199951Z" fill="url(#paint0_linear)"/>
<path d="M79.7002 89.8C79.2002 89.8 78.7002 89.6 78.1002 89.3L20.1002 55.9C18.0002 54.7 16.2002 51.6 16.2002 49.2V4.30002C16.2002 2.80002 16.8002 1.90002 17.9002 1.90002C18.4002 1.90002 18.9002 2.10002 19.5002 2.40002L77.5002 35.8C79.6002 37 81.4002 40.1 81.4002 42.5V87.4C81.4002 88.9 80.8002 89.8 79.7002 89.8Z" fill="#FCFEE5"/>
<path d="M18 2.5C18.4 2.5 18.8 2.6 19.3 2.9L77.3 36.3C79.2 37.4 80.9 40.2 80.9 42.5V87.4C80.9 87.9 80.8 89.2 79.8 89.2C79.4 89.2 79 89.1 78.5 88.8L20.5 55.4C18.6 54.3 16.9 51.5 16.9 49.2V4.3C16.8 3.7 16.9 2.5 18 2.5Z" fill="#FCFEE5"/>
<path d="M79.3998 44.9C79.8998 45.2 80.3998 45.6 80.7998 46V42.4C80.7998 40.2 79.1998 37.3 77.1998 36.2L19.1998 2.80002C18.6998 2.50002 18.2998 2.40002 17.8998 2.40002C16.8998 2.40002 16.7998 3.60002 16.7998 4.20002V8.80002L79.3998 44.9Z" fill="#3A9492"/>
<path d="M27.2004 12.4001C27.6004 12.7001 28.0004 12.4001 28.0004 11.9001C28.0004 11.4001 27.6004 10.8001 27.2004 10.5001C26.8004 10.2001 26.4004 10.5001 26.4004 11.0001C26.4004 11.5001 26.8004 12.1001 27.2004 12.4001Z" fill="#CEE3CD"/>
<path d="M23.8 10.4C24.2 10.7 24.6 10.4 24.6 9.89998C24.6 9.39998 24.2 8.79998 23.8 8.49998C23.4 8.29998 23 8.49998 23 8.99998C23 9.49998 23.4 10.1 23.8 10.4Z" fill="#CEE3CD"/>
<path d="M20.5002 8.50004C20.9002 8.80004 21.3002 8.50004 21.3002 8.00004C21.3002 7.50004 20.9002 6.90004 20.5002 6.60004C20.1002 6.30004 19.7002 6.60004 19.7002 7.10004C19.7002 7.60004 20.0002 8.20004 20.5002 8.50004Z" fill="#CEE3CD"/>
<path d="M22.5 17.9L56.5 37.7V58L22.6 38.3L22.5 17.9Z" fill="#93C1AF"/>
<path d="M59.7998 39.6L74.5998 48.1L74.4998 56.6L59.7998 48.1V39.6Z" fill="#93C1AF"/>
<path d="M59.9004 51.3L74.6004 59.8V68.3001L59.9004 59.8V51.3Z" fill="#93C1AF"/>
<path d="M59.9004 63.4L74.6004 71.9V80.4L59.9004 71.9V63.4Z" fill="#93C1AF"/>
<path d="M22.7998 42.2001L56.3998 61.6001V63.8001L22.8998 44.4001L22.7998 42.2001Z" fill="#93C1AF"/>
<path d="M23 46.3L56.5 65.7V67.9001L23 48.6V46.3Z" fill="#93C1AF"/>
<path d="M23.0996 50.4L44.0996 62.6V64.7L23.0996 52.6V50.4Z" fill="#93C1AF"/>
<path d="M18.2002 2.40002C18.6002 2.40002 19.0002 2.50002 19.5002 2.80002L77.5002 36.2C79.4002 37.3 81.1002 40.1 81.1002 42.4V87.3C81.1002 87.8 81.0002 89.1 80.0002 89.1C79.6002 89.1 79.2002 89 78.7002 88.7L20.7002 55.3C18.8002 54.2 17.1002 51.4 17.1002 49.1V4.20002C17.0002 3.60002 17.2002 2.40002 18.2002 2.40002Z" stroke="#CEE3CD" stroke-miterlimit="10"/>
<path d="M41.2002 84.5H14.0002C11.3002 84.5 9.2002 82.2999 9.2002 79.6999V42C9.2002 39.3 11.4002 37.2 14.0002 37.2H36.2002L46.0002 48V79.6999C46.0002 82.3999 43.8002 84.5 41.2002 84.5Z" fill="url(#paint1_linear)" stroke="#3A9492" stroke-miterlimit="10"/>
<path d="M46.1998 48.1H41.0998C38.3998 48.1 36.2998 45.9 36.2998 43.3V37.6" stroke="#3A9492" stroke-miterlimit="10"/>
<path d="M15.5996 48.6H30.4996" stroke="#3A9492" stroke-miterlimit="10"/>
<path d="M15.5996 53.9H39.4996" stroke="#3A9492" stroke-miterlimit="10"/>
<path d="M15.5996 59.2H39.5996" stroke="#3A9492" stroke-miterlimit="10"/>
<path d="M35.7 75.9C35.7 77.6 34.4 78.9 32.7 78.9H8.5C6.9 78.9 5.5 77.6 5.5 75.9V67.1C5.5 65.4 6.8 64.1 8.5 64.1H32.7C34.4 64.1 35.7 65.4 35.7 67.1V75.9Z" fill="#3A9492"/>
<path d="M11.5002 75.7H8.7002V67H11.6002C12.5002 67 13.2002 67.2 13.8002 67.5C14.4002 67.8 14.9002 68.3 15.2002 69C15.5002 69.6 15.7002 70.4 15.7002 71.3C15.7002 72.2 15.5002 73 15.2002 73.6C14.9002 74.3 14.4002 74.8 13.8002 75.1C13.2002 75.4 12.4002 75.7 11.5002 75.7ZM10.0002 74.6H11.4002C12.4002 74.6 13.1002 74.3 13.6002 73.8C14.1002 73.2 14.3002 72.4 14.3002 71.4C14.3002 70.4 14.1002 69.6 13.6002 69C13.1002 68.4 12.4002 68.2 11.4002 68.2H10.0002V74.6Z" fill="#FCFEE5"/>
<path d="M24.4004 67V75.7H23.2004L18.8004 69.3H18.7004V75.7H17.4004V67H18.6004L23.0004 73.4H23.1004V67H24.4004Z" fill="#FCFEE5"/>
<path d="M31.1006 69.3C31.1006 68.9 30.9006 68.6 30.5006 68.4C30.2006 68.2 29.8006 68.1 29.3006 68.1C28.8006 68.1 28.3006 68.2 28.0006 68.5C27.7006 68.7 27.5006 69.1 27.5006 69.4C27.5006 69.7 27.6006 69.9 27.8006 70.1C28.0006 70.3 28.2006 70.4 28.4006 70.5C28.6006 70.6 28.9006 70.7 29.1006 70.7L30.0006 70.9C30.3006 71 30.6006 71.1 30.9006 71.2C31.2006 71.3 31.5006 71.5 31.7006 71.7C31.9006 71.9 32.2006 72.1 32.3006 72.4C32.4006 72.7 32.5006 73 32.5006 73.4C32.5006 73.9 32.4006 74.3 32.1006 74.7C31.8006 75.1 31.5006 75.4 31.0006 75.6C30.5006 75.8 29.9006 75.9 29.3006 75.9C28.3006 75.9 27.5006 75.7 27.0006 75.2C26.4006 74.7 26.1006 74.1 26.1006 73.3H27.4006C27.4006 73.8 27.6006 74.1 28.0006 74.4C28.4006 74.6 28.8006 74.7 29.3006 74.7C29.9006 74.7 30.3006 74.6 30.7006 74.3C31.1006 74 31.2006 73.7 31.2006 73.3C31.2006 73 31.1006 72.8 31.0006 72.7C30.9006 72.6 30.7006 72.4 30.4006 72.3C30.1006 72.2 29.9006 72.1 29.6006 72L28.6006 71.7C27.9006 71.5 27.3006 71.2 26.9006 70.9C26.5006 70.6 26.3006 70 26.3006 69.4C26.3006 68.9 26.4006 68.5 26.7006 68.1C27.0006 67.7 27.3006 67.4 27.8006 67.2C28.3006 67 28.8006 66.9 29.4006 66.9C30.0006 66.9 30.5006 67 31.0006 67.2C31.5006 67.4 31.8006 67.7 32.1006 68.1C32.4006 68.5 32.5006 68.9 32.5006 69.3H31.1006Z" fill="#FCFEE5"/>
<defs>
<linearGradient id="paint0_linear" x1="24.6996" y1="-2.91435" x2="78.7524" y2="90.7079" gradientUnits="userSpaceOnUse">
<stop stop-color="#93C1AF"/>
<stop offset="0.5364" stop-color="#93C1AF"/>
<stop offset="0.5883" stop-color="#CEE3CD"/>
<stop offset="0.6065" stop-color="#B0D3C1"/>
<stop offset="0.6303" stop-color="#91C2B5"/>
<stop offset="0.6573" stop-color="#75B4AA"/>
<stop offset="0.6877" stop-color="#5FA8A1"/>
<stop offset="0.7233" stop-color="#4E9F9A"/>
<stop offset="0.7672" stop-color="#439995"/>
<stop offset="0.8288" stop-color="#3C9593"/>
<stop offset="1" stop-color="#3A9492"/>
</linearGradient>
<linearGradient id="paint1_linear" x1="27.5869" y1="84.5442" x2="27.5869" y2="37.1933" gradientUnits="userSpaceOnUse">
<stop stop-color="#6FAC9C"/>
<stop offset="0.4228" stop-color="#CEE3CD"/>
<stop offset="1" stop-color="#FCFEE5"/>
</linearGradient>
</defs>
</svg>
