<svg width="28" height="28" viewBox="0 0 28 28" fill="none" xmlns="http://www.w3.org/2000/svg">
<path fill-rule="evenodd" clip-rule="evenodd" d="M13.2045 28C5.56818 24.5981 1.75 21.2042 1.75 17.8182V5.09091C1.75 3.81818 2.38636 3.81818 4.29545 2.54545C4.50137 2.40818 8.83045 0 13.2045 0C17.0167 0 20.2045 1.27273 22.1136 2.54545C24.0227 3.81818 24.6591 3.81818 24.6591 5.09091C24.6927 5.46167 24.6591 15.9091 24.6591 17.8182C24.6591 21.2121 20.8409 24.6061 13.2045 28Z" fill="#FFB36B"/>
<path fill-rule="evenodd" clip-rule="evenodd" d="M19.25 10.1684L13.2425 17.5L8.75 13.8448L10.4659 12.078L12.8605 14.0263L17.1838 8.75L19.25 10.1684Z" fill="white"/>
</svg>
