<svg width="544" height="346" viewBox="0 0 544 346" fill="none" xmlns="http://www.w3.org/2000/svg">
<g clip-path="url(#clip0)">
<path d="M436.17 40.534L-20.5371 304.259" stroke="url(#paint0_linear)" stroke-miterlimit="10"/>
<path d="M522.17 126.52L318.199 244.306" stroke="url(#paint1_linear)" stroke-miterlimit="10"/>
<path d="M228.976 25.6942L25.0059 143.48" stroke="url(#paint2_linear)" stroke-miterlimit="10"/>
<path d="M-11.0371 54.1866L436.171 312.4" stroke="url(#paint3_linear)" stroke-miterlimit="10"/>
<path d="M84.2891 243.798L199.632 309.432" stroke="url(#paint4_linear)" stroke-miterlimit="10"/>
<path d="M333.041 116.938L522.424 226.244" stroke="url(#paint5_linear)" stroke-miterlimit="10"/>
<g filter="url(#filter0_dd)">
<path d="M129 36C129 31.5817 132.582 28 137 28H385C389.418 28 393 31.5817 393 36V307C393 311.418 389.418 315 385 315H137C132.582 315 129 311.418 129 307V36Z" fill="white"/>
</g>
<line x1="129" y1="276.5" x2="393" y2="276.5" stroke="#EFEFEF"/>
<rect x="140" y="218" width="142" height="12" fill="#E9EAED"/>
<rect x="140" y="291" width="142" height="12" fill="#E9EAED"/>
<rect x="140" y="191" width="96" height="12" fill="#E9EAED"/>
<rect x="140" y="237" width="65" height="12" fill="#E9EAED"/>
<rect x="141" y="40" width="240" height="100" rx="4" fill="#FBF3E9"/>
<g clip-path="url(#clip1)">
<path d="M361.6 46.1L205.1 136.4" stroke="url(#paint6_linear)" stroke-miterlimit="10"/>
<path d="M240.9 46.1L152.5 97.2" stroke="url(#paint7_linear)" stroke-miterlimit="10"/>
<path d="M287.199 46.1L375.699 97.2" stroke="url(#paint8_linear)" stroke-miterlimit="10"/>
<path d="M175.301 50L322.501 135" stroke="url(#paint9_linear)" stroke-miterlimit="10"/>
<path d="M224.5 106.7C222.6 105.6 221.6 104.1 221.6 102.6C221.6 101.1 221.6 100.5 221.6 100.5L257.8 79.5C261.7 77.3 268 77.3 271.9 79.5L307.7 100.5C307.7 100.5 307.7 101 307.7 102.5C307.7 104 306.8 105.5 304.8 106.7L271.7 125.8C267.8 128 261.5 128 257.6 125.8L224.5 106.7Z" fill="url(#paint10_linear)"/>
<path d="M224.499 105C220.599 102.8 220.599 99.1 224.499 96.9L257.799 77.9C261.699 75.7 267.999 75.7 271.899 77.9L304.799 96.9C308.699 99.1 308.699 102.8 304.799 105L271.699 124.1C267.799 126.3 261.499 126.3 257.599 124.1L224.499 105Z" fill="#FCFEE5"/>
<path d="M274.4 111.4L280 114.6L295.2 105.8V70.8C289.2 67.4 240 67.4 234.1 70.8V105.9L249.4 114.7L255.1 111.4C261.1 108 268.5 108 274.4 111.4Z" fill="#F79A8B"/>
<path d="M249.4 79.6L234.1 70.8V105.8L249.4 114.7V79.6Z" fill="#FCD8B6"/>
<path d="M280 79.6V114.6L295.2 105.8V70.8L280 79.6Z" fill="#D67499"/>
<path d="M292.9 106.8V72" stroke="#B24761" stroke-width="0.5" stroke-miterlimit="10" stroke-linecap="round"/>
<path d="M290.4 108.3V73.5" stroke="#B24761" stroke-width="0.5" stroke-miterlimit="10" stroke-linecap="round"/>
<path d="M287.801 109.8V75.1" stroke="#B24761" stroke-width="0.5" stroke-miterlimit="10" stroke-linecap="round"/>
<path d="M285.199 111.3V76.6" stroke="#B24761" stroke-width="0.5" stroke-miterlimit="10" stroke-linecap="round"/>
<path d="M282.6 112.8V78.1" stroke="#B24761" stroke-width="0.5" stroke-miterlimit="10" stroke-linecap="round"/>
<path d="M280 114.4V79.6" stroke="#B24761" stroke-width="0.5" stroke-miterlimit="10" stroke-linecap="round"/>
<path d="M236.299 106.7V71.7" stroke="#F79A8B" stroke-width="0.5" stroke-miterlimit="10" stroke-linecap="round"/>
<path d="M238.898 108.3V73.2" stroke="#F79A8B" stroke-width="0.5" stroke-miterlimit="10" stroke-linecap="round"/>
<path d="M241.498 109.8V74.8" stroke="#F79A8B" stroke-width="0.5" stroke-miterlimit="10" stroke-linecap="round"/>
<path d="M244.2 111.3L244.1 76.4" stroke="#F79A8B" stroke-width="0.5" stroke-miterlimit="10" stroke-linecap="round"/>
<path d="M246.799 112.9V78" stroke="#F79A8B" stroke-width="0.5" stroke-miterlimit="10" stroke-linecap="round"/>
<path d="M249.398 114.4V79.6" stroke="#F79A8B" stroke-width="0.5" stroke-miterlimit="10" stroke-linecap="round"/>
<path d="M258.498 109.7V74.8" stroke="#D67499" stroke-width="0.5" stroke-miterlimit="10"/>
<path d="M260.898 109.2V74.3" stroke="#D67499" stroke-width="0.5" stroke-miterlimit="10"/>
<path d="M263.199 108.9V73.8" stroke="#D67499" stroke-width="0.5" stroke-miterlimit="10"/>
<path d="M265.498 108.9V73.8" stroke="#D67499" stroke-width="0.5" stroke-miterlimit="10"/>
<path d="M267.898 109.2V74" stroke="#D67499" stroke-width="0.5" stroke-miterlimit="10"/>
<path d="M270.199 109.6V74.6" stroke="#D67499" stroke-width="0.5" stroke-miterlimit="10"/>
<path d="M234.898 70.8L255.398 59.1C258.298 57.5 261.498 56.6 264.798 56.6C268.098 56.6 271.398 57.5 274.298 59.1L294.498 70.8L279.998 79.1L274.598 76C271.598 74.3 268.198 73.4 264.698 73.4C261.298 73.4 257.898 74.3 254.898 76L249.398 79.2L234.898 70.8Z" fill="#FCFEE5"/>
<path d="M264.799 56.9C268.099 56.9 271.299 57.8 274.099 59.4L293.799 70.8L279.999 78.7L274.799 75.7C271.699 73.9 268.299 73 264.699 73C261.199 73 257.799 73.9 254.699 75.7L249.299 78.8L235.499 70.8L255.399 59.4C258.299 57.8 261.499 56.9 264.799 56.9ZM264.799 56.2C261.499 56.2 258.199 57.1 255.199 58.8L234.199 70.8L249.499 79.6L255.199 76.3C258.199 74.6 261.499 73.7 264.799 73.7C268.099 73.7 271.499 74.6 274.499 76.3L280.099 79.5L295.299 70.7L274.499 58.7C271.399 57 268.099 56.2 264.799 56.2Z" fill="#F79A8B"/>
<path d="M255.7 63.3C255.2 63 255 62.6 255 62.3C255 61.9 255 53.5 255 53.5H274.5C274.5 53.5 274.5 62 274.5 62.3C274.5 62.7 274.2 63.1 273.7 63.4L266.5 67.6C265.5 68.2 263.9 68.2 262.9 67.6L255.7 63.3Z" fill="url(#paint11_linear)"/>
<path d="M264.699 58.7C264.099 58.7 263.499 58.6 263.099 58.3L255.899 54.1C255.499 53.9 255.299 53.6 255.299 53.4C255.299 53.1 255.499 52.9 255.899 52.7L263.099 48.6C263.499 48.4 264.099 48.2 264.699 48.2C265.299 48.2 265.899 48.3 266.299 48.6L273.399 52.7C273.799 52.9 273.999 53.2 273.999 53.4C273.999 53.6 273.799 53.9 273.399 54.1L266.199 58.3C265.899 58.5 265.299 58.7 264.699 58.7Z" fill="#FCFEE5"/>
<path d="M264.699 48.5C265.299 48.5 265.799 48.6 266.199 48.8L273.299 52.9C273.599 53 273.699 53.2 273.699 53.3C273.699 53.4 273.599 53.6 273.299 53.7L266.099 57.9C265.699 58.1 265.199 58.2 264.699 58.2C264.099 58.2 263.599 58.1 263.299 57.9L256.099 53.7C255.799 53.6 255.699 53.4 255.699 53.3C255.699 53.2 255.799 53.1 256.099 52.9L263.299 48.8C263.599 48.6 264.199 48.5 264.699 48.5ZM264.699 47.8C263.999 47.8 263.399 47.9 262.899 48.2L255.699 52.3C254.699 52.9 254.699 53.8 255.699 54.4L262.899 58.6C263.399 58.9 264.099 59 264.699 59C265.399 59 265.999 58.9 266.499 58.6L273.699 54.4C274.699 53.8 274.699 52.9 273.699 52.3L266.599 48.2C265.999 47.9 265.399 47.8 264.699 47.8Z" fill="#F79A8B"/>
<path d="M260.1 53.8V52.6H269.3V53.8L264.7 56.4L260.1 53.8Z" fill="#FCD8B6"/>
<path d="M264.699 55.3L269.299 52.6V53.8L264.699 56.4V55.3Z" fill="#D67499"/>
<path d="M260.1 52.6L264.7 50L269.3 52.6L264.7 55.3L260.1 52.6Z" fill="#FCFEE5"/>
<path d="M243.898 71L248.498 68.3L253.098 71L248.498 73.6L243.898 71Z" fill="#F79A8B"/>
<path d="M278.398 71L283.098 68.3L287.698 71L283.098 73.6L278.398 71Z" fill="#F79A8B"/>
<path d="M270.799 112.7C270.799 115.6 268.399 118 265.499 118C262.599 118 260.199 115.6 260.199 112.7C260.199 107.7 263.399 105 265.499 105C267.599 105 270.799 108.1 270.799 112.7Z" fill="url(#paint12_linear)"/>
</g>
<path d="M436 245.1H433.5V230.1C434.9 230.1 436 231.2 436 232.6V245.1Z" fill="white"/>
<path d="M448.5 245.1H433.5V242.6H446C447.4 242.6 448.5 243.7 448.5 245.1Z" fill="white"/>
<path d="M438.5 240.2C438.5 234.6 443 230.1 448.5 230.1V230.2C448.5 235.7 444 240.2 438.5 240.2Z" fill="white"/>
<path d="M404.301 232L391.201 245.1L384.301 238.1C385.401 237.1 387.201 237.1 388.201 238.2L391.101 241.1L400.201 232C401.401 230.9 403.201 230.9 404.301 232Z" fill="white"/>
<path d="M340.394 243.059H320.447C319.011 243.059 317.734 241.783 317.734 240.346V227.9H343.107V240.346C343.107 241.783 341.99 243.059 340.394 243.059Z" fill="white"/>
<path d="M343.267 220.24H324.438V224.548H343.267V220.24Z" fill="white"/>
<path d="M319.651 224.389C320.796 224.389 321.725 223.46 321.725 222.314C321.725 221.169 320.796 220.24 319.651 220.24C318.505 220.24 317.576 221.169 317.576 222.314C317.576 223.46 318.505 224.389 319.651 224.389Z" fill="white"/>
<path d="M471.5 224.203C471.5 217.66 471.5 210.958 471.5 204.416C471.5 203.937 471.34 203.618 470.862 203.618C462.723 201.703 454.585 200.426 446.287 200.107C434.798 199.628 423.468 200.745 412.298 203.618C411.66 203.777 411.5 204.097 411.5 204.735C411.5 213.511 411.5 222.128 411.5 230.905C411.5 235.373 411.5 239.682 411.66 244.15C411.819 247.98 413.096 251.49 415.17 254.522C416.926 257.075 419.319 259.309 421.553 261.543C427.457 267.128 434 271.756 441.021 275.745C441.181 275.905 441.66 275.905 441.819 275.745C444.053 274.469 446.447 273.352 448.681 271.916C454.904 267.926 460.489 263.139 465.596 257.714C469.266 253.724 471.34 249.097 471.5 243.671C471.5 236.969 471.5 230.586 471.5 224.203Z" fill="url(#paint13_linear)" stroke="#3E9693" stroke-miterlimit="10"/>
<path fill-rule="evenodd" clip-rule="evenodd" d="M428.766 242.473V219C431.395 219 433.46 221.066 433.46 223.695V242.473H452.238C454.867 242.473 456.933 244.538 456.933 247.167L428.766 247.167V242.473ZM438.155 237.966C438.155 227.45 446.605 219 456.933 219V219.188C456.933 229.516 448.483 237.966 438.155 237.966Z" fill="white"/>
<path d="M399.2 242.167C399.2 238.067 399.2 233.867 399.2 229.767C399.2 229.467 399.1 229.267 398.8 229.267C393.7 228.067 388.6 227.267 383.4 227.067C376.2 226.767 369.1 227.467 362.1 229.267C361.7 229.367 361.6 229.567 361.6 229.967C361.6 235.467 361.6 240.867 361.6 246.367C361.6 249.167 361.6 251.867 361.7 254.667C361.8 257.067 362.6 259.267 363.9 261.167C365 262.767 366.5 264.167 367.9 265.567C371.6 269.067 375.7 271.967 380.1 274.467C380.2 274.567 380.5 274.567 380.6 274.467C382 273.667 383.5 272.967 384.9 272.067C388.8 269.567 392.3 266.567 395.5 263.167C397.8 260.667 399.1 257.767 399.2 254.367C399.2 250.167 399.2 246.167 399.2 242.167Z" fill="url(#paint14_linear)" stroke="#F79A8B" stroke-miterlimit="10"/>
<path d="M386.6 245.333H385.6V243.524C385.6 241.027 383.36 239 380.6 239C377.84 239 375.6 241.027 375.6 243.524V245.333H374.6C373.5 245.333 372.6 246.148 372.6 247.143V256.19C372.6 257.186 373.5 258 374.6 258H386.6C387.7 258 388.6 257.186 388.6 256.19V247.143C388.6 246.148 387.7 245.333 386.6 245.333ZM380.6 253.476C379.5 253.476 378.6 252.662 378.6 251.667C378.6 250.671 379.5 249.857 380.6 249.857C381.7 249.857 382.6 250.671 382.6 251.667C382.6 252.662 381.7 253.476 380.6 253.476ZM383.7 245.333H377.5V243.524C377.5 241.977 378.89 240.719 380.6 240.719C382.31 240.719 383.7 241.977 383.7 243.524V245.333Z" fill="white"/>
<path d="M349.6 242.534C349.6 238.434 349.6 234.234 349.6 230.134C349.6 229.834 349.5 229.634 349.2 229.634C344.1 228.434 339 227.634 333.8 227.434C326.6 227.134 319.5 227.834 312.5 229.634C312.1 229.734 312 229.934 312 230.334C312 235.834 312 241.234 312 246.734C312 249.534 312 252.234 312.1 255.034C312.2 257.434 313 259.634 314.3 261.534C315.4 263.134 316.9 264.534 318.3 265.934C322 269.434 326.1 272.334 330.5 274.834C330.6 274.934 330.9 274.934 331 274.834C332.4 274.034 333.9 273.334 335.3 272.434C339.2 269.934 342.7 266.934 345.9 263.534C348.2 261.034 349.5 258.134 349.6 254.734C349.6 250.534 349.6 246.534 349.6 242.534Z" fill="url(#paint15_linear)" stroke="#F79A8B" stroke-miterlimit="10"/>
<path d="M338.739 258.004H323.211C322.093 258.004 321.1 257.01 321.1 255.892V246.203H340.851V255.892C340.851 257.01 339.982 258.004 338.739 258.004Z" fill="white"/>
<path d="M340.977 240.24H326.318V243.594H340.977V240.24Z" fill="white"/>
<path d="M322.591 243.47C323.483 243.47 324.206 242.747 324.206 241.855C324.206 240.963 323.483 240.24 322.591 240.24C321.7 240.24 320.977 240.963 320.977 241.855C320.977 242.747 321.7 243.47 322.591 243.47Z" fill="white"/>
<path d="M522.2 242.602C522.2 238.502 522.2 234.302 522.2 230.202C522.2 229.902 522.1 229.702 521.8 229.702C516.7 228.502 511.6 227.702 506.4 227.502C499.2 227.202 492.1 227.902 485.1 229.702C484.7 229.702 484.6 229.802 484.6 230.302C484.6 235.802 484.6 241.202 484.6 246.702C484.6 249.502 484.6 252.202 484.7 255.002C484.8 257.402 485.6 259.602 486.9 261.502C488 263.102 489.5 264.502 490.9 265.902C494.6 269.402 498.7 272.302 503.1 274.802C503.2 274.902 503.5 274.902 503.6 274.802C505 274.002 506.5 273.302 507.9 272.402C511.8 269.902 515.3 266.902 518.5 263.502C520.8 261.002 522.1 258.102 522.2 254.702C522.2 250.602 522.2 246.602 522.2 242.602Z" fill="url(#paint16_linear)" stroke="#F79A8B" stroke-miterlimit="10"/>
<path d="M500.888 257.434C502.423 257.446 503.944 257.138 505.364 256.529C506.783 255.92 508.074 255.022 509.16 253.887C510.245 252.752 511.105 251.403 511.69 249.917C512.274 248.432 512.57 246.84 512.563 245.233C512.563 245.047 512.563 244.861 512.563 244.682C513.361 244.071 514.05 243.317 514.6 242.456C513.851 242.804 513.057 243.031 512.244 243.131C513.099 242.594 513.738 241.751 514.044 240.758C513.241 241.258 512.361 241.609 511.444 241.797C510.827 241.105 510.008 240.647 509.116 240.492C508.224 240.338 507.308 240.496 506.511 240.943C505.713 241.389 505.079 242.099 504.707 242.962C504.335 243.825 504.245 244.792 504.451 245.714C502.819 245.631 501.222 245.188 499.764 244.414C498.306 243.64 497.021 242.553 495.992 241.223C495.467 242.169 495.306 243.289 495.541 244.355C495.776 245.421 496.391 246.354 497.259 246.963C496.607 246.942 495.97 246.759 495.4 246.428V246.482C495.401 247.473 495.729 248.433 496.328 249.201C496.927 249.968 497.761 250.496 498.688 250.694C498.084 250.864 497.451 250.888 496.837 250.764C497.1 251.617 497.611 252.364 498.299 252.899C498.987 253.435 499.817 253.732 500.674 253.75C499.221 254.946 497.425 255.594 495.577 255.588C495.25 255.591 494.924 255.57 494.6 255.526C496.478 256.781 498.661 257.443 500.888 257.434Z" fill="white"/>
<g filter="url(#filter1_dd)">
<rect x="47" y="120" width="160" height="90" rx="8" fill="white"/>
</g>
<rect x="67" y="140" width="58" height="8" fill="#E9EAED"/>
<path d="M77.5844 165.33H72.8712L67 169.114V173.64L72.4312 170.174H72.5701V189.47H77.5844V165.33Z" fill="#98CCB0"/>
<path d="M92.5202 190C98.4841 190 102.086 185.38 102.097 177.423C102.109 169.526 98.4609 165 92.5202 165C86.5679 165 82.9548 169.514 82.9433 177.423C82.9201 185.356 86.5447 189.988 92.5202 190ZM92.5202 185.769C89.7988 185.769 88.0386 182.987 88.0502 177.423C88.0618 171.942 89.8104 169.184 92.5202 169.184C95.2184 169.184 96.9786 171.942 96.9786 177.423C96.9902 182.987 95.23 185.769 92.5202 185.769Z" fill="#98CCB0"/>
<path d="M114.972 190C120.935 190 124.537 185.38 124.549 177.423C124.56 169.526 120.912 165 114.972 165C109.019 165 105.406 169.514 105.395 177.423C105.371 185.356 108.996 189.988 114.972 190ZM114.972 185.769C112.25 185.769 110.49 182.987 110.502 177.423C110.513 171.942 112.262 169.184 114.972 169.184C117.67 169.184 119.43 171.942 119.43 177.423C119.442 182.987 117.681 185.769 114.972 185.769Z" fill="#98CCB0"/>
<path d="M137.423 190C143.387 190 146.988 185.38 147 177.423C147.012 169.526 143.364 165 137.423 165C131.471 165 127.858 169.514 127.846 177.423C127.823 185.356 131.448 189.988 137.423 190ZM137.423 185.769C134.702 185.769 132.941 182.987 132.953 177.423C132.965 171.942 134.713 169.184 137.423 169.184C140.121 169.184 141.881 171.942 141.881 177.423C141.893 182.987 140.133 185.769 137.423 185.769Z" fill="#98CCB0"/>
<path fill-rule="evenodd" clip-rule="evenodd" d="M161 185.667V164C163.427 164 165.333 165.907 165.333 168.333V185.667H182.667C185.093 185.667 187 187.573 187 190L161 190V185.667ZM169.666 181.507C169.666 171.8 177.466 164 187 164V164.173C187 173.707 179.2 181.507 169.666 181.507Z" fill="#98CCB0"/>
</g>
<defs>
<filter id="filter0_dd" x="97" y="4" width="328" height="351" filterUnits="userSpaceOnUse" color-interpolation-filters="sRGB">
<feFlood flood-opacity="0" result="BackgroundImageFix"/>
<feColorMatrix in="SourceAlpha" type="matrix" values="0 0 0 0 0 0 0 0 0 0 0 0 0 0 0 0 0 0 127 0"/>
<feOffset dy="2"/>
<feGaussianBlur stdDeviation="3"/>
<feColorMatrix type="matrix" values="0 0 0 0 0.0392157 0 0 0 0 0.0901961 0 0 0 0 0.2 0 0 0 0.04 0"/>
<feBlend mode="normal" in2="BackgroundImageFix" result="effect1_dropShadow"/>
<feColorMatrix in="SourceAlpha" type="matrix" values="0 0 0 0 0 0 0 0 0 0 0 0 0 0 0 0 0 0 127 0"/>
<feOffset dy="8"/>
<feGaussianBlur stdDeviation="16"/>
<feColorMatrix type="matrix" values="0 0 0 0 0.0387097 0 0 0 0 0.0903226 0 0 0 0 0.2 0 0 0 0.08 0"/>
<feBlend mode="normal" in2="effect1_dropShadow" result="effect2_dropShadow"/>
<feBlend mode="normal" in="SourceGraphic" in2="effect2_dropShadow" result="shape"/>
</filter>
<filter id="filter1_dd" x="15" y="96" width="224" height="154" filterUnits="userSpaceOnUse" color-interpolation-filters="sRGB">
<feFlood flood-opacity="0" result="BackgroundImageFix"/>
<feColorMatrix in="SourceAlpha" type="matrix" values="0 0 0 0 0 0 0 0 0 0 0 0 0 0 0 0 0 0 127 0"/>
<feOffset dy="2"/>
<feGaussianBlur stdDeviation="3"/>
<feColorMatrix type="matrix" values="0 0 0 0 0.0392157 0 0 0 0 0.0901961 0 0 0 0 0.2 0 0 0 0.04 0"/>
<feBlend mode="normal" in2="BackgroundImageFix" result="effect1_dropShadow"/>
<feColorMatrix in="SourceAlpha" type="matrix" values="0 0 0 0 0 0 0 0 0 0 0 0 0 0 0 0 0 0 127 0"/>
<feOffset dy="8"/>
<feGaussianBlur stdDeviation="16"/>
<feColorMatrix type="matrix" values="0 0 0 0 0.0387097 0 0 0 0 0.0903226 0 0 0 0 0.2 0 0 0 0.08 0"/>
<feBlend mode="normal" in2="effect1_dropShadow" result="effect2_dropShadow"/>
<feBlend mode="normal" in="SourceGraphic" in2="effect2_dropShadow" result="shape"/>
</filter>
<linearGradient id="paint0_linear" x1="-20.715" y1="172.41" x2="436.422" y2="172.41" gradientUnits="userSpaceOnUse">
<stop stop-color="#EFEFEF" stop-opacity="0.5"/>
<stop offset="0.032661" stop-color="#ECECEC" stop-opacity="0.5201"/>
<stop offset="0.2841" stop-color="#DDDDDD" stop-opacity="0.6748"/>
<stop offset="0.4876" stop-color="#D8D8D8" stop-opacity="0.8"/>
<stop offset="1" stop-color="#EFEFEF" stop-opacity="0.5"/>
</linearGradient>
<linearGradient id="paint1_linear" x1="318.016" y1="185.412" x2="522.4" y2="185.412" gradientUnits="userSpaceOnUse">
<stop stop-color="#EFEFEF" stop-opacity="0.5"/>
<stop offset="0.0250394" stop-color="#ECECEC" stop-opacity="0.5134"/>
<stop offset="0.2178" stop-color="#DDDDDD" stop-opacity="0.6165"/>
<stop offset="0.3738" stop-color="#D8D8D8" stop-opacity="0.7"/>
<stop offset="1" stop-color="#EFEFEF" stop-opacity="0.5"/>
</linearGradient>
<linearGradient id="paint2_linear" x1="24.7636" y1="84.5907" x2="229.148" y2="84.5907" gradientUnits="userSpaceOnUse">
<stop stop-color="#EFEFEF" stop-opacity="0.5"/>
<stop offset="0.0250394" stop-color="#ECECEC" stop-opacity="0.5134"/>
<stop offset="0.2178" stop-color="#DDDDDD" stop-opacity="0.6165"/>
<stop offset="0.3738" stop-color="#D8D8D8" stop-opacity="0.7"/>
<stop offset="1" stop-color="#EFEFEF" stop-opacity="0.5"/>
</linearGradient>
<linearGradient id="paint3_linear" x1="-11.2878" y1="183.288" x2="436.423" y2="183.288" gradientUnits="userSpaceOnUse">
<stop stop-color="#EFEFEF" stop-opacity="0.5"/>
<stop offset="0.0250394" stop-color="#ECECEC" stop-opacity="0.5201"/>
<stop offset="0.2178" stop-color="#DDDDDD" stop-opacity="0.6748"/>
<stop offset="0.3738" stop-color="#D8D8D8" stop-opacity="0.8"/>
<stop offset="1" stop-color="#EFEFEF" stop-opacity="0.5"/>
</linearGradient>
<linearGradient id="paint4_linear" x1="84.0382" y1="276.617" x2="199.821" y2="276.617" gradientUnits="userSpaceOnUse">
<stop stop-color="#D8D8D8" stop-opacity="0.8"/>
<stop offset="1" stop-color="#EFEFEF" stop-opacity="0.5"/>
</linearGradient>
<linearGradient id="paint5_linear" x1="332.858" y1="171.567" x2="522.618" y2="171.567" gradientUnits="userSpaceOnUse">
<stop stop-color="#EFEFEF" stop-opacity="0.5"/>
<stop offset="0.0250394" stop-color="#ECECEC" stop-opacity="0.5134"/>
<stop offset="0.2178" stop-color="#DDDDDD" stop-opacity="0.6165"/>
<stop offset="0.3738" stop-color="#D8D8D8" stop-opacity="0.7"/>
<stop offset="1" stop-color="#EFEFEF" stop-opacity="0.5"/>
</linearGradient>
<linearGradient id="paint6_linear" x1="204.81" y1="91.2427" x2="361.808" y2="91.2427" gradientUnits="userSpaceOnUse">
<stop stop-color="#FFF6F1"/>
<stop offset="0.049071" stop-color="#FDE3DC"/>
<stop offset="0.142" stop-color="#FBC3B9"/>
<stop offset="0.2298" stop-color="#F9ADA0"/>
<stop offset="0.3095" stop-color="#F79F90"/>
<stop offset="0.3738" stop-color="#F79A8B"/>
<stop offset="1" stop-color="#FFF6F1"/>
</linearGradient>
<linearGradient id="paint7_linear" x1="152.215" y1="71.607" x2="241.2" y2="71.607" gradientUnits="userSpaceOnUse">
<stop stop-color="#FFF6F1"/>
<stop offset="0.049071" stop-color="#FDE3DC"/>
<stop offset="0.142" stop-color="#FBC3B9"/>
<stop offset="0.2298" stop-color="#F9ADA0"/>
<stop offset="0.3095" stop-color="#F79F90"/>
<stop offset="0.3738" stop-color="#F79A8B"/>
<stop offset="1" stop-color="#FFF6F1"/>
</linearGradient>
<linearGradient id="paint8_linear" x1="375.972" y1="71.607" x2="286.987" y2="71.607" gradientUnits="userSpaceOnUse">
<stop stop-color="#FFF6F1"/>
<stop offset="0.00780231" stop-color="#FEF1EE" stop-opacity="0.9896"/>
<stop offset="0.0920326" stop-color="#EFC5D0" stop-opacity="0.8769"/>
<stop offset="0.1731" stop-color="#E4A2B8" stop-opacity="0.7685"/>
<stop offset="0.2491" stop-color="#DC89A7" stop-opacity="0.6668"/>
<stop offset="0.3181" stop-color="#D8799D" stop-opacity="0.5745"/>
<stop offset="0.3738" stop-color="#D67499" stop-opacity="0.5"/>
<stop offset="1" stop-color="#FFF6F1"/>
</linearGradient>
<linearGradient id="paint9_linear" x1="175.053" y1="92.4617" x2="322.79" y2="92.4617" gradientUnits="userSpaceOnUse">
<stop stop-color="#FFF6F1"/>
<stop offset="0.0142113" stop-color="#FEF1EE"/>
<stop offset="0.1676" stop-color="#EFC5D0"/>
<stop offset="0.3153" stop-color="#E4A2B8"/>
<stop offset="0.4537" stop-color="#DC89A7"/>
<stop offset="0.5794" stop-color="#D8799D"/>
<stop offset="0.6809" stop-color="#D67499"/>
<stop offset="0.725" stop-color="#D97C9F"/>
<stop offset="0.7951" stop-color="#E093AE"/>
<stop offset="0.8822" stop-color="#ECB9C7"/>
<stop offset="0.9822" stop-color="#FCECEA"/>
<stop offset="1" stop-color="#FFF6F1"/>
</linearGradient>
<linearGradient id="paint10_linear" x1="221.649" y1="102.724" x2="307.692" y2="102.724" gradientUnits="userSpaceOnUse">
<stop offset="0.4719" stop-color="#F79A8B"/>
<stop offset="0.5034" stop-color="#E98A91"/>
<stop offset="0.5493" stop-color="#DB7A97"/>
<stop offset="0.5842" stop-color="#D67499"/>
</linearGradient>
<linearGradient id="paint11_linear" x1="254.903" y1="60.6432" x2="274.438" y2="60.6432" gradientUnits="userSpaceOnUse">
<stop stop-color="#FCD8B6"/>
<stop offset="0.4705" stop-color="#FCD8B6"/>
<stop offset="0.4794" stop-color="#FCD8B6"/>
<stop offset="0.4941" stop-color="#F6C9B2"/>
<stop offset="0.5286" stop-color="#EBAAA9"/>
<stop offset="0.5648" stop-color="#E192A2"/>
<stop offset="0.6031" stop-color="#DB819D"/>
<stop offset="0.645" stop-color="#D7779A"/>
<stop offset="0.6968" stop-color="#D67499"/>
</linearGradient>
<linearGradient id="paint12_linear" x1="261.322" y1="107.68" x2="269.661" y2="116.019" gradientUnits="userSpaceOnUse">
<stop offset="0.0891089" stop-color="#CEE3CD"/>
<stop offset="0.2093" stop-color="#B0D2BD"/>
<stop offset="0.3747" stop-color="#8DBDAB"/>
<stop offset="0.5101" stop-color="#77B1A0"/>
<stop offset="0.5977" stop-color="#6FAC9C"/>
<stop offset="0.7432" stop-color="#56A197"/>
<stop offset="0.8969" stop-color="#419793"/>
<stop offset="1" stop-color="#3A9492"/>
</linearGradient>
<linearGradient id="paint13_linear" x1="441.701" y1="181.034" x2="441.701" y2="278.575" gradientUnits="userSpaceOnUse">
<stop stop-color="#99D7C5"/>
<stop offset="1" stop-color="#3A9492"/>
</linearGradient>
<linearGradient id="paint14_linear" x1="363.618" y1="227.442" x2="397.345" y2="261.17" gradientUnits="userSpaceOnUse">
<stop stop-color="#FCD8B6"/>
<stop offset="0.3051" stop-color="#FFC28F"/>
<stop offset="0.4577" stop-color="#FDB88E"/>
<stop offset="0.7192" stop-color="#F79C8B"/>
<stop offset="0.7384" stop-color="#F79A8B"/>
</linearGradient>
<linearGradient id="paint15_linear" x1="314.018" y1="227.809" x2="347.746" y2="261.537" gradientUnits="userSpaceOnUse">
<stop stop-color="#FCD8B6"/>
<stop offset="0.3051" stop-color="#FFC28F"/>
<stop offset="0.4577" stop-color="#FDB88E"/>
<stop offset="0.7192" stop-color="#F79C8B"/>
<stop offset="0.7384" stop-color="#F79A8B"/>
</linearGradient>
<linearGradient id="paint16_linear" x1="486.605" y1="227.898" x2="520.332" y2="261.626" gradientUnits="userSpaceOnUse">
<stop stop-color="#FCD8B6"/>
<stop offset="0.3051" stop-color="#FFC28F"/>
<stop offset="0.4577" stop-color="#FDB88E"/>
<stop offset="0.7192" stop-color="#F79C8B"/>
<stop offset="0.7384" stop-color="#F79A8B"/>
</linearGradient>
<clipPath id="clip0">
<rect width="544" height="346" fill="white"/>
</clipPath>
<clipPath id="clip1">
<rect width="240" height="100" fill="white" transform="translate(140 40)"/>
</clipPath>
</defs>
</svg>
