<svg width="721" height="456" viewBox="0 0 721 456" fill="none" xmlns="http://www.w3.org/2000/svg">
<path d="M617 110L103 407" stroke="url(#paint0_linear)" stroke-miterlimit="10"/>
<path d="M12 127L529 425" stroke="url(#paint1_linear)" stroke-miterlimit="10"/>
<path d="M445.906 419.038C442.031 416.777 442.031 413.223 445.906 410.962L495.301 382.696C499.175 380.435 505.471 380.435 509.345 382.696L558.094 410.8C561.969 413.062 561.969 416.615 558.094 418.876L509.022 447.304C505.148 449.565 498.852 449.565 494.978 447.304L445.906 419.038Z" fill="url(#paint2_linear)"/>
<path d="M446.169 416.74C442.303 414.488 442.303 410.95 446.169 408.698L495.451 380.552C499.316 378.3 505.597 378.3 509.463 380.552L558.101 408.537C561.966 410.789 561.966 414.327 558.101 416.579L509.141 444.885C505.275 447.137 498.994 447.137 495.129 444.885L446.169 416.74Z" fill="#FCFEE5"/>
<path d="M516.873 332.784C512.685 330.372 507.37 330.05 504.472 331.498L478.22 346.616L498.835 357.231V376.049C498.835 387.789 506.404 401.782 515.745 407.25C525.086 412.719 532.656 407.572 532.656 395.992V361.252C532.334 349.511 526.214 338.253 516.873 332.784Z" fill="url(#paint3_linear)"/>
<path d="M506.726 376.692L532.333 361.895V415.614L506.726 430.41V376.692Z" fill="#D67499"/>
<path d="M489.815 347.581C499.156 353.05 506.725 367.042 506.725 378.783V403.23V430.25L473.065 410.467V393.097V358.84C472.904 347.259 480.473 342.113 489.815 347.581Z" fill="#FCD8B6"/>
<path d="M488.848 353.854C495.613 357.875 501.25 368.811 501.25 378.14V408.537L476.447 403.551V363.343C476.608 354.175 482.084 349.833 488.848 353.854Z" fill="#F79A8B"/>
<path d="M488.848 353.854C495.613 357.875 501.25 368.811 501.25 378.14V408.537L476.447 403.551V363.343C476.608 354.175 482.084 349.833 488.848 353.854Z" stroke="#FCFEE5" stroke-width="0.75" stroke-miterlimit="10"/>
<path d="M487.882 353.049V386.664" stroke="#FCFEE5" stroke-width="0.75" stroke-miterlimit="10"/>
<path d="M491.103 355.462V387.95" stroke="#FCFEE5" stroke-width="0.75" stroke-miterlimit="10"/>
<path d="M484.661 352.084V384.412" stroke="#FCFEE5" stroke-width="0.75" stroke-miterlimit="10"/>
<path d="M490.942 377.335C488.204 375.727 485.627 375.566 483.695 376.531L476.125 380.874L479.829 393.579V402.104C479.829 409.824 484.822 419.152 490.942 422.69C497.062 426.229 502.055 423.012 502.055 415.131V397.922C502.055 390.202 497.062 380.874 490.942 377.335Z" fill="url(#paint4_linear)"/>
<path d="M495.291 400.495L502.055 396.474V427.676L495.291 431.536V400.495Z" fill="#D67499"/>
<path d="M484.178 381.195C490.298 384.734 495.291 394.062 495.291 401.782V414.488V431.536L473.065 418.348V411.11V388.433C472.904 381.034 477.897 377.657 484.178 381.195Z" fill="#FCD8B6"/>
<path d="M483.533 385.377C488.043 388.111 491.747 395.188 491.747 401.46V424.138L475.319 414.488V391.649C475.319 385.538 479.024 382.643 483.533 385.377Z" fill="#F79A8B"/>
<path d="M483.533 385.377C488.043 388.111 491.747 395.188 491.747 401.46V424.138L475.319 414.488V391.649C475.319 385.538 479.024 382.643 483.533 385.377Z" stroke="#FCFEE5" stroke-width="0.75" stroke-miterlimit="10"/>
<path d="M483.372 385.377V419.634" stroke="#FCFEE5" stroke-width="0.75" stroke-miterlimit="10"/>
<path d="M486.594 387.789V420.76" stroke="#FCFEE5" stroke-width="0.75" stroke-miterlimit="10"/>
<path d="M479.991 384.412V417.383" stroke="#FCFEE5" stroke-width="0.75" stroke-miterlimit="10"/>
<path d="M518.322 362.057V417.384" stroke="#B24761" stroke-miterlimit="10" stroke-linecap="round"/>
<path d="M514.939 364.308V419.152" stroke="#B24761" stroke-miterlimit="10" stroke-linecap="round"/>
<path d="M521.865 360.448V415.614" stroke="#B24761" stroke-miterlimit="10" stroke-linecap="round"/>
<path d="M325 82L35 244" stroke="url(#paint5_linear)" stroke-miterlimit="10"/>
<path d="M395 154L646 299" stroke="url(#paint6_linear)" stroke-miterlimit="10"/>
<path d="M166.105 308.938C159.334 305.087 156 299.988 156 294.889C156 289.79 156 292.496 156 292.496L281.743 214.762C295.182 207.062 317.268 207.062 330.707 214.867L454.887 291.039C454.887 291.039 454.783 289.478 454.991 294.473C455.199 299.676 451.762 304.983 444.886 308.938L329.977 375.225C316.538 382.925 294.557 382.925 281.118 375.225L166.105 308.938Z" fill="url(#paint7_linear)"/>
<path d="M166.111 306.143C152.684 298.441 152.684 285.744 166.215 278.042L281.644 211.952C295.071 204.251 317.137 204.251 330.564 212.056L444.64 277.938C458.066 285.64 458.066 298.337 444.64 306.143L329.835 372.441C316.408 380.142 294.446 380.142 281.02 372.441L166.111 306.143Z" fill="#FCFEE5"/>
<path d="M412.582 177.919L355.336 205.396V204.979L195.671 163.452V287.617L267.177 329.248C293.198 344.236 325.255 344.236 351.172 329.144L355.232 326.75L412.478 293.654V177.919H412.582Z" fill="url(#paint8_linear)"/>
<path d="M261 209L217 184" stroke="url(#paint9_linear)" stroke-miterlimit="10" stroke-linecap="round"/>
<path d="M261 224L217 198" stroke="url(#paint10_linear)" stroke-miterlimit="10" stroke-linecap="round"/>
<path d="M262 237L217 211" stroke="url(#paint11_linear)" stroke-miterlimit="10" stroke-linecap="round"/>
<path d="M263 252L217 226" stroke="url(#paint12_linear)" stroke-miterlimit="10" stroke-linecap="round"/>
<path d="M263 267L217 239" stroke="url(#paint13_linear)" stroke-miterlimit="10" stroke-linecap="round"/>
<path d="M264 281L217 254" stroke="url(#paint14_linear)" stroke-miterlimit="10" stroke-linecap="round"/>
<path d="M259 292L217 268" stroke="url(#paint15_linear)" stroke-miterlimit="10" stroke-linecap="round"/>
<path d="M196 93L267 155.19V215L196 174.644V93Z" fill="#FDD8B4"/>
<path d="M196 93L267 155.19V215L196 171.953V93Z" fill="#FFC28F"/>
<path d="M196 178L264 214.86V327L196 287.642V178Z" fill="#FFC28F"/>
<path d="M328 120L267 154.953V213L328 178.359V120Z" fill="#B24761"/>
<path d="M272.7 154L268 156.246V212L322 181.775L272.7 154Z" fill="#F79A8B"/>
<path d="M284 148V202" stroke="#D67499" stroke-miterlimit="10"/>
<path d="M297 139V195" stroke="#D67499" stroke-miterlimit="10"/>
<path d="M312 130V186" stroke="#D67499" stroke-miterlimit="10"/>
<path d="M267 214L196 172.61L251.83 140L267 153.797V214Z" fill="#F79A8B"/>
<path d="M265 250L196 210.094L222.197 195L264.691 223.637L265 250Z" fill="#F79A8B"/>
<path d="M265 274L196 234.094L222.197 219L264.691 247.637L265 274Z" fill="#F79A8B"/>
<path d="M265 299L196 258.34L222.197 243L264.691 272.103L265 299Z" fill="#F79A8B"/>
<path d="M265 325L196 285.094L222.197 270L264.691 298.637L265 325Z" fill="#F79A8B"/>
<path d="M197 259L266 299" stroke="#FDD8B4" stroke-miterlimit="10"/>
<path d="M197 235L266 274" stroke="#FDD8B4" stroke-miterlimit="10"/>
<path d="M197 210L266 250" stroke="#FDD8B4" stroke-miterlimit="10"/>
<path d="M197 186L266 226" stroke="#FDD8B4" stroke-miterlimit="10"/>
<path d="M211 106V295" stroke="#FDD8B4" stroke-miterlimit="10"/>
<path d="M224 119V304" stroke="#FDD8B4" stroke-miterlimit="10"/>
<path d="M239 131V310" stroke="#FDD8B4" stroke-miterlimit="10"/>
<path d="M253 317V143" stroke="#FDD8B4" stroke-miterlimit="10"/>
<path d="M196 185.132L267 227V212.974L196 171V185.132Z" fill="#FDD8B4"/>
<path d="M196 98.0508L267 160V154.949L196 93V98.0508Z" fill="#FDD8B4"/>
<path d="M198.898 99.3403L264.263 156.479V209.767L198.898 171.987V99.3403ZM195.775 92.4712V173.756L267.385 215.179V155.126L195.775 92.4712Z" fill="#FDD8B4"/>
<path d="M198.898 183.227L264.263 219.03V323.836L198.898 285.848V183.227ZM195.775 178.023V287.617L267.385 329.248V217.156L195.775 178.023Z" fill="#FDD8B4"/>
<path d="M324.943 125.464V176.566L270.507 207.685V156.791L324.943 125.464ZM328.066 120.052L267.385 155.022V213.097L328.066 178.439V120.052Z" fill="#D67499"/>
<path d="M309.227 223.817C294.655 223.817 280.291 219.966 267.697 212.785L370.428 153.565L411.853 177.919L351.068 212.577C338.37 219.966 323.903 223.817 309.227 223.817Z" fill="#FCFEE5"/>
<path d="M370.324 153.981L411.021 177.919L350.86 212.265C338.162 219.55 323.798 223.505 309.123 223.505C294.863 223.505 280.812 219.862 268.426 212.785L370.324 153.981ZM370.324 153.148L267.177 212.577V212.993C280.187 220.487 294.655 224.234 309.123 224.234C323.694 224.234 338.162 220.487 351.173 212.889L412.478 177.919L370.324 153.148Z" fill="#F79A8B"/>
<path d="M306.729 216.324C297.57 216.324 288.202 212.889 285.184 211.64L356.273 170.425L383.439 186.141C377.194 189.68 347.218 206.748 347.218 206.748C336.601 212.993 322.237 216.324 306.729 216.324Z" fill="#CEE3CD"/>
<path d="M356.272 171.154L382.397 186.245C373.758 191.137 347.009 206.436 346.905 206.436C336.392 212.577 322.133 215.907 306.728 215.907C298.506 215.907 290.075 213.097 286.432 211.64L356.272 171.154ZM356.272 169.905L284.038 211.744C284.038 211.744 295.383 216.844 306.728 216.844C320.467 216.844 335.56 214.138 347.425 207.269C347.529 207.269 384.479 186.245 384.479 186.245L356.272 169.905Z" fill="#6FAC9C"/>
<path d="M312 207H316" stroke="#FCFEE5" stroke-miterlimit="10" stroke-linecap="round"/>
<path d="M325 198H341" stroke="#FCFEE5" stroke-miterlimit="10" stroke-linecap="round"/>
<path d="M344 203H348" stroke="#FCFEE5" stroke-miterlimit="10" stroke-linecap="round"/>
<path d="M358 186H361" stroke="#FCFEE5" stroke-miterlimit="10" stroke-linecap="round"/>
<path d="M361 166.64V155L390 171.36V183L361 166.64Z" fill="#FDD8B4"/>
<path d="M390 171.83L398 167V178.17L390 183V171.83Z" fill="#D87399"/>
<path d="M362.518 155.23L370.324 150.651L397.698 166.471L389.892 171.05L362.518 155.23Z" fill="#FCFEE5"/>
<path d="M370.324 151.067L396.969 166.471L389.891 170.53L363.246 155.126L370.324 151.067ZM370.324 150.234L361.685 155.23L389.891 171.466L398.53 166.471L370.324 150.234Z" fill="#F79A8B"/>
<path d="M370.323 230.062L398.53 213.93V200.504L370.323 216.532V230.062Z" fill="#B24761"/>
<path d="M356.272 224.546L351.276 227.356C325.255 242.447 293.301 242.447 267.28 227.46V240.99C293.301 255.978 325.359 255.978 351.276 240.886L356.272 238.076V224.546Z" fill="url(#paint16_linear)"/>
<path d="M356.272 224.338L351.276 227.148C325.255 242.239 293.301 242.239 267.28 227.252V238.805C293.301 253.792 325.359 253.792 351.276 238.701L356.272 235.891V224.338Z" fill="#B24761"/>
<path d="M370.323 253.792L398.53 237.659V224.233L370.323 240.261V253.792Z" fill="#B24761"/>
<path d="M356.272 248.276L351.276 251.086C325.255 266.177 293.301 266.177 267.28 251.19V264.72C293.301 279.707 325.359 279.707 351.276 264.616L356.272 261.806V248.276Z" fill="url(#paint17_linear)"/>
<path d="M356.272 248.067L351.276 250.877C325.255 265.969 293.301 265.969 267.28 250.982V262.638C293.301 277.626 325.359 277.626 351.276 262.534L356.272 259.724V248.067Z" fill="#B24761"/>
<path d="M370.323 278.562L398.53 262.534V249.108L370.323 265.136V278.562Z" fill="#B24761"/>
<path d="M356.272 273.15L351.276 275.96C325.255 291.051 293.301 291.051 267.28 276.064V289.594C293.301 304.582 325.359 304.582 351.276 289.49L356.272 286.68V273.15Z" fill="url(#paint18_linear)"/>
<path d="M356.272 272.942L351.276 275.752C325.255 290.843 293.301 290.843 267.28 275.856V287.409C293.301 302.396 325.359 302.396 351.276 287.305L356.272 284.495V272.942Z" fill="#B24761"/>
<path d="M370.323 301.251L398.53 285.223V271.797L370.323 287.825V301.251Z" fill="#B24761"/>
<path d="M356.272 295.839L351.276 298.649C325.255 313.74 293.301 313.74 267.28 298.753V312.283C293.301 327.271 325.359 327.271 351.276 312.179L356.272 309.369V295.839Z" fill="url(#paint19_linear)"/>
<path d="M356.272 295.631L351.276 298.441C325.255 313.532 293.301 313.532 267.28 298.545V310.098C293.301 325.085 325.359 325.085 351.276 309.994L356.272 307.183V295.631Z" fill="#B24761"/>
<path d="M385 203V301" stroke="#D67499" stroke-miterlimit="10"/>
<path d="M382.813 308.329V328.832" stroke="#B24761" stroke-width="2" stroke-miterlimit="10" stroke-linecap="round"/>
<path d="M382.813 322.171C389.137 322.171 394.263 317.045 394.263 310.722C394.263 304.4 389.137 299.274 382.813 299.274C376.49 299.274 371.364 304.4 371.364 310.722C371.364 317.045 376.49 322.171 382.813 322.171Z" fill="url(#paint20_linear)"/>
<path d="M358.041 323.212V343.611" stroke="#B24761" stroke-width="2" stroke-miterlimit="10" stroke-linecap="round"/>
<path d="M358.041 336.95C364.364 336.95 369.49 331.824 369.49 325.501C369.49 319.178 364.364 314.053 358.041 314.053C351.718 314.053 346.592 319.178 346.592 325.501C346.592 331.824 351.718 336.95 358.041 336.95Z" fill="url(#paint21_linear)"/>
<path d="M432.357 280.436V300.939" stroke="#B24761" stroke-width="2" stroke-miterlimit="10" stroke-linecap="round"/>
<path d="M432.357 294.278C438.681 294.278 443.807 289.152 443.807 282.829C443.807 276.507 438.681 271.381 432.357 271.381C426.034 271.381 420.908 276.507 420.908 282.829C420.908 289.152 426.034 294.278 432.357 294.278Z" fill="url(#paint22_linear)"/>
<path d="M407.586 294.591V314.99" stroke="#B24761" stroke-width="2" stroke-miterlimit="10" stroke-linecap="round"/>
<path d="M407.586 308.329C413.909 308.329 419.035 303.203 419.035 296.88C419.035 290.557 413.909 285.432 407.586 285.432C401.263 285.432 396.137 290.557 396.137 296.88C396.137 303.203 401.263 308.329 407.586 308.329Z" fill="url(#paint23_linear)"/>
<path d="M196.399 92.5752L256.144 58.0213L327.441 120.052L267.489 154.606L196.399 92.5752Z" fill="#FCFEE5"/>
<path d="M256.04 58.5417L326.713 119.948L267.489 154.085L197.128 92.5752L256.04 58.5417ZM256.144 57.605L195.775 92.4711L267.385 155.022L328.066 120.052L256.144 57.605Z" fill="#F79A8B"/>
<path d="M264.782 131.604L226.896 98.4035V93.9281L264.782 127.129V131.604Z" fill="#FDD8B4"/>
<path d="M264.782 131.604V126.713L297.048 108.187V113.078L264.782 131.604Z" fill="#D87399"/>
<path d="M227.52 94.0322L258.849 75.9227L296.319 108.499L264.886 126.609L227.52 94.0322Z" fill="#FCFEE5"/>
<path d="M258.745 76.4431L295.591 108.499L264.886 126.192L228.145 94.1363L258.745 76.4431ZM258.849 75.5063L226.896 94.0322L264.886 127.233L297.048 108.603L258.849 75.5063Z" fill="#F79A8B"/>
<path d="M548.909 232.463C548.909 223.9 548.909 215.337 548.909 206.774C548.909 206.147 548.805 205.834 548.072 205.625C537.606 203.119 527.035 201.553 516.255 201.135C501.288 200.508 486.635 202.075 472.087 205.625C471.25 205.834 470.936 206.147 470.936 207.087C470.936 218.365 470.936 229.644 470.936 240.922C470.936 246.665 470.936 252.305 471.04 258.048C471.145 262.956 472.819 267.447 475.645 271.519C478.053 274.861 480.983 277.681 484.018 280.5C491.659 287.706 500.136 293.762 509.347 298.879C509.661 298.984 510.079 299.088 510.393 298.879C513.324 297.209 516.359 295.642 519.29 293.867C527.453 288.75 534.675 282.484 541.164 275.488C545.979 270.266 548.7 264.314 548.805 257.317C549.014 248.963 548.909 240.713 548.909 232.463Z" fill="url(#paint24_linear)" stroke="#F79A8B" stroke-miterlimit="10"/>
<path d="M535.936 230.972L505.124 262L488.936 245.487C491.547 243.068 495.724 243.068 498.231 245.697L505.02 252.534L526.431 230.972C529.042 228.343 533.22 228.343 535.936 230.972Z" fill="#FCFEE5"/>
<path d="M510.195 274V321.608" stroke="#F79A8B" stroke-miterlimit="10" stroke-linecap="round"/>
<path d="M510.123 323.27C511.847 323.27 513.245 321.872 513.245 320.147C513.245 318.423 511.847 317.025 510.123 317.025C508.398 317.025 507 318.423 507 320.147C507 321.872 508.398 323.27 510.123 323.27Z" fill="#F79A8B"/>
<path d="M185 291.074C185 294.957 181.818 298 178 298C174.182 298 171 294.852 171 291.074C171 284.463 175.242 281 178 281C180.758 281 185 285.093 185 291.074Z" fill="url(#paint25_linear)"/>
<rect x="0.5" y="0.5" width="720" height="455" stroke="white" stroke-opacity="0.01"/>
<defs>
<linearGradient id="paint0_linear" x1="102.76" y1="258.509" x2="617.238" y2="258.509" gradientUnits="userSpaceOnUse">
<stop stop-color="#FCFEE5" stop-opacity="0"/>
<stop offset="0.0145605" stop-color="#FBF0D9" stop-opacity="0.0295774"/>
<stop offset="0.0492418" stop-color="#FAD6C1" stop-opacity="0.1"/>
<stop offset="0.0890889" stop-color="#F9C0AD" stop-opacity="0.181"/>
<stop offset="0.1355" stop-color="#F8AF9E" stop-opacity="0.2753"/>
<stop offset="0.1929" stop-color="#F7A393" stop-opacity="0.3918"/>
<stop offset="0.273" stop-color="#F79C8D" stop-opacity="0.5546"/>
<stop offset="0.4923" stop-color="#F79A8B"/>
<stop offset="0.5784" stop-color="#F7A393" stop-opacity="0.8304"/>
<stop offset="0.7199" stop-color="#F9BCA9" stop-opacity="0.5517"/>
<stop offset="0.8982" stop-color="#FBE4CE" stop-opacity="0.2005"/>
<stop offset="1" stop-color="#FCFEE5" stop-opacity="0"/>
</linearGradient>
<linearGradient id="paint1_linear" x1="11.7553" y1="275.997" x2="529.237" y2="275.997" gradientUnits="userSpaceOnUse">
<stop stop-color="#FCFEE5" stop-opacity="0"/>
<stop offset="0.0678736" stop-color="#F5E4D7" stop-opacity="0.1364"/>
<stop offset="0.2076" stop-color="#E8B4BC" stop-opacity="0.4173"/>
<stop offset="0.3308" stop-color="#DE91A9" stop-opacity="0.665"/>
<stop offset="0.4317" stop-color="#D87C9D" stop-opacity="0.8677"/>
<stop offset="0.4975" stop-color="#D67499"/>
<stop offset="0.6499" stop-color="#D7769A" stop-opacity="0.6968"/>
<stop offset="0.7324" stop-color="#D97E9F" stop-opacity="0.5325"/>
<stop offset="0.7983" stop-color="#DD8CA6" stop-opacity="0.4014"/>
<stop offset="0.8553" stop-color="#E29FB1" stop-opacity="0.288"/>
<stop offset="0.9066" stop-color="#E9B8BF" stop-opacity="0.1859"/>
<stop offset="0.9533" stop-color="#F1D7CF" stop-opacity="0.0928819"/>
<stop offset="0.9966" stop-color="#FBFBE3" stop-opacity="0.01"/>
<stop offset="1" stop-color="#FCFEE5" stop-opacity="0"/>
</linearGradient>
<linearGradient id="paint2_linear" x1="442.982" y1="415.001" x2="560.862" y2="415.001" gradientUnits="userSpaceOnUse">
<stop offset="0.4719" stop-color="#F79A8B"/>
<stop offset="0.5034" stop-color="#E98A91"/>
<stop offset="0.5493" stop-color="#DB7A97"/>
<stop offset="0.5842" stop-color="#D67499"/>
</linearGradient>
<linearGradient id="paint3_linear" x1="494.824" y1="337.257" x2="517.149" y2="371.447" gradientUnits="userSpaceOnUse">
<stop offset="0.2449" stop-color="#FCD8B6"/>
<stop offset="0.3273" stop-color="#F9CFB3"/>
<stop offset="0.4615" stop-color="#EFB7AC"/>
<stop offset="0.6297" stop-color="#E190A1"/>
<stop offset="0.7332" stop-color="#D67499"/>
</linearGradient>
<linearGradient id="paint4_linear" x1="477.486" y1="381.256" x2="492.84" y2="402.717" gradientUnits="userSpaceOnUse">
<stop stop-color="#F79A8B"/>
<stop offset="0.2921" stop-color="#FCD8B6"/>
<stop offset="0.3665" stop-color="#F9CFB3"/>
<stop offset="0.4877" stop-color="#EFB7AC"/>
<stop offset="0.6397" stop-color="#E190A1"/>
<stop offset="0.7332" stop-color="#D67499"/>
</linearGradient>
<linearGradient id="paint5_linear" x1="325.227" y1="163.018" x2="34.7117" y2="163.018" gradientUnits="userSpaceOnUse">
<stop stop-color="#FCFEE5" stop-opacity="0"/>
<stop offset="0.1018" stop-color="#FBE4CE" stop-opacity="0.1203"/>
<stop offset="0.2801" stop-color="#F9BCA9" stop-opacity="0.331"/>
<stop offset="0.4216" stop-color="#F7A393" stop-opacity="0.4982"/>
<stop offset="0.5077" stop-color="#F79A8B" stop-opacity="0.6"/>
<stop offset="0.727" stop-color="#F79C8D" stop-opacity="0.3327"/>
<stop offset="0.8071" stop-color="#F7A393" stop-opacity="0.2351"/>
<stop offset="0.8645" stop-color="#F8AF9E" stop-opacity="0.1652"/>
<stop offset="0.9109" stop-color="#F9C0AD" stop-opacity="0.1086"/>
<stop offset="0.9508" stop-color="#FAD6C1" stop-opacity="0.0600163"/>
<stop offset="0.9854" stop-color="#FBF0D9" stop-opacity="0.0177465"/>
<stop offset="1" stop-color="#FCFEE5" stop-opacity="0"/>
</linearGradient>
<linearGradient id="paint6_linear" x1="394.705" y1="226.531" x2="646.29" y2="226.531" gradientUnits="userSpaceOnUse">
<stop stop-color="#FCFEE5" stop-opacity="0"/>
<stop offset="0.0425308" stop-color="#F5E4D7" stop-opacity="0.0818568"/>
<stop offset="0.1301" stop-color="#E8B4BC" stop-opacity="0.2504"/>
<stop offset="0.2073" stop-color="#DE91A9" stop-opacity="0.399"/>
<stop offset="0.2705" stop-color="#D87C9D" stop-opacity="0.5206"/>
<stop offset="0.3117" stop-color="#D67499" stop-opacity="0.6"/>
<stop offset="0.5204" stop-color="#D7769A" stop-opacity="0.4181"/>
<stop offset="0.6335" stop-color="#D97E9F" stop-opacity="0.3195"/>
<stop offset="0.7237" stop-color="#DD8CA6" stop-opacity="0.2409"/>
<stop offset="0.8018" stop-color="#E29FB1" stop-opacity="0.1728"/>
<stop offset="0.8721" stop-color="#E9B8BF" stop-opacity="0.1115"/>
<stop offset="0.9361" stop-color="#F1D7CF" stop-opacity="0.0557292"/>
<stop offset="0.9954" stop-color="#FBFBE3" stop-opacity="0.01"/>
<stop offset="1" stop-color="#FCFEE5" stop-opacity="0"/>
</linearGradient>
<linearGradient id="paint7_linear" x1="156.018" y1="295.01" x2="454.95" y2="295.01" gradientUnits="userSpaceOnUse">
<stop stop-color="#F79A8B"/>
<stop offset="0.2076" stop-color="#F79C8D"/>
<stop offset="0.3092" stop-color="#F8A492"/>
<stop offset="0.3877" stop-color="#F9B19B"/>
<stop offset="0.454" stop-color="#FAC3A8"/>
<stop offset="0.5059" stop-color="#FCD8B6"/>
<stop offset="0.5252" stop-color="#F7CCB2"/>
<stop offset="0.5928" stop-color="#E9A6A7"/>
<stop offset="0.6553" stop-color="#DF8AA0"/>
<stop offset="0.7104" stop-color="#D87A9B"/>
<stop offset="0.7521" stop-color="#D67499"/>
</linearGradient>
<linearGradient id="paint8_linear" x1="195.77" y1="251.926" x2="412.612" y2="251.926" gradientUnits="userSpaceOnUse">
<stop offset="0.4034" stop-color="#FCD8B6"/>
<stop offset="0.439" stop-color="#F7CAB2"/>
<stop offset="0.5068" stop-color="#E8A4A7"/>
<stop offset="0.5808" stop-color="#D67499"/>
</linearGradient>
<linearGradient id="paint9_linear" x1="216.431" y1="196.482" x2="261.539" y2="196.482" gradientUnits="userSpaceOnUse">
<stop stop-color="#F79A8B"/>
<stop offset="0.6247" stop-color="#F79A8B"/>
<stop offset="0.8418" stop-color="#B24761"/>
</linearGradient>
<linearGradient id="paint10_linear" x1="216.438" y1="210.994" x2="261.555" y2="210.994" gradientUnits="userSpaceOnUse">
<stop stop-color="#F79A8B"/>
<stop offset="0.6247" stop-color="#F79A8B"/>
<stop offset="0.8418" stop-color="#B24761"/>
</linearGradient>
<linearGradient id="paint11_linear" x1="216.433" y1="224.006" x2="262.478" y2="224.006" gradientUnits="userSpaceOnUse">
<stop stop-color="#F79A8B"/>
<stop offset="0.6247" stop-color="#F79A8B"/>
<stop offset="0.8418" stop-color="#B24761"/>
</linearGradient>
<linearGradient id="paint12_linear" x1="216.427" y1="238.967" x2="263.506" y2="238.967" gradientUnits="userSpaceOnUse">
<stop stop-color="#F79A8B"/>
<stop offset="0.6247" stop-color="#F79A8B"/>
<stop offset="0.8418" stop-color="#B24761"/>
</linearGradient>
<linearGradient id="paint13_linear" x1="216.434" y1="253.033" x2="263.523" y2="253.033" gradientUnits="userSpaceOnUse">
<stop stop-color="#F79A8B"/>
<stop offset="0.6247" stop-color="#F79A8B"/>
<stop offset="0.8418" stop-color="#B24761"/>
</linearGradient>
<linearGradient id="paint14_linear" x1="216.428" y1="267.492" x2="264.551" y2="267.492" gradientUnits="userSpaceOnUse">
<stop stop-color="#F79A8B"/>
<stop offset="0.6247" stop-color="#F79A8B"/>
<stop offset="0.8418" stop-color="#B24761"/>
</linearGradient>
<linearGradient id="paint15_linear" x1="216.435" y1="279.964" x2="259.552" y2="279.964" gradientUnits="userSpaceOnUse">
<stop stop-color="#F79A8B"/>
<stop offset="0.6247" stop-color="#F79A8B"/>
<stop offset="0.8418" stop-color="#B24761"/>
</linearGradient>
<linearGradient id="paint16_linear" x1="267.259" y1="238.413" x2="356.273" y2="238.413" gradientUnits="userSpaceOnUse">
<stop stop-color="#F79A8B"/>
<stop offset="1" stop-color="#D67499"/>
</linearGradient>
<linearGradient id="paint17_linear" x1="267.259" y1="262.139" x2="356.273" y2="262.139" gradientUnits="userSpaceOnUse">
<stop stop-color="#F79A8B"/>
<stop offset="1" stop-color="#D67499"/>
</linearGradient>
<linearGradient id="paint18_linear" x1="267.259" y1="286.947" x2="356.273" y2="286.947" gradientUnits="userSpaceOnUse">
<stop stop-color="#F79A8B"/>
<stop offset="1" stop-color="#D67499"/>
</linearGradient>
<linearGradient id="paint19_linear" x1="267.259" y1="309.633" x2="356.273" y2="309.633" gradientUnits="userSpaceOnUse">
<stop stop-color="#F79A8B"/>
<stop offset="1" stop-color="#D67499"/>
</linearGradient>
<linearGradient id="paint20_linear" x1="374.723" y1="302.64" x2="390.925" y2="318.843" gradientUnits="userSpaceOnUse">
<stop offset="0.0891089" stop-color="#CEE3CD"/>
<stop offset="0.2093" stop-color="#B0D2BD"/>
<stop offset="0.3747" stop-color="#8DBDAB"/>
<stop offset="0.5101" stop-color="#77B1A0"/>
<stop offset="0.5977" stop-color="#6FAC9C"/>
<stop offset="0.7432" stop-color="#56A197"/>
<stop offset="0.8969" stop-color="#419793"/>
<stop offset="1" stop-color="#3A9492"/>
</linearGradient>
<linearGradient id="paint21_linear" x1="349.949" y1="317.429" x2="366.151" y2="333.633" gradientUnits="userSpaceOnUse">
<stop offset="0.0891089" stop-color="#CEE3CD"/>
<stop offset="0.2093" stop-color="#B0D2BD"/>
<stop offset="0.3747" stop-color="#8DBDAB"/>
<stop offset="0.5101" stop-color="#77B1A0"/>
<stop offset="0.5977" stop-color="#6FAC9C"/>
<stop offset="0.7432" stop-color="#56A197"/>
<stop offset="0.8969" stop-color="#419793"/>
<stop offset="1" stop-color="#3A9492"/>
</linearGradient>
<linearGradient id="paint22_linear" x1="424.271" y1="274.735" x2="440.473" y2="290.938" gradientUnits="userSpaceOnUse">
<stop offset="0.0891089" stop-color="#CEE3CD"/>
<stop offset="0.2093" stop-color="#B0D2BD"/>
<stop offset="0.3747" stop-color="#8DBDAB"/>
<stop offset="0.5101" stop-color="#77B1A0"/>
<stop offset="0.5977" stop-color="#6FAC9C"/>
<stop offset="0.7432" stop-color="#56A197"/>
<stop offset="0.8969" stop-color="#419793"/>
<stop offset="1" stop-color="#3A9492"/>
</linearGradient>
<linearGradient id="paint23_linear" x1="399.497" y1="288.817" x2="415.7" y2="305.02" gradientUnits="userSpaceOnUse">
<stop offset="0.0891089" stop-color="#CEE3CD"/>
<stop offset="0.2093" stop-color="#B0D2BD"/>
<stop offset="0.3747" stop-color="#8DBDAB"/>
<stop offset="0.5101" stop-color="#77B1A0"/>
<stop offset="0.5977" stop-color="#6FAC9C"/>
<stop offset="0.7432" stop-color="#56A197"/>
<stop offset="0.8969" stop-color="#419793"/>
<stop offset="1" stop-color="#3A9492"/>
</linearGradient>
<linearGradient id="paint24_linear" x1="475.213" y1="202.095" x2="544.899" y2="271.938" gradientUnits="userSpaceOnUse">
<stop stop-color="#FCD8B6"/>
<stop offset="0.3051" stop-color="#FFC28F"/>
<stop offset="0.4577" stop-color="#FDB88E"/>
<stop offset="0.7192" stop-color="#F79C8B"/>
<stop offset="0.7384" stop-color="#F79A8B"/>
</linearGradient>
<linearGradient id="paint25_linear" x1="172.395" y1="284.523" x2="183.327" y2="295.572" gradientUnits="userSpaceOnUse">
<stop offset="0.0891089" stop-color="#CEE3CD"/>
<stop offset="0.2093" stop-color="#B0D2BD"/>
<stop offset="0.3747" stop-color="#8DBDAB"/>
<stop offset="0.5101" stop-color="#77B1A0"/>
<stop offset="0.5977" stop-color="#6FAC9C"/>
<stop offset="0.7432" stop-color="#56A197"/>
<stop offset="0.8969" stop-color="#419793"/>
<stop offset="1" stop-color="#3A9492"/>
</linearGradient>
</defs>
</svg>
