<svg width="90" height="90" viewBox="0 0 90 90" fill="none" xmlns="http://www.w3.org/2000/svg">
<path d="M26.7004 48.3C25.8004 47.8 25.4004 47.1 25.4004 46.4C25.4004 45.7 25.4004 43 25.4004 43L42.0004 35.9C43.8004 34.9 46.7004 34.9 48.5004 35.9L64.9004 43.2C64.9004 43.2 64.9004 45.7 64.9004 46.4C64.9004 47.1 64.5004 47.8 63.6004 48.3L48.4004 57.1C46.6004 58.1 43.7004 58.1 42.0004 57.1L26.7004 48.3Z" fill="url(#paint0_linear)"/>
<path d="M45.1004 54.1C44.0004 54.1 42.9004 53.9 42.1004 53.4L27.0004 44.6C26.3004 44.2 25.9004 43.7 25.9004 43.2C25.9004 42.7 26.3004 42.2 27.0004 41.8L42.2004 33.1C43.0004 32.7 44.0004 32.4 45.2004 32.4C46.3004 32.4 47.4004 32.7 48.2004 33.1L63.3004 41.8C64.0004 42.2 64.4004 42.7 64.4004 43.2C64.4004 43.7 64.0004 44.2 63.3004 44.6L48.1004 53.4C47.3004 53.8 46.2004 54.1 45.1004 54.1Z" fill="#FCFEE5"/>
<path d="M45.2012 32.9C46.2012 32.9 47.2012 33.1 47.9012 33.5L63.0012 42.2C63.5012 42.5 63.8012 42.9 63.8012 43.2C63.8012 43.5 63.5012 43.9 63.0012 44.2L47.8012 53C47.1012 53.4 46.1012 53.6 45.1012 53.6C44.1012 53.6 43.1012 53.4 42.4012 53L27.2012 44.2C26.7012 43.9 26.4012 43.5 26.4012 43.2C26.4012 42.9 26.7012 42.5 27.2012 42.2L42.4012 33.5C43.2012 33.1 44.2012 32.9 45.2012 32.9ZM45.2012 31.9C44.0012 31.9 42.9012 32.2 42.0012 32.7L26.8012 41.4C25.0012 42.4 25.0012 44.1 26.8012 45.1L42.0012 53.9C42.9012 54.4 44.1012 54.7 45.2012 54.7C46.4012 54.7 47.5012 54.4 48.4012 53.9L63.6012 45.1C65.4012 44.1 65.4012 42.4 63.6012 41.4L48.5012 32.7C47.5012 32.1 46.4012 31.9 45.2012 31.9Z" fill="#CEE3CD"/>
<path d="M51.2004 62.5C50.3004 62 49.9004 61.3 49.9004 60.6C49.9004 59.9 49.9004 56.4 49.9004 56.4L66.5004 50.1C68.3004 49.1 71.2004 49.1 73.0004 50.1L89.4004 56.5C89.4004 56.5 89.4004 60 89.4004 60.6C89.4004 61.3 89.0004 62 88.1004 62.5L72.9004 71.3C71.1004 72.3 68.2004 72.3 66.5004 71.3L51.2004 62.5Z" fill="url(#paint1_linear)"/>
<path d="M69.5988 67.3C68.4988 67.3 67.3988 67.1 66.5988 66.6L51.3988 57.8C50.6988 57.4 50.2988 56.9 50.2988 56.4C50.2988 55.9 50.6988 55.4 51.3988 55L66.5988 46.3C67.3988 45.9 68.3988 45.6 69.5988 45.6C70.6988 45.6 71.7988 45.9 72.5988 46.3L87.6988 55C88.3988 55.4 88.7988 55.9 88.7988 56.4C88.7988 56.9 88.3988 57.4 87.6988 57.8L72.4988 66.6C71.6988 67.1 70.6988 67.3 69.5988 67.3Z" fill="#FCFEE5"/>
<path d="M69.5996 46.1C70.5996 46.1 71.5996 46.3 72.2996 46.7L87.3996 55.4C87.8996 55.7 88.1996 56.1 88.1996 56.4C88.1996 56.7 87.8996 57.1 87.3996 57.4L72.1996 66.2C71.4996 66.6 70.4996 66.8 69.4996 66.8C68.4996 66.8 67.4996 66.6 66.7996 66.2L51.5996 57.4C51.0996 57.1 50.7996 56.7 50.7996 56.4C50.7996 56.1 51.0996 55.7 51.5996 55.4L66.7996 46.7C67.5996 46.3 68.5996 46.1 69.5996 46.1ZM69.5996 45.1C68.3996 45.1 67.2996 45.4 66.3996 45.9L51.1996 54.6C49.3996 55.6 49.3996 57.3 51.1996 58.3L66.3996 67.1C67.2996 67.6 68.4996 67.9 69.5996 67.9C70.7996 67.9 71.8996 67.6 72.7996 67.1L87.9996 58.3C89.7996 57.3 89.7996 55.6 87.9996 54.6L72.8996 45.9C71.9996 45.4 70.7996 45.1 69.5996 45.1Z" fill="#CEE3CD"/>
<path d="M2.10078 62.5C1.20078 62 0.800781 61.3 0.800781 60.6C0.800781 59.9 0.800781 56 0.800781 56L17.4008 50C19.2008 49 22.1008 49 23.9008 50L40.3008 56C40.3008 56 40.3008 59.9 40.3008 60.5C40.3008 61.2 39.9008 61.9 39.0008 62.4L23.8008 71.2C22.0008 72.2 19.1008 72.2 17.4008 71.2L2.10078 62.5Z" fill="url(#paint2_linear)"/>
<path d="M20.3992 67.3C19.2992 67.3 18.1992 67.0999 17.3992 66.5999L2.29922 57.9C1.59922 57.5 1.19922 57 1.19922 56.5C1.19922 56 1.59922 55.4999 2.29922 55.0999L17.4992 46.4C18.2992 46 19.2992 45.7 20.4992 45.7C21.5992 45.7 22.6992 46 23.4992 46.4L38.5992 55C39.2992 55.4 39.6992 55.9 39.6992 56.4C39.6992 56.9 39.2992 57.4 38.5992 57.7999L23.3992 66.5999C22.5992 67.0999 21.5992 67.3 20.3992 67.3Z" fill="#FCFEE5"/>
<path d="M20.5 46.1C21.5 46.1 22.5 46.3 23.2 46.7L38.3 55.4C38.8 55.7 39.1 56.1 39.1 56.4C39.1 56.7 38.8 57.1 38.3 57.4L23.1 66.2C22.4 66.6 21.4 66.8 20.4 66.8C19.4 66.8 18.4 66.6 17.7 66.2L2.6 57.4C2.1 57.1 1.8 56.7 1.8 56.4C1.8 56.1 2.1 55.7 2.6 55.4L17.8 46.7C18.5 46.3 19.5 46.1 20.5 46.1ZM20.5 45.1C19.3 45.1 18.2 45.4 17.3 45.9L2.1 54.6C0.3 55.6 0.3 57.3 2.1 58.3L17.3 67.1C18.2 67.6 19.4 67.9 20.5 67.9C21.7 67.9 22.8 67.6 23.7 67.1L38.9 58.3C40.7 57.3 40.7 55.6 38.9 54.6L23.8 45.9C22.9 45.4 21.7 45.1 20.5 45.1Z" fill="#CEE3CD"/>
<path d="M26.7004 77.2C25.8004 76.7 25.4004 76 25.4004 75.3C25.4004 74.6 25.4004 71.1 25.4004 71.1L42.0004 64.8C43.8004 63.8 46.7004 63.8 48.5004 64.8L64.9004 71.2C64.9004 71.2 64.9004 74.7 64.9004 75.4C64.9004 76.1 64.5004 76.8 63.6004 77.3L48.3004 86C46.5004 87 43.6004 87 41.9004 86L26.7004 77.2Z" fill="url(#paint3_linear)"/>
<path d="M45.1004 82C44.0004 82 42.9004 81.8001 42.1004 81.3001L27.0004 72.6C26.3004 72.2 25.9004 71.7 25.9004 71.2C25.9004 70.7 26.3004 70.2001 27.0004 69.8001L42.2004 61C43.0004 60.6 44.0004 60.3 45.2004 60.3C46.3004 60.3 47.4004 60.6 48.2004 61L63.3004 69.7C64.0004 70.1 64.4004 70.6 64.4004 71.1C64.4004 71.6 64.0004 72.1 63.3004 72.5L48.1004 81.3001C47.3004 81.8001 46.2004 82 45.1004 82Z" fill="#FCFEE5"/>
<path d="M45.2012 60.8C46.2012 60.8 47.2012 61.0001 47.9012 61.4001L63.0012 70.1C63.5012 70.4 63.8012 70.8 63.8012 71.1C63.8012 71.4 63.5012 71.8 63.0012 72.1L47.8012 80.9001C47.1012 81.3001 46.1012 81.5 45.1012 81.5C44.1012 81.5 43.1012 81.3001 42.4012 80.9001L27.2012 72.1C26.7012 71.8 26.4012 71.4 26.4012 71.1C26.4012 70.8 26.7012 70.4 27.2012 70.1L42.4012 61.4001C43.2012 61.0001 44.2012 60.8 45.2012 60.8ZM45.2012 59.8C44.0012 59.8 42.9012 60.1 42.0012 60.6L26.8012 69.3001C25.0012 70.3001 25.0012 72 26.8012 73L42.0012 81.8001C42.9012 82.3001 44.1012 82.6 45.2012 82.6C46.4012 82.6 47.5012 82.3001 48.4012 81.8001L63.5012 73C65.3012 72 65.3012 70.3001 63.5012 69.3001L48.4012 60.6C47.5012 60.1 46.4012 59.8 45.2012 59.8Z" fill="#CEE3CD"/>
<path d="M50.1995 73.9C50.9995 73.3 51.2995 72.5 50.9995 71.6C50.7995 71 50.3995 70.3 49.6995 69.8C49.4995 69.7 49.3995 69.5 49.1995 69.4C49.3995 69.3 49.6995 69.2 49.8995 69C49.6995 68.8 49.3995 68.7 49.1995 68.5C48.9995 68.6 48.6995 68.7 48.4995 68.9C48.0995 68.7 47.6995 68.5 47.2995 68.4C46.0995 67.9 44.7995 67.6 43.4995 67.6C42.2995 67.6 41.2995 67.7 40.3995 68.1C40.2995 68.2 40.1995 68.2 39.9995 68.3C41.6995 68.4 43.1995 69.3 43.1995 70.3C43.8995 70.3 44.4995 70.5 45.0995 70.7C44.0995 71.2 42.4995 72.1 41.8995 72.4C41.6995 72.5 41.4995 72.6 41.1995 72.5C40.7995 72.5 40.4995 72.3 40.2995 72.1C40.0995 71.9 40.0995 71.7 40.2995 71.5C40.3995 71.4 40.4995 71.4 40.5995 71.3C40.7995 71.2 40.8995 71.1 41.0995 71.1C40.7995 70.9 40.5995 70.8 40.3995 70.6C40.1995 70.7 39.9995 70.8 39.7995 70.9C39.6995 71 39.4995 71.1 39.3995 71.2C38.8995 71.7 39.2995 72.4 40.1995 72.8C40.9995 73.1 41.9995 73.2 42.5995 72.8C43.2995 72.4 44.8995 71.6 45.8995 71.1C46.2995 71.4 46.4995 71.8 46.4995 72.2C47.3995 72.3 48.0995 72.5 48.6995 72.9C49.2995 73.3 49.5995 73.7 49.6995 74.2C49.7995 74.1 49.9995 74 50.1995 73.9Z" fill="#3A9492"/>
<path d="M16.0008 57.7999L13.8008 56.5999C13.8008 56.5999 18.9008 53.6999 21.2008 52.2999C21.3008 52.1999 21.5008 52.2 21.7008 52.2C21.9008 52.2 22.1008 52.3 22.2008 52.4C24.2008 53.6 24.7008 53.9 26.8008 55C27.1008 55.2 27.2008 55.3999 26.9008 55.5999C24.6008 56.8999 19.5008 59.9 19.5008 59.9L17.4008 58.7C17.4008 58.7 18.3008 58.2 18.7008 58C18.8008 57.9 18.8008 57.8999 18.8008 57.7999C18.7008 57.4999 18.2008 57.2 17.7008 57.2C17.6008 57.2 17.5008 57.1999 17.4008 57.2999C16.9008 57.1999 16.0008 57.7999 16.0008 57.7999ZM22.6008 56.9C22.3008 56.7 22.0008 56.6 21.7008 56.4C21.2008 56.7 20.7008 57 20.3008 57.2C20.6008 57.4 20.9008 57.5 21.2008 57.7C21.7008 57.5 22.1008 57.2 22.6008 56.9ZM23.4008 56.5C23.9008 56.2 24.4008 55.9 24.8008 55.7C24.5008 55.5 24.2008 55.4 23.9008 55.2C23.4008 55.5 22.9008 55.8 22.5008 56C22.9008 56.1 23.1008 56.3 23.4008 56.5ZM18.8008 56.4C19.1008 56.6 19.4008 56.7 19.7008 56.9C20.2008 56.6 20.7008 56.2999 21.1008 56.0999C20.8008 55.8999 20.5008 55.7999 20.2008 55.5999C19.8008 55.7999 19.3008 56.1 18.8008 56.4ZM18.2008 56C18.7008 55.7 19.2008 55.4 19.6008 55.2C19.3008 55 19.0008 54.9 18.7008 54.7C18.2008 55 17.7008 55.3 17.3008 55.5C17.6008 55.7 17.9008 55.9 18.2008 56ZM21.9008 55.5999C22.4008 55.2999 22.9008 54.9999 23.3008 54.7999C23.0008 54.5999 22.7008 54.4999 22.4008 54.2999C21.9008 54.5999 21.4008 54.8999 21.0008 55.0999C21.4008 55.2999 21.6008 55.3999 21.9008 55.5999ZM21.0008 53.4C20.5008 53.7 20.0008 54 19.6008 54.2C19.9008 54.4 20.2008 54.5 20.5008 54.7C21.0008 54.4 21.5008 54.1 21.9008 53.9C21.6008 53.7 21.3008 53.6 21.0008 53.4Z" fill="#3A9492"/>
<path d="M73.9008 60.4C72.8008 59.3 71.8008 58.2 70.7008 57.1C70.7008 57.1 70.6008 57.1 70.6008 57.2C69.9008 57.6 69.2008 58 68.5008 58.4C68.4008 58.4 68.4008 58.5 68.4008 58.5C68.6008 58.9 68.7008 59.3 68.9008 59.8C68.9008 59.9 68.9008 59.9 68.8008 59.9C68.6008 60 68.4008 60.1 68.2008 60.2L68.1008 60.1C67.6008 59.6 67.1008 59.1 66.7008 58.6C66.7008 58.6 66.6008 58.5 66.5008 58.5C65.6008 58.2 64.8008 57.9 63.9008 57.7C63.9008 57.7 63.8008 57.7 63.7008 57.6C63.9008 57.5 64.1008 57.4 64.3008 57.2H64.4008C65.1008 57.3 65.9008 57.4 66.6008 57.5C66.7008 57.5 66.7008 57.5 66.8008 57.5C67.5008 57.1 68.2008 56.7 68.9008 56.3C68.9008 56.3 68.9008 56.3 69.0008 56.3C67.1008 55.7 65.2008 55.1 63.3008 54.5C63.5008 54.4 63.6008 54.3 63.8008 54.2C63.9008 54.1 64.0008 54.1 64.2008 54C64.5008 53.8 64.9008 53.8 65.3008 53.9C67.2008 54.3 69.0008 54.7 70.9008 55.2C71.0008 55.2 71.1008 55.2 71.2008 55.2C72.0008 54.7 72.8008 54.3 73.6008 53.8C73.9008 53.6 74.2008 53.6 74.7008 53.7C75.3008 53.8 75.6008 54.3 75.3008 54.6C75.2008 54.6 75.2008 54.7 75.1008 54.7C74.3008 55.2 73.5008 55.6 72.7008 56.1C72.6008 56.1 72.6008 56.2 72.7008 56.2C73.4008 57.3 74.2008 58.3 74.9008 59.4C75.1008 59.7 75.0008 59.9 74.7008 60.1C74.5008 60 74.2008 60.2 73.9008 60.4C74.0008 60.3 74.0008 60.3 73.9008 60.4Z" fill="#3A9492"/>
<path d="M81.6004 6.59996L45.4004 42.9L26.4004 23.7C29.5004 20.8 34.3004 20.9 37.3004 23.9L45.3004 31.9L70.5004 6.69996C73.5004 3.59996 78.5004 3.59996 81.6004 6.59996Z" fill="url(#paint4_linear)" stroke="#3A9492" stroke-miterlimit="10"/>
<defs>
<linearGradient id="paint0_linear" x1="25.3882" y1="46.4636" x2="64.821" y2="46.4636" gradientUnits="userSpaceOnUse">
<stop stop-color="#93C1AF"/>
<stop offset="0.4293" stop-color="#93C1AF"/>
<stop offset="0.5001" stop-color="#CEE3CD"/>
<stop offset="0.5223" stop-color="#B0D3C1"/>
<stop offset="0.5511" stop-color="#91C2B5"/>
<stop offset="0.5839" stop-color="#75B4AA"/>
<stop offset="0.6208" stop-color="#5FA8A1"/>
<stop offset="0.664" stop-color="#4E9F9A"/>
<stop offset="0.7174" stop-color="#439995"/>
<stop offset="0.7922" stop-color="#3C9593"/>
<stop offset="1" stop-color="#3A9492"/>
</linearGradient>
<linearGradient id="paint1_linear" x1="49.8357" y1="60.7136" x2="89.2686" y2="60.7136" gradientUnits="userSpaceOnUse">
<stop stop-color="#93C1AF"/>
<stop offset="0.4293" stop-color="#93C1AF"/>
<stop offset="0.5001" stop-color="#CEE3CD"/>
<stop offset="0.5223" stop-color="#B0D3C1"/>
<stop offset="0.5511" stop-color="#91C2B5"/>
<stop offset="0.5839" stop-color="#75B4AA"/>
<stop offset="0.6208" stop-color="#5FA8A1"/>
<stop offset="0.664" stop-color="#4E9F9A"/>
<stop offset="0.7174" stop-color="#439995"/>
<stop offset="0.7922" stop-color="#3C9593"/>
<stop offset="1" stop-color="#3A9492"/>
</linearGradient>
<linearGradient id="paint2_linear" x1="0.732581" y1="60.7136" x2="40.1655" y2="60.7136" gradientUnits="userSpaceOnUse">
<stop stop-color="#93C1AF"/>
<stop offset="0.4293" stop-color="#93C1AF"/>
<stop offset="0.5001" stop-color="#CEE3CD"/>
<stop offset="0.5223" stop-color="#B0D3C1"/>
<stop offset="0.5511" stop-color="#91C2B5"/>
<stop offset="0.5839" stop-color="#75B4AA"/>
<stop offset="0.6208" stop-color="#5FA8A1"/>
<stop offset="0.664" stop-color="#4E9F9A"/>
<stop offset="0.7174" stop-color="#439995"/>
<stop offset="0.7922" stop-color="#3C9593"/>
<stop offset="1" stop-color="#3A9492"/>
</linearGradient>
<linearGradient id="paint3_linear" x1="25.3882" y1="75.3934" x2="64.821" y2="75.3934" gradientUnits="userSpaceOnUse">
<stop stop-color="#93C1AF"/>
<stop offset="0.4293" stop-color="#93C1AF"/>
<stop offset="0.5001" stop-color="#CEE3CD"/>
<stop offset="0.5223" stop-color="#B0D3C1"/>
<stop offset="0.5511" stop-color="#91C2B5"/>
<stop offset="0.5839" stop-color="#75B4AA"/>
<stop offset="0.6208" stop-color="#5FA8A1"/>
<stop offset="0.664" stop-color="#4E9F9A"/>
<stop offset="0.7174" stop-color="#439995"/>
<stop offset="0.7922" stop-color="#3C9593"/>
<stop offset="1" stop-color="#3A9492"/>
</linearGradient>
<linearGradient id="paint4_linear" x1="26.3861" y1="23.6084" x2="81.6012" y2="23.6084" gradientUnits="userSpaceOnUse">
<stop stop-color="#FCFEE5"/>
<stop offset="0.1796" stop-color="#CEE3CD"/>
<stop offset="1" stop-color="#6FAC9C"/>
</linearGradient>
</defs>
</svg>
