<svg width="629" height="425" viewBox="0 0 629 425" fill="none" xmlns="http://www.w3.org/2000/svg">
<path d="M618.708 37.8945L-1.3623 396.861" stroke="url(#paint0_linear)" stroke-miterlimit="10"/>
<path d="M140.859 130.661V314.506" stroke="#F17F67" stroke-miterlimit="10"/>
<path d="M458.146 130.661V314.506" stroke="#F17F67" stroke-miterlimit="10"/>
<path d="M140.859 314.506L297.491 403.895" stroke="url(#paint1_linear)" stroke-miterlimit="10"/>
<path d="M565.562 253.255L327.246 391.233" stroke="url(#paint2_linear)" stroke-miterlimit="10"/>
<path d="M337.351 17.7278L60.3916 177.935" stroke="url(#paint3_linear)" stroke-miterlimit="10"/>
<path d="M11.4561 56.4666L618.707 407.929" stroke="url(#paint4_linear)" stroke-miterlimit="10"/>
<path d="M140.859 314.506L297.491 403.895" stroke="url(#paint5_linear)" stroke-miterlimit="10"/>
<path d="M368.229 78.603L587.176 204.949" stroke="url(#paint6_linear)" stroke-miterlimit="10"/>
<path d="M209.632 218.644L185.211 276.048L292.252 270.889L264.182 226.241L260.72 202.51L209.632 218.644Z" fill="#FFEED4" stroke="#FFEED4" stroke-linecap="round" stroke-linejoin="round"/>
<path d="M292.252 270.889L290.474 248.284L264.182 226.241L292.252 270.889Z" fill="#F79A8B" stroke="#F79A8B" stroke-linecap="round" stroke-linejoin="round"/>
<path d="M355.41 202.51L395.176 215.267L402.755 260.947L371.036 264.699L382.17 223.146L355.41 202.51Z" fill="#FFEED4" stroke="#FFEED4" stroke-linecap="round" stroke-linejoin="round"/>
<path d="M333.141 172.964L410.989 116.873L413.047 150.265L402.38 183.282L407.901 187.409L400.977 191.817L406.497 195.945L400.322 201.854L404.439 205.231L395.176 215.267L355.41 202.51L333.141 172.964Z" fill="#D67499" stroke="#D67499" stroke-linecap="round" stroke-linejoin="round"/>
<path d="M218.521 93.5168L302.919 172.964L260.72 202.51L209.632 218.644L199.34 203.542L204.486 199.79L195.504 192.849L201.024 187.034L193.819 180.186L197.936 176.059L195.878 132.349L218.521 93.5168Z" fill="#D67499" stroke="#D67499" stroke-linecap="round" stroke-linejoin="round"/>
<path d="M331.176 136.101L410.989 116.873L333.141 172.964L331.176 136.101Z" fill="#FCD8B6" stroke="#FCD8B6" stroke-linecap="round" stroke-linejoin="round"/>
<path d="M274.754 130.942L302.918 172.964L218.521 93.5168L274.754 130.942Z" fill="#FCD8B6" stroke="#FCD8B6" stroke-linecap="round" stroke-linejoin="round"/>
<path d="M331.176 136.101L274.755 130.942L302.919 172.964L320.229 227.648L327.62 245.189L355.036 286.366L379.737 284.678L350.919 243.407L333.141 172.964L331.176 136.101Z" fill="#FFEED4" stroke="#FFEED4" stroke-linecap="round" stroke-linejoin="round"/>
<path d="M260.72 202.51L264.182 226.241L320.229 227.648L302.919 172.964L260.72 202.51Z" fill="#FCD8B6" stroke="#FCD8B6" stroke-linecap="round" stroke-linejoin="round"/>
<path d="M346.895 227.648L382.17 223.146L355.41 202.51L333.141 172.964L346.895 227.648Z" fill="#FCD8B6" stroke="#FCD8B6" stroke-linecap="round" stroke-linejoin="round"/>
<path d="M356.72 251.661L371.036 243.782L382.17 223.146L346.896 227.648L350.919 243.406L356.72 251.661Z" fill="#FFC28F" stroke="#FFC28F" stroke-linecap="round" stroke-linejoin="round"/>
<path d="M264.182 226.241L290.474 248.284L317.983 254.475L320.228 227.648L264.182 226.241Z" fill="#FFC28F" stroke="#FFC28F" stroke-linecap="round" stroke-linejoin="round"/>
<path d="M317.982 254.475L355.035 286.366L327.62 245.189L320.228 227.648L317.982 254.475Z" fill="#F79A8B" stroke="#F79A8B" stroke-linecap="round" stroke-linejoin="round"/>
<path d="M290.474 248.284L308.439 237.403L317.982 254.475L290.474 248.284Z" fill="#B24761" stroke="#B24761" stroke-linecap="round" stroke-linejoin="round"/>
<path d="M292.251 270.889L350.544 290.212L355.035 286.366L317.982 254.475L290.474 248.284L292.251 270.889Z" fill="#FFEED4" stroke="#FFEED4" stroke-linecap="round" stroke-linejoin="round"/>
<path d="M185.211 276.048L200.65 333.828L274.755 309.816L256.883 272.672L185.211 276.048Z" fill="#FCD8B6" stroke="#FCD8B6" stroke-linecap="round" stroke-linejoin="round"/>
<path d="M292.252 270.889L274.755 309.816L256.884 272.672L292.252 270.889Z" fill="#F79A8B" stroke="#F79A8B" stroke-linecap="round" stroke-linejoin="round"/>
<path d="M350.544 290.212L292.252 270.889L274.755 309.816L350.544 290.212Z" fill="#FCD8B6" stroke="#FCD8B6" stroke-linecap="round" stroke-linejoin="round"/>
<path d="M371.036 264.699L379.737 284.678L356.72 251.661L371.036 243.782V264.699Z" fill="#FFEED4" stroke="#FFEED4" stroke-linecap="round" stroke-linejoin="round"/>
<path d="M402.754 260.947L388.345 309.816L382.17 306.72L387.316 290.212L379.737 284.678L371.035 264.699L402.754 260.947Z" fill="#FCD8B6" stroke="#FCD8B6" stroke-linecap="round" stroke-linejoin="round"/>
<path d="M376.649 277.455L387.316 262.823L371.035 264.699L376.649 277.455Z" fill="#F79A8B" stroke="#F79A8B" stroke-linecap="round" stroke-linejoin="round"/>
<path d="M274.755 309.816L292.252 317.695L344.462 327.637L373.094 322.854L382.17 306.72L353.632 308.033L346.895 309.816L341 317.226L274.755 309.816Z" fill="#FFC28F" stroke="#FFC28F" stroke-linecap="round" stroke-linejoin="round"/>
<path d="M350.544 290.212L274.755 309.816L341 317.226L346.895 309.816L350.544 290.212Z" fill="#FFEED4" stroke="#FFEED4" stroke-linecap="round" stroke-linejoin="round"/>
<path d="M371.035 243.782V264.699L382.17 223.146L371.035 243.782Z" fill="#F79A8B" stroke="#F79A8B" stroke-linecap="round" stroke-linejoin="round"/>
<path d="M355.035 237.403L371.035 243.782L356.72 251.661L353.632 247.346L355.035 237.403Z" fill="#B24761" stroke="#B24761" stroke-linecap="round" stroke-linejoin="round"/>
<path d="M346.896 309.816L350.545 290.212L355.036 286.366L379.738 284.678L387.317 290.212L382.17 306.72L353.632 308.034L346.896 309.816Z" fill="#B24761" stroke="#B24761" stroke-linecap="round" stroke-linejoin="round"/>
<defs>
<linearGradient id="paint0_linear" x1="-1.57133" y1="217.376" x2="618.938" y2="217.376" gradientUnits="userSpaceOnUse">
<stop stop-color="#FCFEE5" stop-opacity="0"/>
<stop offset="0.016039" stop-color="#FBF0D9" stop-opacity="0.0295774"/>
<stop offset="0.054242" stop-color="#FAD6C1" stop-opacity="0.1"/>
<stop offset="0.0981353" stop-color="#F9C0AD" stop-opacity="0.181"/>
<stop offset="0.1493" stop-color="#F8AF9E" stop-opacity="0.2753"/>
<stop offset="0.2125" stop-color="#F7A393" stop-opacity="0.3918"/>
<stop offset="0.3007" stop-color="#F79C8D" stop-opacity="0.5546"/>
<stop offset="0.5423" stop-color="#F79A8B"/>
<stop offset="0.6948" stop-color="#F79C8D" stop-opacity="0.6668"/>
<stop offset="0.7775" stop-color="#F8A494" stop-opacity="0.4862"/>
<stop offset="0.8434" stop-color="#F8B2A1" stop-opacity="0.3421"/>
<stop offset="0.9005" stop-color="#F9C5B2" stop-opacity="0.2174"/>
<stop offset="0.9513" stop-color="#FADEC8" stop-opacity="0.1063"/>
<stop offset="0.998" stop-color="#FCFCE4" stop-opacity="0.01"/>
<stop offset="1" stop-color="#FCFEE5" stop-opacity="0"/>
</linearGradient>
<linearGradient id="paint1_linear" x1="140.643" y1="359.218" x2="297.725" y2="359.218" gradientUnits="userSpaceOnUse">
<stop stop-color="#EFEFEF" stop-opacity="0.5"/>
<stop offset="0.032661" stop-color="#ECECEC" stop-opacity="0.5201"/>
<stop offset="0.2841" stop-color="#DDDDDD" stop-opacity="0.6748"/>
<stop offset="0.4876" stop-color="#D8D8D8" stop-opacity="0.8"/>
<stop offset="1" stop-color="#EFEFEF" stop-opacity="0.5"/>
</linearGradient>
<linearGradient id="paint2_linear" x1="327.03" y1="322.226" x2="565.803" y2="322.226" gradientUnits="userSpaceOnUse">
<stop stop-color="#FCFEE5" stop-opacity="0"/>
<stop offset="0.016039" stop-color="#FBF0D9" stop-opacity="0.0295774"/>
<stop offset="0.054242" stop-color="#FAD6C1" stop-opacity="0.1"/>
<stop offset="0.0981353" stop-color="#F9C0AD" stop-opacity="0.181"/>
<stop offset="0.1493" stop-color="#F8AF9E" stop-opacity="0.2753"/>
<stop offset="0.2125" stop-color="#F7A393" stop-opacity="0.3918"/>
<stop offset="0.3007" stop-color="#F79C8D" stop-opacity="0.5546"/>
<stop offset="0.5423" stop-color="#F79A8B"/>
<stop offset="0.6948" stop-color="#F79C8D" stop-opacity="0.6668"/>
<stop offset="0.7775" stop-color="#F8A494" stop-opacity="0.4862"/>
<stop offset="0.8434" stop-color="#F8B2A1" stop-opacity="0.3421"/>
<stop offset="0.9005" stop-color="#F9C5B2" stop-opacity="0.2174"/>
<stop offset="0.9513" stop-color="#FADEC8" stop-opacity="0.1063"/>
<stop offset="0.998" stop-color="#FCFCE4" stop-opacity="0.01"/>
<stop offset="1" stop-color="#FCFEE5" stop-opacity="0"/>
</linearGradient>
<linearGradient id="paint3_linear" x1="60.1716" y1="97.84" x2="337.539" y2="97.84" gradientUnits="userSpaceOnUse">
<stop stop-color="#FCFEE5" stop-opacity="0"/>
<stop offset="0.016039" stop-color="#FBF0D9" stop-opacity="0.0295774"/>
<stop offset="0.054242" stop-color="#FAD6C1" stop-opacity="0.1"/>
<stop offset="0.0981353" stop-color="#F9C0AD" stop-opacity="0.181"/>
<stop offset="0.1493" stop-color="#F8AF9E" stop-opacity="0.2753"/>
<stop offset="0.2125" stop-color="#F7A393" stop-opacity="0.3918"/>
<stop offset="0.3007" stop-color="#F79C8D" stop-opacity="0.5546"/>
<stop offset="0.5423" stop-color="#F79A8B"/>
<stop offset="0.6948" stop-color="#F79C8D" stop-opacity="0.6668"/>
<stop offset="0.7775" stop-color="#F8A494" stop-opacity="0.4862"/>
<stop offset="0.8434" stop-color="#F8B2A1" stop-opacity="0.3421"/>
<stop offset="0.9005" stop-color="#F9C5B2" stop-opacity="0.2174"/>
<stop offset="0.9513" stop-color="#FADEC8" stop-opacity="0.1063"/>
<stop offset="0.998" stop-color="#FCFCE4" stop-opacity="0.01"/>
<stop offset="1" stop-color="#FCFEE5" stop-opacity="0"/>
</linearGradient>
<linearGradient id="paint4_linear" x1="11.2253" y1="232.182" x2="618.938" y2="232.182" gradientUnits="userSpaceOnUse">
<stop stop-color="#FCFEE5" stop-opacity="0"/>
<stop offset="0.0165844" stop-color="#F7EADA" stop-opacity="0.0305832"/>
<stop offset="0.0487949" stop-color="#EECBC9" stop-opacity="0.0899822"/>
<stop offset="0.085206" stop-color="#E6B0BA" stop-opacity="0.1571"/>
<stop offset="0.1263" stop-color="#E09AAE" stop-opacity="0.2329"/>
<stop offset="0.1742" stop-color="#DC89A4" stop-opacity="0.3213"/>
<stop offset="0.2334" stop-color="#D87D9E" stop-opacity="0.4304"/>
<stop offset="0.3161" stop-color="#D7769A" stop-opacity="0.5829"/>
<stop offset="0.5423" stop-color="#D67499"/>
<stop offset="0.6811" stop-color="#D7769A" stop-opacity="0.6968"/>
<stop offset="0.7563" stop-color="#D97E9F" stop-opacity="0.5325"/>
<stop offset="0.8162" stop-color="#DD8CA6" stop-opacity="0.4014"/>
<stop offset="0.8682" stop-color="#E29FB1" stop-opacity="0.288"/>
<stop offset="0.9149" stop-color="#E9B8BF" stop-opacity="0.1859"/>
<stop offset="0.9575" stop-color="#F1D7CF" stop-opacity="0.0928819"/>
<stop offset="0.9969" stop-color="#FBFBE3" stop-opacity="0.01"/>
<stop offset="1" stop-color="#FCFEE5" stop-opacity="0"/>
</linearGradient>
<linearGradient id="paint5_linear" x1="140.643" y1="359.218" x2="297.725" y2="359.218" gradientUnits="userSpaceOnUse">
<stop offset="0.2301" stop-color="#D87399"/>
<stop offset="0.3398" stop-color="#DB7D9F"/>
<stop offset="0.5233" stop-color="#E296AF"/>
<stop offset="0.758" stop-color="#EDC0C9"/>
<stop offset="1" stop-color="#FBF3E8"/>
</linearGradient>
<linearGradient id="paint6_linear" x1="367.99" y1="141.766" x2="587.443" y2="141.766" gradientUnits="userSpaceOnUse">
<stop stop-color="#FCFEE5" stop-opacity="0"/>
<stop offset="0.0165844" stop-color="#F7EADA" stop-opacity="0.0305832"/>
<stop offset="0.0487949" stop-color="#EECBC9" stop-opacity="0.0899822"/>
<stop offset="0.085206" stop-color="#E6B0BA" stop-opacity="0.1571"/>
<stop offset="0.1263" stop-color="#E09AAE" stop-opacity="0.2329"/>
<stop offset="0.1742" stop-color="#DC89A4" stop-opacity="0.3213"/>
<stop offset="0.2334" stop-color="#D87D9E" stop-opacity="0.4304"/>
<stop offset="0.3161" stop-color="#D7769A" stop-opacity="0.5829"/>
<stop offset="0.5423" stop-color="#D67499"/>
<stop offset="0.6811" stop-color="#D7769A" stop-opacity="0.6968"/>
<stop offset="0.7563" stop-color="#D97E9F" stop-opacity="0.5325"/>
<stop offset="0.8162" stop-color="#DD8CA6" stop-opacity="0.4014"/>
<stop offset="0.8682" stop-color="#E29FB1" stop-opacity="0.288"/>
<stop offset="0.9149" stop-color="#E9B8BF" stop-opacity="0.1859"/>
<stop offset="0.9575" stop-color="#F1D7CF" stop-opacity="0.0928819"/>
<stop offset="0.9969" stop-color="#FBFBE3" stop-opacity="0.01"/>
<stop offset="1" stop-color="#FCFEE5" stop-opacity="0"/>
</linearGradient>
</defs>
</svg>
