<svg width="90" height="90" viewBox="0 0 90 90" fill="none" xmlns="http://www.w3.org/2000/svg">
<path d="M2.9002 61.6999C2.1002 61.1999 1.7002 60.5999 1.7002 59.9999C1.7002 59.3999 1.7002 56.9999 1.7002 56.9999L35.9002 39.1999C37.5002 38.2999 40.2002 38.2999 41.8002 39.1999L88.9002 64.2999C88.9002 64.2999 88.9002 66.6999 88.9002 67.1999C88.9002 67.8999 88.6002 68.4999 87.7002 68.9999L53.8002 88.1999C52.2002 89.0999 49.5002 89.0999 47.9002 88.0999L2.9002 61.6999Z" fill="url(#paint0_linear)"/>
<path d="M2.9002 58.5999C1.3002 57.6999 1.3002 56.0999 2.9002 55.1999L35.9002 36.1999C37.5002 35.2999 40.2002 35.2999 41.8002 36.1999L87.7002 62.6999C89.3002 63.5999 89.3002 65.1999 87.7002 66.0999L53.8002 85.1999C52.2002 86.0999 49.5002 86.0999 47.9002 85.0999L2.9002 58.5999Z" fill="#FCFEE5"/>
<path d="M87.6999 62.6999L41.7999 36.1999C40.1999 35.2999 37.4999 35.2999 35.8999 36.1999L32.8999 37.8999C32.9999 37.8999 33.0999 37.9999 33.1999 37.9999L84.6999 67.6999L87.6999 65.9999C89.2999 65.1999 89.2999 63.6999 87.6999 62.6999Z" fill="#3A9492"/>
<path d="M14.3998 53L27.5998 60.6L20.9998 64.4L7.7998 56.8L14.3998 53Z" fill="#CEE3CD"/>
<path d="M29.2001 61.7002L42.4001 69.3002L35.8001 73.1002L22.6001 65.5002L29.2001 61.7002Z" fill="#CEE3CD"/>
<path d="M44.1 70.3999L57.3 77.9999L50.7 81.7999L37.5 74.1999L44.1 70.3999Z" fill="#CEE3CD"/>
<path d="M32.6998 49.1001C33.5998 48.6001 35.1998 48.6001 36.0998 49.1001L66.7998 66.9001C67.6998 67.4001 67.6998 68.3001 66.7998 68.9001L63.2998 70.9001C62.3998 71.4001 60.7998 71.4001 59.8998 70.9001L29.0998 53.1001C28.1998 52.6001 28.1998 51.7001 29.0998 51.1001L32.6998 49.1001Z" fill="#93C1AF"/>
<path d="M66.7002 66.9002L61.2002 63.7002C61.2002 63.7002 61.1002 63.7002 61.1002 63.8002L54.5002 67.5002C54.4002 67.6002 54.3002 67.6002 54.2002 67.6002L59.8002 70.8002C60.7002 71.3002 62.3002 71.3002 63.2002 70.8002L66.7002 68.8002C67.7002 68.3002 67.7002 67.4002 66.7002 66.9002Z" fill="#3A9492"/>
<path d="M38.5002 38.6999C38.1002 38.4999 38.1002 38.0999 38.5002 37.7999C38.9002 37.5999 39.6002 37.5999 40.0002 37.7999C40.4002 37.9999 40.4002 38.3999 40.0002 38.6999C39.6002 38.9999 38.9002 38.9999 38.5002 38.6999Z" fill="#CEE3CD"/>
<path d="M41.8 40.6001C41.4 40.4001 41.4 40.0001 41.8 39.7001C42.2 39.4001 42.9 39.5001 43.3 39.7001C43.7 39.9001 43.7 40.3001 43.3 40.6001C42.9 40.9001 42.2 40.9001 41.8 40.6001Z" fill="#CEE3CD"/>
<path d="M45.0002 42.4997C44.6002 42.2997 44.6002 41.8997 45.0002 41.5997C45.4002 41.3997 46.1002 41.3997 46.5002 41.5997C46.9002 41.7997 46.9002 42.1997 46.5002 42.4997C46.1002 42.7997 45.4002 42.7997 45.0002 42.4997Z" fill="#CEE3CD"/>
<path d="M38.8002 36.5C39.7002 36.5 40.6002 36.7 41.2002 37.1L87.1002 63.6C87.5002 63.9 87.8002 64.2 87.8002 64.4C87.8002 64.7 87.5002 65 87.1002 65.2L53.3002 84.3C52.7002 84.6 51.8002 84.8 50.9002 84.8C49.9002 84.8 49.0002 84.6 48.4002 84.2L3.4002 57.7C3.0002 57.4 2.7002 57.1 2.7002 56.8C2.7002 56.5 3.0002 56.2 3.4002 56L36.4002 37C37.0002 36.7 37.9002 36.5 38.8002 36.5ZM38.8002 35.5C37.7002 35.5 36.7002 35.7 35.9002 36.2L2.9002 55.2C1.3002 56.1 1.3002 57.7 2.9002 58.6L47.9002 85.1C48.7002 85.6 49.8002 85.8 50.9002 85.8C51.9002 85.8 53.0002 85.6 53.8002 85.1L87.7002 66C89.3002 65.1 89.3002 63.6 87.7002 62.6L41.8002 36.2C41.0002 35.7 39.9002 35.5 38.8002 35.5Z" fill="#CEE3CD"/>
<path d="M47.8001 27.1H31.1001V16.7C31.1001 12.4 34.6001 9 38.8001 9H40.1001C44.4001 9 47.8001 12.5 47.8001 16.7V27.1V27.1Z" stroke="#3A9492" stroke-miterlimit="10"/>
<path d="M50.9998 45.7999H27.8998C25.5998 45.7999 23.7998 43.9999 23.7998 41.6999V26.4999C23.7998 24.1999 25.5998 22.3999 27.8998 22.3999H50.9998C53.2998 22.3999 55.0998 24.1999 55.0998 26.4999V41.6999C55.1998 43.9999 53.2998 45.7999 50.9998 45.7999Z" fill="url(#paint1_linear)" stroke="#3A9492" stroke-miterlimit="10"/>
<path d="M33.6001 31.8999C33.6001 31.4999 33.3001 31.0999 33.0001 30.8999C32.6001 30.6999 32.2001 30.4999 31.7001 30.4999C31.1001 30.4999 30.7001 30.5999 30.3001 30.8999C30.0001 31.1999 29.8001 31.4999 29.8001 31.8999C29.8001 32.1999 29.9001 32.3999 30.1001 32.5999C30.3001 32.7999 30.5001 32.8999 30.8001 32.9999C31.1001 33.0999 31.3001 33.1999 31.6001 33.2999L32.5001 33.4999C32.8001 33.5999 33.1001 33.6999 33.4001 33.7999C33.7001 33.8999 34.0001 34.0999 34.3001 34.2999C34.6001 34.4999 34.8001 34.7999 35.0001 35.0999C35.2001 35.3999 35.3001 35.7999 35.3001 36.1999C35.3001 36.6999 35.2001 37.1999 34.9001 37.5999C34.6001 37.9999 34.2001 38.2999 33.7001 38.5999C33.0001 38.8999 32.3001 38.9999 31.6001 38.9999C30.5001 38.9999 29.7001 38.7999 29.1001 38.2999C28.5001 37.7999 28.1001 37.0999 28.1001 36.2999H29.5001C29.5001 36.7999 29.8001 37.1999 30.2001 37.3999C30.6001 37.5999 31.1001 37.7999 31.6001 37.7999C32.2001 37.7999 32.7001 37.6999 33.1001 37.3999C33.5001 37.0999 33.7001 36.6999 33.7001 36.2999C33.7001 35.9999 33.6001 35.7999 33.5001 35.5999C33.3001 35.3999 33.1001 35.2999 32.9001 35.1999C32.6001 35.0999 32.3001 34.9999 32.0001 34.8999L30.9001 34.5999C30.0001 34.2999 29.4001 33.9999 29.0001 33.5999C28.6001 33.1999 28.3001 32.6999 28.3001 31.9999C28.3001 31.4999 28.4001 30.9999 28.7001 30.5999C29.0001 30.1999 29.4001 29.8999 29.9001 29.6999C30.4001 29.4999 31.0001 29.3999 31.6001 29.3999C32.2001 29.3999 32.8001 29.4999 33.3001 29.6999C33.8001 29.8999 34.2001 30.1999 34.5001 30.5999C34.8001 30.9999 34.9001 31.3999 34.9001 31.8999H33.6001Z" fill="#3A9492"/>
<path d="M42 31.9C42 31.5 41.7 31.1 41.4 30.9C41 30.7 40.6 30.5 40.1 30.5C39.5 30.5 39.1 30.6 38.7 30.9C38.4 31.2 38.2 31.5 38.2 31.9C38.2 32.2 38.3 32.4 38.5 32.6C38.7 32.8 38.9 32.9 39.2 33C39.5 33.1 39.7 33.2 40 33.3L40.9 33.5C41.2 33.6 41.5 33.7 41.8 33.8C42.1 33.9 42.4 34.1 42.7 34.3C43 34.5 43.2 34.8 43.4 35.1C43.6 35.4 43.7 35.8 43.7 36.2C43.7 36.7 43.6 37.2 43.3 37.6C43 38 42.6 38.3 42.1 38.6C41.3 38.9 40.7 39 40 39C38.9 39 38.1 38.8 37.5 38.3C36.9 37.8 36.5 37.1 36.5 36.3H37.9C37.9 36.8 38.2 37.2 38.6 37.4C39 37.6 39.5 37.8 40 37.8C40.6 37.8 41.1 37.7 41.5 37.4C41.9 37.1 42.1 36.7 42.1 36.3C42.1 36 42 35.8 41.9 35.6C41.7 35.4 41.5 35.3 41.3 35.2C41 35.1 40.7 35 40.4 34.9L39.3 34.6C38.5 34.4 37.9 34.1 37.5 33.7C37.1 33.3 36.8 32.8 36.8 32.1C36.8 31.6 36.9 31.1 37.2 30.7C37.5 30.3 37.9 30 38.4 29.8C38.9 29.6 39.5 29.5 40.1 29.5C40.7 29.5 41.3 29.6 41.8 29.8C42.3 30 42.7 30.3 43 30.7C43.3 31.1 43.4 31.5 43.4 32H42V31.9Z" fill="#3A9492"/>
<path d="M45.2002 38.7998V29.2998H46.6002V37.4998H50.9002V38.6998H45.2002V38.7998Z" fill="#3A9492"/>
<path d="M61.9001 68.4001C62.0001 68.8001 62.1001 69.2001 62.2001 69.5001C61.9001 69.5001 61.6001 69.5001 61.4001 69.6001C61.3001 69.2001 61.2001 68.8001 61.1001 68.5001C60.5001 68.5001 59.9001 68.3001 59.6001 68.0001C59.3001 67.8001 59.1001 67.5001 59.1001 67.2001C59.2001 66.6001 60.0001 66.1001 61.0001 66.1001C62.0001 66.1001 63.0001 66.4001 63.3001 67.0001C63.6001 67.5001 63.1001 68.2001 61.9001 68.4001ZM60.0001 66.7001C59.5001 67.1001 59.6001 67.6001 60.3001 67.9001C61.0001 68.2001 61.9001 68.1001 62.5001 67.8001C63.0001 67.4001 62.9001 66.9001 62.2001 66.6001C61.5001 66.3001 60.5001 66.3001 60.0001 66.7001Z" fill="#FCFEE5"/>
<defs>
<linearGradient id="paint0_linear" x1="1.6809" y1="63.7295" x2="88.9221" y2="63.7295" gradientUnits="userSpaceOnUse">
<stop stop-color="#93C1AF"/>
<stop offset="0.4729" stop-color="#93C1AF"/>
<stop offset="0.55" stop-color="#CEE3CD"/>
<stop offset="0.57" stop-color="#B0D3C1"/>
<stop offset="0.5959" stop-color="#91C2B5"/>
<stop offset="0.6254" stop-color="#75B4AA"/>
<stop offset="0.6587" stop-color="#5FA8A1"/>
<stop offset="0.6975" stop-color="#4E9F9A"/>
<stop offset="0.7456" stop-color="#439995"/>
<stop offset="0.8129" stop-color="#3C9593"/>
<stop offset="1" stop-color="#3A9492"/>
</linearGradient>
<linearGradient id="paint1_linear" x1="39.466" y1="45.845" x2="39.466" y2="22.4062" gradientUnits="userSpaceOnUse">
<stop stop-color="#6FAC9C"/>
<stop offset="0.5978" stop-color="#CEE3CD"/>
<stop offset="1" stop-color="#FCFEE5"/>
</linearGradient>
</defs>
</svg>
