<svg width="90" height="90" viewBox="0 0 90 90" fill="none" xmlns="http://www.w3.org/2000/svg">
<path d="M81.8 56.5C81.8 63.5 72.7 69.1 61.4 69.1C50.1 69.1 41 63.5 41 56.5C41 55.2 41 52.4 41 52.4C43.5 47.2 52.2 43.9 61.4 43.9C69.7 43.9 78.6 48 81.8 52.4C81.8 52.4 81.8 54.6 81.8 56.5Z" fill="url(#paint0_linear)"/>
<path d="M61.4996 65C72.7662 65 81.8996 59.3588 81.8996 52.4001C81.8996 45.4413 72.7662 39.8 61.4996 39.8C50.233 39.8 41.0996 45.4413 41.0996 52.4001C41.0996 59.3588 50.233 65 61.4996 65Z" fill="#3A9492"/>
<path d="M81.8 51.1C81.8 58.1 72.7 63.7 61.4 63.7C50.1 63.7 41 58.1 41 51.1C41 49.8 41 47 41 47C43.5 41.8 52.2 38.5 61.4 38.5C69.7 38.5 78.6 42.6 81.8 47C81.8 47 81.8 49.3 81.8 51.1Z" fill="url(#paint1_linear)"/>
<path d="M61.4996 59.6C72.7662 59.6 81.8996 53.9588 81.8996 47C81.8996 40.0412 72.7662 34.4 61.4996 34.4C50.233 34.4 41.0996 40.0412 41.0996 47C41.0996 53.9588 50.233 59.6 61.4996 59.6Z" fill="#3A9492"/>
<path d="M81.8 45.7C81.8 52.7 72.7 58.3 61.4 58.3C50.1 58.3 41 52.7 41 45.7C41 44.4 41 41.6 41 41.6C43.5 36.4 52.2 33.1 61.4 33.1C69.7 33.1 78.6 37.2 81.8 41.6C81.8 41.6 81.8 43.9 81.8 45.7Z" fill="url(#paint2_linear)"/>
<path d="M61.4996 54.2C72.7662 54.2 81.8996 48.5588 81.8996 41.6C81.8996 34.6412 72.7662 29 61.4996 29C50.233 29 41.0996 34.6412 41.0996 41.6C41.0996 48.5588 50.233 54.2 61.4996 54.2Z" fill="#3A9492"/>
<path d="M81.8 40.3999C81.8 47.3999 72.7 52.9999 61.4 52.9999C50.1 52.9999 41 47.3999 41 40.3999C41 39.0999 41 36.2999 41 36.2999C43.5 31.0999 52.2 27.7999 61.4 27.7999C69.7 27.7999 78.6 31.8999 81.8 36.2999C81.8 36.2999 81.8 38.5999 81.8 40.3999Z" fill="url(#paint3_linear)"/>
<path d="M61.4996 48.9C72.7662 48.9 81.8996 43.2587 81.8996 36.2999C81.8996 29.3412 72.7662 23.7 61.4996 23.7C50.233 23.7 41.0996 29.3412 41.0996 36.2999C41.0996 43.2587 50.233 48.9 61.4996 48.9Z" fill="#3A9492"/>
<path d="M60.9992 75.5C60.9992 82.5 51.8992 88.1 40.5992 88.1C29.2992 88.1 20.1992 82.5 20.1992 75.5C20.1992 74.2 20.1992 71.4 20.1992 71.4C22.6992 66.2 31.3992 62.9 40.5992 62.9C48.8992 62.9 57.7992 67 60.9992 71.4C60.9992 71.4 60.9992 73.7 60.9992 75.5Z" fill="url(#paint4_linear)"/>
<path d="M40.5992 84C51.8658 84 60.9992 78.3588 60.9992 71.4001C60.9992 64.4413 51.8658 58.8 40.5992 58.8C29.3326 58.8 20.1992 64.4413 20.1992 71.4001C20.1992 78.3588 29.3326 84 40.5992 84Z" fill="#3A9492"/>
<path d="M60.9992 70.1C60.9992 77.1 51.8992 82.7 40.5992 82.7C29.2992 82.7 20.1992 77.1 20.1992 70.1C20.1992 68.8 20.1992 66 20.1992 66C22.6992 60.8 31.3992 57.5 40.5992 57.5C48.8992 57.5 57.7992 61.6 60.9992 66C60.9992 66 60.9992 68.3 60.9992 70.1Z" fill="url(#paint5_linear)"/>
<path d="M40.5992 78.6C51.8658 78.6 60.9992 72.9588 60.9992 66C60.9992 59.0412 51.8658 53.4 40.5992 53.4C29.3326 53.4 20.1992 59.0412 20.1992 66C20.1992 72.9588 29.3326 78.6 40.5992 78.6Z" fill="#3A9492"/>
<path d="M60.9992 64.7C60.9992 71.7 51.8992 77.3 40.5992 77.3C29.2992 77.3 20.1992 71.7 20.1992 64.7C20.1992 63.4 20.1992 60.6 20.1992 60.6C22.6992 55.4 31.3992 52.1 40.5992 52.1C48.8992 52.1 57.7992 56.2 60.9992 60.6C60.9992 60.6 60.9992 62.9 60.9992 64.7Z" fill="url(#paint6_linear)"/>
<path d="M40.5992 73.2C51.8658 73.2 60.9992 67.5588 60.9992 60.6C60.9992 53.6412 51.8658 48 40.5992 48C29.3326 48 20.1992 53.6412 20.1992 60.6C20.1992 67.5588 29.3326 73.2 40.5992 73.2Z" fill="#6FAC9C"/>
<path d="M82.1008 35.2C82.1008 42.2 73.0008 47.8 61.7008 47.8C50.4008 47.8 41.3008 42.2 41.3008 35.2C41.3008 33.9 41.3008 31.1 41.3008 31.1C43.8008 25.9 52.5008 22.6 61.7008 22.6C70.0008 22.6 78.9008 26.7 82.1008 31.1C82.1008 31.1 82.1008 33.4 82.1008 35.2Z" fill="url(#paint7_linear)"/>
<path d="M61.7008 43.2C50.7008 43.2 41.8008 37.8 41.8008 31.1C41.8008 24.4 50.7008 19 61.7008 19C72.7008 19 81.6008 24.4 81.6008 31.1C81.6008 37.8 72.7008 43.2 61.7008 43.2Z" fill="#CEE3CD"/>
<path d="M61.7008 19.4C72.4008 19.4 81.1008 24.6 81.1008 31C81.1008 37.4 72.4008 42.6 61.7008 42.6C51.0008 42.6 42.3008 37.4 42.3008 31C42.3008 24.6 51.1008 19.4 61.7008 19.4ZM61.7008 18.4C50.4008 18.4 41.3008 24 41.3008 31C41.3008 38 50.4008 43.6 61.7008 43.6C73.0008 43.6 82.1008 38 82.1008 31.1C82.1008 24.2 73.0008 18.4 61.7008 18.4Z" fill="#FCFEE5"/>
<path d="M61.7016 40.5001C71.1456 40.5001 78.8016 36.2915 78.8016 31.1001C78.8016 25.9086 71.1456 21.7001 61.7016 21.7001C52.2575 21.7001 44.6016 25.9086 44.6016 31.1001C44.6016 36.2915 52.2575 40.5001 61.7016 40.5001Z" fill="#3A9492"/>
<path d="M56.4992 58.9999C56.4992 65.9999 47.3992 71.5999 36.0992 71.5999C24.7992 71.5999 15.6992 65.8999 15.6992 58.9999C15.6992 57.6999 15.6992 54.8999 15.6992 54.8999C18.1992 49.6999 26.8992 46.3999 36.0992 46.3999C44.3992 46.3999 53.2992 50.4999 56.4992 54.8999C56.4992 54.8999 56.4992 57.1999 56.4992 58.9999Z" fill="url(#paint8_linear)"/>
<path d="M36.0992 66.9999C25.0992 66.9999 16.1992 61.5999 16.1992 54.8999C16.1992 48.1999 25.0992 42.7999 36.0992 42.7999C47.0992 42.7999 55.9992 48.1999 55.9992 54.8999C55.9992 61.5999 46.9992 66.9999 36.0992 66.9999Z" fill="#CEE3CD"/>
<path d="M36.0992 43.2C46.7992 43.2 55.4992 48.3999 55.4992 54.7999C55.4992 61.1999 46.7992 66.4 36.0992 66.4C25.3992 66.4 16.6992 61.1999 16.6992 54.7999C16.6992 48.3999 25.3992 43.2 36.0992 43.2ZM36.0992 42.2C24.7992 42.2 15.6992 47.7999 15.6992 54.7999C15.6992 61.7999 24.7992 67.4 36.0992 67.4C47.3992 67.4 56.4992 61.7999 56.4992 54.7999C56.4992 47.7999 47.2992 42.2 36.0992 42.2Z" fill="#FCFEE5"/>
<path d="M36.1 64.3C45.5441 64.3 53.2 60.0915 53.2 54.9C53.2 49.7085 45.5441 45.5 36.1 45.5C26.6559 45.5 19 49.7085 19 54.9C19 60.0915 26.6559 64.3 36.1 64.3Z" fill="#3A9492"/>
<path d="M66.9 34.5999H56.6V27.5C56.6 26.5 55.4 25.7 54 25.7V34.5999V36.4H56.6H69.5C69.5 35.4 68.3 34.5999 66.9 34.5999Z" fill="#FCFEE5"/>
<path d="M59.0996 32.9C64.7996 33 69.3996 29.7999 69.3996 25.7999V25.7C63.7996 25.7 59.0996 28.9 59.0996 32.9Z" fill="#FCFEE5"/>
<path d="M41.3008 58.4H30.9008V51.3C30.9008 50.3 29.7008 49.5 28.3008 49.5V58.4V60.2H30.9008H43.8008C43.8008 59.2 42.7008 58.4 41.3008 58.4Z" fill="#FCFEE5"/>
<path d="M33.5 56.7C39.2 56.8 43.8 53.6 43.8 49.6V49.5C38.1 49.5 33.5 52.7 33.5 56.7Z" fill="#FCFEE5"/>
<path d="M27.6996 24.1V4H12.7996V24.1H6.89962C5.19962 24.1 4.39962 26.2 5.69962 27.3L20.1996 40.4L34.4996 27.2C35.6996 26.1 34.8996 24 33.2996 24H27.6996V24.1Z" fill="url(#paint9_linear)" stroke="#3A9492" stroke-miterlimit="10"/>
<defs>
<linearGradient id="paint0_linear" x1="41.0683" y1="56.4585" x2="81.8433" y2="56.4585" gradientUnits="userSpaceOnUse">
<stop stop-color="#6FAC9C"/>
<stop offset="0.0155111" stop-color="#81B7A6"/>
<stop offset="0.0565777" stop-color="#ADD0BC"/>
<stop offset="0.0962894" stop-color="#CFE4CE"/>
<stop offset="0.1338" stop-color="#E8F2DB"/>
<stop offset="0.1681" stop-color="#F7FBE2"/>
<stop offset="0.1964" stop-color="#FCFEE5"/>
<stop offset="0.3058" stop-color="#DBEBD4"/>
<stop offset="0.5145" stop-color="#A1C9B6"/>
<stop offset="0.669" stop-color="#7DB4A3"/>
<stop offset="0.7512" stop-color="#6FAC9C"/>
<stop offset="0.8359" stop-color="#5CA398"/>
<stop offset="1" stop-color="#3A9492"/>
</linearGradient>
<linearGradient id="paint1_linear" x1="41.0683" y1="51.0922" x2="81.8433" y2="51.0922" gradientUnits="userSpaceOnUse">
<stop stop-color="#6FAC9C"/>
<stop offset="0.0155111" stop-color="#81B7A6"/>
<stop offset="0.0565777" stop-color="#ADD0BC"/>
<stop offset="0.0962894" stop-color="#CFE4CE"/>
<stop offset="0.1338" stop-color="#E8F2DB"/>
<stop offset="0.1681" stop-color="#F7FBE2"/>
<stop offset="0.1964" stop-color="#FCFEE5"/>
<stop offset="0.3058" stop-color="#DBEBD4"/>
<stop offset="0.5145" stop-color="#A1C9B6"/>
<stop offset="0.669" stop-color="#7DB4A3"/>
<stop offset="0.7512" stop-color="#6FAC9C"/>
<stop offset="0.8359" stop-color="#5CA398"/>
<stop offset="1" stop-color="#3A9492"/>
</linearGradient>
<linearGradient id="paint2_linear" x1="41.0683" y1="45.726" x2="81.8433" y2="45.726" gradientUnits="userSpaceOnUse">
<stop stop-color="#6FAC9C"/>
<stop offset="0.0155111" stop-color="#81B7A6"/>
<stop offset="0.0565777" stop-color="#ADD0BC"/>
<stop offset="0.0962894" stop-color="#CFE4CE"/>
<stop offset="0.1338" stop-color="#E8F2DB"/>
<stop offset="0.1681" stop-color="#F7FBE2"/>
<stop offset="0.1964" stop-color="#FCFEE5"/>
<stop offset="0.3058" stop-color="#DBEBD4"/>
<stop offset="0.5145" stop-color="#A1C9B6"/>
<stop offset="0.669" stop-color="#7DB4A3"/>
<stop offset="0.7512" stop-color="#6FAC9C"/>
<stop offset="0.8359" stop-color="#5CA398"/>
<stop offset="1" stop-color="#3A9492"/>
</linearGradient>
<linearGradient id="paint3_linear" x1="41.0683" y1="40.3597" x2="81.8433" y2="40.3597" gradientUnits="userSpaceOnUse">
<stop stop-color="#6FAC9C"/>
<stop offset="0.0155111" stop-color="#81B7A6"/>
<stop offset="0.0565777" stop-color="#ADD0BC"/>
<stop offset="0.0962894" stop-color="#CFE4CE"/>
<stop offset="0.1338" stop-color="#E8F2DB"/>
<stop offset="0.1681" stop-color="#F7FBE2"/>
<stop offset="0.1964" stop-color="#FCFEE5"/>
<stop offset="0.3058" stop-color="#DBEBD4"/>
<stop offset="0.5145" stop-color="#A1C9B6"/>
<stop offset="0.669" stop-color="#7DB4A3"/>
<stop offset="0.7512" stop-color="#6FAC9C"/>
<stop offset="0.8359" stop-color="#5CA398"/>
<stop offset="1" stop-color="#3A9492"/>
</linearGradient>
<linearGradient id="paint4_linear" x1="20.2273" y1="75.4809" x2="61.0023" y2="75.4809" gradientUnits="userSpaceOnUse">
<stop stop-color="#6FAC9C"/>
<stop offset="0.0155111" stop-color="#81B7A6"/>
<stop offset="0.0565777" stop-color="#ADD0BC"/>
<stop offset="0.0962894" stop-color="#CFE4CE"/>
<stop offset="0.1338" stop-color="#E8F2DB"/>
<stop offset="0.1681" stop-color="#F7FBE2"/>
<stop offset="0.1964" stop-color="#FCFEE5"/>
<stop offset="0.3058" stop-color="#DBEBD4"/>
<stop offset="0.5145" stop-color="#A1C9B6"/>
<stop offset="0.669" stop-color="#7DB4A3"/>
<stop offset="0.7512" stop-color="#6FAC9C"/>
<stop offset="0.8359" stop-color="#5CA398"/>
<stop offset="1" stop-color="#3A9492"/>
</linearGradient>
<linearGradient id="paint5_linear" x1="20.2273" y1="70.1147" x2="61.0023" y2="70.1147" gradientUnits="userSpaceOnUse">
<stop stop-color="#6FAC9C"/>
<stop offset="0.0155111" stop-color="#81B7A6"/>
<stop offset="0.0565777" stop-color="#ADD0BC"/>
<stop offset="0.0962894" stop-color="#CFE4CE"/>
<stop offset="0.1338" stop-color="#E8F2DB"/>
<stop offset="0.1681" stop-color="#F7FBE2"/>
<stop offset="0.1964" stop-color="#FCFEE5"/>
<stop offset="0.3058" stop-color="#DBEBD4"/>
<stop offset="0.5145" stop-color="#A1C9B6"/>
<stop offset="0.669" stop-color="#7DB4A3"/>
<stop offset="0.7512" stop-color="#6FAC9C"/>
<stop offset="0.8359" stop-color="#5CA398"/>
<stop offset="1" stop-color="#3A9492"/>
</linearGradient>
<linearGradient id="paint6_linear" x1="20.2273" y1="64.7485" x2="61.0023" y2="64.7485" gradientUnits="userSpaceOnUse">
<stop stop-color="#6FAC9C"/>
<stop offset="0.0155111" stop-color="#81B7A6"/>
<stop offset="0.0565777" stop-color="#ADD0BC"/>
<stop offset="0.0962894" stop-color="#CFE4CE"/>
<stop offset="0.1338" stop-color="#E8F2DB"/>
<stop offset="0.1681" stop-color="#F7FBE2"/>
<stop offset="0.1964" stop-color="#FCFEE5"/>
<stop offset="0.3058" stop-color="#DBEBD4"/>
<stop offset="0.5145" stop-color="#A1C9B6"/>
<stop offset="0.669" stop-color="#7DB4A3"/>
<stop offset="0.7512" stop-color="#6FAC9C"/>
<stop offset="0.8359" stop-color="#5CA398"/>
<stop offset="1" stop-color="#3A9492"/>
</linearGradient>
<linearGradient id="paint7_linear" x1="41.3548" y1="35.1666" x2="82.1297" y2="35.1666" gradientUnits="userSpaceOnUse">
<stop stop-color="#6FAC9C"/>
<stop offset="0.0155111" stop-color="#81B7A6"/>
<stop offset="0.0565777" stop-color="#ADD0BC"/>
<stop offset="0.0962894" stop-color="#CFE4CE"/>
<stop offset="0.1338" stop-color="#E8F2DB"/>
<stop offset="0.1681" stop-color="#F7FBE2"/>
<stop offset="0.1964" stop-color="#FCFEE5"/>
<stop offset="0.3058" stop-color="#DBEBD4"/>
<stop offset="0.5145" stop-color="#A1C9B6"/>
<stop offset="0.669" stop-color="#7DB4A3"/>
<stop offset="0.7512" stop-color="#6FAC9C"/>
<stop offset="0.8359" stop-color="#5CA398"/>
<stop offset="1" stop-color="#3A9492"/>
</linearGradient>
<linearGradient id="paint8_linear" x1="15.6955" y1="58.9705" x2="56.4704" y2="58.9705" gradientUnits="userSpaceOnUse">
<stop stop-color="#6FAC9C"/>
<stop offset="0.0155111" stop-color="#81B7A6"/>
<stop offset="0.0565777" stop-color="#ADD0BC"/>
<stop offset="0.0962894" stop-color="#CFE4CE"/>
<stop offset="0.1338" stop-color="#E8F2DB"/>
<stop offset="0.1681" stop-color="#F7FBE2"/>
<stop offset="0.1964" stop-color="#FCFEE5"/>
<stop offset="0.3058" stop-color="#DBEBD4"/>
<stop offset="0.5145" stop-color="#A1C9B6"/>
<stop offset="0.669" stop-color="#7DB4A3"/>
<stop offset="0.7512" stop-color="#6FAC9C"/>
<stop offset="0.8359" stop-color="#5CA398"/>
<stop offset="1" stop-color="#3A9492"/>
</linearGradient>
<linearGradient id="paint9_linear" x1="20.1029" y1="40.4784" x2="20.1029" y2="4.0183" gradientUnits="userSpaceOnUse">
<stop stop-color="#6FAC9C"/>
<stop offset="0.4228" stop-color="#CEE3CD"/>
<stop offset="1" stop-color="#FCFEE5"/>
</linearGradient>
</defs>
</svg>
