<svg width="90" height="90" viewBox="0 0 90 90" fill="none" xmlns="http://www.w3.org/2000/svg">
<path d="M17.8008 45.4L75.3008 79.3" stroke="#6FAC9C" stroke-miterlimit="10"/>
<path d="M71.3008 45L18.8008 75.9" stroke="#6FAC9C" stroke-miterlimit="10"/>
<path d="M44.5004 40.4C41.5004 38.4 38.7004 36.4 36.1004 34.1C33.8004 32.1 31.6004 29.9 29.7004 27.5C28.1004 25.5 26.7004 23.3 25.8004 20.9C24.9004 18.1 24.6004 15.3 25.5004 12.5C26.6004 9.09995 28.8004 6.69995 32.3004 5.69995C34.6004 4.99995 36.8004 5.59995 38.8004 6.79995C41.0004 7.99995 42.7004 9.69995 44.2004 11.6C44.3004 11.7 44.3004 11.8 44.4004 11.8C45.3004 10.9 46.1004 9.99995 47.0004 9.19995C48.8004 7.59995 50.8004 6.29995 53.2004 5.69995C55.6004 5.09995 57.9004 5.59995 59.9004 7.09995C63.0004 9.29995 64.4004 12.5 64.4004 16.3C64.4004 19.3 63.4004 22.1 61.8004 24.6C60.0004 27.4 57.8004 29.8 55.4004 32.1C52.1005 35.2 48.4004 38 44.5004 40.4Z" fill="url(#paint0_linear)" stroke="#3A9492" stroke-miterlimit="10"/>
<path d="M62.8996 63.3C62.8996 69.4 54.8996 74.4 44.9996 74.4C35.0996 74.4 27.0996 69.4 27.0996 63.3C27.0996 62.2 27.0996 56.5 27.0996 56.5C29.2996 51.9 36.8996 52.2 44.9996 52.2C52.2996 52.2 60.0996 52.6 62.8996 56.5C62.8996 56.5 62.8996 61.7 62.8996 63.3Z" fill="url(#paint1_linear)"/>
<path d="M44.9996 67.1C35.3996 67.1 27.5996 62.3 27.5996 56.5C27.5996 50.7 35.3996 45.9 44.9996 45.9C54.5996 45.9 62.3996 50.7 62.3996 56.5C62.3996 62.3 54.5996 67.1 44.9996 67.1Z" fill="#CEE3CD"/>
<path d="M44.9996 46.4C54.2996 46.4 61.8996 50.9 61.8996 56.5C61.8996 62.1 54.2996 66.6 44.9996 66.6C35.6996 66.6 28.0996 62.1 28.0996 56.5C28.0996 50.9 35.6996 46.4 44.9996 46.4ZM44.9996 45.4C35.0996 45.4 27.0996 50.4 27.0996 56.5C27.0996 62.6 35.0996 67.6 44.9996 67.6C54.8996 67.6 62.8996 62.6 62.8996 56.5C62.8996 50.4 54.8996 45.4 44.9996 45.4Z" fill="#FCFEE5"/>
<path d="M45.4 55.7001C47.8301 55.7001 49.8 54.2674 49.8 52.5C49.8 50.7327 47.8301 49.3 45.4 49.3C42.9699 49.3 41 50.7327 41 52.5C41 54.2674 42.9699 55.7001 45.4 55.7001Z" fill="#3A9492"/>
<path d="M51.9004 63H38.9004V62.5C38.9004 59.2 41.6004 56.5 44.9004 56.5H45.9004C49.2004 56.5 51.9004 59.2 51.9004 62.5V63Z" fill="#3A9492"/>
<path d="M87.6996 81.6C87.6996 84.9 83.2996 87.6 77.8996 87.6C72.4996 87.6 68.0996 84.9 68.0996 81.6C68.0996 81 68.0996 77 68.0996 77C69.2996 74.5 73.4996 75.6 77.8996 75.6C81.8996 75.6 86.1996 74.9 87.6996 77C87.6996 77 87.6996 80.8 87.6996 81.6Z" fill="url(#paint2_linear)"/>
<path d="M77.8996 82.6C72.7996 82.6 68.5996 80.1 68.5996 77.1C68.5996 74.1 72.7996 71.6 77.8996 71.6C82.9996 71.6 87.1996 74.1 87.1996 77.1C87.1996 80.1 83.0996 82.6 77.8996 82.6Z" fill="#CEE3CD"/>
<path d="M77.8996 72C82.6996 72 86.6996 74.3 86.6996 77C86.6996 79.7 82.6996 82 77.8996 82C73.0996 82 69.0996 79.7 69.0996 77C69.0996 74.3 73.1996 72 77.8996 72ZM77.8996 71C72.4996 71 68.0996 73.7 68.0996 77C68.0996 80.3 72.4996 83 77.8996 83C83.2996 83 87.6996 80.3 87.6996 77C87.6996 73.7 83.2996 71 77.8996 71Z" fill="#FCFEE5"/>
<path d="M77.8996 76.3C79.1699 76.3 80.1996 75.5389 80.1996 74.6C80.1996 73.6611 79.1699 72.9 77.8996 72.9C76.6294 72.9 75.5996 73.6611 75.5996 74.6C75.5996 75.5389 76.6294 76.3 77.8996 76.3Z" fill="#3A9492"/>
<path d="M81.4 80.2001H74.5V79.9001C74.5 78.2001 75.9 76.7001 77.7 76.7001H78.2C79.9 76.7001 81.4 78.1001 81.4 79.9001V80.2001Z" fill="#3A9492"/>
<path d="M87.6996 43.4C87.6996 46.7 83.2996 49.4 77.8996 49.4C72.4996 49.4 68.0996 46.7 68.0996 43.4C68.0996 42.8 68.0996 38.7999 68.0996 38.7999C69.2996 36.2999 73.4996 37.4 77.8996 37.4C81.8996 37.4 86.1996 36.6999 87.6996 38.7999C87.6996 38.6999 87.6996 42.5 87.6996 43.4Z" fill="url(#paint3_linear)"/>
<path d="M77.8996 44.2999C72.7996 44.2999 68.5996 41.7999 68.5996 38.7999C68.5996 35.7999 72.7996 33.2999 77.8996 33.2999C82.9996 33.2999 87.1996 35.7999 87.1996 38.7999C87.1996 41.7999 83.0996 44.2999 77.8996 44.2999Z" fill="#CEE3CD"/>
<path d="M77.8996 33.7C82.6996 33.7 86.6996 36 86.6996 38.7C86.6996 41.4 82.6996 43.7 77.8996 43.7C73.0996 43.7 69.0996 41.4 69.0996 38.7C69.0996 36 73.1996 33.7 77.8996 33.7ZM77.8996 32.7C72.4996 32.7 68.0996 35.4 68.0996 38.7C68.0996 42 72.4996 44.7 77.8996 44.7C83.2996 44.7 87.6996 42 87.6996 38.7C87.6996 35.4 83.2996 32.7 77.8996 32.7Z" fill="#FCFEE5"/>
<path d="M77.8996 38.0999C79.1699 38.0999 80.1996 37.3388 80.1996 36.4C80.1996 35.4611 79.1699 34.7 77.8996 34.7C76.6294 34.7 75.5996 35.4611 75.5996 36.4C75.5996 37.3388 76.6294 38.0999 77.8996 38.0999Z" fill="#3A9492"/>
<path d="M81.4 41.8999H74.5V41.5999C74.5 39.8999 75.9 38.3999 77.7 38.3999H78.2C79.9 38.3999 81.4 39.7999 81.4 41.5999V41.8999Z" fill="#3A9492"/>
<path d="M21.7992 81.6C21.7992 84.9 17.3992 87.6 11.9992 87.6C6.59922 87.6 2.19922 84.9 2.19922 81.6C2.19922 81 2.19922 77 2.19922 77C3.39922 74.5 7.59922 75.6 11.9992 75.6C15.9992 75.6 20.2992 74.9 21.7992 77C21.7992 77 21.7992 80.8 21.7992 81.6Z" fill="url(#paint4_linear)"/>
<path d="M12.0988 82.6C6.99883 82.6 2.79883 80.1 2.79883 77.1C2.79883 74.1 6.99883 71.6 12.0988 71.6C17.1988 71.6 21.3988 74.1 21.3988 77.1C21.3988 80.1 17.1988 82.6 12.0988 82.6Z" fill="#CEE3CD"/>
<path d="M12.0988 72C16.8988 72 20.8988 74.3 20.8988 77C20.8988 79.7 16.8988 82 12.0988 82C7.29883 82 3.29883 79.7 3.29883 77C3.29883 74.3 7.29883 72 12.0988 72ZM12.0988 71C6.69883 71 2.29883 73.7 2.29883 77C2.29883 80.3 6.69883 83 12.0988 83C17.4988 83 21.8988 80.3 21.8988 77C21.7988 73.7 17.4988 71 12.0988 71Z" fill="#FCFEE5"/>
<path d="M12.0988 76.3C13.3691 76.3 14.3988 75.5389 14.3988 74.6C14.3988 73.6611 13.3691 72.9 12.0988 72.9C10.8286 72.9 9.79883 73.6611 9.79883 74.6C9.79883 75.5389 10.8286 76.3 12.0988 76.3Z" fill="#3A9492"/>
<path d="M15.4996 80.2001H8.59961V79.9001C8.59961 78.2001 9.99961 76.7001 11.7996 76.7001H12.2996C13.9996 76.7001 15.4996 78.1001 15.4996 79.9001V80.2001Z" fill="#3A9492"/>
<path d="M21.7992 43.4C21.7992 46.7 17.3992 49.4 11.9992 49.4C6.59922 49.4 2.19922 46.7 2.19922 43.4C2.19922 42.8 2.19922 38.7999 2.19922 38.7999C3.39922 36.2999 7.59922 37.4 11.9992 37.4C15.9992 37.4 20.2992 36.6999 21.7992 38.7999C21.7992 38.6999 21.7992 42.5 21.7992 43.4Z" fill="url(#paint5_linear)"/>
<path d="M12.0988 44.2999C6.99883 44.2999 2.79883 41.7999 2.79883 38.7999C2.79883 35.7999 6.99883 33.2999 12.0988 33.2999C17.1988 33.2999 21.3988 35.7999 21.3988 38.7999C21.3988 41.7999 17.1988 44.2999 12.0988 44.2999Z" fill="#CEE3CD"/>
<path d="M12.0988 33.7C16.8988 33.7 20.8988 36 20.8988 38.7C20.8988 41.4 16.8988 43.7 12.0988 43.7C7.29883 43.7 3.29883 41.4 3.29883 38.7C3.29883 36 7.29883 33.7 12.0988 33.7ZM12.0988 32.7C6.69883 32.7 2.29883 35.4 2.29883 38.7C2.29883 42 6.69883 44.7 12.0988 44.7C17.4988 44.7 21.8988 42 21.8988 38.7C21.8988 35.4 17.4988 32.7 12.0988 32.7Z" fill="#FCFEE5"/>
<path d="M12.0988 38.0999C13.3691 38.0999 14.3988 37.3388 14.3988 36.4C14.3988 35.4611 13.3691 34.7 12.0988 34.7C10.8286 34.7 9.79883 35.4611 9.79883 36.4C9.79883 37.3388 10.8286 38.0999 12.0988 38.0999Z" fill="#3A9492"/>
<path d="M15.4996 41.8999H8.59961V41.5999C8.59961 39.8999 9.99961 38.3999 11.7996 38.3999H12.2996C13.9996 38.3999 15.4996 39.7999 15.4996 41.5999V41.8999Z" fill="#3A9492"/>
<defs>
<linearGradient id="paint0_linear" x1="44.6526" y1="40.449" x2="44.6526" y2="5.49995" gradientUnits="userSpaceOnUse">
<stop stop-color="#6FAC9C"/>
<stop offset="0.5978" stop-color="#CEE3CD"/>
<stop offset="1" stop-color="#FCFEE5"/>
</linearGradient>
<linearGradient id="paint1_linear" x1="27.0726" y1="63.3156" x2="62.9266" y2="63.3156" gradientUnits="userSpaceOnUse">
<stop stop-color="#6FAC9C"/>
<stop offset="0.0155111" stop-color="#81B7A6"/>
<stop offset="0.0565777" stop-color="#ADD0BC"/>
<stop offset="0.0962894" stop-color="#CFE4CE"/>
<stop offset="0.1338" stop-color="#E8F2DB"/>
<stop offset="0.1681" stop-color="#F7FBE2"/>
<stop offset="0.1964" stop-color="#FCFEE5"/>
<stop offset="0.3058" stop-color="#DBEBD4"/>
<stop offset="0.5145" stop-color="#A1C9B6"/>
<stop offset="0.669" stop-color="#7DB4A3"/>
<stop offset="0.7512" stop-color="#6FAC9C"/>
<stop offset="0.8359" stop-color="#5CA398"/>
<stop offset="1" stop-color="#3A9492"/>
</linearGradient>
<linearGradient id="paint2_linear" x1="68.1554" y1="81.531" x2="87.7121" y2="81.531" gradientUnits="userSpaceOnUse">
<stop stop-color="#6FAC9C"/>
<stop offset="0.0155111" stop-color="#81B7A6"/>
<stop offset="0.0565777" stop-color="#ADD0BC"/>
<stop offset="0.0962894" stop-color="#CFE4CE"/>
<stop offset="0.1338" stop-color="#E8F2DB"/>
<stop offset="0.1681" stop-color="#F7FBE2"/>
<stop offset="0.1964" stop-color="#FCFEE5"/>
<stop offset="0.3058" stop-color="#DBEBD4"/>
<stop offset="0.5145" stop-color="#A1C9B6"/>
<stop offset="0.669" stop-color="#7DB4A3"/>
<stop offset="0.7512" stop-color="#6FAC9C"/>
<stop offset="0.8359" stop-color="#5CA398"/>
<stop offset="1" stop-color="#3A9492"/>
</linearGradient>
<linearGradient id="paint3_linear" x1="68.1554" y1="43.2603" x2="87.7121" y2="43.2603" gradientUnits="userSpaceOnUse">
<stop stop-color="#6FAC9C"/>
<stop offset="0.0155111" stop-color="#81B7A6"/>
<stop offset="0.0565777" stop-color="#ADD0BC"/>
<stop offset="0.0962894" stop-color="#CFE4CE"/>
<stop offset="0.1338" stop-color="#E8F2DB"/>
<stop offset="0.1681" stop-color="#F7FBE2"/>
<stop offset="0.1964" stop-color="#FCFEE5"/>
<stop offset="0.3058" stop-color="#DBEBD4"/>
<stop offset="0.5145" stop-color="#A1C9B6"/>
<stop offset="0.669" stop-color="#7DB4A3"/>
<stop offset="0.7512" stop-color="#6FAC9C"/>
<stop offset="0.8359" stop-color="#5CA398"/>
<stop offset="1" stop-color="#3A9492"/>
</linearGradient>
<linearGradient id="paint4_linear" x1="2.28672" y1="81.531" x2="21.8434" y2="81.531" gradientUnits="userSpaceOnUse">
<stop stop-color="#6FAC9C"/>
<stop offset="0.0155111" stop-color="#81B7A6"/>
<stop offset="0.0565777" stop-color="#ADD0BC"/>
<stop offset="0.0962894" stop-color="#CFE4CE"/>
<stop offset="0.1338" stop-color="#E8F2DB"/>
<stop offset="0.1681" stop-color="#F7FBE2"/>
<stop offset="0.1964" stop-color="#FCFEE5"/>
<stop offset="0.3058" stop-color="#DBEBD4"/>
<stop offset="0.5145" stop-color="#A1C9B6"/>
<stop offset="0.669" stop-color="#7DB4A3"/>
<stop offset="0.7512" stop-color="#6FAC9C"/>
<stop offset="0.8359" stop-color="#5CA398"/>
<stop offset="1" stop-color="#3A9492"/>
</linearGradient>
<linearGradient id="paint5_linear" x1="2.28672" y1="43.2603" x2="21.8434" y2="43.2603" gradientUnits="userSpaceOnUse">
<stop stop-color="#6FAC9C"/>
<stop offset="0.0155111" stop-color="#81B7A6"/>
<stop offset="0.0565777" stop-color="#ADD0BC"/>
<stop offset="0.0962894" stop-color="#CFE4CE"/>
<stop offset="0.1338" stop-color="#E8F2DB"/>
<stop offset="0.1681" stop-color="#F7FBE2"/>
<stop offset="0.1964" stop-color="#FCFEE5"/>
<stop offset="0.3058" stop-color="#DBEBD4"/>
<stop offset="0.5145" stop-color="#A1C9B6"/>
<stop offset="0.669" stop-color="#7DB4A3"/>
<stop offset="0.7512" stop-color="#6FAC9C"/>
<stop offset="0.8359" stop-color="#5CA398"/>
<stop offset="1" stop-color="#3A9492"/>
</linearGradient>
</defs>
</svg>
