<svg width="90" height="90" viewBox="0 0 90 90" fill="none" xmlns="http://www.w3.org/2000/svg">
<path d="M45.2008 1.7C44.4008 1.5 43.5008 1.7 42.5008 2.3C39.9008 3.8 37.7008 7.7 37.7008 10.8V42.3C37.7008 46.6 35.4008 50.6 31.6008 52.8L8.80078 65.8L47.3008 88.1L70.3008 74.8C73.9008 72.7 76.1008 68.9 76.1008 64.8V33C76.1008 29.8 78.3008 26 80.9008 24.5C82.1008 23.8 83.3008 23.7 84.1008 24.2C84.1008 24.1 46.5008 2 45.2008 1.7Z" fill="url(#paint0_linear)"/>
<path d="M85.6008 34.3V27.5C85.6008 24.3 83.5008 23 80.8008 24.5C78.2008 26 76.8008 29.6 76.8008 29.6L85.6008 34.3Z" fill="#3A9492"/>
<path d="M64.8 34.4L47.2 24.2C46.8 24 46.5 23.5 46.5 23.1C46.5 22.7 46.8 22.6 47.2 22.8L64.8 33C65.2 33.2 65.5 33.7 65.5 34.0999C65.5 34.4999 65.2 34.7 64.8 34.4Z" fill="#3A9492"/>
<path d="M64.8 42.8L47.2 32.6C46.8 32.4 46.5 31.9 46.5 31.5C46.5 31.1 46.8 31 47.2 31.2L64.8 41.4C65.2 41.6 65.5 42.1 65.5 42.5C65.5 42.9 65.2 43 64.8 42.8Z" fill="#3A9492"/>
<path d="M64.8 50.9L47.2 40.8C46.8 40.6 46.5 40.1 46.5 39.7C46.5 39.3 46.8 39.2 47.2 39.4L64.8 49.6C65.2 49.8 65.5 50.3 65.5 50.7C65.6 51 65.2 51.2 64.8 50.9Z" fill="#3A9492"/>
<path d="M64.8 59.1L47.2 48.9C46.8 48.7 46.5 48.2 46.5 47.8C46.5 47.4 46.8 47.3 47.2 47.5L64.8 57.7C65.2 57.9 65.5 58.4 65.5 58.8C65.5 59.2 65.2 59.3 64.8 59.1Z" fill="#3A9492"/>
<path d="M44.6994 73.5L31.9994 66.2C31.5994 66 31.5994 65.6 31.8994 65.4C32.1994 65.2 32.7994 65.2 33.1994 65.5L45.9994 72.8C46.3994 73 46.3994 73.4 46.0994 73.6C45.6994 73.7 45.0994 73.7 44.6994 73.5Z" fill="#3A9492"/>
<path d="M25.6008 64.1C24.2008 64.9 24.2008 66.2 25.6008 67L44.0008 77.6C45.4008 78.4 47.6008 78.4 49.0008 77.6L53.1008 75.1999C54.5008 74.3999 54.5008 73.1 53.1008 72.3L34.6008 61.8C33.2008 61 31.0008 61 29.6008 61.8L25.6008 64.1Z" stroke="#3A9492" stroke-miterlimit="10"/>
<path d="M41.2996 46.2C41.2996 47.3 40.3996 48.2 39.2996 48.2H4.59961C3.49961 48.2 2.59961 47.3 2.59961 46.2V43.4C2.59961 42.3 3.49961 41.4 4.59961 41.4H39.2996C40.3996 41.4 41.2996 42.3 41.2996 43.4V46.2Z" fill="url(#paint1_linear)"/>
<path d="M41.2996 46.2C41.2996 47.3 40.3996 48.2 39.2996 48.2H4.59961C3.49961 48.2 2.59961 47.3 2.59961 46.2V43.4C2.59961 42.3 3.49961 41.4 4.59961 41.4H39.2996C40.3996 41.4 41.2996 42.3 41.2996 43.4V46.2V46.2Z" stroke="#3A9492" stroke-miterlimit="10"/>
<path d="M35.4 56.0999H8.4C6.5 56.0999 5 54.6 5 52.7V48.2H38.9V52.7C38.9 54.6 37.3 56.0999 35.4 56.0999Z" fill="#3A9492"/>
<path d="M30.5989 23.4C30.5989 18.5 26.5989 14.6 21.5989 14.7C17.0989 14.8 13.2989 18.5 13.1989 23C13.0989 24.5 13.4989 26 14.0989 27.3C15.5989 30.3 16.3989 33.6 16.3989 37V41.5H27.2989V36.7C27.2989 33.4 28.1989 30.2 29.6989 27.3C30.2989 26.1 30.5989 24.8 30.5989 23.4Z" fill="url(#paint2_linear)" stroke="#3A9492" stroke-miterlimit="10"/>
<defs>
<linearGradient id="paint0_linear" x1="68.4318" y1="18.1413" x2="30.4976" y2="83.8454" gradientUnits="userSpaceOnUse">
<stop stop-color="#CEE3CD"/>
<stop offset="0.0745668" stop-color="#FCFEE5"/>
<stop offset="0.269" stop-color="#CEE3CD"/>
<stop offset="0.3434" stop-color="#CEE3CD"/>
<stop offset="0.5647" stop-color="#A6CDB8"/>
<stop offset="0.7702" stop-color="#CEE3CD"/>
</linearGradient>
<linearGradient id="paint1_linear" x1="21.9268" y1="48.2038" x2="21.9268" y2="41.4108" gradientUnits="userSpaceOnUse">
<stop stop-color="#6FAC9C"/>
<stop offset="0.6357" stop-color="#73AE9E"/>
<stop offset="1" stop-color="#CEE3CD"/>
</linearGradient>
<linearGradient id="paint2_linear" x1="26.9118" y1="41.3081" x2="17.9033" y2="15.4837" gradientUnits="userSpaceOnUse">
<stop stop-color="#6FAC9C"/>
<stop offset="0.4234" stop-color="#73AE9E"/>
<stop offset="0.788" stop-color="#CEE3CD"/>
<stop offset="1" stop-color="#FCFEE5"/>
</linearGradient>
</defs>
</svg>
