<svg width="64" height="64" viewBox="0 0 64 64" fill="none" xmlns="http://www.w3.org/2000/svg">
<path d="M17.1313 4C17.3821 4 17.6328 4.06271 17.9463 4.25084L54.7433 25.4468C55.997 26.1366 57 27.9552 57 29.3348V57.8051C57 58.056 56.9373 58.6831 56.6239 58.8712C56.4985 58.9339 54.6806 60 54.6806 60C54.4299 60 18.6985 37.4871 18.6985 37.4871C17.4448 36.7973 16.4418 34.9787 16.4418 33.5991L15 5.19149L16.7552 4.18813C16.8806 4.06271 16.9433 4 17.1313 4Z" fill="url(#paint0_linear)"/>
<path d="M53.9571 60C53.6503 60 53.3436 59.8749 52.9755 59.6871L17.3926 38.7884C16.1043 38.0375 15 36.0978 15 34.5961V6.50171C15 5.56314 15.3681 5 16.0429 5C16.3497 5 16.6564 5.12514 17.0245 5.31286L52.6074 26.2116C53.8957 26.9625 55 28.9022 55 30.4039V58.4983C55 59.4369 54.6319 60 53.9571 60Z" fill="#FCFEE5"/>
<path d="M15.7059 6C15.9557 6 16.2056 6.06228 16.518 6.24914L52.751 27.0519C53.938 27.737 55 29.481 55 30.9135V58.8789C55 59.1903 54.9375 60 54.3128 60C54.0629 60 53.8131 59.9377 53.5007 59.7509L17.2676 38.9481C16.0807 38.263 15.0187 36.519 15.0187 35.0865V7.12111C14.9562 6.7474 15.0187 6 15.7059 6Z" fill="#FCFEE5"/>
<path d="M54.125 32.3188C54.4375 32.5046 54.75 32.7523 55 33V30.7706C55 29.4083 54 27.6124 52.75 26.9312L16.5 6.24771C16.1875 6.06193 15.9375 6 15.6875 6C15.0625 6 15 6.74312 15 7.11468V9.9633L54.125 32.3188Z" fill="#3A9492"/>
<path d="M21.3776 11.7478C21.627 11.9348 21.8764 11.7478 21.8764 11.436C21.8764 11.1243 21.627 10.7503 21.3776 10.5633C21.1283 10.3762 20.8789 10.5633 20.8789 10.875C20.8789 11.1867 21.1283 11.5607 21.3776 11.7478Z" fill="#CEE3CD"/>
<path d="M19.2585 10.5009C19.5079 10.688 19.7572 10.5009 19.7572 10.1892C19.7572 9.87753 19.5079 9.50348 19.2585 9.31646C19.0091 9.19177 18.7598 9.31646 18.7598 9.62816C18.7598 9.93987 19.0091 10.3139 19.2585 10.5009Z" fill="#CEE3CD"/>
<path d="M17.2019 9.31648C17.4512 9.5035 17.7006 9.31648 17.7006 9.00477C17.7006 8.69306 17.4512 8.31902 17.2019 8.13199C16.9525 7.94497 16.7031 8.13199 16.7031 8.4437C16.7031 8.7554 16.8901 9.12945 17.2019 9.31648Z" fill="#CEE3CD"/>
<path d="M18.4473 15.1766L39.6433 27.5202V40.1755L18.5096 27.8943L18.4473 15.1766Z" fill="#93C1AF"/>
<path d="M41.6992 28.7047L50.9257 34.0037L50.8634 39.3027L41.6992 34.0037V28.7047Z" fill="#93C1AF"/>
<path d="M41.7637 35.9986L50.9278 41.2976V46.5966L41.7637 41.2976V35.9986Z" fill="#93C1AF"/>
<path d="M41.7637 43.5419L50.9278 48.8409V54.14L41.7637 48.8409V43.5419Z" fill="#93C1AF"/>
<path d="M15.7017 6C15.9516 6 16.2015 6.06228 16.5139 6.24913L52.7508 27.0519C53.9379 27.737 55 29.481 55 30.9135V58.8789C55 59.1903 54.9375 60 54.3128 60C54.0628 60 53.8129 59.9377 53.5005 59.7509L17.2636 38.9481C16.0765 38.263 15.0144 36.519 15.0144 35.0865V7.12111C14.9519 6.7474 15.0769 6 15.7017 6Z" stroke="#CEE3CD" stroke-miterlimit="10"/>
<path d="M21.5451 40.9718L8 40.9718L8 51.0127L21.5451 51.0127L21.5451 54.9887C21.5451 56.1343 22.9603 56.6734 23.7016 55.7973L32.5295 46.026L23.6342 36.3894C22.8929 35.5807 21.4777 36.1198 21.4777 37.198L21.4777 40.9718L21.5451 40.9718Z" fill="url(#paint1_linear)" stroke="#3A9492" stroke-miterlimit="10"/>
<defs>
<linearGradient id="paint0_linear" x1="19.7011" y1="2.04702" x2="53.6039" y2="60.7465" gradientUnits="userSpaceOnUse">
<stop stop-color="#93C1AF"/>
<stop offset="0.5364" stop-color="#93C1AF"/>
<stop offset="0.5883" stop-color="#CEE3CD"/>
<stop offset="0.6065" stop-color="#B0D3C1"/>
<stop offset="0.6303" stop-color="#91C2B5"/>
<stop offset="0.6573" stop-color="#75B4AA"/>
<stop offset="0.6877" stop-color="#5FA8A1"/>
<stop offset="0.7233" stop-color="#4E9F9A"/>
<stop offset="0.7672" stop-color="#439995"/>
<stop offset="0.8288" stop-color="#3C9593"/>
<stop offset="1" stop-color="#3A9492"/>
</linearGradient>
<linearGradient id="paint1_linear" x1="32.5823" y1="46.0911" x2="8.01233" y2="46.0911" gradientUnits="userSpaceOnUse">
<stop stop-color="#6FAC9C"/>
<stop offset="0.4228" stop-color="#CEE3CD"/>
<stop offset="1" stop-color="#FCFEE5"/>
</linearGradient>
</defs>
</svg>
