<svg width="20" height="17" viewBox="0 0 20 17" fill="none" xmlns="http://www.w3.org/2000/svg">
<path d="M6.28889 16.9997C7.82309 17.011 9.34418 16.7033 10.764 16.0944C12.1838 15.4856 13.474 14.5876 14.5599 13.4527C15.6458 12.3178 16.5058 10.9684 17.0899 9.48285C17.6741 7.99729 17.9708 6.40508 17.963 4.79852C17.963 4.61237 17.963 4.42621 17.963 4.2478C18.7611 3.63627 19.4506 2.88279 20 2.02165C19.2516 2.36923 18.4575 2.59673 17.6444 2.69648C18.4989 2.15941 19.1384 1.31612 19.4444 0.322951C18.6411 0.822981 17.7616 1.17457 16.8444 1.36234C16.2269 0.670725 15.4085 0.21205 14.5164 0.0575787C13.6243 -0.0968928 12.7085 0.0614881 11.9112 0.508114C11.1139 0.95474 10.4798 1.6646 10.1074 2.52741C9.735 3.39022 9.64516 4.35767 9.85185 5.27944C8.21945 5.1962 6.62219 4.75315 5.1645 3.97925C3.70681 3.20535 2.4215 2.11802 1.39259 0.788349C0.867486 1.73448 0.706181 2.8545 0.941469 3.92071C1.17676 4.98692 1.79098 5.91929 2.65926 6.52825C2.00762 6.50761 1.37014 6.3241 0.8 5.99304V6.04734C0.801342 7.03856 1.1293 7.99893 1.7285 8.76628C2.3277 9.53363 3.16142 10.0609 4.08889 10.2592C3.48472 10.4297 2.85135 10.4536 2.23704 10.329C2.50042 11.1829 3.01162 11.9295 3.6994 12.4648C4.38719 13.0001 5.2173 13.2974 6.07407 13.3153C4.62139 14.5114 2.82574 15.1591 0.977778 15.1536C0.650885 15.1562 0.324207 15.1354 0 15.0916C1.878 16.3464 4.06116 17.0088 6.28889 16.9997Z" fill="#98CCB0"/>
</svg>
