<svg width="32" height="32" viewBox="0 0 32 32" fill="none" xmlns="http://www.w3.org/2000/svg">
<path d="M11.0512 29.1551C13.0968 29.1698 15.1249 28.7676 17.018 27.9717C18.911 27.1758 20.6314 26.002 22.0792 24.5185C23.5271 23.0349 24.6737 21.271 25.4526 19.3291C26.2315 17.3872 26.6271 15.3059 26.6166 13.2058C26.6166 12.9625 26.6166 12.7191 26.6166 12.4859C27.6809 11.6865 28.6002 10.7016 29.3327 9.57591C28.3349 10.0303 27.2761 10.3276 26.1919 10.458C27.3312 9.75598 28.1839 8.65364 28.5919 7.35539C27.5208 8.00902 26.3482 8.46861 25.1253 8.71406C24.3019 7.80999 23.2107 7.21042 22.0212 7.00849C20.8318 6.80657 19.6106 7.0136 18.5476 7.59743C17.4845 8.18125 16.6391 9.10918 16.1425 10.237C15.646 11.3649 15.5262 12.6295 15.8018 13.8345C13.6253 13.7256 11.4956 13.1465 9.55202 12.1349C7.60843 11.1232 5.89468 9.70188 4.52281 7.96375C3.82266 9.20052 3.60759 10.6646 3.92131 12.0583C4.23503 13.4521 5.05399 14.6709 6.21169 15.4669C5.34285 15.4399 4.49288 15.2 3.73268 14.7673V14.8382C3.73447 16.134 4.17175 17.3893 4.97068 18.3924C5.76961 19.3955 6.88124 20.0848 8.11787 20.3439C7.31231 20.5669 6.46782 20.5981 5.64873 20.4352C5.99992 21.5514 6.68151 22.5274 7.59856 23.2271C8.5156 23.9268 9.62241 24.3155 10.7648 24.3389C8.82787 25.9024 6.43367 26.7491 3.96972 26.7419C3.53386 26.7452 3.09829 26.7181 2.66602 26.6608C5.17001 28.301 8.0809 29.1669 11.0512 29.1551Z" fill="#00ACEE"/>
</svg>
