<svg width="20" height="20" viewBox="0 0 20 20" fill="none" xmlns="http://www.w3.org/2000/svg">
<path d="M6.90676 18.2219C8.18526 18.2311 9.45283 17.9798 10.636 17.4823C11.8191 16.9849 12.8944 16.2513 13.7993 15.324C14.7042 14.3968 15.4208 13.2944 15.9076 12.0807C16.3944 10.867 16.6417 9.56616 16.6352 8.25362C16.6352 8.10152 16.6352 7.94943 16.6352 7.80368C17.3003 7.30406 17.8749 6.68847 18.3327 5.98493C17.7091 6.2689 17.0473 6.45476 16.3697 6.53626C17.0818 6.09747 17.6147 5.40851 17.8697 4.5971C17.2003 5.00562 16.4674 5.29287 15.7031 5.44627C15.1884 4.88123 14.5064 4.5065 13.763 4.38029C13.0196 4.25409 12.2564 4.38349 11.592 4.74838C10.9276 5.11327 10.3992 5.69322 10.0888 6.39813C9.77851 7.10304 9.70365 7.89344 9.87589 8.64652C8.51555 8.57851 7.18451 8.21654 5.96977 7.58427C4.75502 6.952 3.68393 6.06366 2.82651 4.97733C2.38892 5.75031 2.2545 6.66536 2.45057 7.53645C2.64665 8.40754 3.1585 9.16927 3.88207 9.66679C3.33903 9.64993 2.8078 9.5 2.33268 9.22953V9.27389C2.3338 10.0837 2.6071 10.8683 3.10643 11.4952C3.60576 12.1222 4.30053 12.553 5.07342 12.7149C4.56995 12.8543 4.04214 12.8738 3.53021 12.772C3.7497 13.4696 4.1757 14.0796 4.74885 14.5169C5.32201 14.9543 6.01376 15.1971 6.72774 15.2118C5.51718 16.189 4.0208 16.7181 2.48083 16.7137C2.20842 16.7157 1.93619 16.6988 1.66602 16.663C3.23101 17.6881 5.05032 18.2293 6.90676 18.2219Z" fill="#00ACEE"/>
</svg>
