<svg width="544" height="346" viewBox="0 0 544 346" fill="none" xmlns="http://www.w3.org/2000/svg">
<g clip-path="url(#clip0)">
<path d="M466.154 29.8782L-3.32812 302.803" stroke="url(#paint0_linear)" stroke-miterlimit="10"/>
<path d="M554.559 118.864L344.883 240.759" stroke="url(#paint1_linear)" stroke-miterlimit="10"/>
<path d="M253.166 14.5207L43.4902 136.416" stroke="url(#paint2_linear)" stroke-miterlimit="10"/>
<path d="M6.4375 44.0071L466.155 311.228" stroke="url(#paint3_linear)" stroke-miterlimit="10"/>
<path d="M104.432 240.232L223.001 308.156" stroke="url(#paint4_linear)" stroke-miterlimit="10"/>
<path d="M360.139 108.948L554.819 222.067" stroke="url(#paint5_linear)" stroke-miterlimit="10"/>
<g filter="url(#filter0_dd)">
<path d="M146 24C146 19.5817 149.582 16 154 16H402C406.418 16 410 19.5817 410 24V295C410 299.418 406.418 303 402 303H154C149.582 303 146 299.418 146 295V24Z" fill="white"/>
</g>
<line x1="146" y1="264.5" x2="410" y2="264.5" stroke="#EFEFEF"/>
<rect x="157" y="206" width="142" height="12" fill="#E9EAED"/>
<rect x="157" y="279" width="142" height="12" fill="#E9EAED"/>
<rect x="157" y="179" width="96" height="12" fill="#E9EAED"/>
<rect x="157" y="225" width="65" height="12" fill="#E9EAED"/>
<rect x="158" y="28" width="240" height="100" rx="4" fill="#FBF3E9"/>
<g clip-path="url(#clip1)">
<path d="M378.6 34.1L222.1 124.4" stroke="url(#paint6_linear)" stroke-miterlimit="10"/>
<path d="M257.9 34.1L169.5 85.2" stroke="url(#paint7_linear)" stroke-miterlimit="10"/>
<path d="M304.199 34.1L392.699 85.2" stroke="url(#paint8_linear)" stroke-miterlimit="10"/>
<path d="M192.301 38L339.501 123" stroke="url(#paint9_linear)" stroke-miterlimit="10"/>
<path d="M241.5 94.7C239.6 93.6 238.6 92.1 238.6 90.6C238.6 89.1 238.6 88.5 238.6 88.5L274.8 67.5C278.7 65.3 285 65.3 288.9 67.5L324.7 88.5C324.7 88.5 324.7 89 324.7 90.5C324.7 92 323.8 93.5 321.8 94.7L288.7 113.8C284.8 116 278.5 116 274.6 113.8L241.5 94.7Z" fill="url(#paint10_linear)"/>
<path d="M241.499 93C237.599 90.8 237.599 87.1 241.499 84.9L274.799 65.9C278.699 63.7 284.999 63.7 288.899 65.9L321.799 84.9C325.699 87.1 325.699 90.8 321.799 93L288.699 112.1C284.799 114.3 278.499 114.3 274.599 112.1L241.499 93Z" fill="#FCFEE5"/>
<path d="M291.4 99.4L297 102.6L312.2 93.8V58.8C306.2 55.4 257 55.4 251.1 58.8V93.9L266.4 102.7L272.1 99.4C278.1 96 285.5 96 291.4 99.4Z" fill="#F79A8B"/>
<path d="M266.4 67.6L251.1 58.8V93.8L266.4 102.7V67.6Z" fill="#FCD8B6"/>
<path d="M297 67.6V102.6L312.2 93.8V58.8L297 67.6Z" fill="#D67499"/>
<path d="M309.9 94.8V60" stroke="#B24761" stroke-width="0.5" stroke-miterlimit="10" stroke-linecap="round"/>
<path d="M307.4 96.3V61.5" stroke="#B24761" stroke-width="0.5" stroke-miterlimit="10" stroke-linecap="round"/>
<path d="M304.801 97.8V63.1" stroke="#B24761" stroke-width="0.5" stroke-miterlimit="10" stroke-linecap="round"/>
<path d="M302.199 99.3V64.6" stroke="#B24761" stroke-width="0.5" stroke-miterlimit="10" stroke-linecap="round"/>
<path d="M299.6 100.8V66.1" stroke="#B24761" stroke-width="0.5" stroke-miterlimit="10" stroke-linecap="round"/>
<path d="M297 102.4V67.6" stroke="#B24761" stroke-width="0.5" stroke-miterlimit="10" stroke-linecap="round"/>
<path d="M253.299 94.7V59.7" stroke="#F79A8B" stroke-width="0.5" stroke-miterlimit="10" stroke-linecap="round"/>
<path d="M255.898 96.3V61.2" stroke="#F79A8B" stroke-width="0.5" stroke-miterlimit="10" stroke-linecap="round"/>
<path d="M258.498 97.8V62.8" stroke="#F79A8B" stroke-width="0.5" stroke-miterlimit="10" stroke-linecap="round"/>
<path d="M261.2 99.3L261.1 64.4" stroke="#F79A8B" stroke-width="0.5" stroke-miterlimit="10" stroke-linecap="round"/>
<path d="M263.799 100.9V66" stroke="#F79A8B" stroke-width="0.5" stroke-miterlimit="10" stroke-linecap="round"/>
<path d="M266.398 102.4V67.6" stroke="#F79A8B" stroke-width="0.5" stroke-miterlimit="10" stroke-linecap="round"/>
<path d="M275.498 97.7V62.8" stroke="#D67499" stroke-width="0.5" stroke-miterlimit="10"/>
<path d="M277.898 97.2V62.3" stroke="#D67499" stroke-width="0.5" stroke-miterlimit="10"/>
<path d="M280.199 96.9V61.8" stroke="#D67499" stroke-width="0.5" stroke-miterlimit="10"/>
<path d="M282.498 96.9V61.8" stroke="#D67499" stroke-width="0.5" stroke-miterlimit="10"/>
<path d="M284.898 97.2V62" stroke="#D67499" stroke-width="0.5" stroke-miterlimit="10"/>
<path d="M287.199 97.6V62.6" stroke="#D67499" stroke-width="0.5" stroke-miterlimit="10"/>
<path d="M251.898 58.8L272.398 47.1C275.298 45.5 278.498 44.6 281.798 44.6C285.098 44.6 288.398 45.5 291.298 47.1L311.498 58.8L296.998 67.1L291.598 64C288.598 62.3 285.198 61.4 281.698 61.4C278.298 61.4 274.898 62.3 271.898 64L266.398 67.2L251.898 58.8Z" fill="#FCFEE5"/>
<path d="M281.799 44.9C285.099 44.9 288.299 45.8 291.099 47.4L310.799 58.8L296.999 66.7L291.799 63.7C288.699 61.9 285.299 61 281.699 61C278.199 61 274.799 61.9 271.699 63.7L266.299 66.8L252.499 58.8L272.399 47.4C275.299 45.8 278.499 44.9 281.799 44.9ZM281.799 44.2C278.499 44.2 275.199 45.1 272.199 46.8L251.199 58.8L266.499 67.6L272.199 64.3C275.199 62.6 278.499 61.7 281.799 61.7C285.099 61.7 288.499 62.6 291.499 64.3L297.099 67.5L312.299 58.7L291.499 46.7C288.399 45 285.099 44.2 281.799 44.2Z" fill="#F79A8B"/>
<path d="M272.7 51.3C272.2 51 272 50.6 272 50.3C272 49.9 272 41.5 272 41.5H291.5C291.5 41.5 291.5 50 291.5 50.3C291.5 50.7 291.2 51.1 290.7 51.4L283.5 55.6C282.5 56.2 280.9 56.2 279.9 55.6L272.7 51.3Z" fill="url(#paint11_linear)"/>
<path d="M281.699 46.7C281.099 46.7 280.499 46.6 280.099 46.3L272.899 42.1C272.499 41.9 272.299 41.6 272.299 41.4C272.299 41.1 272.499 40.9 272.899 40.7L280.099 36.6C280.499 36.4 281.099 36.2 281.699 36.2C282.299 36.2 282.899 36.3 283.299 36.6L290.399 40.7C290.799 40.9 290.999 41.2 290.999 41.4C290.999 41.6 290.799 41.9 290.399 42.1L283.199 46.3C282.899 46.5 282.299 46.7 281.699 46.7Z" fill="#FCFEE5"/>
<path d="M281.699 36.5C282.299 36.5 282.799 36.6 283.199 36.8L290.299 40.9C290.599 41 290.699 41.2 290.699 41.3C290.699 41.4 290.599 41.6 290.299 41.7L283.099 45.9C282.699 46.1 282.199 46.2 281.699 46.2C281.099 46.2 280.599 46.1 280.299 45.9L273.099 41.7C272.799 41.6 272.699 41.4 272.699 41.3C272.699 41.2 272.799 41.1 273.099 40.9L280.299 36.8C280.599 36.6 281.199 36.5 281.699 36.5ZM281.699 35.8C280.999 35.8 280.399 35.9 279.899 36.2L272.699 40.3C271.699 40.9 271.699 41.8 272.699 42.4L279.899 46.6C280.399 46.9 281.099 47 281.699 47C282.399 47 282.999 46.9 283.499 46.6L290.699 42.4C291.699 41.8 291.699 40.9 290.699 40.3L283.599 36.2C282.999 35.9 282.399 35.8 281.699 35.8Z" fill="#F79A8B"/>
<path d="M277.1 41.8V40.6H286.3V41.8L281.7 44.4L277.1 41.8Z" fill="#FCD8B6"/>
<path d="M281.699 43.3L286.299 40.6V41.8L281.699 44.4V43.3Z" fill="#D67499"/>
<path d="M277.1 40.6L281.7 38L286.3 40.6L281.7 43.3L277.1 40.6Z" fill="#FCFEE5"/>
<path d="M260.898 59L265.498 56.3L270.098 59L265.498 61.6L260.898 59Z" fill="#F79A8B"/>
<path d="M295.398 59L300.098 56.3L304.698 59L300.098 61.6L295.398 59Z" fill="#F79A8B"/>
<path d="M287.799 100.7C287.799 103.6 285.399 106 282.499 106C279.599 106 277.199 103.6 277.199 100.7C277.199 95.7 280.399 93 282.499 93C284.599 93 287.799 96.1 287.799 100.7Z" fill="url(#paint12_linear)"/>
</g>
<path d="M348.602 220L335.502 233.1L328.602 226.1C329.702 225.1 331.502 225.1 332.502 226.2L335.402 229.1L344.502 220C345.702 218.9 347.502 218.9 348.602 220Z" fill="white"/>
<path d="M453 233.1H450.5V218.1C451.9 218.1 453 219.2 453 220.6V233.1Z" fill="white"/>
<path d="M465.5 233.1H450.5V230.6H463C464.4 230.6 465.5 231.7 465.5 233.1Z" fill="white"/>
<path d="M455.5 228.2C455.5 222.6 460 218.1 465.5 218.1V218.2C465.5 223.7 461 228.2 455.5 228.2Z" fill="white"/>
<path d="M529.1 210.203C529.1 203.66 529.1 196.958 529.1 190.416C529.1 189.937 528.94 189.618 528.461 189.618C520.323 187.703 512.185 186.426 503.887 186.107C492.397 185.628 481.068 186.745 469.897 189.618C469.259 189.777 469.1 190.097 469.1 190.735C469.1 199.511 469.1 208.128 469.1 216.905C469.1 221.373 469.1 225.682 469.259 230.15C469.419 233.98 470.695 237.49 472.77 240.522C474.525 243.075 476.919 245.309 479.153 247.543C485.057 253.128 491.6 257.756 498.621 261.745C498.78 261.905 499.259 261.905 499.419 261.745C501.653 260.469 504.046 259.352 506.28 257.916C512.504 253.926 518.089 249.139 523.195 243.714C526.866 239.724 528.94 235.097 529.1 229.671C529.1 222.969 529.1 216.586 529.1 210.203Z" fill="url(#paint13_linear)" stroke="#3E9693" stroke-miterlimit="10"/>
<path d="M496.078 233.367C498.244 233.383 500.391 232.948 502.395 232.089C504.4 231.229 506.221 229.962 507.754 228.359C509.287 226.757 510.501 224.852 511.326 222.755C512.151 220.657 512.57 218.41 512.559 216.142C512.559 215.879 512.559 215.616 512.559 215.364C513.686 214.501 514.659 213.437 515.435 212.221C514.378 212.712 513.257 213.033 512.109 213.174C513.315 212.416 514.218 211.225 514.65 209.823C513.516 210.529 512.274 211.025 510.98 211.29C510.108 210.314 508.952 209.667 507.693 209.448C506.434 209.23 505.141 209.454 504.015 210.085C502.889 210.715 501.994 211.717 501.468 212.935C500.943 214.153 500.816 215.519 501.108 216.821C498.803 216.703 496.548 216.078 494.49 214.985C492.432 213.892 490.618 212.357 489.165 210.48C488.424 211.816 488.196 213.397 488.528 214.902C488.861 216.408 489.728 217.724 490.953 218.584C490.034 218.554 489.134 218.295 488.329 217.828V217.905C488.331 219.304 488.794 220.66 489.639 221.743C490.485 222.826 491.662 223.571 492.972 223.851C492.119 224.092 491.225 224.125 490.357 223.949C490.729 225.155 491.451 226.209 492.422 226.965C493.393 227.72 494.565 228.14 495.774 228.165C493.724 229.854 491.188 230.768 488.58 230.761C488.118 230.764 487.657 230.735 487.199 230.673C489.851 232.444 492.933 233.38 496.078 233.367Z" fill="white"/>
<path d="M456.1 229.861C456.1 225.737 456.1 221.513 456.1 217.389C456.1 217.087 456 216.886 455.7 216.886C450.6 215.679 445.5 214.874 440.3 214.673C433.1 214.371 426 215.075 419 216.886C418.6 216.986 418.5 217.188 418.5 217.59C418.5 223.122 418.5 228.553 418.5 234.085C418.5 236.902 418.5 239.617 418.6 242.433C418.7 244.847 419.5 247.06 420.8 248.971C421.9 250.581 423.4 251.989 424.8 253.397C428.5 256.917 432.6 259.834 437 262.349C437.1 262.449 437.4 262.449 437.5 262.349C438.9 261.544 440.4 260.84 441.8 259.935C445.7 257.42 449.2 254.403 452.4 250.983C454.7 248.468 456 245.552 456.1 242.132C456.1 237.907 456.1 233.884 456.1 229.861Z" fill="url(#paint14_linear)" stroke="#F79A8B" stroke-miterlimit="10"/>
<path fill-rule="evenodd" clip-rule="evenodd" d="M430.301 225.973V239.803V242.569H433.051H446.801C446.801 241.02 445.591 239.803 444.051 239.803H433.051V228.739C433.051 227.19 431.841 225.973 430.301 225.973ZM435.801 237.148C435.801 230.952 440.751 225.973 446.801 225.973V226.084C446.801 232.169 441.851 237.148 435.801 237.148Z" fill="white"/>
<path d="M406.5 228.534C406.5 224.434 406.5 220.234 406.5 216.134C406.5 215.834 406.4 215.634 406.1 215.634C401 214.434 395.9 213.634 390.7 213.434C383.5 213.134 376.4 213.834 369.4 215.634C369 215.734 368.9 215.934 368.9 216.334C368.9 221.834 368.9 227.234 368.9 232.734C368.9 235.534 368.9 238.234 369 241.034C369.1 243.434 369.9 245.634 371.2 247.534C372.3 249.134 373.8 250.534 375.2 251.934C378.9 255.434 383 258.334 387.4 260.834C387.5 260.934 387.8 260.934 387.9 260.834C389.3 260.034 390.8 259.334 392.2 258.434C396.1 255.934 399.6 252.934 402.8 249.534C405.1 247.034 406.4 244.134 406.5 240.734C406.5 236.534 406.5 232.534 406.5 228.534Z" fill="url(#paint15_linear)" stroke="#F79A8B" stroke-miterlimit="10"/>
<path d="M394.701 230.768H393.701V228.958C393.701 226.461 391.461 224.434 388.701 224.434C385.941 224.434 383.701 226.461 383.701 228.958V230.768H382.701C381.601 230.768 380.701 231.582 380.701 232.577V241.625C380.701 242.62 381.601 243.434 382.701 243.434H394.701C395.801 243.434 396.701 242.62 396.701 241.625V232.577C396.701 231.582 395.801 230.768 394.701 230.768ZM388.701 238.911C387.601 238.911 386.701 238.096 386.701 237.101C386.701 236.106 387.601 235.291 388.701 235.291C389.801 235.291 390.701 236.106 390.701 237.101C390.701 238.096 389.801 238.911 388.701 238.911ZM391.801 230.768H385.601V228.958C385.601 227.411 386.991 226.153 388.701 226.153C390.411 226.153 391.801 227.411 391.801 228.958V230.768Z" fill="white"/>
<path d="M356.6 229.255C356.6 225.132 356.6 220.907 356.6 216.783C356.6 216.482 356.5 216.28 356.2 216.28C351.1 215.073 346 214.269 340.8 214.068C333.6 213.766 326.5 214.47 319.5 216.28C319.1 216.28 319 216.381 319 216.884C319 222.416 319 227.847 319 233.379C319 236.195 319 238.911 319.1 241.727C319.2 244.141 320 246.354 321.3 248.265C322.4 249.875 323.9 251.283 325.3 252.691C329 256.211 333.1 259.128 337.5 261.643C337.6 261.743 337.9 261.743 338 261.643C339.4 260.838 340.9 260.134 342.3 259.229C346.2 256.714 349.7 253.697 352.9 250.277C355.2 247.762 356.5 244.845 356.6 241.426C356.6 237.302 356.6 233.279 356.6 229.255Z" fill="url(#paint16_linear)" stroke="#F79A8B" stroke-miterlimit="10"/>
<path d="M345.939 244.417H330.411C329.293 244.417 328.299 243.418 328.299 242.293V232.547H348.05V242.293C348.05 243.418 347.181 244.417 345.939 244.417Z" fill="white"/>
<path d="M348.176 226.55H333.518V229.923H348.176V226.55Z" fill="white"/>
<path d="M329.791 229.798C330.683 229.798 331.406 229.071 331.406 228.174C331.406 227.276 330.683 226.549 329.791 226.549C328.899 226.549 328.176 227.276 328.176 228.174C328.176 229.071 328.899 229.798 329.791 229.798Z" fill="white"/>
</g>
<defs>
<filter id="filter0_dd" x="114" y="-8" width="328" height="351" filterUnits="userSpaceOnUse" color-interpolation-filters="sRGB">
<feFlood flood-opacity="0" result="BackgroundImageFix"/>
<feColorMatrix in="SourceAlpha" type="matrix" values="0 0 0 0 0 0 0 0 0 0 0 0 0 0 0 0 0 0 127 0"/>
<feOffset dy="2"/>
<feGaussianBlur stdDeviation="3"/>
<feColorMatrix type="matrix" values="0 0 0 0 0.0392157 0 0 0 0 0.0901961 0 0 0 0 0.2 0 0 0 0.04 0"/>
<feBlend mode="normal" in2="BackgroundImageFix" result="effect1_dropShadow"/>
<feColorMatrix in="SourceAlpha" type="matrix" values="0 0 0 0 0 0 0 0 0 0 0 0 0 0 0 0 0 0 127 0"/>
<feOffset dy="8"/>
<feGaussianBlur stdDeviation="16"/>
<feColorMatrix type="matrix" values="0 0 0 0 0.0387097 0 0 0 0 0.0903226 0 0 0 0 0.2 0 0 0 0.08 0"/>
<feBlend mode="normal" in2="effect1_dropShadow" result="effect2_dropShadow"/>
<feBlend mode="normal" in="SourceGraphic" in2="effect2_dropShadow" result="shape"/>
</filter>
<linearGradient id="paint0_linear" x1="-3.51104" y1="166.354" x2="466.413" y2="166.354" gradientUnits="userSpaceOnUse">
<stop stop-color="#EFEFEF" stop-opacity="0.5"/>
<stop offset="0.032661" stop-color="#ECECEC" stop-opacity="0.5201"/>
<stop offset="0.2841" stop-color="#DDDDDD" stop-opacity="0.6748"/>
<stop offset="0.4876" stop-color="#D8D8D8" stop-opacity="0.8"/>
<stop offset="1" stop-color="#EFEFEF" stop-opacity="0.5"/>
</linearGradient>
<linearGradient id="paint1_linear" x1="344.694" y1="179.81" x2="554.795" y2="179.81" gradientUnits="userSpaceOnUse">
<stop stop-color="#EFEFEF" stop-opacity="0.5"/>
<stop offset="0.0250394" stop-color="#ECECEC" stop-opacity="0.5134"/>
<stop offset="0.2178" stop-color="#DDDDDD" stop-opacity="0.6165"/>
<stop offset="0.3738" stop-color="#D8D8D8" stop-opacity="0.7"/>
<stop offset="1" stop-color="#EFEFEF" stop-opacity="0.5"/>
</linearGradient>
<linearGradient id="paint2_linear" x1="43.2412" y1="75.4718" x2="253.342" y2="75.4718" gradientUnits="userSpaceOnUse">
<stop stop-color="#EFEFEF" stop-opacity="0.5"/>
<stop offset="0.0250394" stop-color="#ECECEC" stop-opacity="0.5134"/>
<stop offset="0.2178" stop-color="#DDDDDD" stop-opacity="0.6165"/>
<stop offset="0.3738" stop-color="#D8D8D8" stop-opacity="0.7"/>
<stop offset="1" stop-color="#EFEFEF" stop-opacity="0.5"/>
</linearGradient>
<linearGradient id="paint3_linear" x1="6.17979" y1="177.612" x2="466.414" y2="177.612" gradientUnits="userSpaceOnUse">
<stop stop-color="#EFEFEF" stop-opacity="0.5"/>
<stop offset="0.0250394" stop-color="#ECECEC" stop-opacity="0.5201"/>
<stop offset="0.2178" stop-color="#DDDDDD" stop-opacity="0.6748"/>
<stop offset="0.3738" stop-color="#D8D8D8" stop-opacity="0.8"/>
<stop offset="1" stop-color="#EFEFEF" stop-opacity="0.5"/>
</linearGradient>
<linearGradient id="paint4_linear" x1="104.174" y1="274.196" x2="223.195" y2="274.196" gradientUnits="userSpaceOnUse">
<stop stop-color="#D8D8D8" stop-opacity="0.8"/>
<stop offset="1" stop-color="#EFEFEF" stop-opacity="0.5"/>
</linearGradient>
<linearGradient id="paint5_linear" x1="359.95" y1="165.482" x2="555.018" y2="165.482" gradientUnits="userSpaceOnUse">
<stop stop-color="#EFEFEF" stop-opacity="0.5"/>
<stop offset="0.0250394" stop-color="#ECECEC" stop-opacity="0.5134"/>
<stop offset="0.2178" stop-color="#DDDDDD" stop-opacity="0.6165"/>
<stop offset="0.3738" stop-color="#D8D8D8" stop-opacity="0.7"/>
<stop offset="1" stop-color="#EFEFEF" stop-opacity="0.5"/>
</linearGradient>
<linearGradient id="paint6_linear" x1="221.81" y1="79.2427" x2="378.808" y2="79.2427" gradientUnits="userSpaceOnUse">
<stop stop-color="#FFF6F1"/>
<stop offset="0.049071" stop-color="#FDE3DC"/>
<stop offset="0.142" stop-color="#FBC3B9"/>
<stop offset="0.2298" stop-color="#F9ADA0"/>
<stop offset="0.3095" stop-color="#F79F90"/>
<stop offset="0.3738" stop-color="#F79A8B"/>
<stop offset="1" stop-color="#FFF6F1"/>
</linearGradient>
<linearGradient id="paint7_linear" x1="169.215" y1="59.607" x2="258.2" y2="59.607" gradientUnits="userSpaceOnUse">
<stop stop-color="#FFF6F1"/>
<stop offset="0.049071" stop-color="#FDE3DC"/>
<stop offset="0.142" stop-color="#FBC3B9"/>
<stop offset="0.2298" stop-color="#F9ADA0"/>
<stop offset="0.3095" stop-color="#F79F90"/>
<stop offset="0.3738" stop-color="#F79A8B"/>
<stop offset="1" stop-color="#FFF6F1"/>
</linearGradient>
<linearGradient id="paint8_linear" x1="392.972" y1="59.607" x2="303.987" y2="59.607" gradientUnits="userSpaceOnUse">
<stop stop-color="#FFF6F1"/>
<stop offset="0.00780231" stop-color="#FEF1EE" stop-opacity="0.9896"/>
<stop offset="0.0920326" stop-color="#EFC5D0" stop-opacity="0.8769"/>
<stop offset="0.1731" stop-color="#E4A2B8" stop-opacity="0.7685"/>
<stop offset="0.2491" stop-color="#DC89A7" stop-opacity="0.6668"/>
<stop offset="0.3181" stop-color="#D8799D" stop-opacity="0.5745"/>
<stop offset="0.3738" stop-color="#D67499" stop-opacity="0.5"/>
<stop offset="1" stop-color="#FFF6F1"/>
</linearGradient>
<linearGradient id="paint9_linear" x1="192.053" y1="80.4617" x2="339.79" y2="80.4617" gradientUnits="userSpaceOnUse">
<stop stop-color="#FFF6F1"/>
<stop offset="0.0142113" stop-color="#FEF1EE"/>
<stop offset="0.1676" stop-color="#EFC5D0"/>
<stop offset="0.3153" stop-color="#E4A2B8"/>
<stop offset="0.4537" stop-color="#DC89A7"/>
<stop offset="0.5794" stop-color="#D8799D"/>
<stop offset="0.6809" stop-color="#D67499"/>
<stop offset="0.725" stop-color="#D97C9F"/>
<stop offset="0.7951" stop-color="#E093AE"/>
<stop offset="0.8822" stop-color="#ECB9C7"/>
<stop offset="0.9822" stop-color="#FCECEA"/>
<stop offset="1" stop-color="#FFF6F1"/>
</linearGradient>
<linearGradient id="paint10_linear" x1="238.649" y1="90.7238" x2="324.692" y2="90.7238" gradientUnits="userSpaceOnUse">
<stop offset="0.4719" stop-color="#F79A8B"/>
<stop offset="0.5034" stop-color="#E98A91"/>
<stop offset="0.5493" stop-color="#DB7A97"/>
<stop offset="0.5842" stop-color="#D67499"/>
</linearGradient>
<linearGradient id="paint11_linear" x1="271.903" y1="48.6432" x2="291.438" y2="48.6432" gradientUnits="userSpaceOnUse">
<stop stop-color="#FCD8B6"/>
<stop offset="0.4705" stop-color="#FCD8B6"/>
<stop offset="0.4794" stop-color="#FCD8B6"/>
<stop offset="0.4941" stop-color="#F6C9B2"/>
<stop offset="0.5286" stop-color="#EBAAA9"/>
<stop offset="0.5648" stop-color="#E192A2"/>
<stop offset="0.6031" stop-color="#DB819D"/>
<stop offset="0.645" stop-color="#D7779A"/>
<stop offset="0.6968" stop-color="#D67499"/>
</linearGradient>
<linearGradient id="paint12_linear" x1="278.322" y1="95.6798" x2="286.661" y2="104.019" gradientUnits="userSpaceOnUse">
<stop offset="0.0891089" stop-color="#CEE3CD"/>
<stop offset="0.2093" stop-color="#B0D2BD"/>
<stop offset="0.3747" stop-color="#8DBDAB"/>
<stop offset="0.5101" stop-color="#77B1A0"/>
<stop offset="0.5977" stop-color="#6FAC9C"/>
<stop offset="0.7432" stop-color="#56A197"/>
<stop offset="0.8969" stop-color="#419793"/>
<stop offset="1" stop-color="#3A9492"/>
</linearGradient>
<linearGradient id="paint13_linear" x1="499.301" y1="167.034" x2="499.301" y2="264.575" gradientUnits="userSpaceOnUse">
<stop stop-color="#99D7C5"/>
<stop offset="1" stop-color="#3A9492"/>
</linearGradient>
<linearGradient id="paint14_linear" x1="420.518" y1="215.05" x2="454.441" y2="248.777" gradientUnits="userSpaceOnUse">
<stop stop-color="#FCD8B6"/>
<stop offset="0.3051" stop-color="#FFC28F"/>
<stop offset="0.4577" stop-color="#FDB88E"/>
<stop offset="0.7192" stop-color="#F79C8B"/>
<stop offset="0.7384" stop-color="#F79A8B"/>
</linearGradient>
<linearGradient id="paint15_linear" x1="370.918" y1="213.809" x2="404.646" y2="247.537" gradientUnits="userSpaceOnUse">
<stop stop-color="#FCD8B6"/>
<stop offset="0.3051" stop-color="#FFC28F"/>
<stop offset="0.4577" stop-color="#FDB88E"/>
<stop offset="0.7192" stop-color="#F79C8B"/>
<stop offset="0.7384" stop-color="#F79A8B"/>
</linearGradient>
<linearGradient id="paint16_linear" x1="321.005" y1="214.466" x2="354.928" y2="248.194" gradientUnits="userSpaceOnUse">
<stop stop-color="#FCD8B6"/>
<stop offset="0.3051" stop-color="#FFC28F"/>
<stop offset="0.4577" stop-color="#FDB88E"/>
<stop offset="0.7192" stop-color="#F79C8B"/>
<stop offset="0.7384" stop-color="#F79A8B"/>
</linearGradient>
<clipPath id="clip0">
<rect width="544" height="346" fill="white"/>
</clipPath>
<clipPath id="clip1">
<rect x="157" y="28" width="240" height="100" fill="white"/>
</clipPath>
</defs>
</svg>
