<svg width="544" height="347" viewBox="0 0 544 347" fill="none" xmlns="http://www.w3.org/2000/svg">
<g clip-path="url(#clip0)">
<path d="M464.213 38.6049L7.46484 302.816" stroke="url(#paint0_linear)" stroke-miterlimit="10"/>
<path d="M550.219 124.75L346.23 242.753" stroke="url(#paint1_linear)" stroke-miterlimit="10"/>
<path d="M257.001 23.7378L53.0117 141.741" stroke="url(#paint2_linear)" stroke-miterlimit="10"/>
<path d="M16.9629 52.2827L464.211 310.972" stroke="url(#paint3_linear)" stroke-miterlimit="10"/>
<path d="M112.301 242.243L227.654 307.998" stroke="url(#paint4_linear)" stroke-miterlimit="10"/>
<path d="M361.072 115.15L550.472 224.657" stroke="url(#paint5_linear)" stroke-miterlimit="10"/>
<g filter="url(#filter0_dd)">
<path d="M157 34C157 29.5817 160.582 26 165 26H413C417.418 26 421 29.5817 421 34V305C421 309.418 417.418 313 413 313H165C160.582 313 157 309.418 157 305V34Z" fill="white"/>
</g>
<line x1="157" y1="274.5" x2="421" y2="274.5" stroke="#EFEFEF"/>
<rect x="168" y="216" width="142" height="12" fill="#E9EAED"/>
<rect x="168" y="289" width="142" height="12" fill="#E9EAED"/>
<rect x="168" y="189" width="96" height="12" fill="#E9EAED"/>
<rect x="168" y="235" width="65" height="12" fill="#E9EAED"/>
<rect x="169" y="38" width="240" height="100" rx="4" fill="#FBF3E9"/>
<path d="M389.6 44.1L233.1 134.4" stroke="url(#paint6_linear)" stroke-miterlimit="10"/>
<path d="M268.9 44.1L180.5 95.2" stroke="url(#paint7_linear)" stroke-miterlimit="10"/>
<path d="M315.199 44.1L403.699 95.2" stroke="url(#paint8_linear)" stroke-miterlimit="10"/>
<path d="M203.301 48L350.501 133" stroke="url(#paint9_linear)" stroke-miterlimit="10"/>
<path d="M252.5 104.7C250.6 103.6 249.6 102.1 249.6 100.6C249.6 99.1 249.6 98.5 249.6 98.5L285.8 77.5C289.7 75.3 296 75.3 299.9 77.5L335.7 98.5C335.7 98.5 335.7 99 335.7 100.5C335.7 102 334.8 103.5 332.8 104.7L299.7 123.8C295.8 126 289.5 126 285.6 123.8L252.5 104.7Z" fill="url(#paint10_linear)"/>
<path d="M252.499 103C248.599 100.8 248.599 97.1 252.499 94.9L285.799 75.9C289.699 73.7 295.999 73.7 299.899 75.9L332.799 94.9C336.699 97.1 336.699 100.8 332.799 103L299.699 122.1C295.799 124.3 289.499 124.3 285.599 122.1L252.499 103Z" fill="#FCFEE5"/>
<path d="M302.4 109.4L308 112.6L323.2 103.8V68.8C317.2 65.4 268 65.4 262.1 68.8V103.9L277.4 112.7L283.1 109.4C289.1 106 296.5 106 302.4 109.4Z" fill="#F79A8B"/>
<path d="M277.4 77.6L262.1 68.8V103.8L277.4 112.7V77.6Z" fill="#FCD8B6"/>
<path d="M308 77.6V112.6L323.2 103.8V68.8L308 77.6Z" fill="#D67499"/>
<path d="M320.9 104.8V70" stroke="#B24761" stroke-width="0.5" stroke-miterlimit="10" stroke-linecap="round"/>
<path d="M318.4 106.3V71.5" stroke="#B24761" stroke-width="0.5" stroke-miterlimit="10" stroke-linecap="round"/>
<path d="M315.801 107.8V73.1" stroke="#B24761" stroke-width="0.5" stroke-miterlimit="10" stroke-linecap="round"/>
<path d="M313.199 109.3V74.6" stroke="#B24761" stroke-width="0.5" stroke-miterlimit="10" stroke-linecap="round"/>
<path d="M310.6 110.8V76.1" stroke="#B24761" stroke-width="0.5" stroke-miterlimit="10" stroke-linecap="round"/>
<path d="M308 112.4V77.6" stroke="#B24761" stroke-width="0.5" stroke-miterlimit="10" stroke-linecap="round"/>
<path d="M264.299 104.7V69.7" stroke="#F79A8B" stroke-width="0.5" stroke-miterlimit="10" stroke-linecap="round"/>
<path d="M266.898 106.3V71.2" stroke="#F79A8B" stroke-width="0.5" stroke-miterlimit="10" stroke-linecap="round"/>
<path d="M269.498 107.8V72.8" stroke="#F79A8B" stroke-width="0.5" stroke-miterlimit="10" stroke-linecap="round"/>
<path d="M272.2 109.3L272.1 74.4" stroke="#F79A8B" stroke-width="0.5" stroke-miterlimit="10" stroke-linecap="round"/>
<path d="M274.799 110.9V76" stroke="#F79A8B" stroke-width="0.5" stroke-miterlimit="10" stroke-linecap="round"/>
<path d="M277.398 112.4V77.6" stroke="#F79A8B" stroke-width="0.5" stroke-miterlimit="10" stroke-linecap="round"/>
<path d="M286.498 107.7V72.8" stroke="#D67499" stroke-width="0.5" stroke-miterlimit="10"/>
<path d="M288.898 107.2V72.3" stroke="#D67499" stroke-width="0.5" stroke-miterlimit="10"/>
<path d="M291.199 106.9V71.8" stroke="#D67499" stroke-width="0.5" stroke-miterlimit="10"/>
<path d="M293.498 106.9V71.8" stroke="#D67499" stroke-width="0.5" stroke-miterlimit="10"/>
<path d="M295.898 107.2V72" stroke="#D67499" stroke-width="0.5" stroke-miterlimit="10"/>
<path d="M298.199 107.6V72.6" stroke="#D67499" stroke-width="0.5" stroke-miterlimit="10"/>
<path d="M262.898 68.8L283.398 57.1C286.298 55.5 289.498 54.6 292.798 54.6C296.098 54.6 299.398 55.5 302.298 57.1L322.498 68.8L307.998 77.1L302.598 74C299.598 72.3 296.198 71.4 292.698 71.4C289.298 71.4 285.898 72.3 282.898 74L277.398 77.2L262.898 68.8Z" fill="#FCFEE5"/>
<path d="M292.799 54.9C296.099 54.9 299.299 55.8 302.099 57.4L321.799 68.8L307.999 76.7L302.799 73.7C299.699 71.9 296.299 71 292.699 71C289.199 71 285.799 71.9 282.699 73.7L277.299 76.8L263.499 68.8L283.399 57.4C286.299 55.8 289.499 54.9 292.799 54.9ZM292.799 54.2C289.499 54.2 286.199 55.1 283.199 56.8L262.199 68.8L277.499 77.6L283.199 74.3C286.199 72.6 289.499 71.7 292.799 71.7C296.099 71.7 299.499 72.6 302.499 74.3L308.099 77.5L323.299 68.7L302.499 56.7C299.399 55 296.099 54.2 292.799 54.2Z" fill="#F79A8B"/>
<path d="M283.7 61.3C283.2 61 283 60.6 283 60.3C283 59.9 283 51.5 283 51.5H302.5C302.5 51.5 302.5 60 302.5 60.3C302.5 60.7 302.2 61.1 301.7 61.4L294.5 65.6C293.5 66.2 291.9 66.2 290.9 65.6L283.7 61.3Z" fill="url(#paint11_linear)"/>
<path d="M292.699 56.7C292.099 56.7 291.499 56.6 291.099 56.3L283.899 52.1C283.499 51.9 283.299 51.6 283.299 51.4C283.299 51.1 283.499 50.9 283.899 50.7L291.099 46.6C291.499 46.4 292.099 46.2 292.699 46.2C293.299 46.2 293.899 46.3 294.299 46.6L301.399 50.7C301.799 50.9 301.999 51.2 301.999 51.4C301.999 51.6 301.799 51.9 301.399 52.1L294.199 56.3C293.899 56.5 293.299 56.7 292.699 56.7Z" fill="#FCFEE5"/>
<path d="M292.699 46.5C293.299 46.5 293.799 46.6 294.199 46.8L301.299 50.9C301.599 51 301.699 51.2 301.699 51.3C301.699 51.4 301.599 51.6 301.299 51.7L294.099 55.9C293.699 56.1 293.199 56.2 292.699 56.2C292.099 56.2 291.599 56.1 291.299 55.9L284.099 51.7C283.799 51.6 283.699 51.4 283.699 51.3C283.699 51.2 283.799 51.1 284.099 50.9L291.299 46.8C291.599 46.6 292.199 46.5 292.699 46.5ZM292.699 45.8C291.999 45.8 291.399 45.9 290.899 46.2L283.699 50.3C282.699 50.9 282.699 51.8 283.699 52.4L290.899 56.6C291.399 56.9 292.099 57 292.699 57C293.399 57 293.999 56.9 294.499 56.6L301.699 52.4C302.699 51.8 302.699 50.9 301.699 50.3L294.599 46.2C293.999 45.9 293.399 45.8 292.699 45.8Z" fill="#F79A8B"/>
<path d="M288.1 51.8V50.6H297.3V51.8L292.7 54.4L288.1 51.8Z" fill="#FCD8B6"/>
<path d="M292.699 53.3L297.299 50.6V51.8L292.699 54.4V53.3Z" fill="#D67499"/>
<path d="M288.1 50.6L292.7 48L297.3 50.6L292.7 53.3L288.1 50.6Z" fill="#FCFEE5"/>
<path d="M271.898 69L276.498 66.3L281.098 69L276.498 71.6L271.898 69Z" fill="#F79A8B"/>
<path d="M306.398 69L311.098 66.3L315.698 69L311.098 71.6L306.398 69Z" fill="#F79A8B"/>
<path d="M298.799 110.7C298.799 113.6 296.399 116 293.499 116C290.599 116 288.199 113.6 288.199 110.7C288.199 105.7 291.399 103 293.499 103C295.599 103 298.799 106.1 298.799 110.7Z" fill="url(#paint12_linear)"/>
<path d="M386.301 219.203C386.301 212.66 386.301 205.958 386.301 199.416C386.301 198.937 386.141 198.618 385.662 198.618C377.524 196.703 369.386 195.426 361.088 195.107C349.599 194.628 338.269 195.745 327.099 198.618C326.46 198.777 326.301 199.097 326.301 199.735C326.301 208.511 326.301 217.128 326.301 225.905C326.301 230.373 326.301 234.682 326.46 239.15C326.62 242.98 327.897 246.49 329.971 249.522C331.726 252.075 334.12 254.309 336.354 256.543C342.258 262.128 348.801 266.756 355.822 270.745C355.982 270.905 356.46 270.905 356.62 270.745C358.854 269.469 361.248 268.352 363.482 266.916C369.705 262.926 375.29 258.139 380.397 252.714C384.067 248.724 386.141 244.097 386.301 238.671C386.301 231.969 386.301 225.586 386.301 219.203Z" fill="url(#paint13_linear)" stroke="#3E9693" stroke-miterlimit="10"/>
<path d="M366.294 241.059H346.348C344.911 241.059 343.635 239.782 343.635 238.346V225.899H369.007V238.346C369.007 239.782 367.89 241.059 366.294 241.059Z" fill="white"/>
<path d="M369.168 218.24H350.338V222.548H369.168V218.24Z" fill="white"/>
<path d="M345.551 222.389C346.697 222.389 347.625 221.46 347.625 220.314C347.625 219.169 346.697 218.24 345.551 218.24C344.405 218.24 343.477 219.169 343.477 220.314C343.477 221.46 344.405 222.389 345.551 222.389Z" fill="white"/>
<path d="M486.799 230.1C486.799 226 486.799 221.8 486.799 217.7C486.799 217.4 486.699 217.2 486.399 217.2C481.299 216 476.199 215.2 470.999 215C463.799 214.7 456.699 215.4 449.699 217.2C449.299 217.3 449.199 217.5 449.199 217.9C449.199 223.4 449.199 228.8 449.199 234.3C449.199 237.1 449.199 239.8 449.299 242.6C449.399 245 450.199 247.2 451.499 249.1C452.599 250.7 454.099 252.1 455.499 253.5C459.199 257 463.299 259.9 467.699 262.4C467.799 262.5 468.099 262.5 468.199 262.4C469.599 261.6 471.099 260.9 472.499 260C476.399 257.5 479.899 254.5 483.099 251.1C485.399 248.6 486.699 245.7 486.799 242.3C486.799 238.1 486.799 234.1 486.799 230.1Z" fill="url(#paint14_linear)" stroke="#F79A8B" stroke-miterlimit="10"/>
<path d="M463 243.1H460.5V228.1C461.9 228.1 463 229.2 463 230.6V243.1Z" fill="white"/>
<path d="M475.5 243.1H460.5V240.6H473C474.4 240.6 475.5 241.7 475.5 243.1Z" fill="white"/>
<path d="M465.5 238.2C465.5 232.6 470 228.1 475.5 228.1V228.2C475.5 233.7 471 238.2 465.5 238.2Z" fill="white"/>
<path d="M536.5 230.167C536.5 226.067 536.5 221.867 536.5 217.767C536.5 217.467 536.4 217.267 536.1 217.267C531 216.067 525.9 215.267 520.7 215.067C513.5 214.767 506.4 215.467 499.4 217.267C499 217.267 498.9 217.367 498.9 217.867C498.9 223.367 498.9 228.767 498.9 234.267C498.9 237.067 498.9 239.767 499 242.567C499.1 244.967 499.9 247.167 501.2 249.067C502.3 250.667 503.8 252.067 505.2 253.467C508.9 256.967 513 259.867 517.4 262.367C517.5 262.467 517.8 262.467 517.9 262.367C519.3 261.567 520.8 260.867 522.2 259.967C526.1 257.467 529.6 254.467 532.8 251.067C535.1 248.567 536.4 245.667 536.5 242.267C536.5 238.167 536.5 234.167 536.5 230.167Z" fill="url(#paint15_linear)" stroke="#F79A8B" stroke-miterlimit="10"/>
<path d="M515.189 245C516.723 245.011 518.245 244.703 519.664 244.094C521.084 243.486 522.374 242.588 523.46 241.453C524.546 240.318 525.406 238.968 525.99 237.483C526.574 235.997 526.871 234.405 526.863 232.799C526.863 232.612 526.863 232.426 526.863 232.248C527.662 231.636 528.351 230.883 528.9 230.022C528.152 230.369 527.358 230.597 526.545 230.696C527.399 230.159 528.039 229.316 528.345 228.323C527.542 228.823 526.662 229.175 525.745 229.362C525.127 228.671 524.309 228.212 523.417 228.058C522.525 227.903 521.609 228.061 520.812 228.508C520.014 228.955 519.38 229.665 519.008 230.527C518.635 231.39 518.546 232.358 518.752 233.279C517.12 233.196 515.523 232.753 514.065 231.979C512.607 231.205 511.322 230.118 510.293 228.788C509.768 229.734 509.607 230.855 509.842 231.921C510.077 232.987 510.691 233.919 511.56 234.528C510.908 234.508 510.271 234.324 509.7 233.993V234.047C509.702 235.039 510.03 235.999 510.629 236.766C511.228 237.534 512.062 238.061 512.989 238.259C512.385 238.43 511.752 238.454 511.137 238.329C511.401 239.183 511.912 239.93 512.6 240.465C513.288 241 514.118 241.297 514.974 241.315C513.522 242.511 511.726 243.159 509.878 243.154C509.551 243.156 509.225 243.135 508.9 243.092C510.778 244.346 512.962 245.009 515.189 245Z" fill="white"/>
<path d="M435.901 230.1C435.901 226 435.901 221.8 435.901 217.7C435.901 217.4 435.801 217.2 435.501 217.2C430.401 216 425.301 215.2 420.101 215C412.901 214.7 405.801 215.4 398.801 217.2C398.401 217.3 398.301 217.5 398.301 217.9C398.301 223.4 398.301 228.8 398.301 234.3C398.301 237.1 398.301 239.8 398.401 242.6C398.501 245 399.301 247.2 400.601 249.1C401.701 250.7 403.201 252.1 404.601 253.5C408.301 257 412.401 259.9 416.801 262.4C416.901 262.5 417.201 262.5 417.301 262.4C418.701 261.6 420.201 260.9 421.601 260C425.501 257.5 429.001 254.5 432.201 251.1C434.501 248.6 435.801 245.7 435.901 242.3C435.901 238.1 435.901 234.1 435.901 230.1Z" fill="url(#paint16_linear)" stroke="#F79A8B" stroke-miterlimit="10"/>
<path d="M424.102 232.333H423.102V230.524C423.102 228.026 420.862 226 418.102 226C415.342 226 413.102 228.026 413.102 230.524V232.333H412.102C411.002 232.333 410.102 233.147 410.102 234.143V243.19C410.102 244.185 411.002 245 412.102 245H424.102C425.202 245 426.102 244.185 426.102 243.19V234.143C426.102 233.147 425.202 232.333 424.102 232.333ZM418.102 240.476C417.002 240.476 416.102 239.662 416.102 238.666C416.102 237.671 417.002 236.857 418.102 236.857C419.202 236.857 420.102 237.671 420.102 238.666C420.102 239.662 419.202 240.476 418.102 240.476ZM421.202 232.333H415.002V230.524C415.002 228.976 416.392 227.719 418.102 227.719C419.812 227.719 421.202 228.976 421.202 230.524V232.333Z" fill="white"/>
</g>
<defs>
<filter id="filter0_dd" x="125" y="2" width="328" height="351" filterUnits="userSpaceOnUse" color-interpolation-filters="sRGB">
<feFlood flood-opacity="0" result="BackgroundImageFix"/>
<feColorMatrix in="SourceAlpha" type="matrix" values="0 0 0 0 0 0 0 0 0 0 0 0 0 0 0 0 0 0 127 0"/>
<feOffset dy="2"/>
<feGaussianBlur stdDeviation="3"/>
<feColorMatrix type="matrix" values="0 0 0 0 0.0392157 0 0 0 0 0.0901961 0 0 0 0 0.2 0 0 0 0.04 0"/>
<feBlend mode="normal" in2="BackgroundImageFix" result="effect1_dropShadow"/>
<feColorMatrix in="SourceAlpha" type="matrix" values="0 0 0 0 0 0 0 0 0 0 0 0 0 0 0 0 0 0 127 0"/>
<feOffset dy="8"/>
<feGaussianBlur stdDeviation="16"/>
<feColorMatrix type="matrix" values="0 0 0 0 0.0387097 0 0 0 0 0.0903226 0 0 0 0 0.2 0 0 0 0.08 0"/>
<feBlend mode="normal" in2="effect1_dropShadow" result="effect2_dropShadow"/>
<feBlend mode="normal" in="SourceGraphic" in2="effect2_dropShadow" result="shape"/>
</filter>
<linearGradient id="paint0_linear" x1="7.28689" y1="170.724" x2="464.465" y2="170.724" gradientUnits="userSpaceOnUse">
<stop stop-color="#EFEFEF" stop-opacity="0.5"/>
<stop offset="0.032661" stop-color="#ECECEC" stop-opacity="0.5201"/>
<stop offset="0.2841" stop-color="#DDDDDD" stop-opacity="0.6748"/>
<stop offset="0.4876" stop-color="#D8D8D8" stop-opacity="0.8"/>
<stop offset="1" stop-color="#EFEFEF" stop-opacity="0.5"/>
</linearGradient>
<linearGradient id="paint1_linear" x1="346.047" y1="183.75" x2="550.449" y2="183.75" gradientUnits="userSpaceOnUse">
<stop stop-color="#EFEFEF" stop-opacity="0.5"/>
<stop offset="0.0250394" stop-color="#ECECEC" stop-opacity="0.5134"/>
<stop offset="0.2178" stop-color="#DDDDDD" stop-opacity="0.6165"/>
<stop offset="0.3738" stop-color="#D8D8D8" stop-opacity="0.7"/>
<stop offset="1" stop-color="#EFEFEF" stop-opacity="0.5"/>
</linearGradient>
<linearGradient id="paint2_linear" x1="52.7695" y1="82.7428" x2="257.172" y2="82.7428" gradientUnits="userSpaceOnUse">
<stop stop-color="#EFEFEF" stop-opacity="0.5"/>
<stop offset="0.0250394" stop-color="#ECECEC" stop-opacity="0.5134"/>
<stop offset="0.2178" stop-color="#DDDDDD" stop-opacity="0.6165"/>
<stop offset="0.3738" stop-color="#D8D8D8" stop-opacity="0.7"/>
<stop offset="1" stop-color="#EFEFEF" stop-opacity="0.5"/>
</linearGradient>
<linearGradient id="paint3_linear" x1="16.7122" y1="181.622" x2="464.464" y2="181.622" gradientUnits="userSpaceOnUse">
<stop stop-color="#EFEFEF" stop-opacity="0.5"/>
<stop offset="0.0250394" stop-color="#ECECEC" stop-opacity="0.5201"/>
<stop offset="0.2178" stop-color="#DDDDDD" stop-opacity="0.6748"/>
<stop offset="0.3738" stop-color="#D8D8D8" stop-opacity="0.8"/>
<stop offset="1" stop-color="#EFEFEF" stop-opacity="0.5"/>
</linearGradient>
<linearGradient id="paint4_linear" x1="112.05" y1="275.123" x2="227.843" y2="275.123" gradientUnits="userSpaceOnUse">
<stop stop-color="#D8D8D8" stop-opacity="0.8"/>
<stop offset="1" stop-color="#EFEFEF" stop-opacity="0.5"/>
</linearGradient>
<linearGradient id="paint5_linear" x1="360.889" y1="169.879" x2="550.666" y2="169.879" gradientUnits="userSpaceOnUse">
<stop stop-color="#EFEFEF" stop-opacity="0.5"/>
<stop offset="0.0250394" stop-color="#ECECEC" stop-opacity="0.5134"/>
<stop offset="0.2178" stop-color="#DDDDDD" stop-opacity="0.6165"/>
<stop offset="0.3738" stop-color="#D8D8D8" stop-opacity="0.7"/>
<stop offset="1" stop-color="#EFEFEF" stop-opacity="0.5"/>
</linearGradient>
<linearGradient id="paint6_linear" x1="232.81" y1="89.2427" x2="389.808" y2="89.2427" gradientUnits="userSpaceOnUse">
<stop stop-color="#FFF6F1"/>
<stop offset="0.049071" stop-color="#FDE3DC"/>
<stop offset="0.142" stop-color="#FBC3B9"/>
<stop offset="0.2298" stop-color="#F9ADA0"/>
<stop offset="0.3095" stop-color="#F79F90"/>
<stop offset="0.3738" stop-color="#F79A8B"/>
<stop offset="1" stop-color="#FFF6F1"/>
</linearGradient>
<linearGradient id="paint7_linear" x1="180.215" y1="69.607" x2="269.2" y2="69.607" gradientUnits="userSpaceOnUse">
<stop stop-color="#FFF6F1"/>
<stop offset="0.049071" stop-color="#FDE3DC"/>
<stop offset="0.142" stop-color="#FBC3B9"/>
<stop offset="0.2298" stop-color="#F9ADA0"/>
<stop offset="0.3095" stop-color="#F79F90"/>
<stop offset="0.3738" stop-color="#F79A8B"/>
<stop offset="1" stop-color="#FFF6F1"/>
</linearGradient>
<linearGradient id="paint8_linear" x1="403.972" y1="69.607" x2="314.987" y2="69.607" gradientUnits="userSpaceOnUse">
<stop stop-color="#FFF6F1"/>
<stop offset="0.00780231" stop-color="#FEF1EE" stop-opacity="0.9896"/>
<stop offset="0.0920326" stop-color="#EFC5D0" stop-opacity="0.8769"/>
<stop offset="0.1731" stop-color="#E4A2B8" stop-opacity="0.7685"/>
<stop offset="0.2491" stop-color="#DC89A7" stop-opacity="0.6668"/>
<stop offset="0.3181" stop-color="#D8799D" stop-opacity="0.5745"/>
<stop offset="0.3738" stop-color="#D67499" stop-opacity="0.5"/>
<stop offset="1" stop-color="#FFF6F1"/>
</linearGradient>
<linearGradient id="paint9_linear" x1="203.053" y1="90.4617" x2="350.79" y2="90.4617" gradientUnits="userSpaceOnUse">
<stop stop-color="#FFF6F1"/>
<stop offset="0.0142113" stop-color="#FEF1EE"/>
<stop offset="0.1676" stop-color="#EFC5D0"/>
<stop offset="0.3153" stop-color="#E4A2B8"/>
<stop offset="0.4537" stop-color="#DC89A7"/>
<stop offset="0.5794" stop-color="#D8799D"/>
<stop offset="0.6809" stop-color="#D67499"/>
<stop offset="0.725" stop-color="#D97C9F"/>
<stop offset="0.7951" stop-color="#E093AE"/>
<stop offset="0.8822" stop-color="#ECB9C7"/>
<stop offset="0.9822" stop-color="#FCECEA"/>
<stop offset="1" stop-color="#FFF6F1"/>
</linearGradient>
<linearGradient id="paint10_linear" x1="249.649" y1="100.724" x2="335.692" y2="100.724" gradientUnits="userSpaceOnUse">
<stop offset="0.4719" stop-color="#F79A8B"/>
<stop offset="0.5034" stop-color="#E98A91"/>
<stop offset="0.5493" stop-color="#DB7A97"/>
<stop offset="0.5842" stop-color="#D67499"/>
</linearGradient>
<linearGradient id="paint11_linear" x1="282.903" y1="58.6432" x2="302.438" y2="58.6432" gradientUnits="userSpaceOnUse">
<stop stop-color="#FCD8B6"/>
<stop offset="0.4705" stop-color="#FCD8B6"/>
<stop offset="0.4794" stop-color="#FCD8B6"/>
<stop offset="0.4941" stop-color="#F6C9B2"/>
<stop offset="0.5286" stop-color="#EBAAA9"/>
<stop offset="0.5648" stop-color="#E192A2"/>
<stop offset="0.6031" stop-color="#DB819D"/>
<stop offset="0.645" stop-color="#D7779A"/>
<stop offset="0.6968" stop-color="#D67499"/>
</linearGradient>
<linearGradient id="paint12_linear" x1="289.322" y1="105.68" x2="297.661" y2="114.019" gradientUnits="userSpaceOnUse">
<stop offset="0.0891089" stop-color="#CEE3CD"/>
<stop offset="0.2093" stop-color="#B0D2BD"/>
<stop offset="0.3747" stop-color="#8DBDAB"/>
<stop offset="0.5101" stop-color="#77B1A0"/>
<stop offset="0.5977" stop-color="#6FAC9C"/>
<stop offset="0.7432" stop-color="#56A197"/>
<stop offset="0.8969" stop-color="#419793"/>
<stop offset="1" stop-color="#3A9492"/>
</linearGradient>
<linearGradient id="paint13_linear" x1="356.502" y1="176.034" x2="356.502" y2="273.575" gradientUnits="userSpaceOnUse">
<stop stop-color="#99D7C5"/>
<stop offset="1" stop-color="#3A9492"/>
</linearGradient>
<linearGradient id="paint14_linear" x1="451.217" y1="215.375" x2="484.945" y2="249.103" gradientUnits="userSpaceOnUse">
<stop stop-color="#FCD8B6"/>
<stop offset="0.3051" stop-color="#FFC28F"/>
<stop offset="0.4577" stop-color="#FDB88E"/>
<stop offset="0.7192" stop-color="#F79C8B"/>
<stop offset="0.7384" stop-color="#F79A8B"/>
</linearGradient>
<linearGradient id="paint15_linear" x1="500.905" y1="215.464" x2="534.633" y2="249.191" gradientUnits="userSpaceOnUse">
<stop stop-color="#FCD8B6"/>
<stop offset="0.3051" stop-color="#FFC28F"/>
<stop offset="0.4577" stop-color="#FDB88E"/>
<stop offset="0.7192" stop-color="#F79C8B"/>
<stop offset="0.7384" stop-color="#F79A8B"/>
</linearGradient>
<linearGradient id="paint16_linear" x1="400.319" y1="215.375" x2="434.046" y2="249.102" gradientUnits="userSpaceOnUse">
<stop stop-color="#FCD8B6"/>
<stop offset="0.3051" stop-color="#FFC28F"/>
<stop offset="0.4577" stop-color="#FDB88E"/>
<stop offset="0.7192" stop-color="#F79C8B"/>
<stop offset="0.7384" stop-color="#F79A8B"/>
</linearGradient>
<clipPath id="clip0">
<rect width="544" height="346.637" fill="white"/>
</clipPath>
</defs>
</svg>
