<svg width="588" height="356" viewBox="0 0 588 356" fill="none" xmlns="http://www.w3.org/2000/svg">
<path d="M477.154 41.7055L7.67212 313.053" stroke="url(#paint0_linear)" stroke-miterlimit="10"/>
<path d="M565.558 130.177L355.882 251.367" stroke="url(#paint1_linear)" stroke-miterlimit="10"/>
<path d="M264.165 26.4368L54.4895 147.627" stroke="url(#paint2_linear)" stroke-miterlimit="10"/>
<path d="M17.4368 55.7527L477.154 321.429" stroke="url(#paint3_linear)" stroke-miterlimit="10"/>
<path d="M115.431 250.844L234 318.375" stroke="url(#paint4_linear)" stroke-miterlimit="10"/>
<path d="M371.139 120.318L565.82 232.783" stroke="url(#paint5_linear)" stroke-miterlimit="10"/>
<g filter="url(#filter0_dd)">
<path d="M157 36C157 31.5817 160.582 28 165 28H413C417.418 28 421 31.5817 421 36V307C421 311.418 417.418 315 413 315H165C160.582 315 157 311.418 157 307V36Z" fill="white"/>
</g>
<line x1="157" y1="276.5" x2="421" y2="276.5" stroke="#EFEFEF"/>
<rect x="129" y="148" width="67" height="24" rx="4" fill="#D67499"/>
<rect x="204" y="148" width="55" height="24" rx="4" fill="#D67499"/>
<rect x="168" y="218" width="142" height="12" fill="#E9EAED"/>
<rect x="168" y="291" width="142" height="12" fill="#E9EAED"/>
<rect x="168" y="191" width="96" height="12" fill="#E9EAED"/>
<rect x="168" y="237" width="65" height="12" fill="#E9EAED"/>
<rect x="169" y="40" width="240" height="100" rx="4" fill="#FBF3E9"/>
<g clip-path="url(#clip0)">
<path d="M389.6 46.1L233.1 136.4" stroke="url(#paint6_linear)" stroke-miterlimit="10"/>
<path d="M268.9 46.1L180.5 97.2" stroke="url(#paint7_linear)" stroke-miterlimit="10"/>
<path d="M315.2 46.1L403.7 97.2" stroke="url(#paint8_linear)" stroke-miterlimit="10"/>
<path d="M203.3 50L350.5 135" stroke="url(#paint9_linear)" stroke-miterlimit="10"/>
<path d="M252.5 106.7C250.6 105.6 249.6 104.1 249.6 102.6C249.6 101.1 249.6 100.5 249.6 100.5L285.8 79.5C289.7 77.3 296 77.3 299.9 79.5L335.7 100.5C335.7 100.5 335.7 101 335.7 102.5C335.7 104 334.8 105.5 332.8 106.7L299.7 125.8C295.8 128 289.5 128 285.6 125.8L252.5 106.7Z" fill="url(#paint10_linear)"/>
<path d="M252.5 105C248.6 102.8 248.6 99.1 252.5 96.9L285.8 77.9C289.7 75.7 296 75.7 299.9 77.9L332.8 96.9C336.7 99.1 336.7 102.8 332.8 105L299.7 124.1C295.8 126.3 289.5 126.3 285.6 124.1L252.5 105Z" fill="#FCFEE5"/>
<path d="M302.4 111.4L308 114.6L323.2 105.8V70.8C317.2 67.4 268 67.4 262.1 70.8V105.9L277.4 114.7L283.1 111.4C289.1 108 296.5 108 302.4 111.4Z" fill="#F79A8B"/>
<path d="M277.4 79.6L262.1 70.8V105.8L277.4 114.7V79.6Z" fill="#FCD8B6"/>
<path d="M308 79.6V114.6L323.2 105.8V70.8L308 79.6Z" fill="#D67499"/>
<path d="M320.9 106.8V72" stroke="#B24761" stroke-width="0.5" stroke-miterlimit="10" stroke-linecap="round"/>
<path d="M318.4 108.3V73.5" stroke="#B24761" stroke-width="0.5" stroke-miterlimit="10" stroke-linecap="round"/>
<path d="M315.8 109.8V75.1" stroke="#B24761" stroke-width="0.5" stroke-miterlimit="10" stroke-linecap="round"/>
<path d="M313.2 111.3V76.6" stroke="#B24761" stroke-width="0.5" stroke-miterlimit="10" stroke-linecap="round"/>
<path d="M310.6 112.8V78.1" stroke="#B24761" stroke-width="0.5" stroke-miterlimit="10" stroke-linecap="round"/>
<path d="M308 114.4V79.6" stroke="#B24761" stroke-width="0.5" stroke-miterlimit="10" stroke-linecap="round"/>
<path d="M264.3 106.7V71.7" stroke="#F79A8B" stroke-width="0.5" stroke-miterlimit="10" stroke-linecap="round"/>
<path d="M266.9 108.3V73.2" stroke="#F79A8B" stroke-width="0.5" stroke-miterlimit="10" stroke-linecap="round"/>
<path d="M269.5 109.8V74.8" stroke="#F79A8B" stroke-width="0.5" stroke-miterlimit="10" stroke-linecap="round"/>
<path d="M272.2 111.3L272.1 76.4" stroke="#F79A8B" stroke-width="0.5" stroke-miterlimit="10" stroke-linecap="round"/>
<path d="M274.8 112.9V78" stroke="#F79A8B" stroke-width="0.5" stroke-miterlimit="10" stroke-linecap="round"/>
<path d="M277.4 114.4V79.6" stroke="#F79A8B" stroke-width="0.5" stroke-miterlimit="10" stroke-linecap="round"/>
<path d="M286.5 109.7V74.8" stroke="#D67499" stroke-width="0.5" stroke-miterlimit="10"/>
<path d="M288.9 109.2V74.3" stroke="#D67499" stroke-width="0.5" stroke-miterlimit="10"/>
<path d="M291.2 108.9V73.8" stroke="#D67499" stroke-width="0.5" stroke-miterlimit="10"/>
<path d="M293.5 108.9V73.8" stroke="#D67499" stroke-width="0.5" stroke-miterlimit="10"/>
<path d="M295.9 109.2V74" stroke="#D67499" stroke-width="0.5" stroke-miterlimit="10"/>
<path d="M298.2 109.6V74.6" stroke="#D67499" stroke-width="0.5" stroke-miterlimit="10"/>
<path d="M262.9 70.8L283.4 59.1C286.3 57.5 289.5 56.6 292.8 56.6C296.1 56.6 299.4 57.5 302.3 59.1L322.5 70.8L308 79.1L302.6 76C299.6 74.3 296.2 73.4 292.7 73.4C289.3 73.4 285.9 74.3 282.9 76L277.4 79.2L262.9 70.8Z" fill="#FCFEE5"/>
<path d="M292.8 56.9C296.1 56.9 299.3 57.8 302.1 59.4L321.8 70.8L308 78.7L302.8 75.7C299.7 73.9 296.3 73 292.7 73C289.2 73 285.8 73.9 282.7 75.7L277.3 78.8L263.5 70.8L283.4 59.4C286.3 57.8 289.5 56.9 292.8 56.9ZM292.8 56.2C289.5 56.2 286.2 57.1 283.2 58.8L262.2 70.8L277.5 79.6L283.2 76.3C286.2 74.6 289.5 73.7 292.8 73.7C296.1 73.7 299.5 74.6 302.5 76.3L308.1 79.5L323.3 70.7L302.5 58.7C299.4 57 296.1 56.2 292.8 56.2Z" fill="#F79A8B"/>
<path d="M283.7 63.3C283.2 63 283 62.6 283 62.3C283 61.9 283 53.5 283 53.5H302.5C302.5 53.5 302.5 62 302.5 62.3C302.5 62.7 302.2 63.1 301.7 63.4L294.5 67.6C293.5 68.2 291.9 68.2 290.9 67.6L283.7 63.3Z" fill="url(#paint11_linear)"/>
<path d="M292.7 58.7C292.1 58.7 291.5 58.6 291.1 58.3L283.9 54.1C283.5 53.9 283.3 53.6 283.3 53.4C283.3 53.1 283.5 52.9 283.9 52.7L291.1 48.6C291.5 48.4 292.1 48.2 292.7 48.2C293.3 48.2 293.9 48.3 294.3 48.6L301.4 52.7C301.8 52.9 302 53.2 302 53.4C302 53.6 301.8 53.9 301.4 54.1L294.2 58.3C293.9 58.5 293.3 58.7 292.7 58.7Z" fill="#FCFEE5"/>
<path d="M292.7 48.5C293.3 48.5 293.8 48.6 294.2 48.8L301.3 52.9C301.6 53 301.7 53.2 301.7 53.3C301.7 53.4 301.6 53.6 301.3 53.7L294.1 57.9C293.7 58.1 293.2 58.2 292.7 58.2C292.1 58.2 291.6 58.1 291.3 57.9L284.1 53.7C283.8 53.6 283.7 53.4 283.7 53.3C283.7 53.2 283.8 53.1 284.1 52.9L291.3 48.8C291.6 48.6 292.2 48.5 292.7 48.5ZM292.7 47.8C292 47.8 291.4 47.9 290.9 48.2L283.7 52.3C282.7 52.9 282.7 53.8 283.7 54.4L290.9 58.6C291.4 58.9 292.1 59 292.7 59C293.4 59 294 58.9 294.5 58.6L301.7 54.4C302.7 53.8 302.7 52.9 301.7 52.3L294.6 48.2C294 47.9 293.4 47.8 292.7 47.8Z" fill="#F79A8B"/>
<path d="M288.1 53.8V52.6H297.3V53.8L292.7 56.4L288.1 53.8Z" fill="#FCD8B6"/>
<path d="M292.7 55.3L297.3 52.6V53.8L292.7 56.4V55.3Z" fill="#D67499"/>
<path d="M288.1 52.6L292.7 50L297.3 52.6L292.7 55.3L288.1 52.6Z" fill="#FCFEE5"/>
<path d="M271.9 71L276.5 68.3L281.1 71L276.5 73.6L271.9 71Z" fill="#F79A8B"/>
<path d="M306.4 71L311.1 68.3L315.7 71L311.1 73.6L306.4 71Z" fill="#F79A8B"/>
<path d="M298.8 112.7C298.8 115.6 296.4 118 293.5 118C290.6 118 288.2 115.6 288.2 112.7C288.2 107.7 291.4 105 293.5 105C295.6 105 298.8 108.1 298.8 112.7Z" fill="url(#paint12_linear)"/>
</g>
<path d="M389.9 231.8C389.9 227.7 389.9 223.5 389.9 219.4C389.9 219.1 389.8 218.9 389.5 218.9C384.4 217.7 379.3 216.9 374.1 216.7C366.9 216.4 359.8 217.1 352.8 218.9C352.4 219 352.3 219.2 352.3 219.6C352.3 225.1 352.3 230.5 352.3 236C352.3 238.8 352.3 241.5 352.4 244.3C352.5 246.7 353.3 248.9 354.6 250.8C355.7 252.4 357.2 253.8 358.6 255.2C362.3 258.7 366.4 261.6 370.8 264.1C370.9 264.2 371.2 264.2 371.3 264.1C372.7 263.3 374.2 262.6 375.6 261.7C379.5 259.2 383 256.2 386.2 252.8C388.5 250.3 389.8 247.4 389.9 244C389.9 239.8 389.9 235.8 389.9 231.8Z" fill="url(#paint13_linear)" stroke="#F79A8B" stroke-miterlimit="10"/>
<path d="M487.8 232.1C487.8 228 487.8 223.8 487.8 219.7C487.8 219.4 487.7 219.2 487.4 219.2C482.3 218 477.2 217.2 472 217C464.8 216.7 457.7 217.4 450.7 219.2C450.3 219.3 450.2 219.5 450.2 219.9C450.2 225.4 450.2 230.8 450.2 236.3C450.2 239.1 450.2 241.8 450.3 244.6C450.4 247 451.2 249.2 452.5 251.1C453.6 252.7 455.1 254.1 456.5 255.5C460.2 259 464.3 261.9 468.7 264.4C468.8 264.5 469.1 264.5 469.2 264.4C470.6 263.6 472.1 262.9 473.5 262C477.4 259.5 480.9 256.5 484.1 253.1C486.4 250.6 487.7 247.7 487.8 244.3C487.8 240.1 487.8 236.1 487.8 232.1Z" fill="url(#paint14_linear)" stroke="#F79A8B" stroke-miterlimit="10"/>
<path d="M464 245.1H461.5V230.1C462.9 230.1 464 231.2 464 232.6V245.1Z" fill="white"/>
<path d="M476.5 245.1H461.5V242.6H474C475.4 242.6 476.5 243.7 476.5 245.1Z" fill="white"/>
<path d="M466.5 240.2C466.5 234.6 471 230.1 476.5 230.1V230.2C476.5 235.7 472 240.2 466.5 240.2Z" fill="white"/>
<path d="M439.6 231.8C439.6 227.7 439.6 223.5 439.6 219.4C439.6 219.1 439.5 218.9 439.2 218.9C434.1 217.7 429 216.9 423.8 216.7C416.6 216.4 409.5 217.1 402.5 218.9C402.1 218.9 402 219 402 219.5C402 225 402 230.4 402 235.9C402 238.7 402 241.4 402.1 244.2C402.2 246.6 403 248.8 404.3 250.7C405.4 252.3 406.9 253.7 408.3 255.1C412 258.6 416.1 261.5 420.5 264C420.6 264.1 420.9 264.1 421 264C422.4 263.2 423.9 262.5 425.3 261.6C429.2 259.1 432.7 256.1 435.9 252.7C438.2 250.2 439.5 247.3 439.6 243.9C439.6 239.8 439.6 235.8 439.6 231.8Z" fill="url(#paint15_linear)" stroke="#F79A8B" stroke-miterlimit="10"/>
<path d="M432.3 232L419.2 245.1L412.3 238.1C413.4 237.1 415.2 237.1 416.2 238.2L419.1 241.1L428.2 232C429.4 230.9 431.2 230.9 432.3 232Z" fill="white"/>
<path d="M376.8 245.1H364.3C363.4 245.1 362.6 244.3 362.6 243.4V235.6H378.5V243.4C378.5 244.3 377.8 245.1 376.8 245.1Z" fill="white"/>
<path d="M378.6 230.8H366.8V233.5H378.6V230.8Z" fill="white"/>
<path d="M363.8 233.4C364.518 233.4 365.1 232.818 365.1 232.1C365.1 231.382 364.518 230.8 363.8 230.8C363.082 230.8 362.5 231.382 362.5 232.1C362.5 232.818 363.082 233.4 363.8 233.4Z" fill="white"/>
<rect x="157" y="28" width="264" height="287" stroke="white"/>
<defs>
<filter id="filter0_dd" x="125" y="4" width="328" height="351" filterUnits="userSpaceOnUse" color-interpolation-filters="sRGB">
<feFlood flood-opacity="0" result="BackgroundImageFix"/>
<feColorMatrix in="SourceAlpha" type="matrix" values="0 0 0 0 0 0 0 0 0 0 0 0 0 0 0 0 0 0 127 0"/>
<feOffset dy="2"/>
<feGaussianBlur stdDeviation="3"/>
<feColorMatrix type="matrix" values="0 0 0 0 0.0392157 0 0 0 0 0.0901961 0 0 0 0 0.2 0 0 0 0.04 0"/>
<feBlend mode="normal" in2="BackgroundImageFix" result="effect1_dropShadow"/>
<feColorMatrix in="SourceAlpha" type="matrix" values="0 0 0 0 0 0 0 0 0 0 0 0 0 0 0 0 0 0 127 0"/>
<feOffset dy="8"/>
<feGaussianBlur stdDeviation="16"/>
<feColorMatrix type="matrix" values="0 0 0 0 0.0387097 0 0 0 0 0.0903226 0 0 0 0 0.2 0 0 0 0.08 0"/>
<feBlend mode="normal" in2="effect1_dropShadow" result="effect2_dropShadow"/>
<feBlend mode="normal" in="SourceGraphic" in2="effect2_dropShadow" result="shape"/>
</filter>
<linearGradient id="paint0_linear" x1="7.48921" y1="177.393" x2="477.413" y2="177.393" gradientUnits="userSpaceOnUse">
<stop stop-color="#EFEFEF" stop-opacity="0.5"/>
<stop offset="0.032661" stop-color="#ECECEC" stop-opacity="0.5201"/>
<stop offset="0.2841" stop-color="#DDDDDD" stop-opacity="0.6748"/>
<stop offset="0.4876" stop-color="#D8D8D8" stop-opacity="0.8"/>
<stop offset="1" stop-color="#EFEFEF" stop-opacity="0.5"/>
</linearGradient>
<linearGradient id="paint1_linear" x1="355.694" y1="190.771" x2="565.795" y2="190.771" gradientUnits="userSpaceOnUse">
<stop stop-color="#EFEFEF" stop-opacity="0.5"/>
<stop offset="0.0250394" stop-color="#ECECEC" stop-opacity="0.5134"/>
<stop offset="0.2178" stop-color="#DDDDDD" stop-opacity="0.6165"/>
<stop offset="0.3738" stop-color="#D8D8D8" stop-opacity="0.7"/>
<stop offset="1" stop-color="#EFEFEF" stop-opacity="0.5"/>
</linearGradient>
<linearGradient id="paint2_linear" x1="54.2405" y1="87.0356" x2="264.342" y2="87.0356" gradientUnits="userSpaceOnUse">
<stop stop-color="#EFEFEF" stop-opacity="0.5"/>
<stop offset="0.0250394" stop-color="#ECECEC" stop-opacity="0.5134"/>
<stop offset="0.2178" stop-color="#DDDDDD" stop-opacity="0.6165"/>
<stop offset="0.3738" stop-color="#D8D8D8" stop-opacity="0.7"/>
<stop offset="1" stop-color="#EFEFEF" stop-opacity="0.5"/>
</linearGradient>
<linearGradient id="paint3_linear" x1="17.1791" y1="188.585" x2="477.413" y2="188.585" gradientUnits="userSpaceOnUse">
<stop stop-color="#EFEFEF" stop-opacity="0.5"/>
<stop offset="0.0250394" stop-color="#ECECEC" stop-opacity="0.5201"/>
<stop offset="0.2178" stop-color="#DDDDDD" stop-opacity="0.6748"/>
<stop offset="0.3738" stop-color="#D8D8D8" stop-opacity="0.8"/>
<stop offset="1" stop-color="#EFEFEF" stop-opacity="0.5"/>
</linearGradient>
<linearGradient id="paint4_linear" x1="115.173" y1="284.611" x2="234.194" y2="284.611" gradientUnits="userSpaceOnUse">
<stop stop-color="#D8D8D8" stop-opacity="0.8"/>
<stop offset="1" stop-color="#EFEFEF" stop-opacity="0.5"/>
</linearGradient>
<linearGradient id="paint5_linear" x1="370.951" y1="176.526" x2="566.019" y2="176.526" gradientUnits="userSpaceOnUse">
<stop stop-color="#EFEFEF" stop-opacity="0.5"/>
<stop offset="0.0250394" stop-color="#ECECEC" stop-opacity="0.5134"/>
<stop offset="0.2178" stop-color="#DDDDDD" stop-opacity="0.6165"/>
<stop offset="0.3738" stop-color="#D8D8D8" stop-opacity="0.7"/>
<stop offset="1" stop-color="#EFEFEF" stop-opacity="0.5"/>
</linearGradient>
<linearGradient id="paint6_linear" x1="232.811" y1="91.2427" x2="389.808" y2="91.2427" gradientUnits="userSpaceOnUse">
<stop stop-color="#FFF6F1"/>
<stop offset="0.049071" stop-color="#FDE3DC"/>
<stop offset="0.142" stop-color="#FBC3B9"/>
<stop offset="0.2298" stop-color="#F9ADA0"/>
<stop offset="0.3095" stop-color="#F79F90"/>
<stop offset="0.3738" stop-color="#F79A8B"/>
<stop offset="1" stop-color="#FFF6F1"/>
</linearGradient>
<linearGradient id="paint7_linear" x1="180.215" y1="71.607" x2="269.2" y2="71.607" gradientUnits="userSpaceOnUse">
<stop stop-color="#FFF6F1"/>
<stop offset="0.049071" stop-color="#FDE3DC"/>
<stop offset="0.142" stop-color="#FBC3B9"/>
<stop offset="0.2298" stop-color="#F9ADA0"/>
<stop offset="0.3095" stop-color="#F79F90"/>
<stop offset="0.3738" stop-color="#F79A8B"/>
<stop offset="1" stop-color="#FFF6F1"/>
</linearGradient>
<linearGradient id="paint8_linear" x1="403.973" y1="71.607" x2="314.988" y2="71.607" gradientUnits="userSpaceOnUse">
<stop stop-color="#FFF6F1"/>
<stop offset="0.00780231" stop-color="#FEF1EE" stop-opacity="0.9896"/>
<stop offset="0.0920326" stop-color="#EFC5D0" stop-opacity="0.8769"/>
<stop offset="0.1731" stop-color="#E4A2B8" stop-opacity="0.7685"/>
<stop offset="0.2491" stop-color="#DC89A7" stop-opacity="0.6668"/>
<stop offset="0.3181" stop-color="#D8799D" stop-opacity="0.5745"/>
<stop offset="0.3738" stop-color="#D67499" stop-opacity="0.5"/>
<stop offset="1" stop-color="#FFF6F1"/>
</linearGradient>
<linearGradient id="paint9_linear" x1="203.052" y1="92.4617" x2="350.789" y2="92.4617" gradientUnits="userSpaceOnUse">
<stop stop-color="#FFF6F1"/>
<stop offset="0.0142113" stop-color="#FEF1EE"/>
<stop offset="0.1676" stop-color="#EFC5D0"/>
<stop offset="0.3153" stop-color="#E4A2B8"/>
<stop offset="0.4537" stop-color="#DC89A7"/>
<stop offset="0.5794" stop-color="#D8799D"/>
<stop offset="0.6809" stop-color="#D67499"/>
<stop offset="0.725" stop-color="#D97C9F"/>
<stop offset="0.7951" stop-color="#E093AE"/>
<stop offset="0.8822" stop-color="#ECB9C7"/>
<stop offset="0.9822" stop-color="#FCECEA"/>
<stop offset="1" stop-color="#FFF6F1"/>
</linearGradient>
<linearGradient id="paint10_linear" x1="249.649" y1="102.724" x2="335.692" y2="102.724" gradientUnits="userSpaceOnUse">
<stop offset="0.4719" stop-color="#F79A8B"/>
<stop offset="0.5034" stop-color="#E98A91"/>
<stop offset="0.5493" stop-color="#DB7A97"/>
<stop offset="0.5842" stop-color="#D67499"/>
</linearGradient>
<linearGradient id="paint11_linear" x1="282.903" y1="60.6432" x2="302.438" y2="60.6432" gradientUnits="userSpaceOnUse">
<stop stop-color="#FCD8B6"/>
<stop offset="0.4705" stop-color="#FCD8B6"/>
<stop offset="0.4794" stop-color="#FCD8B6"/>
<stop offset="0.4941" stop-color="#F6C9B2"/>
<stop offset="0.5286" stop-color="#EBAAA9"/>
<stop offset="0.5648" stop-color="#E192A2"/>
<stop offset="0.6031" stop-color="#DB819D"/>
<stop offset="0.645" stop-color="#D7779A"/>
<stop offset="0.6968" stop-color="#D67499"/>
</linearGradient>
<linearGradient id="paint12_linear" x1="289.323" y1="107.68" x2="297.662" y2="116.019" gradientUnits="userSpaceOnUse">
<stop offset="0.0891089" stop-color="#CEE3CD"/>
<stop offset="0.2093" stop-color="#B0D2BD"/>
<stop offset="0.3747" stop-color="#8DBDAB"/>
<stop offset="0.5101" stop-color="#77B1A0"/>
<stop offset="0.5977" stop-color="#6FAC9C"/>
<stop offset="0.7432" stop-color="#56A197"/>
<stop offset="0.8969" stop-color="#419793"/>
<stop offset="1" stop-color="#3A9492"/>
</linearGradient>
<linearGradient id="paint13_linear" x1="354.301" y1="217.097" x2="388.028" y2="250.824" gradientUnits="userSpaceOnUse">
<stop stop-color="#FCD8B6"/>
<stop offset="0.3051" stop-color="#FFC28F"/>
<stop offset="0.4577" stop-color="#FDB88E"/>
<stop offset="0.7192" stop-color="#F79C8B"/>
<stop offset="0.7384" stop-color="#F79A8B"/>
</linearGradient>
<linearGradient id="paint14_linear" x1="452.218" y1="217.375" x2="485.946" y2="251.103" gradientUnits="userSpaceOnUse">
<stop stop-color="#FCD8B6"/>
<stop offset="0.3051" stop-color="#FFC28F"/>
<stop offset="0.4577" stop-color="#FDB88E"/>
<stop offset="0.7192" stop-color="#F79C8B"/>
<stop offset="0.7384" stop-color="#F79A8B"/>
</linearGradient>
<linearGradient id="paint15_linear" x1="404.005" y1="217.097" x2="437.733" y2="250.824" gradientUnits="userSpaceOnUse">
<stop stop-color="#FCD8B6"/>
<stop offset="0.3051" stop-color="#FFC28F"/>
<stop offset="0.4577" stop-color="#FDB88E"/>
<stop offset="0.7192" stop-color="#F79C8B"/>
<stop offset="0.7384" stop-color="#F79A8B"/>
</linearGradient>
<clipPath id="clip0">
<rect x="168" y="40" width="240" height="100" fill="white"/>
</clipPath>
</defs>
</svg>
