<svg width="544" height="346" viewBox="0 0 544 346" fill="none" xmlns="http://www.w3.org/2000/svg">
<g clip-path="url(#clip0)">
<path d="M454.991 30.7945L-15.3555 302.929" stroke="url(#paint0_linear)" stroke-miterlimit="10"/>
<path d="M543.558 119.522L333.496 241.064" stroke="url(#paint1_linear)" stroke-miterlimit="10"/>
<path d="M241.611 15.4815L31.5488 137.023" stroke="url(#paint2_linear)" stroke-miterlimit="10"/>
<path d="M-5.57227 44.8825L454.992 311.329" stroke="url(#paint3_linear)" stroke-miterlimit="10"/>
<path d="M92.6016 240.539L211.389 308.266" stroke="url(#paint4_linear)" stroke-miterlimit="10"/>
<path d="M348.779 109.635L543.818 222.426" stroke="url(#paint5_linear)" stroke-miterlimit="10"/>
<g filter="url(#filter0_dd)">
<path d="M130 25C130 20.5817 133.582 17 138 17H386C390.418 17 394 20.5817 394 25V296C394 300.418 390.418 304 386 304H138C133.582 304 130 300.418 130 296V25Z" fill="white"/>
</g>
<line x1="134" y1="265.5" x2="398" y2="265.5" stroke="#EFEFEF"/>
<rect x="145" y="207" width="142" height="12" fill="#E9EAED"/>
<rect x="145" y="280" width="142" height="12" fill="#E9EAED"/>
<rect x="145" y="180" width="96" height="12" fill="#E9EAED"/>
<rect x="145" y="226" width="65" height="12" fill="#E9EAED"/>
<rect x="146" y="29" width="240" height="100" rx="4" fill="#FBF3E9"/>
<g clip-path="url(#clip1)">
<path d="M366.6 35.1L210.1 125.4" stroke="url(#paint6_linear)" stroke-miterlimit="10"/>
<path d="M245.9 35.1L157.5 86.2" stroke="url(#paint7_linear)" stroke-miterlimit="10"/>
<path d="M292.199 35.1L380.699 86.2" stroke="url(#paint8_linear)" stroke-miterlimit="10"/>
<path d="M180.301 39L327.501 124" stroke="url(#paint9_linear)" stroke-miterlimit="10"/>
<path d="M229.5 95.7C227.6 94.6 226.6 93.1 226.6 91.6C226.6 90.1 226.6 89.5 226.6 89.5L262.8 68.5C266.7 66.3 273 66.3 276.9 68.5L312.7 89.5C312.7 89.5 312.7 90 312.7 91.5C312.7 93 311.8 94.5 309.8 95.7L276.7 114.8C272.8 117 266.5 117 262.6 114.8L229.5 95.7Z" fill="url(#paint10_linear)"/>
<path d="M229.499 94C225.599 91.8 225.599 88.1 229.499 85.9L262.799 66.9C266.699 64.7 272.999 64.7 276.899 66.9L309.799 85.9C313.699 88.1 313.699 91.8 309.799 94L276.699 113.1C272.799 115.3 266.499 115.3 262.599 113.1L229.499 94Z" fill="#FCFEE5"/>
<path d="M279.4 100.4L285 103.6L300.2 94.8V59.8C294.2 56.4 245 56.4 239.1 59.8V94.9L254.4 103.7L260.1 100.4C266.1 97 273.5 97 279.4 100.4Z" fill="#F79A8B"/>
<path d="M254.4 68.6L239.1 59.8V94.8L254.4 103.7V68.6Z" fill="#FCD8B6"/>
<path d="M285 68.6V103.6L300.2 94.8V59.8L285 68.6Z" fill="#D67499"/>
<path d="M297.9 95.8V61" stroke="#B24761" stroke-width="0.5" stroke-miterlimit="10" stroke-linecap="round"/>
<path d="M295.4 97.3V62.5" stroke="#B24761" stroke-width="0.5" stroke-miterlimit="10" stroke-linecap="round"/>
<path d="M292.801 98.8V64.1" stroke="#B24761" stroke-width="0.5" stroke-miterlimit="10" stroke-linecap="round"/>
<path d="M290.199 100.3V65.6" stroke="#B24761" stroke-width="0.5" stroke-miterlimit="10" stroke-linecap="round"/>
<path d="M287.6 101.8V67.1" stroke="#B24761" stroke-width="0.5" stroke-miterlimit="10" stroke-linecap="round"/>
<path d="M285 103.4V68.6" stroke="#B24761" stroke-width="0.5" stroke-miterlimit="10" stroke-linecap="round"/>
<path d="M241.299 95.7V60.7" stroke="#F79A8B" stroke-width="0.5" stroke-miterlimit="10" stroke-linecap="round"/>
<path d="M243.898 97.3V62.2" stroke="#F79A8B" stroke-width="0.5" stroke-miterlimit="10" stroke-linecap="round"/>
<path d="M246.498 98.8V63.8" stroke="#F79A8B" stroke-width="0.5" stroke-miterlimit="10" stroke-linecap="round"/>
<path d="M249.2 100.3L249.1 65.4" stroke="#F79A8B" stroke-width="0.5" stroke-miterlimit="10" stroke-linecap="round"/>
<path d="M251.799 101.9V67" stroke="#F79A8B" stroke-width="0.5" stroke-miterlimit="10" stroke-linecap="round"/>
<path d="M254.398 103.4V68.6" stroke="#F79A8B" stroke-width="0.5" stroke-miterlimit="10" stroke-linecap="round"/>
<path d="M263.498 98.7V63.8" stroke="#D67499" stroke-width="0.5" stroke-miterlimit="10"/>
<path d="M265.898 98.2V63.3" stroke="#D67499" stroke-width="0.5" stroke-miterlimit="10"/>
<path d="M268.199 97.9V62.8" stroke="#D67499" stroke-width="0.5" stroke-miterlimit="10"/>
<path d="M270.498 97.9V62.8" stroke="#D67499" stroke-width="0.5" stroke-miterlimit="10"/>
<path d="M272.898 98.2V63" stroke="#D67499" stroke-width="0.5" stroke-miterlimit="10"/>
<path d="M275.199 98.6V63.6" stroke="#D67499" stroke-width="0.5" stroke-miterlimit="10"/>
<path d="M239.898 59.8L260.398 48.1C263.298 46.5 266.498 45.6 269.798 45.6C273.098 45.6 276.398 46.5 279.298 48.1L299.498 59.8L284.998 68.1L279.598 65C276.598 63.3 273.198 62.4 269.698 62.4C266.298 62.4 262.898 63.3 259.898 65L254.398 68.2L239.898 59.8Z" fill="#FCFEE5"/>
<path d="M269.799 45.9C273.099 45.9 276.299 46.8 279.099 48.4L298.799 59.8L284.999 67.7L279.799 64.7C276.699 62.9 273.299 62 269.699 62C266.199 62 262.799 62.9 259.699 64.7L254.299 67.8L240.499 59.8L260.399 48.4C263.299 46.8 266.499 45.9 269.799 45.9ZM269.799 45.2C266.499 45.2 263.199 46.1 260.199 47.8L239.199 59.8L254.499 68.6L260.199 65.3C263.199 63.6 266.499 62.7 269.799 62.7C273.099 62.7 276.499 63.6 279.499 65.3L285.099 68.5L300.299 59.7L279.499 47.7C276.399 46 273.099 45.2 269.799 45.2Z" fill="#F79A8B"/>
<path d="M260.7 52.3C260.2 52 260 51.6 260 51.3C260 50.9 260 42.5 260 42.5H279.5C279.5 42.5 279.5 51 279.5 51.3C279.5 51.7 279.2 52.1 278.7 52.4L271.5 56.6C270.5 57.2 268.9 57.2 267.9 56.6L260.7 52.3Z" fill="url(#paint11_linear)"/>
<path d="M269.699 47.7C269.099 47.7 268.499 47.6 268.099 47.3L260.899 43.1C260.499 42.9 260.299 42.6 260.299 42.4C260.299 42.1 260.499 41.9 260.899 41.7L268.099 37.6C268.499 37.4 269.099 37.2 269.699 37.2C270.299 37.2 270.899 37.3 271.299 37.6L278.399 41.7C278.799 41.9 278.999 42.2 278.999 42.4C278.999 42.6 278.799 42.9 278.399 43.1L271.199 47.3C270.899 47.5 270.299 47.7 269.699 47.7Z" fill="#FCFEE5"/>
<path d="M269.699 37.5C270.299 37.5 270.799 37.6 271.199 37.8L278.299 41.9C278.599 42 278.699 42.2 278.699 42.3C278.699 42.4 278.599 42.6 278.299 42.7L271.099 46.9C270.699 47.1 270.199 47.2 269.699 47.2C269.099 47.2 268.599 47.1 268.299 46.9L261.099 42.7C260.799 42.6 260.699 42.4 260.699 42.3C260.699 42.2 260.799 42.1 261.099 41.9L268.299 37.8C268.599 37.6 269.199 37.5 269.699 37.5ZM269.699 36.8C268.999 36.8 268.399 36.9 267.899 37.2L260.699 41.3C259.699 41.9 259.699 42.8 260.699 43.4L267.899 47.6C268.399 47.9 269.099 48 269.699 48C270.399 48 270.999 47.9 271.499 47.6L278.699 43.4C279.699 42.8 279.699 41.9 278.699 41.3L271.599 37.2C270.999 36.9 270.399 36.8 269.699 36.8Z" fill="#F79A8B"/>
<path d="M265.1 42.8V41.6H274.3V42.8L269.7 45.4L265.1 42.8Z" fill="#FCD8B6"/>
<path d="M269.699 44.3L274.299 41.6V42.8L269.699 45.4V44.3Z" fill="#D67499"/>
<path d="M265.1 41.6L269.7 39L274.3 41.6L269.7 44.3L265.1 41.6Z" fill="#FCFEE5"/>
<path d="M248.898 60L253.498 57.3L258.098 60L253.498 62.6L248.898 60Z" fill="#F79A8B"/>
<path d="M283.398 60L288.098 57.3L292.698 60L288.098 62.6L283.398 60Z" fill="#F79A8B"/>
<path d="M275.799 101.7C275.799 104.6 273.399 107 270.499 107C267.599 107 265.199 104.6 265.199 101.7C265.199 96.7 268.399 94 270.499 94C272.599 94 275.799 97.1 275.799 101.7Z" fill="url(#paint12_linear)"/>
</g>
<path d="M332.602 221L319.502 234.1L312.602 227.1C313.702 226.1 315.502 226.1 316.502 227.2L319.402 230.1L328.502 221C329.702 219.9 331.502 219.9 332.602 221Z" fill="white"/>
<path d="M437 234.1H434.5V219.1C435.9 219.1 437 220.2 437 221.6V234.1Z" fill="white"/>
<path d="M449.5 234.1H434.5V231.6H447C448.4 231.6 449.5 232.7 449.5 234.1Z" fill="white"/>
<path d="M439.5 229.2C439.5 223.6 444 219.1 449.5 219.1V219.2C449.5 224.7 445 229.2 439.5 229.2Z" fill="white"/>
<path d="M413 211.203C413 204.66 413 197.958 413 191.416C413 190.937 412.84 190.618 412.362 190.618C404.223 188.703 396.085 187.426 387.787 187.107C376.298 186.628 364.968 187.745 353.798 190.618C353.16 190.777 353 191.097 353 191.735C353 200.511 353 209.128 353 217.905C353 222.373 353 226.682 353.16 231.15C353.319 234.98 354.596 238.49 356.67 241.522C358.426 244.075 360.819 246.309 363.053 248.543C368.957 254.128 375.5 258.756 382.521 262.745C382.681 262.905 383.16 262.905 383.319 262.745C385.553 261.469 387.947 260.352 390.181 258.916C396.404 254.926 401.989 250.139 407.096 244.714C410.766 240.724 412.84 236.097 413 230.671C413 223.969 413 217.586 413 211.203Z" fill="url(#paint13_linear)" stroke="#3E9693" stroke-miterlimit="10"/>
<path d="M392 214.333H390.5V211.667C390.5 207.987 387.14 205 383 205C378.86 205 375.5 207.987 375.5 211.667V214.333H374C372.35 214.333 371 215.533 371 217V230.333C371 231.8 372.35 233 374 233H392C393.65 233 395 231.8 395 230.333V217C395 215.533 393.65 214.333 392 214.333ZM383 226.333C381.35 226.333 380 225.133 380 223.667C380 222.2 381.35 221 383 221C384.65 221 386 222.2 386 223.667C386 225.133 384.65 226.333 383 226.333ZM387.65 214.333H378.35V211.667C378.35 209.387 380.435 207.533 383 207.533C385.565 207.533 387.65 209.387 387.65 211.667V214.333Z" fill="white"/>
<path d="M340.6 229.167C340.6 225.067 340.6 220.867 340.6 216.767C340.6 216.467 340.5 216.267 340.2 216.267C335.1 215.067 330 214.267 324.8 214.067C317.6 213.767 310.5 214.467 303.5 216.267C303.1 216.367 303 216.567 303 216.967C303 222.467 303 227.867 303 233.367C303 236.167 303 238.867 303.1 241.667C303.2 244.067 304 246.267 305.3 248.167C306.4 249.767 307.9 251.167 309.3 252.567C313 256.067 317.1 258.967 321.5 261.467C321.6 261.567 321.9 261.567 322 261.467C323.4 260.667 324.9 259.967 326.3 259.067C330.2 256.567 333.7 253.567 336.9 250.167C339.2 247.667 340.5 244.767 340.6 241.367C340.6 237.167 340.6 233.167 340.6 229.167Z" fill="url(#paint14_linear)" stroke="#F79A8B" stroke-miterlimit="10"/>
<path d="M329.939 244.004H314.411C313.293 244.004 312.299 243.01 312.299 241.892V232.203H332.05V241.892C332.05 243.01 331.181 244.004 329.939 244.004Z" fill="white"/>
<path d="M332.176 226.24H317.518V229.594H332.176V226.24Z" fill="white"/>
<path d="M313.791 229.47C314.683 229.47 315.406 228.747 315.406 227.855C315.406 226.963 314.683 226.24 313.791 226.24C312.899 226.24 312.176 226.963 312.176 227.855C312.176 228.747 312.899 229.47 313.791 229.47Z" fill="white"/>
<path d="M463.452 229.831C463.452 225.72 463.452 221.507 463.452 217.395C463.452 217.095 463.352 216.894 463.052 216.894C457.942 215.691 452.833 214.888 447.623 214.688C440.41 214.387 433.297 215.089 426.284 216.894C425.883 216.994 425.783 217.195 425.783 217.596C425.783 223.112 425.783 228.528 425.783 234.044C425.783 236.852 425.783 239.56 425.883 242.368C425.984 244.775 426.785 246.981 428.087 248.887C429.189 250.491 430.692 251.895 432.095 253.299C435.802 256.809 439.909 259.718 444.317 262.225C444.417 262.325 444.718 262.325 444.818 262.225C446.221 261.423 447.724 260.721 449.126 259.818C453.033 257.311 456.54 254.302 459.746 250.892C462.05 248.385 463.352 245.477 463.452 242.067C463.452 237.855 463.452 233.843 463.452 229.831Z" fill="url(#paint15_linear)" stroke="#F79A8B" stroke-miterlimit="10"/>
<path d="M439.61 242.869H437.105V227.826C438.508 227.826 439.61 228.929 439.61 230.333V242.869Z" fill="white"/>
<path d="M452.133 242.869H437.105V240.362H449.628C451.031 240.362 452.133 241.465 452.133 242.869Z" fill="white"/>
<path d="M442.115 237.955C442.115 232.339 446.624 227.826 452.134 227.826V227.926C452.134 233.442 447.625 237.955 442.115 237.955Z" fill="white"/>
<path d="M514.122 229.899C514.122 225.787 514.122 221.575 514.122 217.463C514.122 217.162 514.022 216.961 513.722 216.961C508.612 215.758 503.503 214.956 498.293 214.755C491.08 214.454 483.967 215.156 476.954 216.961C476.553 216.961 476.453 217.062 476.453 217.563C476.453 223.079 476.453 228.495 476.453 234.011C476.453 236.819 476.453 239.527 476.553 242.335C476.653 244.742 477.455 246.948 478.757 248.854C479.859 250.458 481.362 251.862 482.765 253.266C486.472 256.776 490.579 259.685 494.987 262.192C495.087 262.292 495.388 262.292 495.488 262.192C496.891 261.39 498.393 260.688 499.796 259.785C503.703 257.278 507.21 254.269 510.416 250.859C512.72 248.352 514.022 245.444 514.122 242.034C514.122 237.922 514.122 233.91 514.122 229.899Z" fill="url(#paint16_linear)" stroke="#F79A8B" stroke-miterlimit="10"/>
<path d="M492.771 244.774C494.308 244.786 495.832 244.477 497.254 243.866C498.677 243.256 499.97 242.355 501.057 241.217C502.145 240.079 503.007 238.726 503.592 237.236C504.177 235.746 504.475 234.149 504.467 232.538C504.467 232.351 504.467 232.164 504.467 231.985C505.266 231.372 505.957 230.616 506.508 229.753C505.758 230.101 504.962 230.33 504.148 230.43C505.004 229.891 505.644 229.045 505.951 228.049C505.146 228.551 504.265 228.903 503.346 229.092C502.727 228.398 501.908 227.938 501.014 227.783C500.12 227.628 499.203 227.787 498.404 228.235C497.605 228.683 496.97 229.395 496.597 230.26C496.224 231.125 496.134 232.096 496.341 233.02C494.705 232.937 493.105 232.492 491.645 231.716C490.184 230.94 488.897 229.85 487.866 228.516C487.34 229.465 487.178 230.588 487.414 231.657C487.65 232.727 488.265 233.662 489.135 234.273C488.482 234.252 487.843 234.068 487.272 233.736V233.79C487.274 234.784 487.602 235.747 488.202 236.517C488.803 237.287 489.638 237.815 490.567 238.014C489.962 238.185 489.327 238.209 488.712 238.084C488.976 238.941 489.488 239.689 490.177 240.226C490.866 240.763 491.698 241.061 492.556 241.079C491.101 242.279 489.302 242.928 487.45 242.923C487.123 242.925 486.796 242.905 486.471 242.861C488.352 244.119 490.539 244.783 492.771 244.774Z" fill="white"/>
</g>
<defs>
<filter id="filter0_dd" x="98" y="-7" width="328" height="351" filterUnits="userSpaceOnUse" color-interpolation-filters="sRGB">
<feFlood flood-opacity="0" result="BackgroundImageFix"/>
<feColorMatrix in="SourceAlpha" type="matrix" values="0 0 0 0 0 0 0 0 0 0 0 0 0 0 0 0 0 0 127 0"/>
<feOffset dy="2"/>
<feGaussianBlur stdDeviation="3"/>
<feColorMatrix type="matrix" values="0 0 0 0 0.0392157 0 0 0 0 0.0901961 0 0 0 0 0.2 0 0 0 0.04 0"/>
<feBlend mode="normal" in2="BackgroundImageFix" result="effect1_dropShadow"/>
<feColorMatrix in="SourceAlpha" type="matrix" values="0 0 0 0 0 0 0 0 0 0 0 0 0 0 0 0 0 0 127 0"/>
<feOffset dy="8"/>
<feGaussianBlur stdDeviation="16"/>
<feColorMatrix type="matrix" values="0 0 0 0 0.0387097 0 0 0 0 0.0903226 0 0 0 0 0.2 0 0 0 0.08 0"/>
<feBlend mode="normal" in2="effect1_dropShadow" result="effect2_dropShadow"/>
<feBlend mode="normal" in="SourceGraphic" in2="effect2_dropShadow" result="shape"/>
</filter>
<linearGradient id="paint0_linear" x1="-15.5387" y1="166.875" x2="455.251" y2="166.875" gradientUnits="userSpaceOnUse">
<stop stop-color="#EFEFEF" stop-opacity="0.5"/>
<stop offset="0.032661" stop-color="#ECECEC" stop-opacity="0.5201"/>
<stop offset="0.2841" stop-color="#DDDDDD" stop-opacity="0.6748"/>
<stop offset="0.4876" stop-color="#D8D8D8" stop-opacity="0.8"/>
<stop offset="1" stop-color="#EFEFEF" stop-opacity="0.5"/>
</linearGradient>
<linearGradient id="paint1_linear" x1="333.307" y1="180.292" x2="543.795" y2="180.292" gradientUnits="userSpaceOnUse">
<stop stop-color="#EFEFEF" stop-opacity="0.5"/>
<stop offset="0.0250394" stop-color="#ECECEC" stop-opacity="0.5134"/>
<stop offset="0.2178" stop-color="#DDDDDD" stop-opacity="0.6165"/>
<stop offset="0.3738" stop-color="#D8D8D8" stop-opacity="0.7"/>
<stop offset="1" stop-color="#EFEFEF" stop-opacity="0.5"/>
</linearGradient>
<linearGradient id="paint2_linear" x1="31.2994" y1="76.2559" x2="241.787" y2="76.2559" gradientUnits="userSpaceOnUse">
<stop stop-color="#EFEFEF" stop-opacity="0.5"/>
<stop offset="0.0250394" stop-color="#ECECEC" stop-opacity="0.5134"/>
<stop offset="0.2178" stop-color="#DDDDDD" stop-opacity="0.6165"/>
<stop offset="0.3738" stop-color="#D8D8D8" stop-opacity="0.7"/>
<stop offset="1" stop-color="#EFEFEF" stop-opacity="0.5"/>
</linearGradient>
<linearGradient id="paint3_linear" x1="-5.83045" y1="178.1" x2="455.252" y2="178.1" gradientUnits="userSpaceOnUse">
<stop stop-color="#EFEFEF" stop-opacity="0.5"/>
<stop offset="0.0250394" stop-color="#ECECEC" stop-opacity="0.5201"/>
<stop offset="0.2178" stop-color="#DDDDDD" stop-opacity="0.6748"/>
<stop offset="0.3738" stop-color="#D8D8D8" stop-opacity="0.8"/>
<stop offset="1" stop-color="#EFEFEF" stop-opacity="0.5"/>
</linearGradient>
<linearGradient id="paint4_linear" x1="92.3432" y1="274.405" x2="211.584" y2="274.405" gradientUnits="userSpaceOnUse">
<stop stop-color="#D8D8D8" stop-opacity="0.8"/>
<stop offset="1" stop-color="#EFEFEF" stop-opacity="0.5"/>
</linearGradient>
<linearGradient id="paint5_linear" x1="348.59" y1="166.005" x2="544.018" y2="166.005" gradientUnits="userSpaceOnUse">
<stop stop-color="#EFEFEF" stop-opacity="0.5"/>
<stop offset="0.0250394" stop-color="#ECECEC" stop-opacity="0.5134"/>
<stop offset="0.2178" stop-color="#DDDDDD" stop-opacity="0.6165"/>
<stop offset="0.3738" stop-color="#D8D8D8" stop-opacity="0.7"/>
<stop offset="1" stop-color="#EFEFEF" stop-opacity="0.5"/>
</linearGradient>
<linearGradient id="paint6_linear" x1="209.81" y1="80.2427" x2="366.808" y2="80.2427" gradientUnits="userSpaceOnUse">
<stop stop-color="#FFF6F1"/>
<stop offset="0.049071" stop-color="#FDE3DC"/>
<stop offset="0.142" stop-color="#FBC3B9"/>
<stop offset="0.2298" stop-color="#F9ADA0"/>
<stop offset="0.3095" stop-color="#F79F90"/>
<stop offset="0.3738" stop-color="#F79A8B"/>
<stop offset="1" stop-color="#FFF6F1"/>
</linearGradient>
<linearGradient id="paint7_linear" x1="157.215" y1="60.607" x2="246.2" y2="60.607" gradientUnits="userSpaceOnUse">
<stop stop-color="#FFF6F1"/>
<stop offset="0.049071" stop-color="#FDE3DC"/>
<stop offset="0.142" stop-color="#FBC3B9"/>
<stop offset="0.2298" stop-color="#F9ADA0"/>
<stop offset="0.3095" stop-color="#F79F90"/>
<stop offset="0.3738" stop-color="#F79A8B"/>
<stop offset="1" stop-color="#FFF6F1"/>
</linearGradient>
<linearGradient id="paint8_linear" x1="380.972" y1="60.607" x2="291.987" y2="60.607" gradientUnits="userSpaceOnUse">
<stop stop-color="#FFF6F1"/>
<stop offset="0.00780231" stop-color="#FEF1EE" stop-opacity="0.9896"/>
<stop offset="0.0920326" stop-color="#EFC5D0" stop-opacity="0.8769"/>
<stop offset="0.1731" stop-color="#E4A2B8" stop-opacity="0.7685"/>
<stop offset="0.2491" stop-color="#DC89A7" stop-opacity="0.6668"/>
<stop offset="0.3181" stop-color="#D8799D" stop-opacity="0.5745"/>
<stop offset="0.3738" stop-color="#D67499" stop-opacity="0.5"/>
<stop offset="1" stop-color="#FFF6F1"/>
</linearGradient>
<linearGradient id="paint9_linear" x1="180.053" y1="81.4617" x2="327.79" y2="81.4617" gradientUnits="userSpaceOnUse">
<stop stop-color="#FFF6F1"/>
<stop offset="0.0142113" stop-color="#FEF1EE"/>
<stop offset="0.1676" stop-color="#EFC5D0"/>
<stop offset="0.3153" stop-color="#E4A2B8"/>
<stop offset="0.4537" stop-color="#DC89A7"/>
<stop offset="0.5794" stop-color="#D8799D"/>
<stop offset="0.6809" stop-color="#D67499"/>
<stop offset="0.725" stop-color="#D97C9F"/>
<stop offset="0.7951" stop-color="#E093AE"/>
<stop offset="0.8822" stop-color="#ECB9C7"/>
<stop offset="0.9822" stop-color="#FCECEA"/>
<stop offset="1" stop-color="#FFF6F1"/>
</linearGradient>
<linearGradient id="paint10_linear" x1="226.649" y1="91.7238" x2="312.692" y2="91.7238" gradientUnits="userSpaceOnUse">
<stop offset="0.4719" stop-color="#F79A8B"/>
<stop offset="0.5034" stop-color="#E98A91"/>
<stop offset="0.5493" stop-color="#DB7A97"/>
<stop offset="0.5842" stop-color="#D67499"/>
</linearGradient>
<linearGradient id="paint11_linear" x1="259.903" y1="49.6432" x2="279.438" y2="49.6432" gradientUnits="userSpaceOnUse">
<stop stop-color="#FCD8B6"/>
<stop offset="0.4705" stop-color="#FCD8B6"/>
<stop offset="0.4794" stop-color="#FCD8B6"/>
<stop offset="0.4941" stop-color="#F6C9B2"/>
<stop offset="0.5286" stop-color="#EBAAA9"/>
<stop offset="0.5648" stop-color="#E192A2"/>
<stop offset="0.6031" stop-color="#DB819D"/>
<stop offset="0.645" stop-color="#D7779A"/>
<stop offset="0.6968" stop-color="#D67499"/>
</linearGradient>
<linearGradient id="paint12_linear" x1="266.322" y1="96.6798" x2="274.661" y2="105.019" gradientUnits="userSpaceOnUse">
<stop offset="0.0891089" stop-color="#CEE3CD"/>
<stop offset="0.2093" stop-color="#B0D2BD"/>
<stop offset="0.3747" stop-color="#8DBDAB"/>
<stop offset="0.5101" stop-color="#77B1A0"/>
<stop offset="0.5977" stop-color="#6FAC9C"/>
<stop offset="0.7432" stop-color="#56A197"/>
<stop offset="0.8969" stop-color="#419793"/>
<stop offset="1" stop-color="#3A9492"/>
</linearGradient>
<linearGradient id="paint13_linear" x1="383.201" y1="168.034" x2="383.201" y2="265.575" gradientUnits="userSpaceOnUse">
<stop stop-color="#99D7C5"/>
<stop offset="1" stop-color="#3A9492"/>
</linearGradient>
<linearGradient id="paint14_linear" x1="305.018" y1="214.442" x2="338.746" y2="248.17" gradientUnits="userSpaceOnUse">
<stop stop-color="#FCD8B6"/>
<stop offset="0.3051" stop-color="#FFC28F"/>
<stop offset="0.4577" stop-color="#FDB88E"/>
<stop offset="0.7192" stop-color="#F79C8B"/>
<stop offset="0.7384" stop-color="#F79A8B"/>
</linearGradient>
<linearGradient id="paint15_linear" x1="427.805" y1="215.064" x2="461.63" y2="248.853" gradientUnits="userSpaceOnUse">
<stop stop-color="#FCD8B6"/>
<stop offset="0.3051" stop-color="#FFC28F"/>
<stop offset="0.4577" stop-color="#FDB88E"/>
<stop offset="0.7192" stop-color="#F79C8B"/>
<stop offset="0.7384" stop-color="#F79A8B"/>
</linearGradient>
<linearGradient id="paint16_linear" x1="478.462" y1="215.153" x2="512.287" y2="248.942" gradientUnits="userSpaceOnUse">
<stop stop-color="#FCD8B6"/>
<stop offset="0.3051" stop-color="#FFC28F"/>
<stop offset="0.4577" stop-color="#FDB88E"/>
<stop offset="0.7192" stop-color="#F79C8B"/>
<stop offset="0.7384" stop-color="#F79A8B"/>
</linearGradient>
<clipPath id="clip0">
<rect width="544" height="346" fill="white"/>
</clipPath>
<clipPath id="clip1">
<rect x="145" y="29" width="240" height="100" fill="white"/>
</clipPath>
</defs>
</svg>
